<svg width="16" height="17" viewBox="0 0 16 17" fill="none" xmlns="http://www.w3.org/2000/svg">
<path d="M15.9554 4.9952C15.9169 4.09007 15.7793 3.47078 15.5841 2.92974C15.3792 2.3717 15.1072 1.89532 14.6623 1.42574C14.2174 0.956165 13.7725 0.660128 13.2476 0.445757C12.7387 0.234788 12.1562 0.0918735 11.3048 0.0510408C10.4503 0.0102082 10.1782 0 8.00817 0C5.83493 0 5.56288 0.0102082 4.71151 0.0510408C3.86014 0.0918735 3.27762 0.238191 2.76872 0.445757C2.24061 0.663531 1.79252 0.952762 1.35083 1.42574C0.909146 1.89872 0.63069 2.3717 0.429049 2.92974C0.23381 3.47078 0.0961829 4.09007 0.0577752 4.9952C0.0193675 5.90372 0.00976562 6.19295 0.00976562 8.5C0.00976562 10.8104 0.0193675 11.0997 0.0577752 12.0048C0.0961829 12.9099 0.23381 13.5292 0.429049 14.0703C0.63389 14.6283 0.905945 15.1047 1.35083 15.5743C1.79252 16.0472 2.24061 16.3399 2.76552 16.5542C3.27442 16.7652 3.85694 16.9081 4.70831 16.949C5.56288 16.9898 5.83493 17 8.00496 17C10.1782 17 10.4503 16.9898 11.3016 16.949C12.153 16.9081 12.7355 16.7618 13.2444 16.5542C13.7693 16.3365 14.2174 16.0472 14.6591 15.5743C15.1008 15.1013 15.3792 14.6283 15.5809 14.0703C15.7793 13.5292 15.9137 12.9099 15.9522 12.0048C15.9906 11.0963 16.0002 10.807 16.0002 8.5C16.0002 6.19295 15.9938 5.90032 15.9554 4.9952ZM14.5183 11.9367C14.4831 12.767 14.3518 13.2196 14.243 13.5156C14.099 13.9103 13.9229 14.1962 13.6413 14.4956C13.3596 14.795 13.094 14.9754 12.7195 15.1353C12.4379 15.251 12.0122 15.3905 11.2344 15.4279C10.3926 15.4688 10.1398 15.479 8.00176 15.479C5.86374 15.479 5.61089 15.4688 4.76912 15.4279C3.98816 15.3905 3.56248 15.251 3.28402 15.1353C2.91275 14.9822 2.64389 14.795 2.36224 14.4956C2.08058 14.1962 1.91095 13.9137 1.76052 13.5156C1.65169 13.2162 1.52047 12.7636 1.48526 11.9367C1.44685 11.0418 1.43725 10.773 1.43725 8.5C1.43725 6.22698 1.44685 5.95817 1.48526 5.06325C1.52047 4.23299 1.65169 3.78042 1.76052 3.48439C1.90454 3.08967 2.08058 2.80384 2.36224 2.5044C2.64389 2.20496 2.90955 2.02462 3.28402 1.86469C3.56568 1.749 3.99136 1.60949 4.76912 1.57206C5.61089 1.53123 5.86374 1.52102 8.00176 1.52102C10.1398 1.52102 10.3926 1.53123 11.2344 1.57206C12.0154 1.60949 12.4411 1.749 12.7195 1.86469C13.0908 2.01781 13.3596 2.20496 13.6413 2.5044C13.9229 2.80384 14.0926 3.08627 14.243 3.48439C14.3518 3.78383 14.4831 4.23639 14.5183 5.06325C14.5567 5.95817 14.5663 6.22698 14.5663 8.5C14.5663 10.773 14.5535 11.0418 14.5183 11.9367Z" fill="white"/>
<path d="M8.0022 4.13086C5.72975 4.13086 3.89258 6.08742 3.89258 8.49996C3.89258 10.9159 5.73295 12.8691 8.0022 12.8691C10.2715 12.8691 12.1118 10.9091 12.1118 8.49996C12.1118 6.08402 10.2747 4.13086 8.0022 4.13086ZM8.0022 11.3344C6.52991 11.3344 5.33607 10.0652 5.33607 8.49996C5.33607 6.9347 6.52991 5.66549 8.0022 5.66549C9.47449 5.66549 10.6683 6.9347 10.6683 8.49996C10.6683 10.0652 9.47449 11.3344 8.0022 11.3344Z" fill="white"/>
<path d="M12.2717 4.98158C12.802 4.98158 13.2319 4.52454 13.2319 3.96076C13.2319 3.39698 12.802 2.93994 12.2717 2.93994C11.7414 2.93994 11.3115 3.39698 11.3115 3.96076C11.3115 4.52454 11.7414 4.98158 12.2717 4.98158Z" fill="white"/>
<path d="M0 8.5C0 10.8104 0.00960192 11.0997 0.0480096 12.0048C0.0864173 12.9099 0.224045 13.5292 0.419284 14.0703C0.624125 14.6283 0.896179 15.1047 1.34107 15.5743C1.78276 16.0438 2.23085 16.3399 2.75575 16.5542C3.26465 16.7652 3.84717 16.9081 4.69854 16.949C5.55311 16.9898 5.82517 17 7.9952 17C10.1684 17 10.4405 16.9898 11.2919 16.949C12.1432 16.9081 12.7257 16.7618 13.2346 16.5542C13.7596 16.3365 14.2076 16.0472 14.6493 15.5743C15.091 15.1047 15.3695 14.6283 15.5711 14.0703C15.7696 13.5292 15.904 12.9099 15.9424 12.0048C15.9808 11.0963 15.9904 10.807 15.9904 8.5C15.9904 6.18955 15.9808 5.90032 15.9424 4.9952C15.904 4.09007 15.7664 3.47078 15.5711 2.92974C15.3663 2.3717 15.0942 1.89532 14.6493 1.42574C14.2108 0.952762 13.7628 0.660128 13.2378 0.445757C12.7289 0.234788 12.1464 0.0918735 11.2951 0.0510408C10.4405 0.0102082 10.1684 0 7.9984 0C5.82516 0 5.55311 0.0102082 4.70174 0.0510408C3.85037 0.0918735 3.26785 0.238191 2.75895 0.445757C2.23405 0.663531 1.78596 0.952762 1.34427 1.42574C0.90258 1.89872 0.624125 2.3717 0.422484 2.92974C0.224045 3.47078 0.0864173 4.09007 0.0480096 4.9952C0.00960192 5.90032 0 6.18955 0 8.5ZM1.44349 8.5C1.44349 6.23038 1.45309 5.95817 1.4915 5.06325C1.52671 4.23299 1.65793 3.78042 1.76675 3.48439C1.91078 3.08967 2.08682 2.80384 2.36847 2.5044C2.65013 2.20496 2.91578 2.02462 3.29026 1.86469C3.57191 1.749 3.9976 1.60949 4.77535 1.57206C5.61712 1.53123 5.86997 1.52102 8.008 1.52102C10.146 1.52102 10.3989 1.53123 11.2406 1.57206C12.0216 1.60949 12.4473 1.749 12.7257 1.86469C13.097 2.01781 13.3659 2.20496 13.6475 2.5044C13.9292 2.80384 14.0988 3.08627 14.2493 3.48439C14.3581 3.78383 14.4893 4.23639 14.5245 5.06325C14.5629 5.95817 14.5725 6.22698 14.5725 8.5C14.5725 10.773 14.5629 11.0418 14.5245 11.9367C14.4893 12.767 14.3581 13.2196 14.2493 13.5156C14.1052 13.9103 13.9292 14.1962 13.6475 14.4956C13.3659 14.795 13.1002 14.9754 12.7257 15.1353C12.4441 15.251 12.0184 15.3905 11.2406 15.4279C10.3989 15.4688 10.146 15.479 8.008 15.479C5.86997 15.479 5.61712 15.4688 4.77535 15.4279C3.9944 15.3905 3.56871 15.251 3.29026 15.1353C2.91898 14.9822 2.65013 14.795 2.36847 14.4956C2.08682 14.1962 1.91718 13.9137 1.76675 13.5156C1.65793 13.2162 1.52671 12.7636 1.4915 11.9367C1.44989 11.0418 1.44349 10.7696 1.44349 8.5Z" fill="white"/>
</svg>
