<svg width="17" height="17" viewBox="0 0 17 17" fill="none" xmlns="http://www.w3.org/2000/svg">
<g clip-path="url(#clip0_150_1332)">
<path d="M0 2.26792C0 1.72094 0.191447 1.26968 0.574324 0.914161C0.957202 0.558621 1.45496 0.380859 2.06757 0.380859C2.66925 0.380859 3.15604 0.555881 3.52799 0.905956C3.91087 1.26696 4.10232 1.73735 4.10232 2.31715C4.10232 2.84225 3.91635 3.27982 3.5444 3.62989C3.16152 3.9909 2.6583 4.1714 2.03475 4.1714H2.01834C1.41666 4.1714 0.929864 3.9909 0.557915 3.62989C0.185966 3.26889 0 2.81489 0 2.26792ZM0.21332 16.626V5.66464H3.85618V16.626H0.21332ZM5.87452 16.626H9.51737V10.5054C9.51737 10.1225 9.56114 9.82712 9.64865 9.61928C9.8018 9.24733 10.0343 8.93281 10.346 8.67574C10.6578 8.41866 11.0489 8.29013 11.5193 8.29013C12.7445 8.29013 13.3571 9.11605 13.3571 10.7679V16.626H17V10.3413C17 8.72223 16.6171 7.49428 15.8514 6.6574C15.0856 5.82053 14.0737 5.40209 12.8156 5.40209C11.4044 5.40209 10.305 6.00924 9.51737 7.22352V7.25634H9.50097L9.51737 7.22352V5.66464H5.87452C5.89639 6.0147 5.90734 7.10318 5.90734 8.93009C5.90734 10.757 5.89639 13.3223 5.87452 16.626Z" fill="white"/>
</g>
<defs>
<clipPath id="clip0_150_1332">
<rect width="17" height="17" fill="white"/>
</clipPath>
</defs>
</svg>
