<svg width="25" height="25" viewBox="0 0 25 25" fill="none" xmlns="http://www.w3.org/2000/svg">
<g clip-path="url(#clip0_150_1333)">
<path d="M0 25L1.76695 18.5837C0.674546 16.7003 0.10148 14.5675 0.10745 12.3871C0.10745 5.5549 5.69484 0 12.5537 0C15.8847 0 19.0126 1.28921 21.3586 3.62999C23.7106 5.97077 25.0059 9.08389 25 12.3931C25 19.2253 19.4126 24.7802 12.5477 24.7802H12.5418C10.4584 24.7802 8.41093 24.2574 6.59025 23.2712L0 25ZM6.90663 21.0314L7.28271 21.2571C8.87058 22.1958 10.6913 22.6889 12.5477 22.6949H12.5537C18.2545 22.6949 22.8987 18.0787 22.8987 12.399C22.8987 9.64829 21.8242 7.06393 19.8722 5.11526C17.9202 3.16659 15.3176 2.0972 12.5537 2.0972C6.85291 2.09126 2.20869 6.70746 2.20869 12.3871C2.20869 14.3299 2.75191 16.2251 3.79059 17.8648L4.03534 18.2569L2.99069 22.0532L6.90663 21.0314Z" fill="#101E2C"/>
<path d="M0.435547 24.5663L2.1428 18.3698C1.08622 16.5578 0.531058 14.4962 0.531058 12.3931C0.537027 5.7985 5.92742 0.433716 12.5535 0.433716C15.771 0.433716 18.7856 1.68134 21.054 3.93895C23.3223 6.19655 24.57 9.20273 24.57 12.399C24.57 18.9936 19.1736 24.3584 12.5535 24.3584H12.5475C10.5358 24.3584 8.55994 23.8534 6.80493 22.9028L0.435547 24.5663Z" fill="white"/>
<path d="M0 25L1.76695 18.5837C0.674546 16.7003 0.10148 14.5675 0.10745 12.3871C0.10745 5.5549 5.69484 0 12.5537 0C15.8847 0 19.0126 1.28921 21.3586 3.62999C23.7106 5.97077 25.0059 9.08389 25 12.3931C25 19.2253 19.4126 24.7802 12.5477 24.7802H12.5418C10.4584 24.7802 8.41093 24.2574 6.59025 23.2712L0 25ZM6.90663 21.0314L7.28271 21.2571C8.87058 22.1958 10.6913 22.6889 12.5477 22.6949H12.5537C18.2545 22.6949 22.8987 18.0787 22.8987 12.399C22.8987 9.64829 21.8242 7.06393 19.8722 5.11526C17.9202 3.16659 15.3176 2.0972 12.5537 2.0972C6.85291 2.09126 2.20869 6.70746 2.20869 12.3871C2.20869 14.3299 2.75191 16.2251 3.79059 17.8648L4.03534 18.2569L2.99069 22.0532L6.90663 21.0314Z" fill="#101E2C"/>
<path fill-rule="evenodd" clip-rule="evenodd" d="M9.44398 7.20653C9.21117 6.68966 8.96642 6.67778 8.74555 6.67183C8.56647 6.66589 8.35754 6.66589 8.14861 6.66589C7.93968 6.66589 7.60539 6.74313 7.31886 7.05206C7.03233 7.361 6.23242 8.10957 6.23242 9.63643C6.23242 11.1573 7.34871 12.6307 7.50391 12.8387C7.65912 13.0466 9.65888 16.2726 12.8167 17.5143C15.4433 18.548 15.9805 18.3401 16.5476 18.2866C17.1147 18.2331 18.3862 17.538 18.6488 16.8132C18.9055 16.0884 18.9055 15.4706 18.8279 15.3398C18.7503 15.2091 18.5414 15.1319 18.231 14.9774C17.9206 14.823 16.3924 14.0744 16.1059 13.9675C15.8193 13.8665 15.6104 13.813 15.4074 14.1219C15.1985 14.4309 14.6016 15.126 14.4225 15.3339C14.2434 15.5418 14.0583 15.5656 13.7479 15.4111C13.4375 15.2567 12.4347 14.9299 11.2467 13.8724C10.3215 13.0525 9.69469 12.0366 9.51561 11.7277C9.33653 11.4187 9.4977 11.2524 9.65291 11.0979C9.7902 10.9613 9.96332 10.7355 10.1185 10.5573C10.2737 10.3791 10.3275 10.2484 10.4289 10.0404C10.5304 9.83248 10.4827 9.65425 10.4051 9.49978C10.3275 9.35125 9.71857 7.81846 9.44398 7.20653Z" fill="#101E2C"/>
</g>
<defs>
<clipPath id="clip0_150_1333">
<rect width="25" height="25" rx="6" fill="white"/>
</clipPath>
</defs>
</svg>
