<svg width="16" height="17" viewBox="0 0 16 17" fill="none" xmlns="http://www.w3.org/2000/svg">
<g clip-path="url(#clip0_150_1334)">
<path d="M2.51809 8.45913C1.88607 7.28822 1.58091 6.33209 1.3969 5.3629C1.12476 3.92949 1.74755 2.52928 2.77926 1.63584C3.21531 1.25823 3.71516 1.38724 3.97301 1.87874L4.55513 2.98835C5.01653 3.86786 5.24724 4.30761 5.20148 4.77384C5.15572 5.24006 4.84459 5.61978 4.22232 6.37921L2.51809 8.45913ZM2.51809 8.45913C3.79735 10.8292 5.8049 12.9634 8.0381 14.3241M8.0381 14.3241C9.14014 14.9957 10.04 15.3199 10.9522 15.5154C12.3013 15.8046 13.6191 15.1428 14.46 14.0466C14.8154 13.5834 14.694 13.0523 14.2314 12.7783L13.1871 12.1598C12.3593 11.6695 11.9454 11.4244 11.5066 11.473C11.0678 11.5217 10.7104 11.8522 9.99567 12.5134L8.0381 14.3241Z" stroke="white" stroke-width="1.5" stroke-linejoin="round"/>
<path d="M9.33301 4.83919C10.2818 5.26729 11.0422 6.07517 11.4451 7.08329M9.76903 1.41663C12.1272 2.13966 13.9857 4.11433 14.6663 6.61978" stroke="white" stroke-width="1.5" stroke-linecap="round"/>
</g>
<defs>
<clipPath id="clip0_150_1334">
<rect width="16" height="17" fill="white"/>
</clipPath>
</defs>
</svg>
