<svg width="86" height="86" viewBox="0 0 86 86" fill="none" xmlns="http://www.w3.org/2000/svg">
<rect width="86" height="86" rx="43" fill="#FFFAF5"/>
<g clip-path="url(#clip0_407_193)">
<path d="M42.1839 48.9181C41.1743 51.3831 40.1432 55.4323 39.6383 58.4666L39.692 58.4451L45.5941 59.922L46.1956 60.0992C46.2815 59.9327 46.3728 59.7608 46.4426 59.6051C46.0452 56.5225 44.8691 51.7053 43.7252 48.9127C44.332 48.0964 44.9604 47.5755 45.825 47.0384C45.2557 46.5981 43.9991 44.8849 43.5856 44.2244C43.4782 44.2351 43.0646 44.2405 42.9519 44.2405C42.8391 44.2405 42.4309 44.2351 42.3181 44.2244C41.9046 44.8849 40.648 46.5981 40.0787 47.0384C40.938 47.5701 41.5717 48.0964 42.1732 48.9073L42.1839 48.9181Z" fill="#FBE5D0"/>
<path d="M52.9246 46.2921C53.7893 45.6101 54.5948 45.0462 55.6206 44.4447C54.5572 42.6617 52.2533 40.9056 50.9698 40.0732C50.7228 40.0034 50.5295 39.9443 50.2771 39.8691C49.9172 47.726 48.4189 53.2682 45.5995 59.9221L46.3191 60.1369C48.8915 54.0523 50.508 48.4617 50.9645 40.954C52.1782 41.7864 53.655 43.0001 54.5733 44.2138C53.8537 44.6649 53.1932 45.1375 52.4682 45.7121L51.5552 46.4317L52.5971 46.9527C53.3221 47.3125 54.6163 48.161 55.4219 48.784C53.4724 51.9525 50.4972 56.426 47.5704 60.5128L48.3169 60.733C51.3833 56.4367 54.482 51.7591 56.3832 48.6228C55.7011 47.9999 53.8859 46.7754 52.9246 46.2921Z" fill="#F58220"/>
<path d="M35.6911 39.6382C34.9017 40.0195 31.6311 42.2106 30.2993 44.4447C31.325 45.0461 32.1306 45.61 32.9952 46.2921C32.0285 46.7754 30.2187 47.9998 29.5367 48.6228C31.2552 51.4637 33.3443 54.643 35.5676 57.7148C35.8576 57.7148 36.1422 57.731 36.4322 57.7524C34.5258 55.1102 32.5495 52.1243 30.5087 48.7839C31.3143 48.161 32.6139 47.3124 33.3335 46.9526L34.3754 46.4317L33.4624 45.7121C32.7374 45.1374 32.0769 44.6702 31.3572 44.2137C32.3454 42.9141 33.9296 41.6574 35.0198 40.9163C35.4119 47.5702 36.6363 52.5969 38.8274 58.1928C38.8382 58.1928 38.8543 58.1982 38.865 58.2036L39.6974 58.4506C37.3613 52.3982 35.9919 46.6895 35.6911 39.6436V39.6382Z" fill="#F58220"/>
<path d="M51.9096 58.0907C52.785 58.3162 53.5906 58.284 54.2941 58.1766L54.7667 57.0435C54.67 57.0596 54.5626 57.0864 54.4498 57.124C53.8591 57.3281 52.4198 57.7309 51.9096 58.0853V58.0907ZM55.8998 57.5214L55.7495 57.8812C55.8945 57.849 56.0341 57.8275 56.1576 57.8114C56.0663 57.704 55.9804 57.6073 55.8998 57.5214Z" fill="#FBE5D0"/>
<path d="M57.0813 60.0187C57.8869 59.4011 57.5431 58.3431 56.3241 58.1659C55.4326 58.0478 53.7356 58.9876 51.668 58.4505C49.8635 59.7126 50.4274 60.3678 49.3426 61.0176L50.8409 61.4633C52.2211 61.8822 53.5744 62.2689 54.9761 62.5535C55.7602 62.7146 56.5496 62.8596 57.3444 62.9992C57.5163 62.6394 57.5109 62.1776 57.2317 61.85C57.7956 61.4848 57.9352 60.4 57.0813 60.0241V60.0187Z" fill="#FBE5D0"/>
<path d="M40.0358 59.2077C32.9522 57.124 29.252 59.4225 27.9309 62.6017C34.8319 63.6436 31.7117 61.4203 37.8446 64.3149L40.0411 59.2077H40.0358Z" fill="#FBE5D0"/>
<path d="M66.4418 64.7017C67.2689 59.2186 66.8715 54.4282 66.3989 51.6786C65.4215 46.029 63.37 44.8636 61.8824 43.9775C60.5291 43.1719 59.6483 42.5812 57.1028 41.8401C55.1909 41.2816 53.032 40.6801 50.6261 39.9766L50.6422 40.7499C51.7646 41.0775 52.828 41.3782 53.8698 41.6736C54.9385 41.9797 55.9481 42.2697 56.8987 42.5436C59.1704 43.2095 60.035 43.7251 61.2219 44.4393L61.5548 44.638C62.9833 45.4866 64.7609 46.5445 65.6685 51.8021C65.98 53.5904 66.5922 58.3271 65.7652 64.213L66.4418 64.7017ZM20.1546 64.213C19.3276 58.3325 19.9398 53.5904 20.2513 51.8021C21.1589 46.5499 22.9365 45.4866 24.365 44.638L24.698 44.4393C25.8902 43.7251 26.7494 43.2095 29.0211 42.5436C29.9717 42.2643 30.9813 41.9797 32.05 41.6736C33.1241 41.3675 34.2196 41.056 35.3796 40.7177V39.9443C32.9415 40.6586 30.7504 41.2654 28.8117 41.8347C26.2661 42.5812 25.3854 43.1666 24.032 43.9721C22.5444 44.8582 20.493 46.0236 19.5156 51.6732C19.0376 54.4229 18.6456 59.2132 19.4726 64.6964L20.1493 64.2077L20.1546 64.213Z" fill="#F58220"/>
<path d="M29.7676 71.9623C19.6337 71.9409 20.6326 73.0472 19.478 64.7016L20.1546 64.2129C21.2824 72.5638 20.3157 71.1621 29.773 71.2534C35.6052 71.3125 42.5759 70.4855 47.9785 68.4662L48.2256 69.1268C42.7209 71.1836 35.6643 71.9677 29.7676 71.957V71.9623Z" fill="#F58220"/>
<path d="M57.7741 63.4288C52.8602 63.59 41.2333 59.965 41.2333 59.965L39.3054 64.5459C39.3054 64.5459 49.1385 69.3094 54.8687 70.4211C58.8267 71.1837 62.2315 71.1138 63.225 70.8561C65.0831 70.4157 64.8844 69.4974 65.7544 64.2076L66.4311 64.6963C65.6524 69.7713 65.7974 70.174 64.53 71.1192C62.7309 72.4779 56.9148 71.6885 54.7022 71.2696C48.7089 70.115 45.4652 68.2998 38.2259 64.9648C39.0476 63.0529 39.8209 61.2485 40.7822 59.0198C52.5165 62.5105 51.8452 62.4622 57.7687 63.4288H57.7741Z" fill="#F58220"/>
<path d="M60.6043 46.7163L60.3787 46.5068C60.6956 46.7968 60.5183 47.5004 59.9867 48.0804C59.455 48.6604 58.7676 48.902 58.4507 48.612L58.6763 48.8215C59.0361 49.1491 59.7557 48.9396 60.2874 48.3596C60.8191 47.7796 60.9587 47.0439 60.6043 46.7163Z" fill="#F58220"/>
<path d="M58.4131 48.5799C58.4131 48.5799 58.3863 48.5584 58.3702 48.5476C58.0533 48.2576 58.2305 47.5541 58.7622 46.9741C59.2939 46.3941 59.9813 46.1525 60.2981 46.4425C60.3089 46.4532 60.325 46.4639 60.3357 46.4801C60.0081 46.2438 59.353 46.4854 58.8428 47.0439C58.3326 47.6025 58.15 48.2738 58.4131 48.5799Z" fill="#F58220"/>
<path d="M60.325 46.5338C60.0081 46.3082 59.3852 46.5391 58.8965 47.0762C58.8696 47.1084 58.8428 47.1406 58.8159 47.1728L60.4378 46.8614C60.4324 46.7325 60.4002 46.6197 60.325 46.5338ZM60.4002 47.1836L58.5689 47.538C58.5206 47.6293 58.483 47.7206 58.4507 47.8065L60.2981 47.4521C60.3411 47.3608 60.3787 47.2695 60.4002 47.1836ZM58.4883 48.5476C58.8052 48.7732 59.4281 48.5423 59.9169 48.0052C60.0404 47.871 60.1424 47.7314 60.223 47.5917L58.4078 47.9408C58.3487 48.1878 58.3702 48.408 58.4883 48.5476Z" fill="#FBE5D0"/>
<path d="M58.7085 48.9504L57.5539 51.7054L57.7633 51.7914L58.918 49.0417C58.8428 49.0256 58.773 48.9934 58.7085 48.9504Z" fill="#F58220"/>
<path d="M57.7096 51.8666L57.5378 51.7968C57.5056 51.7807 57.4626 51.7968 57.4411 51.8183L56.8557 52.5433L57.6559 52.8763L57.7633 51.9526C57.7633 51.915 57.7472 51.8828 57.715 51.8666H57.7096Z" fill="#F58220"/>
<path d="M57.237 52.8547L56.8826 53.7032L57.1296 53.8053C57.1618 53.8214 57.178 53.859 57.1618 53.8912C57.1457 53.9234 57.1081 53.9395 57.0759 53.9234L56.8289 53.8214L56.7591 53.9879L57.0061 54.0899C57.0383 54.106 57.0544 54.1436 57.0383 54.1758C57.0222 54.208 56.9846 54.2242 56.9524 54.208L56.7054 54.106L56.6355 54.2725L56.8826 54.3745C56.9148 54.3906 56.9309 54.4282 56.9148 54.4605C56.8987 54.4927 56.8611 54.5088 56.8289 54.4927L56.5818 54.3906L56.512 54.5571L56.7591 54.6592C56.7913 54.6753 56.8074 54.7129 56.7913 54.7451C56.7752 54.7773 56.7376 54.7934 56.7054 54.7773L56.4583 54.6753L56.3885 54.8417L56.6355 54.9438C56.6678 54.9599 56.6839 54.9975 56.6678 55.0297C56.6517 55.0619 56.6141 55.078 56.5818 55.0619L56.3348 54.9599L56.265 55.1264L56.512 55.2284C56.5442 55.2445 56.5604 55.2821 56.5443 55.3143C56.5281 55.3466 56.4905 55.3627 56.4583 55.3466L56.2113 55.2445L56.1415 55.411L56.3885 55.513C56.4207 55.5292 56.4368 55.5667 56.4207 55.599C56.4046 55.6312 56.367 55.6473 56.3348 55.6312L56.0878 55.5292L56.018 55.6956L56.265 55.7977C56.2972 55.8138 56.3133 55.8514 56.2972 55.8836C56.2811 55.9158 56.2435 55.9319 56.2113 55.9158L55.9643 55.8138L55.8944 55.9803L56.1415 56.0823C56.1737 56.0984 56.1898 56.136 56.1737 56.1682C56.1576 56.2005 56.12 56.2166 56.0878 56.2005L55.8407 56.0984L55.7709 56.2649L56.018 56.3669C56.0502 56.383 56.0663 56.4206 56.0502 56.4529C56.0341 56.4851 55.9965 56.5012 55.9643 56.4851L55.7172 56.383L55.6474 56.5495L55.8944 56.6516C55.9267 56.6677 55.9428 56.7053 55.9267 56.7375C55.9105 56.7697 55.873 56.7858 55.8407 56.7697L55.5937 56.6677L55.5239 56.8342L55.7709 56.9362C55.8031 56.9523 55.8193 56.9899 55.8031 57.0221C55.787 57.0543 55.7494 57.0705 55.7172 57.0543L55.4702 56.9523L55.0137 58.0425C55.1748 58.0049 55.3305 57.9727 55.4755 57.9458L57.5431 53.0105L57.1833 52.8601L57.237 52.8547ZM55.1963 56.8073C55.1641 56.7912 55.148 56.7536 55.1641 56.7214C55.1802 56.6892 55.2178 56.673 55.25 56.6892C55.2768 56.6999 55.3467 56.5334 55.3467 56.5334C55.2876 56.5066 55.2715 56.469 55.2822 56.4367C55.2983 56.4045 55.3359 56.3884 55.3681 56.4045C55.395 56.4153 55.4648 56.2488 55.4648 56.2488C55.4057 56.2219 55.3896 56.1843 55.4004 56.1521C55.4165 56.1199 55.4541 56.1038 55.4863 56.1199C55.5131 56.1306 55.583 55.9642 55.583 55.9642C55.5239 55.9373 55.5078 55.8997 55.5185 55.8675C55.5293 55.8353 55.5722 55.8192 55.6044 55.8353C55.6313 55.846 55.7011 55.6795 55.7011 55.6795C55.642 55.6527 55.6259 55.6151 55.6367 55.5829C55.6528 55.5506 55.6904 55.5345 55.7226 55.5506C55.7494 55.5614 55.8192 55.3949 55.8192 55.3949C55.7602 55.368 55.7441 55.3305 55.7548 55.2982C55.7709 55.266 55.8085 55.2499 55.8407 55.266C55.8676 55.2767 55.9374 55.1103 55.9374 55.1103C55.8783 55.0834 55.8622 55.0458 55.873 55.0136C55.8891 54.9814 55.9267 54.9653 55.9589 54.9814C55.9857 54.9921 56.0555 54.8256 56.0555 54.8256C55.9965 54.7988 55.9804 54.7612 55.9911 54.729C56.0072 54.6967 56.0448 54.6806 56.077 54.6967C56.1039 54.7075 56.1737 54.541 56.1737 54.541C56.1146 54.5142 56.0985 54.4766 56.1092 54.4443C56.1254 54.4121 56.163 54.396 56.1952 54.4121C56.222 54.4229 56.2918 54.2564 56.2918 54.2564C56.2328 54.2295 56.2167 54.1919 56.2274 54.1597C56.2435 54.1275 56.2811 54.1114 56.3133 54.1275C56.3402 54.1382 56.41 53.9717 56.41 53.9717C56.3509 53.9449 56.3348 53.9073 56.3455 53.8751C56.3617 53.8429 56.3992 53.8267 56.4315 53.8429C56.4583 53.8536 56.5281 53.6871 56.5281 53.6871C56.4691 53.6603 56.453 53.6227 56.4637 53.5905C56.4798 53.5582 56.5174 53.5421 56.5496 53.5582C56.5765 53.569 56.9363 52.7205 56.9363 52.7205L56.7967 52.6614L54.4928 58.1499C54.5572 58.1392 54.6109 58.123 54.6754 58.1123L55.2231 56.8127L55.1963 56.8019V56.8073Z" fill="#F58220"/>
<path d="M42.9196 32.0068C40.7983 32.0068 38.7737 32.3505 37.0981 32.9789C37.4204 34.6222 37.3881 35.7822 37.125 37.0657C38.4407 39.5898 40.562 41.797 42.925 41.797C45.288 41.797 47.4039 39.5844 48.7196 37.0657C48.4565 35.7822 48.4189 34.6222 48.7411 32.9896C47.0494 32.3559 45.0302 32.0068 42.9196 32.0068Z" fill="#FBE5D0"/>
<path d="M49.5198 31.7813C49.3211 31.6954 49.1117 31.6095 48.8969 31.5289C48.8485 31.5289 48.8056 31.545 48.7572 31.5504L47.2428 31.6148C47.173 31.6148 47.1085 31.6148 47.0387 31.6148C45.9324 31.6148 44.8959 31.2228 44.1172 30.5515C43.7306 30.53 43.3332 30.5139 42.925 30.5139C42.5169 30.5139 42.1141 30.53 41.7274 30.5569C40.9487 31.2228 39.9122 31.6202 38.8059 31.6202C38.7361 31.6202 38.6717 31.6202 38.6019 31.6202L37.0874 31.5558C37.0391 31.5558 36.9961 31.5397 36.9532 31.5343C36.7384 31.6148 36.5289 31.7008 36.3302 31.7867C36.1047 31.8834 35.8952 31.9854 35.6965 32.0928C36.1315 33.6019 36.2443 34.7135 36.1852 35.8843C36.1584 36.3032 36.1208 36.7221 36.0724 37.1141C36.1959 37.4148 36.3409 37.7102 36.4859 38.0002C36.4967 38.0271 36.5074 38.0539 36.5235 38.0808C37.9521 40.825 40.3741 43.0054 42.9358 43.0054C45.4974 43.0054 47.9141 40.825 49.3426 38.0808C49.3587 38.0593 49.3695 38.0324 49.3802 38.0056C49.5306 37.7156 49.6702 37.4202 49.7937 37.1195C49.7454 36.7274 49.7078 36.3085 49.6863 35.8735C49.6326 34.9928 49.6917 34.1282 49.9172 33.1024C49.9924 32.7695 50.073 32.4311 50.1697 32.0982C49.9709 31.9961 49.7561 31.8941 49.5359 31.7921L49.5198 31.7813ZM49.1009 37.1302C47.6509 39.9765 45.3524 42.1676 42.9197 42.1676C40.4869 42.1676 38.1884 39.9765 36.7384 37.1302C37.0391 35.7554 37.0713 34.5578 36.6793 32.7534C38.2796 32.1089 40.4009 31.6471 42.9197 31.6471C45.4384 31.6471 47.5543 32.1143 49.16 32.7641C48.768 34.5685 48.8056 35.7608 49.1009 37.1302Z" fill="#F58220"/>
<path d="M51.8774 25.6805C51.6733 23.8761 50.9645 21.7387 49.407 20.0524C47.7852 18.2963 45.5457 17.3726 42.9196 17.3726C40.2935 17.3726 38.0541 18.3016 36.4322 20.0524C34.8748 21.7387 34.1659 23.8761 33.9619 25.6805L34.6224 25.5624C34.8426 23.9137 35.5032 22.0072 36.9048 20.4874C38.4246 18.844 40.4439 18.0116 42.9196 18.0116C45.3954 18.0116 47.4146 18.844 48.9345 20.4874C50.3307 22.0018 50.9967 23.9029 51.2115 25.5624L51.8774 25.6805ZM35.5354 33.3118C35.5032 33.1937 35.4119 33.1077 35.2991 33.0809C35.2722 33.0755 35.2507 33.0701 35.2239 33.0701C35.1326 33.0701 35.0413 33.1077 34.9822 33.1829C34.8856 33.2957 34.8372 33.285 34.805 33.2742C34.2089 33.0916 33.3067 30.7287 33.1617 29.5579C33.0059 28.2798 33.1778 27.6192 33.3604 27.4205L33.312 27.3561C33.1939 27.2003 33.1295 27.0177 33.0972 26.8298C32.5441 27.152 32.34 28.1402 32.5226 29.6385C32.63 30.5139 33.4946 33.5481 34.617 33.8918C34.7137 33.924 34.8641 33.9455 35.0306 33.9026C35.2776 34.7887 35.5569 35.605 35.8576 36.3676C35.8737 36.1957 35.8952 36.0239 35.9006 35.852C35.9274 35.417 35.9274 34.9874 35.8898 34.5416C35.7556 34.112 35.6374 33.6985 35.5354 33.3172V33.3118ZM52.7474 26.8244C52.7152 27.0124 52.6507 27.195 52.5326 27.3507L52.4843 27.4151C52.6722 27.6139 52.8441 28.2798 52.683 29.5526C52.538 30.7233 51.6357 33.0863 51.0396 33.2689C51.0074 33.2796 50.9591 33.2903 50.8624 33.1776C50.7872 33.0863 50.6637 33.0487 50.5456 33.0755C50.4274 33.1024 50.3361 33.1937 50.3093 33.3064C50.2126 33.677 50.0998 34.0744 49.9709 34.4933C49.9333 34.9498 49.9226 35.3955 49.9495 35.8413C49.9656 36.0131 49.987 36.1796 49.9978 36.3461C50.2985 35.5889 50.5778 34.7726 50.8195 33.8918C50.9859 33.9348 51.1363 33.9133 51.233 33.8811C52.3554 33.5427 53.22 30.5031 53.3274 29.6277C53.5154 28.124 53.3059 27.1413 52.7528 26.819L52.7474 26.8244Z" fill="#F58220"/>
<path d="M52.4896 22.3348C52.4574 20.627 52.2533 19.6067 51.3726 18.64C51.2652 18.5219 51.1202 18.4735 50.9591 18.4735C50.9859 17.5606 50.4381 16.9269 49.4983 16.1267C48.102 14.9398 45.7659 14 42.6296 14C40.7124 14 38.2367 14.3115 36.5987 15.6756C34.5418 17.378 33.6343 19.0213 33.0059 21.148C33.1241 21.2876 33.2583 21.4219 33.3926 21.5454C33.3765 21.7924 33.3604 22.0502 33.355 22.3348C33.3281 23.5324 33.3926 24.8052 33.5268 25.7772C33.5591 25.7665 33.5859 25.7504 33.6181 25.745L34.8587 25.5248H34.9339C35.0198 25.5248 35.1004 25.5463 35.1702 25.5785C35.197 25.5624 35.2239 25.5356 35.2561 25.5194C35.2507 25.4926 35.24 25.4604 35.24 25.4389C35.1702 24.9878 35.7878 24.5904 36.1583 23.57C36.2067 23.4411 36.2443 23.2961 36.2711 23.1404C37.952 23.6774 39.9713 23.8707 42.1087 23.8707C45.0517 23.8707 48.0483 22.3778 49.5681 21.0943C49.45 22.0019 49.4607 22.9417 49.6917 23.5646C50.0622 24.585 50.6798 24.9824 50.61 25.4335C50.61 25.4604 50.5939 25.4926 50.5885 25.5248C50.6207 25.5409 50.653 25.557 50.6852 25.5785C50.755 25.5409 50.8302 25.5141 50.9107 25.5141C50.9376 25.5141 51.0074 25.5248 51.0074 25.5248L52.2211 25.7396C52.2533 25.745 52.2802 25.7611 52.3124 25.7719C52.4467 24.7998 52.5111 23.527 52.4843 22.3294L52.4896 22.3348Z" fill="#F58220"/>
<path d="M52.1728 26.0081L50.9591 25.7932C50.8409 25.7718 50.7281 25.8255 50.6691 25.9221C50.6906 25.9436 50.7013 25.9758 50.7174 25.9973C50.5885 25.7986 50.3468 25.659 50.0676 25.6751L45.5189 25.9221C43.7843 26.0188 42.0496 26.0188 40.315 25.9221L35.7663 25.6751C35.487 25.659 35.2507 25.7986 35.1165 25.9973C35.1326 25.9705 35.1433 25.9436 35.1648 25.9221C35.1057 25.8308 34.993 25.7771 34.8748 25.7932L33.6611 26.0081C33.4624 26.0456 33.3174 26.2175 33.3228 26.4216V26.6471C33.3335 26.8405 33.4033 27.0338 33.5215 27.1895C33.7954 27.2701 34.0961 27.5494 34.37 28.0219L35.0252 29.1766C35.0144 29.096 35.0091 29.0101 35.0091 28.9295C35.0091 29.5095 35.2131 30.0788 35.5944 30.5514C35.9435 30.9864 36.4913 31.2495 37.0874 31.2764L38.6019 31.3408C40.1378 31.4053 41.5824 30.6749 42.3074 29.4558C42.5813 28.994 43.2472 28.994 43.5211 29.4558C44.2461 30.6749 45.6907 31.4106 47.2267 31.3408L48.7411 31.2764C49.3372 31.2495 49.885 30.9864 50.2341 30.5514C50.6154 30.0788 50.8194 29.5149 50.8194 28.9295C50.8194 29.0101 50.8194 29.096 50.8033 29.1766L51.4585 28.0219C51.7324 27.5547 52.0331 27.2701 52.307 27.1895C52.4252 27.0338 52.4896 26.8458 52.495 26.6471V26.4216C52.5057 26.2175 52.3661 26.0456 52.1674 26.0081H52.1728ZM50.3683 28.9242C50.3683 29.4075 50.2018 29.8694 49.885 30.2614C49.6165 30.5944 49.1922 30.7984 48.7304 30.8199L47.2159 30.8844C47.1568 30.8844 47.1031 30.8844 47.0441 30.8844C45.7283 30.8844 44.5361 30.2453 43.9185 29.2142C43.7091 28.8597 43.3331 28.6449 42.9196 28.6449C42.5061 28.6449 42.1356 28.8597 41.9207 29.2142C41.3085 30.2453 40.1109 30.8844 38.7952 30.8844C38.7361 30.8844 38.6824 30.8844 38.6233 30.8844L37.1089 30.8199C36.6417 30.7984 36.2228 30.5997 35.9543 30.2614C35.6374 29.8694 35.4709 29.4075 35.4709 28.9242V26.3088C35.4709 26.2121 35.5891 26.1262 35.7233 26.1262L40.2935 26.3732C41.1635 26.4216 42.0496 26.4431 42.9196 26.4431C43.7896 26.4431 44.6757 26.4162 45.5457 26.3732L50.0944 26.1262C50.2502 26.1262 50.3683 26.2121 50.3683 26.3088V28.9242Z" fill="#F58220"/>
</g>
<defs>
<clipPath id="clip0_407_193">
<rect width="47.9198" height="58" fill="white" transform="translate(19 14)"/>
</clipPath>
</defs>
</svg>
