<svg width="188" height="56" viewBox="0 0 188 56" fill="none" xmlns="http://www.w3.org/2000/svg">
<g clip-path="url(#clip0_407_494)">
<path d="M23.5918 18.566C23.5918 22.4262 21.9486 25.5517 19.9229 25.5517C17.8971 25.5517 16.254 22.4218 16.254 18.566C16.254 14.7102 17.8971 11.5803 19.9229 11.5803C21.9486 11.5803 23.5918 14.7102 23.5918 18.566Z" fill="#F58220"/>
<path d="M22.9049 22.6264C22.9918 22.1265 23.044 21.5788 23.044 21.005C23.044 18.588 22.1833 16.6362 21.1226 16.6362C20.0619 16.6362 19.2012 18.588 19.2012 21.005C19.2012 23.2046 19.9185 25.0173 20.8488 25.3216C21.6921 24.9043 22.4137 23.9349 22.9049 22.6264Z" fill="white"/>
<path d="M58.0198 14.3928C57.9937 14.019 57.972 13.6495 57.9329 13.2756L57.7894 12.1628L57.7503 11.8846L57.7416 11.815L57.7155 11.6672L57.6895 11.5412L57.5808 11.0282L57.4764 10.5196L57.4199 10.2631L57.333 9.96754L56.9678 8.7808C56.8331 8.39391 56.6636 8.04615 56.5114 7.67665C56.368 7.30715 56.168 6.95939 55.9724 6.60728C55.7811 6.25517 55.5898 5.90306 55.3464 5.57703C54.4509 4.2338 53.2902 3.02532 51.9122 2.11679C49.1736 0.260609 45.7047 -0.361017 42.527 0.199751L41.9314 0.321467L41.6359 0.382326L41.4881 0.417102L41.2881 0.473614L40.2883 0.773559L39.1407 1.20392L38.0974 1.66035C36.7454 2.28198 35.5239 2.96446 34.3676 3.47307C33.2113 3.99036 32.1332 4.32074 31.0508 4.36421C29.9728 4.42072 28.8599 4.17294 27.7297 3.76867C27.1646 3.58609 26.6038 3.29919 26.0387 3.02967L25.078 2.56019C24.7563 2.4037 24.326 2.23416 23.9521 2.07767C22.4828 1.5256 20.9527 1.16045 19.3573 1.03873C17.7706 0.921358 16.097 1.02569 14.4669 1.62558C12.8411 2.19939 11.3023 3.32961 10.3068 4.80761C10.3503 4.73805 10.2198 4.93802 10.2285 4.92932L10.2111 4.95541L10.1764 5.01192L10.1112 5.12494L9.98075 5.35099L9.71559 5.80308C9.53301 6.15519 9.34174 6.59424 9.16786 6.98982C8.86791 7.77228 8.64622 8.52432 8.48972 9.30679C8.18108 10.8543 8.12022 12.3932 8.17674 13.8799C8.30715 16.8663 8.91138 19.6919 9.54605 22.4174L10.4763 26.4863L10.7067 27.5035C6.00322 24.8257 3.44716 20.8482 2.41257 18.8833C2.86466 16.9836 1.98221 14.8927 1.98221 14.8927C2.12132 19.2571 -0.00872803 21.5002 -0.00872803 21.5002C1.43449 20.9742 2.11262 20.0179 2.38649 18.9876C4.98167 24.9213 8.14196 28.612 11.5066 30.7507L11.9934 32.6547C12.1586 33.3111 12.3629 33.9892 12.5542 34.6587L13.667 38.671C14.4321 41.3705 15.2798 44.1309 16.6404 46.7217L17.149 47.6954L17.7619 48.617L18.3792 49.5342L18.401 49.5603L18.4575 49.6342L18.5009 49.6864L18.5879 49.7864L18.7574 49.9863C18.8748 50.1211 18.9748 50.2472 19.1052 50.3863C19.7355 50.9948 20.3962 51.586 21.4613 51.7773C21.7308 51.8034 21.996 51.8425 22.2655 51.7773C22.4002 51.7556 22.535 51.7251 22.6654 51.6991L23.0175 51.5469C23.4913 51.3339 23.8261 51.0166 24.1217 50.7036C24.6911 50.0646 25.0519 49.3821 25.3562 48.704L25.5692 48.1954L25.7822 47.652L25.8213 47.5216L25.8692 47.3216C25.8996 47.1781 25.9039 47.1129 25.9213 47.0043L25.9822 46.4565C26.1082 45.0438 26.1995 43.6875 26.4082 42.3355C26.6125 40.9967 26.8951 39.6578 27.4515 38.4797C27.7297 37.8972 28.0818 37.3582 28.5469 36.967C29.0121 36.5844 29.5989 36.3888 30.2249 36.4018H30.264L30.3336 36.3932C30.8074 36.3149 31.3682 36.3888 31.7898 36.5975C32.2202 36.8105 32.5375 37.1843 32.7375 37.6321C32.794 37.7407 32.8375 37.8538 32.8679 37.9798C32.9027 38.1015 32.9505 38.2189 32.9679 38.3493L33.0374 38.7362L33.0983 39.1709C33.1765 39.7447 33.2809 40.3446 33.3808 40.9184C33.7981 43.2267 34.3198 45.5089 34.9675 47.7824C35.3022 48.9126 35.6761 50.0385 36.1455 51.1644C36.3846 51.7251 36.6411 52.2859 36.9845 52.851L37.254 53.2727C37.3497 53.4118 37.4888 53.5596 37.6105 53.703L37.7018 53.8074L37.7496 53.8595L37.7713 53.8856L37.7844 53.8987L37.8452 53.9508L38.0148 54.0899C38.1365 54.1899 38.2017 54.2682 38.3799 54.3812L38.8581 54.6942C39.0146 54.7855 39.1667 54.8507 39.3232 54.9289C39.6275 55.0941 39.9579 55.1854 40.2796 55.3071C40.9403 55.4853 41.6272 55.6201 42.3314 55.5897C43.7398 55.607 45.2091 54.9767 46.235 53.9639C47.2783 52.951 47.8652 51.6686 48.2303 50.421L48.465 49.5255L48.6737 48.6779L49.091 46.9869L50.0561 43.7223L51.1124 40.4315C51.4645 39.3361 51.8557 38.245 52.2252 37.1495L53.3685 33.8762C54.1379 31.694 54.9378 29.5161 55.742 27.3557L55.7898 27.234C56.381 25.882 56.794 24.5997 57.1461 23.239C57.5112 21.8089 57.7677 20.3483 57.9155 18.8746C58.0763 17.401 58.0894 15.9099 58.0024 14.4189L58.0198 14.3928ZM54.4335 18.5355C54.3292 19.831 54.1336 21.1307 53.838 22.4044C53.5467 23.6607 53.1511 24.9691 52.6817 26.0733L52.6338 26.182L52.6252 26.2081C51.8775 28.4294 51.1472 30.6377 50.4429 32.859L49.3953 36.1975C49.0606 37.3147 48.7041 38.4232 48.3825 39.5534L47.4131 42.9311C47.1175 44.0831 46.8001 45.2394 46.5176 46.387L45.796 49.7385C45.5612 50.721 45.1743 51.6339 44.5701 52.2772C43.9702 52.9162 43.179 53.3379 42.2531 53.377C41.7967 53.4292 41.3272 53.3553 40.8621 53.2553C40.423 53.1336 39.9101 52.938 39.6058 52.738C39.5275 52.7163 39.3841 52.5815 39.2798 52.5033L39.132 52.3946V52.3859L39.1015 52.3598L39.0494 52.3033C38.9798 52.225 38.9059 52.1685 38.8364 52.0773L38.6234 51.773C38.3408 51.36 38.0843 50.8688 37.8452 50.3776C37.3671 49.3777 36.9628 48.3127 36.5716 47.239C35.8021 45.0829 35.1414 42.8702 34.5806 40.6359C34.4415 40.0751 34.3111 39.5317 34.1937 38.9622C34.0894 38.4319 33.9459 37.732 33.6243 37.1626C33.3113 36.5757 32.7809 36.0497 32.1419 35.802C31.5203 35.5716 30.89 35.5368 30.251 35.6759C29.5033 35.602 28.6817 35.7976 28.047 36.2497C27.4037 36.7105 26.9298 37.3321 26.5603 37.9755C25.8387 39.2839 25.4605 40.6837 25.1519 42.0747C24.852 43.4614 24.665 44.8786 24.4564 46.2305L24.3694 46.713C24.3564 46.7782 24.3347 46.8869 24.326 46.9086L24.3129 46.9608L24.2695 47.0825L24.0738 47.4998L23.8521 47.9389C23.5522 48.5083 23.2044 49.0474 22.8175 49.4212C22.4133 49.8081 22.0786 49.9255 21.783 49.8559C21.4569 49.7994 21.0092 49.4299 20.6658 49.0691C20.5614 48.9517 20.4528 48.7996 20.3484 48.6648L20.1876 48.4562L20.1093 48.3518L20.0702 48.2997L20.0876 48.3171L20.0702 48.2953L19.5616 47.452L19.053 46.613L18.6314 45.7132C17.5098 43.3136 16.823 40.6837 16.197 37.9972L15.2624 33.911C15.1407 33.3894 15.0103 32.8764 14.8842 32.3548C25.3301 35.9411 36.615 27.3991 39.0407 25.4125C39.458 26.3559 40.2491 27.1774 41.7011 27.4948C41.7011 27.4948 39.3015 25.5517 38.8624 21.2046C38.8624 21.2046 38.2495 23.4433 38.9842 25.2821C27.9383 30.8681 19.8746 30.9898 14.1409 29.0336L13.8844 27.8773L13.4932 25.8299L12.6977 21.7219C12.1543 19.0137 11.6544 16.3533 11.6152 13.7625C11.5674 11.1717 11.9934 8.71124 13.3062 6.85506C13.8974 6.02912 14.7103 5.44662 15.7058 5.09886C16.7013 4.7424 17.875 4.6685 19.053 4.77283C20.2354 4.88151 21.4352 5.18145 22.5654 5.6292C22.8306 5.75091 23.0523 5.82916 23.3566 5.98131L24.2651 6.44209C24.9476 6.78985 25.6301 7.14196 26.3821 7.40279C27.8514 7.9679 29.512 8.3374 31.2291 8.25915C32.9418 8.1896 34.5676 7.65926 35.9456 7.04198C37.3366 6.4247 38.5495 5.74657 39.7275 5.21188L40.6013 4.83369L41.4055 4.52505L42.4053 4.2251L42.4661 4.20772L42.5618 4.19033L42.7748 4.14686L43.2051 4.05992C45.496 3.63391 47.8956 4.04688 49.7996 5.29447C50.7603 5.90741 51.5819 6.73334 52.2383 7.69838C52.886 8.64169 53.4337 9.798 53.7467 10.8543L53.8162 11.0586L53.8727 11.3151L53.9945 11.8237L54.1118 12.3323L54.1379 12.441L54.1466 12.5019L54.1814 12.7409L54.3292 13.6929C54.3727 14.0103 54.39 14.332 54.4205 14.6536C54.5292 15.9404 54.5422 17.2401 54.4292 18.5399L54.4335 18.5355Z" fill="#F58220"/>
<path d="M35.1544 20.0704C35.1544 20.0704 38.8798 11.2198 46.335 19.1401C46.335 19.1401 41.6793 14.9496 35.1544 20.0704Z" fill="#F58220"/>
<path d="M73.3037 10.1328C74.1861 10.1328 75.2251 10.2937 76.4161 10.624C77.5116 10.9327 78.2723 11.237 78.6897 11.5456L77.6246 15.5492C76.1858 14.5494 74.4252 14.0408 72.3517 14.0234C71.8518 14.006 71.3345 14.1669 70.7954 14.5146C70.1434 14.9189 69.7478 15.4579 69.613 16.1274C69.4218 17.0707 70.0477 17.9444 71.4866 18.7486C73.1385 19.6919 74.2818 20.544 74.9121 21.3134C75.851 22.4262 76.264 23.8086 76.151 25.4605C76.0336 27.3818 75.1164 29.0685 73.3863 30.5291C72.0039 31.7028 70.239 32.2896 68.0872 32.2896C66.9135 32.2896 65.7138 32.0853 64.4879 31.6854C63.9271 31.5333 63.1403 31.2724 62.1231 30.9073L63.1881 26.8732C64.8009 27.7557 66.4788 28.1991 68.2263 28.1991C69.1653 28.1991 69.9652 28.0078 70.6216 27.6209C71.4084 27.1428 71.7996 26.469 71.7996 25.5996C71.7996 24.3693 71.1867 23.4043 69.9565 22.7131L67.709 21.4134C67.1917 21.1047 66.844 20.8656 66.6745 20.6918C65.792 19.7311 65.3486 18.7399 65.3486 17.7184C65.3486 17.3532 65.3964 16.949 65.4921 16.5056C66.1441 16.4491 66.7962 16.1578 67.4482 15.6405C68.0612 15.1797 68.5437 14.6407 68.8871 14.0234C68.1394 14.9276 66.8483 15.3797 65.0269 15.3797C64.6444 15.3797 64.2488 15.3623 63.8445 15.3232L64.5618 12.615H65.5442C66.6571 12.615 67.5395 12.3759 68.1959 11.8934C69.7522 10.724 71.4518 10.1372 73.295 10.1372L73.3037 10.1328Z" fill="#F58220"/>
<path d="M95.804 34.1588C96.3256 34.1762 96.7386 34.0023 97.0429 33.6415L97.9079 36.2063C97.0038 37.167 95.704 37.6843 94.0173 37.7625C92.9045 37.7625 91.9916 37.3669 91.2787 36.5801C90.6658 35.9281 90.3484 35.2369 90.3311 34.5066C90.3311 34.6631 90.418 33.8545 90.6006 32.0896L92.9914 22.8696C93.0219 22.774 93.0349 22.674 93.0349 22.5827C93.0349 22.2567 92.8784 22.0045 92.5741 21.8306C92.4394 21.7133 92.2829 21.6568 92.109 21.6568C91.7612 21.6568 91.383 21.822 90.9744 22.1436C90.3745 22.6218 90.0659 22.8696 90.0485 22.8913C89.7572 23.1608 89.5269 23.4738 89.3486 23.839L87.2099 32.0853H83.215L85.6363 23.013C85.6537 22.9174 85.6667 22.8218 85.6667 22.7261C85.6667 22.4001 85.5102 22.148 85.2059 21.9784C85.0885 21.8611 84.9364 21.8046 84.7451 21.8046C84.4191 21.8046 84.0452 21.9698 83.6236 22.2958C82.9281 22.8522 82.5194 23.2174 82.3847 23.3912C82.0369 23.8346 81.7935 24.4867 81.637 25.3474H81.6109L79.8069 32.0896H75.8467L79.42 18.4921H83.3802L83.1063 19.5571C84.2409 18.8486 85.3363 18.4921 86.3883 18.4921C86.7752 18.4921 87.0882 18.5399 87.3403 18.6356C88.2227 19.0268 88.8574 19.5919 89.24 20.3353C90.7571 19.0268 92.2655 18.3748 93.7609 18.3748C94.126 18.3748 94.4434 18.4226 94.7129 18.5182C96.2908 19.2094 97.0777 20.3831 97.0777 22.035C97.0777 22.3436 97.0472 22.6218 96.9907 22.8696L94.5694 32.0896C94.5477 32.9156 94.6737 33.4807 94.9433 33.7893C95.1171 33.998 95.404 34.1241 95.8083 34.1632L95.804 34.1588Z" fill="#F58220"/>
<path d="M104.128 18.4315L100.56 32.1116H96.5733L100.142 18.4315H104.128ZM103.207 16.2102C102.555 16.2276 101.998 16.0798 101.538 15.7624C101.077 15.4451 100.846 15.0495 100.846 14.567C100.846 14.0845 101.077 13.6715 101.538 13.3151C101.998 12.9586 102.559 12.7717 103.207 12.7543C103.859 12.7369 104.415 12.8847 104.876 13.202C105.337 13.5194 105.572 13.9193 105.572 14.3975C105.572 14.8757 105.341 15.2973 104.876 15.6538C104.415 16.0102 103.859 16.1972 103.207 16.2145V16.2102Z" fill="#F58220"/>
<path d="M107.124 32.1114H103.164L108.52 11.6021H112.51L107.124 32.1114Z" fill="#F58220"/>
<path d="M114.096 27.5341C114.231 28.36 114.509 28.8686 114.931 29.0599C115.048 29.1381 115.192 29.2164 115.366 29.2903C116.748 29.312 117.948 28.7904 118.965 27.7384L117.956 31.6247C117.148 32.1463 116.287 32.4071 115.366 32.4071C114.557 32.4071 113.753 32.2072 112.944 31.8029C111.179 30.9378 110.297 29.2859 110.297 26.8473C110.297 25.5431 110.606 24.2564 111.219 22.9871C111.892 21.6047 112.823 20.4962 114.014 19.6616C115.205 18.827 116.405 18.4097 117.617 18.4097C118.287 18.4097 118.913 18.5444 119.487 18.8139C121.004 19.3312 121.764 20.4832 121.764 22.2698C121.764 22.5959 121.734 22.8958 121.677 23.161C121.408 24.3695 120.678 25.4345 119.487 26.356C118.295 27.2776 117 27.7384 115.6 27.7384C115.083 27.7384 114.583 27.6688 114.105 27.5384L114.096 27.5341ZM114.327 25.0259C114.692 25.0998 115.057 25.1389 115.422 25.1389C116.383 25.1389 117.17 24.9085 117.787 24.4477C118.417 23.8913 118.739 23.3349 118.739 22.7784C118.739 22.4698 118.622 22.1742 118.391 21.8873C118.161 21.6004 117.891 21.4569 117.583 21.4569C116.909 21.4569 116.226 21.896 115.539 22.7784C114.966 23.5087 114.561 24.2564 114.331 25.0259H114.327Z" fill="#F58220"/>
<path d="M130.156 24.0126V25.2211H126.526V27.4859H129.386V28.6553H126.526V30.9636H130.156V32.1807H125V24.0083H130.156V24.0126Z" fill="white"/>
<path d="M135.855 25.4995C135.811 25.5778 135.763 25.6343 135.711 25.669C135.659 25.7038 135.598 25.7212 135.524 25.7212C135.446 25.7212 135.359 25.6908 135.263 25.6343C135.172 25.5778 135.063 25.5126 134.937 25.4387C134.807 25.3648 134.659 25.3039 134.49 25.243C134.32 25.1865 134.116 25.1561 133.881 25.1561C133.668 25.1561 133.485 25.1822 133.325 25.23C133.168 25.2822 133.038 25.3517 132.929 25.443C132.825 25.5343 132.742 25.643 132.69 25.769C132.638 25.8951 132.612 26.0342 132.612 26.182C132.612 26.3733 132.668 26.5341 132.773 26.6602C132.881 26.7906 133.025 26.8993 133.199 26.9905C133.377 27.0818 133.577 27.1644 133.803 27.234C134.029 27.3035 134.259 27.3774 134.498 27.46C134.733 27.5426 134.968 27.6383 135.194 27.7426C135.42 27.8513 135.624 27.986 135.802 28.1512C135.981 28.3164 136.12 28.5164 136.228 28.7511C136.333 28.9902 136.389 29.2771 136.389 29.6161C136.389 29.9856 136.328 30.3291 136.202 30.6507C136.076 30.9724 135.894 31.255 135.646 31.4941C135.402 31.7332 135.107 31.9201 134.755 32.0592C134.403 32.1983 134.003 32.2635 133.551 32.2635C133.29 32.2635 133.033 32.2374 132.786 32.1896C132.529 32.1374 132.29 32.0679 132.06 31.9722C131.829 31.881 131.612 31.7636 131.408 31.6332C131.203 31.5028 131.025 31.355 130.864 31.1941L131.312 30.4638C131.351 30.4117 131.399 30.3682 131.46 30.3291C131.521 30.2943 131.581 30.2769 131.651 30.2769C131.747 30.2769 131.851 30.316 131.96 30.3943C132.068 30.4725 132.199 30.5595 132.351 30.6507C132.503 30.7464 132.677 30.829 132.881 30.9072C133.081 30.9855 133.325 31.0246 133.607 31.0246C134.042 31.0246 134.377 30.9246 134.616 30.716C134.85 30.5073 134.972 30.216 134.972 29.8292C134.972 29.6162 134.92 29.4379 134.811 29.3032C134.707 29.1684 134.559 29.0554 134.385 28.9597C134.207 28.8685 134.007 28.7902 133.781 28.725C133.555 28.6598 133.325 28.5903 133.094 28.5164C132.859 28.4381 132.629 28.3512 132.403 28.2468C132.177 28.1425 131.977 28.0034 131.799 27.8339C131.621 27.6643 131.477 27.4513 131.373 27.1992C131.264 26.9471 131.212 26.6297 131.212 26.2559C131.212 25.9603 131.268 25.669 131.39 25.3865C131.512 25.1039 131.681 24.8561 131.907 24.6344C132.134 24.4171 132.412 24.2389 132.742 24.1085C133.072 23.978 133.455 23.9128 133.885 23.9128C134.368 23.9128 134.816 23.9867 135.22 24.1389C135.629 24.2867 135.972 24.4997 136.259 24.7736L135.881 25.4908L135.855 25.4995Z" fill="white"/>
<path d="M142.053 25.4995C142.01 25.5778 141.962 25.6343 141.91 25.669C141.862 25.7038 141.797 25.7212 141.723 25.7212C141.645 25.7212 141.558 25.6908 141.467 25.6343C141.375 25.5778 141.262 25.5126 141.136 25.4387C141.01 25.3648 140.858 25.3039 140.688 25.243C140.515 25.1865 140.315 25.1561 140.08 25.1561C139.871 25.1561 139.684 25.1822 139.528 25.23C139.371 25.2822 139.237 25.3517 139.128 25.443C139.019 25.5343 138.937 25.643 138.889 25.769C138.837 25.8951 138.806 26.0342 138.806 26.182C138.806 26.3733 138.863 26.5341 138.967 26.6602C139.076 26.7906 139.219 26.8993 139.393 26.9905C139.571 27.0818 139.771 27.1644 139.997 27.234C140.223 27.3035 140.454 27.3774 140.693 27.46C140.928 27.5426 141.162 27.6383 141.388 27.7426C141.614 27.8513 141.814 27.986 141.993 28.1512C142.171 28.3164 142.31 28.5164 142.419 28.7511C142.527 28.9902 142.579 29.2771 142.579 29.6161C142.579 29.9856 142.519 30.3291 142.388 30.6507C142.262 30.9724 142.075 31.255 141.836 31.4941C141.593 31.7332 141.297 31.9201 140.945 32.0592C140.597 32.1983 140.193 32.2635 139.741 32.2635C139.48 32.2635 139.224 32.2374 138.971 32.1896C138.715 32.1374 138.476 32.0679 138.245 31.9722C138.015 31.881 137.798 31.7636 137.593 31.6332C137.389 31.5028 137.206 31.355 137.05 31.1941L137.498 30.4638C137.533 30.4117 137.58 30.3682 137.646 30.3291C137.702 30.2943 137.767 30.2769 137.837 30.2769C137.928 30.2769 138.032 30.316 138.141 30.3943C138.25 30.4725 138.38 30.5595 138.532 30.6507C138.684 30.7464 138.858 30.829 139.058 30.9072C139.263 30.9855 139.502 31.0246 139.784 31.0246C140.215 31.0246 140.549 30.9246 140.788 30.716C141.028 30.5073 141.145 30.216 141.145 29.8292C141.145 29.6162 141.093 29.4379 140.984 29.3032C140.875 29.1684 140.732 29.0554 140.558 28.9597C140.384 28.8685 140.18 28.7902 139.954 28.725C139.728 28.6598 139.502 28.5903 139.263 28.5164C139.028 28.4381 138.797 28.3512 138.576 28.2468C138.35 28.1425 138.15 28.0034 137.972 27.8339C137.793 27.6643 137.65 27.4513 137.546 27.1992C137.441 26.9471 137.385 26.6297 137.385 26.2559C137.385 25.9603 137.446 25.669 137.563 25.3865C137.685 25.1039 137.854 24.8561 138.08 24.6344C138.306 24.4171 138.584 24.2389 138.919 24.1085C139.25 23.978 139.632 23.9128 140.062 23.9128C140.545 23.9128 140.988 23.9867 141.397 24.1389C141.806 24.2867 142.149 24.4997 142.436 24.7736L142.058 25.4908L142.053 25.4995Z" fill="white"/>
<path d="M149.057 24.0126V25.2211H145.427V27.4859H148.288V28.6553H145.427V30.9636H149.057V32.1807H143.901V24.0083H149.057V24.0126Z" fill="white"/>
<path d="M151.365 24.0216C151.413 24.026 151.456 24.039 151.491 24.0564C151.526 24.0738 151.56 24.0999 151.595 24.1303C151.63 24.1607 151.665 24.2042 151.708 24.2564L155.99 29.7249C155.977 29.5945 155.968 29.4598 155.964 29.3381C155.955 29.2076 155.951 29.0903 155.951 28.9816V24.0129H157.29V32.1854H156.512C156.39 32.1854 156.29 32.1636 156.207 32.1289C156.129 32.0897 156.051 32.0202 155.977 31.9289L151.708 26.4864C151.721 26.6081 151.73 26.7255 151.734 26.8472C151.739 26.9646 151.743 27.0732 151.743 27.1732V32.1897H150.404V24.0173H151.2C151.265 24.0173 151.321 24.0173 151.365 24.026V24.0216Z" fill="white"/>
<path d="M164.819 24.0129V25.2649H162.354V32.1854H160.833V25.2649H158.368V24.0129H164.815H164.819Z" fill="white"/>
<path d="M167.414 32.1854H165.889V24.0129H167.414V32.1854Z" fill="white"/>
<path d="M176.243 32.1854H175.065C174.93 32.1854 174.826 32.1506 174.743 32.0854C174.661 32.0202 174.6 31.9376 174.556 31.8376L173.943 30.1727H170.557L169.948 31.8376C169.918 31.9245 169.861 32.0028 169.774 32.0767C169.688 32.1462 169.579 32.1854 169.453 32.1854H168.262L171.479 24.0129H173.026L176.239 32.1854H176.243ZM170.953 29.099H173.556L172.561 26.3821C172.513 26.2604 172.461 26.1212 172.409 25.9561C172.357 25.7909 172.304 25.6126 172.252 25.4214C172.2 25.6126 172.148 25.7909 172.096 25.9604C172.044 26.1256 171.996 26.269 171.944 26.3951L170.948 29.099H170.953Z" fill="white"/>
<path d="M178.612 30.9291H181.877V32.1854H177.091V24.0129H178.608V30.9291H178.612Z" fill="white"/>
<path d="M187.314 25.4998C187.271 25.578 187.223 25.6345 187.171 25.6693C187.119 25.7041 187.058 25.7215 186.98 25.7215C186.901 25.7215 186.815 25.691 186.723 25.6345C186.632 25.578 186.519 25.5128 186.393 25.4389C186.262 25.365 186.115 25.3041 185.945 25.2433C185.776 25.1868 185.571 25.1563 185.337 25.1563C185.124 25.1563 184.941 25.1824 184.78 25.2302C184.624 25.2824 184.489 25.352 184.38 25.4432C184.271 25.5345 184.193 25.6432 184.141 25.7693C184.089 25.8953 184.063 26.0344 184.063 26.1822C184.063 26.3735 184.119 26.5343 184.224 26.6604C184.332 26.7908 184.471 26.8995 184.65 26.9908C184.828 27.0821 185.028 27.1647 185.254 27.2342C185.48 27.3038 185.71 27.3777 185.949 27.4603C186.184 27.5429 186.419 27.6385 186.645 27.7428C186.871 27.8515 187.071 27.9863 187.249 28.1514C187.427 28.3166 187.571 28.5166 187.675 28.7513C187.784 28.9904 187.836 29.2773 187.836 29.6164C187.836 29.9859 187.771 30.3293 187.645 30.651C187.519 30.9727 187.336 31.2552 187.093 31.4943C186.849 31.7334 186.554 31.9203 186.202 32.0594C185.849 32.1985 185.45 32.2637 184.997 32.2637C184.737 32.2637 184.48 32.2377 184.228 32.1898C183.976 32.1377 183.732 32.0681 183.502 31.9725C183.272 31.8812 183.05 31.7638 182.85 31.6334C182.646 31.503 182.463 31.3552 182.307 31.1944L182.754 30.4641C182.789 30.4119 182.841 30.3684 182.902 30.3293C182.959 30.2945 183.028 30.2771 183.093 30.2771C183.189 30.2771 183.289 30.3163 183.398 30.3945C183.506 30.4728 183.637 30.5597 183.789 30.651C183.937 30.7466 184.115 30.8292 184.315 30.9075C184.519 30.9857 184.758 31.0248 185.041 31.0248C185.471 31.0248 185.81 30.9249 186.045 30.7162C186.28 30.5075 186.402 30.2163 186.402 29.8294C186.402 29.6164 186.349 29.4382 186.245 29.3034C186.136 29.1687 185.993 29.0556 185.819 28.96C185.641 28.8687 185.441 28.7905 185.215 28.7253C184.989 28.66 184.758 28.5905 184.524 28.5166C184.293 28.4383 184.058 28.3514 183.837 28.2471C183.611 28.1428 183.411 28.0036 183.233 27.8341C183.054 27.6646 182.915 27.4516 182.807 27.1994C182.702 26.9473 182.646 26.63 182.646 26.2561C182.646 25.9605 182.707 25.6693 182.824 25.3867C182.941 25.1042 183.111 24.8564 183.337 24.6347C183.563 24.4173 183.841 24.2391 184.176 24.1087C184.506 23.9783 184.884 23.9131 185.319 23.9131C185.802 23.9131 186.245 23.987 186.654 24.1391C187.058 24.2869 187.406 24.4999 187.693 24.7738L187.314 25.4911V25.4998Z" fill="white"/>
<path d="M70.0418 45.2788V45.9134C70.0418 46.6003 70.0157 47.1958 69.9635 47.7088C69.9114 48.2174 69.7896 48.7216 69.5984 49.2172C69.4114 49.7127 69.1289 50.1475 68.7507 50.5256C67.9552 51.3211 66.8597 51.7211 65.4643 51.7211H60.9999V39.019H65.4643C66.8597 39.019 67.9552 39.4146 68.7507 40.2101C69.1289 40.5883 69.4114 41.01 69.5984 41.4838C69.7896 41.9533 69.907 42.4315 69.9635 42.9183C70.0157 43.4052 70.0418 43.979 70.0418 44.6354V45.2788ZM68.116 45.2788C68.116 44.5485 68.103 43.9834 68.0813 43.5878C68.0595 43.1922 67.9987 42.8183 67.8943 42.4706C67.7944 42.1228 67.6422 41.8359 67.4379 41.6099C66.9163 41.0361 66.1946 40.7492 65.2774 40.7492H62.9431V49.9823H65.2774C66.199 49.9823 66.9206 49.6997 67.4379 49.1302C67.7378 48.7999 67.9291 48.3521 68.003 47.7827C68.0769 47.2132 68.116 46.3829 68.116 45.2831V45.2788Z" fill="white"/>
<path d="M81.0094 51.7167H72.8848V39.0146H81.0094V40.7491H74.8235V44.4528H80.1008V46.1699H74.8235V49.9866H81.0094V51.721V51.7167Z" fill="white"/>
<path d="M93.2162 51.7167H91.4469L85.5828 42.7792V51.7167H83.6396V39.0146H85.4176L91.2904 47.9348V39.0146H93.2162V51.7167Z" fill="white"/>
<path d="M104.327 40.7491H100.836V51.7167H98.9104V40.7491H95.4111V39.0146H104.331V40.7491H104.327Z" fill="white"/>
<path d="M115.877 51.7167H113.821L112.952 49.165H107.935L107.066 51.7167H105.01L109.665 39.0146H111.217L115.873 51.7167H115.877ZM112.413 47.5218L110.491 41.888L108.513 47.5218H112.413Z" fill="white"/>
<path d="M125.723 51.7167H117.668V39.0146H119.611V49.9822H125.727V51.7167H125.723Z" fill="white"/>
<path d="M140.842 47.9087C140.738 48.539 140.551 49.0998 140.281 49.5867C140.012 50.0779 139.681 50.4865 139.29 50.8169C138.899 51.1473 138.451 51.395 137.942 51.5602C137.434 51.7298 136.895 51.8124 136.321 51.8124C135.878 51.8124 135.46 51.7602 135.069 51.6602C134.678 51.5559 134.3 51.4037 133.943 51.1951C133.582 50.9864 133.265 50.743 132.982 50.4648C132.587 50.0561 132.304 49.6258 132.13 49.165C131.957 48.7042 131.848 48.2087 131.809 47.674C131.77 47.1393 131.748 46.3655 131.748 45.3614C131.748 44.5919 131.757 43.979 131.778 43.5226C131.8 43.0705 131.844 42.6531 131.917 42.275C131.987 41.8968 132.109 41.5447 132.274 41.2143C132.439 40.8883 132.674 40.5666 132.982 40.2536C133.426 39.8145 133.926 39.4755 134.491 39.2494C135.056 39.019 135.665 38.906 136.321 38.906C137.508 38.906 138.508 39.2407 139.312 39.9189C140.116 40.5927 140.629 41.5577 140.846 42.814H138.881C138.729 42.1489 138.434 41.6186 137.995 41.2273C137.556 40.8361 136.995 40.6405 136.321 40.6405C135.947 40.6405 135.599 40.7057 135.269 40.8404C134.939 40.9752 134.66 41.1621 134.434 41.4056C134.265 41.5925 134.134 41.7794 134.043 41.9663C133.952 42.1532 133.878 42.4054 133.817 42.714C133.761 43.0226 133.721 43.3704 133.7 43.7616C133.678 44.1485 133.669 44.6832 133.669 45.3614C133.669 46.0395 133.682 46.5655 133.7 46.948C133.717 47.3349 133.761 47.6827 133.817 47.9957C133.878 48.3086 133.952 48.5564 134.043 48.739C134.134 48.9216 134.265 49.1128 134.434 49.3172C134.66 49.5562 134.939 49.7432 135.269 49.8779C135.595 50.0127 135.947 50.0822 136.321 50.0822C136.777 50.0822 137.182 49.9909 137.529 49.8127C137.882 49.6345 138.168 49.378 138.403 49.0476C138.634 48.7173 138.799 48.3391 138.899 47.9087H140.846H140.842Z" fill="white"/>
<path d="M151.453 51.7167H143.398V39.0146H145.342V49.9822H151.453V51.7167Z" fill="white"/>
<path d="M155.583 51.7167H153.64V39.0146H155.583V51.7167Z" fill="white"/>
<path d="M168.458 51.7167H166.689L160.825 42.7792V51.7167H158.882V39.0146H160.66L166.533 47.9348V39.0146H168.458V51.7167Z" fill="white"/>
<path d="M173.71 51.7167H171.767V39.0146H173.71V51.7167Z" fill="white"/>
<path d="M185.664 47.9087C185.56 48.539 185.373 49.0998 185.103 49.5867C184.834 50.0779 184.504 50.4865 184.112 50.8169C183.721 51.1473 183.269 51.395 182.76 51.5602C182.252 51.7298 181.708 51.8124 181.135 51.8124C180.691 51.8124 180.278 51.7602 179.883 51.6602C179.491 51.5559 179.118 51.4037 178.757 51.1951C178.396 50.9864 178.079 50.743 177.796 50.4648C177.4 50.0561 177.118 49.6258 176.944 49.165C176.766 48.7042 176.661 48.2087 176.622 47.674C176.583 47.1393 176.561 46.3655 176.561 45.3614C176.561 44.5919 176.57 43.979 176.592 43.5226C176.614 43.0705 176.661 42.6531 176.731 42.275C176.805 41.8968 176.922 41.5447 177.087 41.2143C177.253 40.8883 177.487 40.5666 177.796 40.2536C178.239 39.8145 178.739 39.4755 179.304 39.2494C179.865 39.019 180.478 38.906 181.13 38.906C182.321 38.906 183.317 39.2407 184.125 39.9189C184.93 40.5927 185.442 41.5577 185.664 42.814H183.695C183.547 42.1489 183.247 41.6186 182.813 41.2273C182.373 40.8361 181.817 40.6405 181.135 40.6405C180.765 40.6405 180.413 40.7057 180.087 40.8404C179.757 40.9752 179.478 41.1621 179.252 41.4056C179.083 41.5925 178.957 41.7794 178.861 41.9663C178.77 42.1532 178.692 42.4054 178.635 42.714C178.579 43.0226 178.539 43.3704 178.518 43.7616C178.496 44.1485 178.487 44.6832 178.487 45.3614C178.487 46.0395 178.5 46.5655 178.518 46.948C178.539 47.3349 178.579 47.6827 178.635 47.9957C178.692 48.3086 178.77 48.5564 178.861 48.739C178.952 48.9216 179.083 49.1128 179.252 49.3172C179.478 49.5562 179.757 49.7432 180.087 49.8779C180.413 50.0127 180.765 50.0822 181.135 50.0822C181.595 50.0822 182 49.9909 182.347 49.8127C182.695 49.6345 182.986 49.378 183.217 49.0476C183.452 48.7173 183.617 48.3391 183.712 47.9087H185.664Z" fill="white"/>
</g>
<defs>
<clipPath id="clip0_407_494">
<rect width="187.883" height="55.5638" fill="white"/>
</clipPath>
</defs>
</svg>
