<svg width="232" height="86" viewBox="0 0 232 86" fill="none" xmlns="http://www.w3.org/2000/svg">
<path d="M67.8806 43.5025C67.8806 41.8363 67.7311 40.2341 67.4534 38.696H45.3221V47.7964H57.9686C57.4132 50.723 55.7469 53.201 53.2475 54.8672V60.7846H60.8738C65.3172 56.683 67.8806 50.6589 67.8806 43.5025Z" fill="#4285F4"/>
<path d="M45.3229 66.467C51.6675 66.467 56.9867 64.3735 60.8746 60.7846L53.2483 54.8673C51.1548 56.2772 48.4845 57.1317 45.3229 57.1317C39.2133 57.1317 34.0223 53.0088 32.1638 47.4546H24.3452V53.5215C28.2118 61.1905 36.1372 66.467 45.3229 66.467Z" fill="#34A853"/>
<path d="M32.1631 47.4335C31.6931 46.0236 31.4154 44.5283 31.4154 42.9688C31.4154 41.4094 31.6931 39.914 32.1631 38.5041V32.4373H24.3445C22.7424 35.5989 21.8238 39.1664 21.8238 42.9688C21.8238 46.7713 22.7424 50.3388 24.3445 53.5004L30.4328 48.758L32.1631 47.4335Z" fill="#FBBC05"/>
<path d="M45.3229 28.8269C48.7836 28.8269 51.8598 30.0231 54.3164 32.3303L61.0455 25.6012C56.9653 21.7987 51.6675 19.4702 45.3229 19.4702C36.1372 19.4702 28.2118 24.7467 24.3452 32.4371L32.1638 38.5039C34.0223 32.9498 39.2133 28.8269 45.3229 28.8269Z" fill="#EA4335"/>
<path d="M86.7809 25.5637C86.0809 25.5637 85.4334 25.4369 84.8384 25.1831C84.2434 24.9294 83.7227 24.575 83.2765 24.12C82.8302 23.665 82.4803 23.1313 82.2265 22.5188C81.9815 21.9063 81.859 21.2369 81.859 20.5106C81.859 19.7844 81.9771 19.115 82.2134 18.5025C82.4584 17.8813 82.7996 17.3475 83.2371 16.9013C83.6834 16.4463 84.204 16.0963 84.799 15.8513C85.394 15.5975 86.0415 15.4707 86.7415 15.4707C87.4415 15.4707 88.0671 15.5888 88.6184 15.825C89.1783 16.0613 89.6508 16.3763 90.0358 16.77C90.4208 17.155 90.6965 17.5794 90.8627 18.0432L89.2746 18.8044C89.0908 18.2969 88.7802 17.8857 88.3427 17.5707C87.9052 17.2557 87.3715 17.0982 86.7415 17.0982C86.129 17.0982 85.5865 17.2425 85.114 17.5313C84.6502 17.82 84.2871 18.2182 84.0246 18.7257C83.7709 19.2331 83.644 19.8281 83.644 20.5106C83.644 21.1931 83.7752 21.7925 84.0377 22.3088C84.309 22.8163 84.6809 23.2144 85.1534 23.5031C85.6259 23.7919 86.1684 23.9363 86.7809 23.9363C87.2796 23.9363 87.739 23.84 88.159 23.6475C88.579 23.4463 88.9159 23.1663 89.1696 22.8075C89.4233 22.44 89.5502 22.0069 89.5502 21.5081V20.76L90.364 21.4688H86.7415V19.9594H91.3352V20.9438C91.3352 21.6963 91.2083 22.3613 90.9546 22.9388C90.7008 23.5163 90.3552 24.0019 89.9177 24.3956C89.489 24.7806 89.0033 25.0738 88.4609 25.275C87.9184 25.4675 87.3584 25.5637 86.7809 25.5637ZM96.0945 25.5637C95.3945 25.5637 94.7558 25.4019 94.1783 25.0781C93.6096 24.7544 93.1546 24.3125 92.8133 23.7525C92.4808 23.1925 92.3146 22.5538 92.3146 21.8363C92.3146 21.1188 92.4808 20.48 92.8133 19.92C93.1546 19.36 93.6096 18.9182 94.1783 18.5944C94.7471 18.2707 95.3858 18.1088 96.0945 18.1088C96.7945 18.1088 97.4289 18.2707 97.9977 18.5944C98.5664 18.9182 99.017 19.36 99.3495 19.92C99.6908 20.4713 99.8614 21.11 99.8614 21.8363C99.8614 22.5538 99.6908 23.1925 99.3495 23.7525C99.0083 24.3125 98.5533 24.7544 97.9845 25.0781C97.4158 25.4019 96.7858 25.5637 96.0945 25.5637ZM96.0945 23.9888C96.4795 23.9888 96.8164 23.8969 97.1052 23.7131C97.4027 23.5294 97.6345 23.2756 97.8008 22.9519C97.9758 22.6194 98.0633 22.2475 98.0633 21.8363C98.0633 21.4163 97.9758 21.0488 97.8008 20.7338C97.6345 20.41 97.4027 20.1563 97.1052 19.9725C96.8164 19.78 96.4795 19.6838 96.0945 19.6838C95.7008 19.6838 95.3552 19.78 95.0577 19.9725C94.7602 20.1563 94.5239 20.41 94.3489 20.7338C94.1827 21.0488 94.0996 21.4163 94.0996 21.8363C94.0996 22.2475 94.1827 22.6194 94.3489 22.9519C94.5239 23.2756 94.7602 23.5294 95.0577 23.7131C95.3552 23.8969 95.7008 23.9888 96.0945 23.9888ZM104.657 25.5637C103.957 25.5637 103.318 25.4019 102.74 25.0781C102.172 24.7544 101.717 24.3125 101.375 23.7525C101.043 23.1925 100.877 22.5538 100.877 21.8363C100.877 21.1188 101.043 20.48 101.375 19.92C101.717 19.36 102.172 18.9182 102.74 18.5944C103.309 18.2707 103.948 18.1088 104.657 18.1088C105.357 18.1088 105.991 18.2707 106.56 18.5944C107.128 18.9182 107.579 19.36 107.912 19.92C108.253 20.4713 108.423 21.11 108.423 21.8363C108.423 22.5538 108.253 23.1925 107.912 23.7525C107.57 24.3125 107.115 24.7544 106.547 25.0781C105.978 25.4019 105.348 25.5637 104.657 25.5637ZM104.657 23.9888C105.042 23.9888 105.378 23.8969 105.667 23.7131C105.965 23.5294 106.197 23.2756 106.363 22.9519C106.538 22.6194 106.625 22.2475 106.625 21.8363C106.625 21.4163 106.538 21.0488 106.363 20.7338C106.197 20.41 105.965 20.1563 105.667 19.9725C105.378 19.78 105.042 19.6838 104.657 19.6838C104.263 19.6838 103.917 19.78 103.62 19.9725C103.322 20.1563 103.086 20.41 102.911 20.7338C102.745 21.0488 102.662 21.4163 102.662 21.8363C102.662 22.2475 102.745 22.6194 102.911 22.9519C103.086 23.2756 103.322 23.5294 103.62 23.7131C103.917 23.8969 104.263 23.9888 104.657 23.9888ZM113.192 28.2937C112.659 28.2937 112.164 28.2062 111.709 28.0312C111.254 27.8562 110.86 27.6112 110.528 27.2962C110.204 26.99 109.968 26.6269 109.819 26.2069L111.42 25.6031C111.525 25.9356 111.731 26.2025 112.037 26.4037C112.352 26.6137 112.737 26.7187 113.192 26.7187C113.542 26.7187 113.849 26.6531 114.111 26.5219C114.382 26.3906 114.592 26.1981 114.741 25.9444C114.89 25.6994 114.964 25.4019 114.964 25.0519V23.4244L115.292 23.8181C115.047 24.2469 114.719 24.5706 114.308 24.7894C113.897 25.0081 113.429 25.1175 112.904 25.1175C112.239 25.1175 111.644 24.9644 111.119 24.6581C110.594 24.3519 110.182 23.9319 109.885 23.3981C109.587 22.8644 109.439 22.265 109.439 21.6C109.439 20.9263 109.587 20.3269 109.885 19.8019C110.182 19.2769 110.589 18.8657 111.105 18.5682C111.622 18.2619 112.208 18.1088 112.864 18.1088C113.398 18.1088 113.866 18.2225 114.268 18.45C114.68 18.6688 115.021 18.9882 115.292 19.4081L115.056 19.8413V18.2663H116.683V25.0519C116.683 25.6731 116.53 26.2287 116.224 26.7187C115.927 27.2087 115.515 27.5937 114.99 27.8737C114.474 28.1537 113.875 28.2937 113.192 28.2937ZM113.114 23.5294C113.481 23.5294 113.8 23.4506 114.072 23.2931C114.352 23.1269 114.57 22.8994 114.728 22.6106C114.885 22.3219 114.964 21.9894 114.964 21.6131C114.964 21.2456 114.881 20.9175 114.715 20.6288C114.557 20.3313 114.338 20.0994 114.059 19.9331C113.787 19.7669 113.472 19.6838 113.114 19.6838C112.755 19.6838 112.431 19.7669 112.142 19.9331C111.854 20.0994 111.626 20.3313 111.46 20.6288C111.302 20.9175 111.224 21.2456 111.224 21.6131C111.224 21.9806 111.302 22.3088 111.46 22.5975C111.626 22.8863 111.849 23.1138 112.129 23.28C112.418 23.4463 112.746 23.5294 113.114 23.5294ZM118.289 25.4062V15.4707H120.009V25.4062H118.289ZM124.982 25.5637C124.247 25.5637 123.604 25.3975 123.053 25.065C122.502 24.7325 122.073 24.2819 121.767 23.7131C121.46 23.1444 121.307 22.5144 121.307 21.8231C121.307 21.1056 121.46 20.4713 121.767 19.92C122.082 19.36 122.506 18.9182 123.04 18.5944C123.582 18.2707 124.186 18.1088 124.851 18.1088C125.411 18.1088 125.901 18.2007 126.321 18.3844C126.75 18.5682 127.113 18.8219 127.41 19.1456C127.708 19.4694 127.935 19.8413 128.093 20.2613C128.25 20.6725 128.329 21.1188 128.329 21.6C128.329 21.7225 128.32 21.8494 128.303 21.9806C128.294 22.1119 128.272 22.2256 128.237 22.3219H122.725V21.0094H127.266L126.452 21.6263C126.531 21.2238 126.509 20.865 126.387 20.55C126.273 20.235 126.08 19.9856 125.809 19.8019C125.547 19.6181 125.227 19.5263 124.851 19.5263C124.492 19.5263 124.173 19.6181 123.893 19.8019C123.613 19.9769 123.399 20.2394 123.25 20.5894C123.11 20.9306 123.057 21.3463 123.092 21.8363C123.057 22.2738 123.114 22.6631 123.263 23.0044C123.42 23.3369 123.648 23.595 123.945 23.7788C124.252 23.9625 124.602 24.0544 124.995 24.0544C125.389 24.0544 125.722 23.9713 125.993 23.805C126.273 23.6388 126.492 23.4156 126.649 23.1356L128.04 23.8181C127.9 24.1594 127.682 24.4613 127.384 24.7238C127.087 24.9863 126.732 25.1919 126.321 25.3406C125.919 25.4894 125.472 25.5637 124.982 25.5637ZM132.11 25.4062V15.6282H135.745C136.41 15.6282 136.997 15.7507 137.504 15.9957C138.02 16.2319 138.423 16.5819 138.712 17.0457C139 17.5007 139.145 18.0563 139.145 18.7125C139.145 19.3863 138.983 19.9594 138.659 20.4319C138.344 20.9044 137.915 21.2544 137.373 21.4819L139.617 25.4062H137.596L135.194 21.1144L136.349 21.7969H133.895V25.4062H132.11ZM133.895 20.2219H135.772C136.095 20.2219 136.375 20.1606 136.612 20.0381C136.848 19.9069 137.032 19.7275 137.163 19.5C137.294 19.2725 137.36 19.01 137.36 18.7125C137.36 18.4063 137.294 18.1438 137.163 17.925C137.032 17.6975 136.848 17.5225 136.612 17.4C136.375 17.2688 136.095 17.2032 135.772 17.2032H133.895V20.2219ZM142.808 25.5637C142.31 25.5637 141.876 25.4806 141.509 25.3144C141.141 25.1481 140.857 24.9119 140.656 24.6056C140.455 24.2906 140.354 23.9275 140.354 23.5163C140.354 23.1225 140.441 22.7725 140.616 22.4663C140.791 22.1513 141.063 21.8888 141.43 21.6788C141.798 21.4688 142.261 21.32 142.821 21.2325L145.158 20.8519V22.1644L143.15 22.5056C142.808 22.5669 142.555 22.6763 142.388 22.8338C142.222 22.9913 142.139 23.1969 142.139 23.4506C142.139 23.6956 142.231 23.8925 142.415 24.0413C142.607 24.1813 142.843 24.2513 143.123 24.2513C143.482 24.2513 143.797 24.1769 144.068 24.0281C144.348 23.8706 144.563 23.6563 144.711 23.385C144.869 23.1138 144.948 22.8163 144.948 22.4925V20.655C144.948 20.3488 144.825 20.095 144.58 19.8938C144.344 19.6838 144.029 19.5788 143.635 19.5788C143.268 19.5788 142.94 19.6794 142.651 19.8806C142.371 20.0731 142.165 20.3313 142.034 20.655L140.63 19.9725C140.77 19.5963 140.988 19.2725 141.286 19.0013C141.592 18.7213 141.951 18.5025 142.362 18.345C142.773 18.1875 143.22 18.1088 143.701 18.1088C144.287 18.1088 144.803 18.2182 145.25 18.4369C145.696 18.6469 146.041 18.9444 146.286 19.3294C146.54 19.7056 146.667 20.1475 146.667 20.655V25.4062H145.04V24.1856L145.407 24.1594C145.223 24.4656 145.005 24.7238 144.751 24.9338C144.497 25.135 144.208 25.2925 143.885 25.4062C143.561 25.5112 143.202 25.5637 142.808 25.5637ZM151.383 25.485C150.578 25.485 149.952 25.2663 149.506 24.8288C149.069 24.3825 148.85 23.7569 148.85 22.9519V19.8019H147.616V18.2663H147.747C148.097 18.2663 148.369 18.1744 148.561 17.9907C148.754 17.8069 148.85 17.54 148.85 17.19V16.6388H150.569V18.2663H152.21V19.8019H150.569V22.86C150.569 23.0963 150.609 23.2975 150.687 23.4638C150.775 23.63 150.906 23.7569 151.081 23.8444C151.265 23.9319 151.497 23.9756 151.777 23.9756C151.838 23.9756 151.908 23.9713 151.987 23.9625C152.074 23.9538 152.157 23.945 152.236 23.9363V25.4062C152.114 25.4237 151.974 25.4412 151.816 25.4587C151.659 25.4762 151.514 25.485 151.383 25.485ZM153.55 25.4062V18.2663H155.269V25.4062H153.55ZM153.55 17.4657V15.6282H155.269V17.4657H153.55ZM156.857 25.4062V18.2663H158.471V19.6706L158.34 19.4213C158.506 18.9925 158.777 18.6688 159.153 18.45C159.538 18.2225 159.985 18.1088 160.492 18.1088C161.017 18.1088 161.481 18.2225 161.883 18.45C162.295 18.6775 162.614 18.9969 162.842 19.4081C163.069 19.8106 163.183 20.2788 163.183 20.8125V25.4062H161.463V21.2194C161.463 20.9044 161.402 20.6331 161.28 20.4056C161.157 20.1781 160.987 20.0031 160.768 19.8806C160.558 19.7494 160.308 19.6838 160.02 19.6838C159.74 19.6838 159.49 19.7494 159.272 19.8806C159.053 20.0031 158.882 20.1781 158.76 20.4056C158.637 20.6331 158.576 20.9044 158.576 21.2194V25.4062H156.857ZM168.102 28.2937C167.568 28.2937 167.074 28.2062 166.619 28.0312C166.164 27.8562 165.77 27.6112 165.437 27.2962C165.114 26.99 164.877 26.6269 164.729 26.2069L166.33 25.6031C166.435 25.9356 166.64 26.2025 166.947 26.4037C167.262 26.6137 167.647 26.7187 168.102 26.7187C168.452 26.7187 168.758 26.6531 169.02 26.5219C169.292 26.3906 169.502 26.1981 169.65 25.9444C169.799 25.6994 169.874 25.4019 169.874 25.0519V23.4244L170.202 23.8181C169.957 24.2469 169.629 24.5706 169.217 24.7894C168.806 25.0081 168.338 25.1175 167.813 25.1175C167.148 25.1175 166.553 24.9644 166.028 24.6581C165.503 24.3519 165.092 23.9319 164.794 23.3981C164.497 22.8644 164.348 22.265 164.348 21.6C164.348 20.9263 164.497 20.3269 164.794 19.8019C165.092 19.2769 165.499 18.8657 166.015 18.5682C166.531 18.2619 167.117 18.1088 167.774 18.1088C168.307 18.1088 168.775 18.2225 169.178 18.45C169.589 18.6688 169.93 18.9882 170.202 19.4081L169.965 19.8413V18.2663H171.593V25.0519C171.593 25.6731 171.44 26.2287 171.134 26.7187C170.836 27.2087 170.425 27.5937 169.9 27.8737C169.384 28.1537 168.784 28.2937 168.102 28.2937ZM168.023 23.5294C168.39 23.5294 168.71 23.4506 168.981 23.2931C169.261 23.1269 169.48 22.8994 169.637 22.6106C169.795 22.3219 169.874 21.9894 169.874 21.6131C169.874 21.2456 169.79 20.9175 169.624 20.6288C169.467 20.3313 169.248 20.0994 168.968 19.9331C168.697 19.7669 168.382 19.6838 168.023 19.6838C167.664 19.6838 167.34 19.7669 167.052 19.9331C166.763 20.0994 166.535 20.3313 166.369 20.6288C166.212 20.9175 166.133 21.2456 166.133 21.6131C166.133 21.9806 166.212 22.3088 166.369 22.5975C166.535 22.8863 166.759 23.1138 167.039 23.28C167.327 23.4463 167.655 23.5294 168.023 23.5294Z" fill="#6A6A6A"/>
<path d="M88.1622 51.9688V48.8188H81.6653V46.2594L87.9653 37.3016H91.2137V46.2594H93.4778V48.8188H91.2137V51.9688H88.1622ZM83.89 47.3619L83.3191 46.2594H88.1622V39.6641L88.93 39.9004L83.89 47.3619ZM96.6102 51.9688V49.0156H99.5634V51.9688H96.6102ZM108.328 52.205C107.226 52.205 106.274 52.0016 105.474 51.5947C104.686 51.1878 104.082 50.6431 103.662 49.9606C103.242 49.2781 103.032 48.5366 103.032 47.736C103.032 46.7778 103.282 45.9772 103.78 45.3341C104.292 44.691 105.04 44.2053 106.025 43.8772L105.828 44.6253C105.132 44.4153 104.575 43.9822 104.155 43.326C103.748 42.6697 103.544 41.9413 103.544 41.1407C103.544 40.3532 103.748 39.651 104.155 39.0341C104.561 38.4172 105.126 37.9382 105.848 37.5969C106.57 37.2426 107.396 37.0654 108.328 37.0654C109.26 37.0654 110.08 37.2426 110.789 37.5969C111.511 37.9382 112.075 38.4172 112.482 39.0341C112.902 39.651 113.112 40.3532 113.112 41.1407C113.112 41.9413 112.909 42.6697 112.502 43.326C112.095 43.9822 111.537 44.4219 110.829 44.645L110.651 43.8575C111.636 44.225 112.384 44.7303 112.896 45.3735C113.408 46.0035 113.664 46.7975 113.664 47.7556C113.664 48.5563 113.447 49.2978 113.014 49.9803C112.594 50.6497 111.984 51.1878 111.183 51.5947C110.382 52.0016 109.431 52.205 108.328 52.205ZM108.328 49.6456C108.788 49.6456 109.188 49.5603 109.529 49.3897C109.87 49.2191 110.133 48.9828 110.317 48.681C110.514 48.3791 110.612 48.0313 110.612 47.6375C110.612 47.2306 110.514 46.8828 110.317 46.5941C110.133 46.2922 109.87 46.0625 109.529 45.905C109.188 45.7344 108.788 45.6491 108.328 45.6491C107.882 45.6491 107.488 45.7344 107.147 45.905C106.819 46.0625 106.556 46.2922 106.36 46.5941C106.176 46.8828 106.084 47.2306 106.084 47.6375C106.084 48.0313 106.176 48.3791 106.36 48.681C106.556 48.9828 106.819 49.2191 107.147 49.3897C107.488 49.5603 107.882 49.6456 108.328 49.6456ZM108.328 43.0897C108.683 43.0897 108.985 43.011 109.234 42.8535C109.496 42.696 109.7 42.486 109.844 42.2235C109.989 41.961 110.061 41.6722 110.061 41.3572C110.061 41.0291 109.989 40.7338 109.844 40.4713C109.7 40.2088 109.496 40.0054 109.234 39.861C108.985 39.7035 108.683 39.6247 108.328 39.6247C107.987 39.6247 107.685 39.7035 107.423 39.861C107.16 40.0054 106.957 40.2088 106.812 40.4713C106.668 40.7338 106.596 41.0291 106.596 41.3572C106.596 41.6722 106.668 41.961 106.812 42.2235C106.957 42.486 107.16 42.696 107.423 42.8535C107.685 43.011 107.987 43.0897 108.328 43.0897Z" fill="#FEA500"/>
<path d="M135.745 36.6901C135.965 36.2485 136.595 36.2485 136.814 36.6901L138.606 40.2967C138.693 40.4716 138.86 40.5929 139.053 40.6215L143.037 41.2113C143.525 41.2835 143.719 41.8826 143.367 42.2278L140.491 45.0465C140.351 45.1832 140.288 45.3795 140.32 45.572L140.99 49.5432C141.072 50.0294 140.563 50.3997 140.126 50.1714L136.556 48.3069C136.383 48.2165 136.176 48.2165 136.003 48.3069L132.434 50.1714C131.997 50.3997 131.487 50.0294 131.569 49.5432L132.239 45.572C132.272 45.3795 132.208 45.1832 132.068 45.0465L129.192 42.2278C128.84 41.8826 129.035 41.2835 129.522 41.2113L133.506 40.6215C133.699 40.5929 133.866 40.4716 133.953 40.2967L135.745 36.6901Z" fill="#FCD503"/>
<path d="M152.454 36.6901C152.673 36.2485 153.303 36.2485 153.522 36.6901L155.314 40.2967C155.401 40.4716 155.568 40.5929 155.761 40.6215L159.745 41.2113C160.233 41.2835 160.428 41.8826 160.076 42.2278L157.199 45.0465C157.06 45.1832 156.996 45.3795 157.029 45.572L157.699 49.5432C157.781 50.0294 157.271 50.3997 156.834 50.1714L153.264 48.3069C153.091 48.2165 152.885 48.2165 152.712 48.3069L149.142 50.1714C148.705 50.3997 148.195 50.0294 148.277 49.5432L148.948 45.572C148.98 45.3795 148.916 45.1832 148.777 45.0465L145.901 42.2278C145.548 41.8826 145.743 41.2835 146.231 41.2113L150.215 40.6215C150.408 40.5929 150.575 40.4716 150.662 40.2967L152.454 36.6901Z" fill="#FCD503"/>
<path d="M169.162 36.6901C169.382 36.2485 170.012 36.2485 170.231 36.6901L172.023 40.2967C172.11 40.4716 172.277 40.5929 172.47 40.6215L176.454 41.2113C176.942 41.2835 177.136 41.8826 176.784 42.2278L173.908 45.0465C173.768 45.1832 173.704 45.3795 173.737 45.572L174.407 49.5432C174.489 50.0294 173.98 50.3997 173.543 50.1714L169.973 48.3069C169.8 48.2165 169.593 48.2165 169.42 48.3069L165.851 50.1714C165.414 50.3997 164.904 50.0294 164.986 49.5432L165.656 45.572C165.689 45.3795 165.625 45.1832 165.485 45.0465L162.609 42.2278C162.257 41.8826 162.451 41.2835 162.939 41.2113L166.923 40.6215C167.116 40.5929 167.283 40.4716 167.37 40.2967L169.162 36.6901Z" fill="#FCD503"/>
<path d="M185.871 36.6901C186.09 36.2485 186.72 36.2485 186.939 36.6901L188.731 40.2967C188.818 40.4716 188.985 40.5929 189.178 40.6215L193.162 41.2113C193.65 41.2835 193.845 41.8826 193.493 42.2278L190.616 45.0465C190.477 45.1832 190.413 45.3795 190.445 45.572L191.116 49.5432C191.198 50.0294 190.688 50.3997 190.251 50.1714L186.681 48.3069C186.508 48.2165 186.302 48.2165 186.129 48.3069L182.559 50.1714C182.122 50.3997 181.612 50.0294 181.694 49.5432L182.365 45.572C182.397 45.3795 182.333 45.1832 182.194 45.0465L179.317 42.2278C178.965 41.8826 179.16 41.2835 179.648 41.2113L183.632 40.6215C183.825 40.5929 183.992 40.4716 184.079 40.2967L185.871 36.6901Z" fill="#FCD503"/>
<path d="M202.587 36.6068C202.811 36.1843 203.416 36.1843 203.641 36.6068L205.54 40.1833C205.626 40.3457 205.783 40.4593 205.964 40.4912L209.952 41.1925C210.423 41.2754 210.61 41.8511 210.278 42.195L207.464 45.1068C207.336 45.239 207.276 45.4228 207.302 45.6049L207.867 49.6149C207.934 50.0886 207.444 50.4444 207.014 50.2345L203.375 48.4575C203.21 48.3768 203.017 48.3768 202.852 48.4575L199.213 50.2345C198.783 50.4444 198.293 50.0886 198.36 49.6149L198.925 45.6049C198.951 45.4228 198.891 45.239 198.764 45.1068L195.949 42.195C195.617 41.8511 195.804 41.2754 196.275 41.1925L200.263 40.4912C200.444 40.4593 200.601 40.3457 200.687 40.1833L202.587 36.6068Z" fill="#6A6A6A"/>
<mask id="mask0_407_669" style="mask-type:alpha" maskUnits="userSpaceOnUse" x="194" y="35" width="11" height="18">
<rect x="194.759" y="35.6145" width="9.84607" height="16.7085" fill="#D9D9D9"/>
</mask>
<g mask="url(#mask0_407_669)">
<path d="M202.587 36.6068C202.811 36.1843 203.416 36.1843 203.641 36.6068L205.54 40.1833C205.626 40.3457 205.783 40.4593 205.964 40.4912L209.952 41.1925C210.423 41.2754 210.61 41.8511 210.278 42.195L207.464 45.1068C207.336 45.239 207.276 45.4228 207.302 45.6049L207.867 49.6149C207.934 50.0886 207.444 50.4444 207.014 50.2345L203.375 48.4575C203.21 48.3768 203.017 48.3768 202.852 48.4575L199.213 50.2345C198.783 50.4444 198.293 50.0886 198.36 49.6149L198.925 45.6049C198.951 45.4228 198.891 45.239 198.764 45.1068L195.949 42.195C195.617 41.8511 195.804 41.2754 196.275 41.1925L200.263 40.4912C200.444 40.4593 200.601 40.3457 200.687 40.1833L202.587 36.6068Z" fill="#FCD503"/>
</g>
<path d="M84.3499 70.6494C83.8839 70.6494 83.4606 70.5608 83.08 70.3836C82.6994 70.2064 82.3778 69.9702 82.1153 69.6748C81.8528 69.373 81.6658 69.0416 81.5542 68.6806L82.263 68.4149C82.4336 68.9136 82.6994 69.2942 83.0603 69.5567C83.4213 69.8127 83.8511 69.9406 84.3499 69.9406C84.6649 69.9406 84.9405 69.8914 85.1767 69.793C85.4195 69.688 85.6066 69.5436 85.7378 69.3598C85.8691 69.1761 85.9347 68.9628 85.9347 68.72C85.9347 68.3591 85.8363 68.0802 85.6394 67.8833C85.4425 67.6864 85.1603 67.5355 84.7928 67.4305L83.4738 67.0367C82.9553 66.8858 82.555 66.6331 82.2728 66.2788C81.9972 65.9244 81.8594 65.5208 81.8594 65.068C81.8594 64.6808 81.9546 64.3396 82.1449 64.0442C82.3352 63.7424 82.5944 63.5061 82.9225 63.3355C83.2572 63.1649 83.6345 63.0796 84.0545 63.0796C84.4942 63.0796 84.888 63.1616 85.2358 63.3257C85.5902 63.4832 85.8888 63.6932 86.1316 63.9557C86.3744 64.2182 86.5483 64.5102 86.6533 64.8317L85.9642 65.1074C85.8067 64.6742 85.5606 64.3461 85.2259 64.123C84.8978 63.8999 84.5106 63.7883 84.0644 63.7883C83.7822 63.7883 83.5328 63.8375 83.3163 63.936C83.1063 64.0344 82.9422 64.1755 82.8241 64.3592C82.706 64.543 82.6469 64.7596 82.6469 65.0089C82.6469 65.3108 82.742 65.5831 82.9324 65.826C83.1227 66.0622 83.4147 66.2394 83.8085 66.3575L84.97 66.702C85.5475 66.8727 85.9839 67.1188 86.2792 67.4403C86.5745 67.7619 86.7222 68.1655 86.7222 68.6511C86.7222 69.0448 86.6205 69.3927 86.417 69.6945C86.2202 69.9898 85.9413 70.2228 85.5803 70.3934C85.2259 70.5641 84.8158 70.6494 84.3499 70.6494ZM90.5365 70.6494C90.0443 70.6494 89.598 70.5312 89.1977 70.295C88.804 70.0522 88.4923 69.7208 88.2626 69.3008C88.0329 68.8808 87.918 68.405 87.918 67.8734C87.918 67.3419 88.0296 66.8727 88.2527 66.4658C88.4759 66.0524 88.7777 65.7275 89.1584 65.4913C89.5455 65.255 89.9787 65.1369 90.4577 65.1369C90.8383 65.1369 91.1763 65.2091 91.4716 65.3535C91.7735 65.4913 92.0294 65.6816 92.2394 65.9244C92.4494 66.1606 92.6102 66.4297 92.7218 66.7316C92.8333 67.0269 92.8891 67.332 92.8891 67.647C92.8891 67.7127 92.8858 67.7881 92.8793 67.8734C92.8727 67.9522 92.8629 68.0342 92.8497 68.1195H88.3905V67.4305H92.4265L92.0721 67.7258C92.1312 67.3649 92.0885 67.0433 91.9441 66.7611C91.8063 66.4724 91.6062 66.246 91.3437 66.0819C91.0812 65.9113 90.7858 65.826 90.4577 65.826C90.1296 65.826 89.8244 65.9113 89.5423 66.0819C89.2666 66.2525 89.0501 66.492 88.8926 66.8005C88.7351 67.1024 88.6727 67.4633 88.7055 67.8833C88.6727 68.3033 88.7384 68.6708 88.9024 68.9858C89.073 69.2942 89.3027 69.5338 89.5915 69.7044C89.8868 69.875 90.2018 69.9603 90.5365 69.9603C90.9237 69.9603 91.2485 69.8684 91.511 69.6847C91.7735 69.5009 91.9868 69.2713 92.1508 68.9956L92.7808 69.3303C92.6758 69.5666 92.5151 69.7864 92.2985 69.9898C92.0819 70.1867 91.8227 70.3475 91.5208 70.4722C91.2255 70.5903 90.8974 70.6494 90.5365 70.6494ZM96.5927 70.6494C96.1005 70.6494 95.6542 70.5312 95.2539 70.295C94.8602 70.0522 94.5485 69.7208 94.3188 69.3008C94.0891 68.8808 93.9742 68.405 93.9742 67.8734C93.9742 67.3419 94.0858 66.8727 94.3089 66.4658C94.532 66.0524 94.8339 65.7275 95.2145 65.4913C95.6017 65.255 96.0349 65.1369 96.5139 65.1369C96.8945 65.1369 97.2325 65.2091 97.5278 65.3535C97.8297 65.4913 98.0856 65.6816 98.2956 65.9244C98.5056 66.1606 98.6664 66.4297 98.778 66.7316C98.8895 67.0269 98.9453 67.332 98.9453 67.647C98.9453 67.7127 98.942 67.7881 98.9355 67.8734C98.9289 67.9522 98.9191 68.0342 98.9059 68.1195H94.4467V67.4305H98.4827L98.1283 67.7258C98.1873 67.3649 98.1447 67.0433 98.0003 66.7611C97.8625 66.4724 97.6623 66.246 97.3998 66.0819C97.1373 65.9113 96.842 65.826 96.5139 65.826C96.1858 65.826 95.8806 65.9113 95.5984 66.0819C95.3228 66.2525 95.1063 66.492 94.9488 66.8005C94.7913 67.1024 94.7289 67.4633 94.7617 67.8833C94.7289 68.3033 94.7945 68.6708 94.9586 68.9858C95.1292 69.2942 95.3589 69.5338 95.6477 69.7044C95.943 69.875 96.258 69.9603 96.5927 69.9603C96.9798 69.9603 97.3047 69.8684 97.5672 69.6847C97.8297 69.5009 98.043 69.2713 98.207 68.9956L98.837 69.3303C98.732 69.5666 98.5712 69.7864 98.3547 69.9898C98.1381 70.1867 97.8789 70.3475 97.577 70.4722C97.2817 70.5903 96.9536 70.6494 96.5927 70.6494ZM103.445 70.6494C103.111 70.6494 102.812 70.587 102.55 70.4623C102.287 70.3311 102.08 70.1539 101.929 69.9308C101.779 69.7077 101.703 69.4517 101.703 69.163C101.703 68.8874 101.762 68.638 101.88 68.4149C101.998 68.1852 102.182 67.9916 102.432 67.8341C102.681 67.6766 102.999 67.565 103.386 67.4994L105.454 67.1549V67.8242L103.564 68.1392C103.183 68.2049 102.907 68.3263 102.737 68.5034C102.573 68.6806 102.491 68.8906 102.491 69.1334C102.491 69.3697 102.582 69.5698 102.766 69.7339C102.957 69.898 103.199 69.98 103.495 69.98C103.856 69.98 104.171 69.9045 104.44 69.7536C104.709 69.5961 104.919 69.3861 105.07 69.1236C105.221 68.8611 105.296 68.5691 105.296 68.2475V66.9088C105.296 66.5938 105.181 66.3378 104.952 66.141C104.722 65.9441 104.423 65.8456 104.056 65.8456C103.734 65.8456 103.452 65.9277 103.209 66.0917C102.966 66.2492 102.786 66.456 102.668 66.7119L101.998 66.3477C102.097 66.1245 102.251 65.9211 102.461 65.7374C102.678 65.5536 102.924 65.4092 103.199 65.3042C103.475 65.1927 103.76 65.1369 104.056 65.1369C104.443 65.1369 104.784 65.2124 105.079 65.3633C105.381 65.5142 105.614 65.7242 105.778 65.9933C105.949 66.2558 106.034 66.561 106.034 66.9088V70.5312H105.296V69.478L105.404 69.5863C105.312 69.7831 105.168 69.9636 104.971 70.1277C104.781 70.2852 104.554 70.4131 104.292 70.5116C104.036 70.6034 103.754 70.6494 103.445 70.6494ZM107.553 70.5312V63.0796H108.291V70.5312H107.553ZM109.802 70.5312V63.0796H110.541V70.5312H109.802ZM116.195 70.6494C115.696 70.6494 115.244 70.5312 114.837 70.295C114.43 70.0522 114.105 69.7241 113.862 69.3106C113.626 68.8906 113.508 68.4149 113.508 67.8833C113.508 67.3583 113.626 66.8891 113.862 66.4756C114.098 66.0622 114.417 65.7374 114.817 65.5011C115.224 65.2583 115.683 65.1369 116.195 65.1369C116.707 65.1369 117.163 65.255 117.563 65.4913C117.97 65.7275 118.289 66.0524 118.518 66.4658C118.755 66.8792 118.873 67.3517 118.873 67.8833C118.873 68.4214 118.751 68.9005 118.508 69.3205C118.266 69.7339 117.941 70.0588 117.534 70.295C117.134 70.5312 116.687 70.6494 116.195 70.6494ZM116.195 69.9111C116.55 69.9111 116.868 69.8225 117.15 69.6453C117.439 69.4681 117.665 69.2253 117.829 68.9169C118 68.6084 118.085 68.2639 118.085 67.8833C118.085 67.5027 118 67.1614 117.829 66.8595C117.665 66.5577 117.439 66.3181 117.15 66.141C116.868 65.9638 116.55 65.8752 116.195 65.8752C115.841 65.8752 115.519 65.9638 115.23 66.141C114.948 66.3181 114.722 66.5577 114.551 66.8595C114.381 67.1614 114.295 67.5027 114.295 67.8833C114.295 68.2639 114.381 68.6084 114.551 68.9169C114.722 69.2253 114.948 69.4681 115.23 69.6453C115.519 69.8225 115.841 69.9111 116.195 69.9111ZM122.045 70.6494C121.678 70.6494 121.343 70.5641 121.041 70.3934C120.739 70.2163 120.5 69.9734 120.322 69.665C120.152 69.35 120.066 68.9891 120.066 68.5822V65.255H120.805V68.4936C120.805 68.7758 120.861 69.0252 120.972 69.2417C121.09 69.4517 121.251 69.6158 121.454 69.7339C121.664 69.852 121.904 69.9111 122.173 69.9111C122.442 69.9111 122.682 69.852 122.892 69.7339C123.102 69.6092 123.266 69.4353 123.384 69.2122C123.502 68.9825 123.561 68.7102 123.561 68.3952V65.255H124.299V70.5312H123.561V69.5075L123.728 69.5469C123.604 69.8881 123.39 70.1572 123.088 70.3541C122.787 70.5509 122.439 70.6494 122.045 70.6494ZM125.818 70.5312V65.255H126.556V66.1213L126.457 65.9933C126.582 65.7439 126.769 65.5471 127.018 65.4027C127.274 65.2583 127.583 65.1861 127.944 65.1861H128.278V65.9244H127.816C127.435 65.9244 127.13 66.0425 126.9 66.2788C126.671 66.515 126.556 66.8497 126.556 67.2828V70.5312H125.818ZM130.816 70.5312V65.255H131.555V66.1213L131.456 65.9933C131.581 65.7439 131.768 65.5471 132.017 65.4027C132.273 65.2583 132.582 65.1861 132.943 65.1861H133.277V65.9244H132.815C132.434 65.9244 132.129 66.0425 131.899 66.2788C131.669 66.515 131.555 66.8497 131.555 67.2828V70.5312H130.816ZM136.544 70.6494C136.052 70.6494 135.606 70.5312 135.206 70.295C134.812 70.0522 134.5 69.7208 134.27 69.3008C134.041 68.8808 133.926 68.405 133.926 67.8734C133.926 67.3419 134.037 66.8727 134.261 66.4658C134.484 66.0524 134.786 65.7275 135.166 65.4913C135.553 65.255 135.986 65.1369 136.466 65.1369C136.846 65.1369 137.184 65.2091 137.479 65.3535C137.781 65.4913 138.037 65.6816 138.247 65.9244C138.457 66.1606 138.618 66.4297 138.73 66.7316C138.841 67.0269 138.897 67.332 138.897 67.647C138.897 67.7127 138.894 67.7881 138.887 67.8734C138.881 67.9522 138.871 68.0342 138.858 68.1195H134.398V67.4305H138.434L138.08 67.7258C138.139 67.3649 138.096 67.0433 137.952 66.7611C137.814 66.4724 137.614 66.246 137.351 66.0819C137.089 65.9113 136.794 65.826 136.466 65.826C136.137 65.826 135.832 65.9113 135.55 66.0819C135.274 66.2525 135.058 66.492 134.9 66.8005C134.743 67.1024 134.681 67.4633 134.713 67.8833C134.681 68.3033 134.746 68.6708 134.91 68.9858C135.081 69.2942 135.311 69.5338 135.599 69.7044C135.895 69.875 136.21 69.9603 136.544 69.9603C136.931 69.9603 137.256 69.8684 137.519 69.6847C137.781 69.5009 137.995 69.2713 138.159 68.9956L138.789 69.3303C138.684 69.5666 138.523 69.7864 138.306 69.9898C138.09 70.1867 137.831 70.3475 137.529 70.4722C137.233 70.5903 136.905 70.6494 136.544 70.6494ZM141.51 70.5312L139.453 65.255H140.28L142.012 69.8816H141.746L143.489 65.255H144.325L142.248 70.5312H141.51ZM145.188 70.5312V65.255H145.926V70.5312H145.188ZM145.188 64.2805V63.1977H145.926V64.2805H145.188ZM149.839 70.6494C149.347 70.6494 148.901 70.5312 148.5 70.295C148.107 70.0522 147.795 69.7208 147.565 69.3008C147.335 68.8808 147.221 68.405 147.221 67.8734C147.221 67.3419 147.332 66.8727 147.555 66.4658C147.778 66.0524 148.08 65.7275 148.461 65.4913C148.848 65.255 149.281 65.1369 149.76 65.1369C150.141 65.1369 150.479 65.2091 150.774 65.3535C151.076 65.4913 151.332 65.6816 151.542 65.9244C151.752 66.1606 151.913 66.4297 152.024 66.7316C152.136 67.0269 152.192 67.332 152.192 67.647C152.192 67.7127 152.188 67.7881 152.182 67.8734C152.175 67.9522 152.165 68.0342 152.152 68.1195H147.693V67.4305H151.729L151.375 67.7258C151.434 67.3649 151.391 67.0433 151.247 66.7611C151.109 66.4724 150.909 66.246 150.646 66.0819C150.384 65.9113 150.088 65.826 149.76 65.826C149.432 65.826 149.127 65.9113 148.845 66.0819C148.569 66.2525 148.353 66.492 148.195 66.8005C148.038 67.1024 147.975 67.4633 148.008 67.8833C147.975 68.3033 148.041 68.6708 148.205 68.9858C148.376 69.2942 148.605 69.5338 148.894 69.7044C149.189 69.875 149.504 69.9603 149.839 69.9603C150.226 69.9603 150.551 69.8684 150.814 69.6847C151.076 69.5009 151.289 69.2713 151.453 68.9956L152.083 69.3303C151.978 69.5666 151.818 69.7864 151.601 69.9898C151.385 70.1867 151.125 70.3475 150.823 70.4722C150.528 70.5903 150.2 70.6494 149.839 70.6494ZM154.655 70.5312L152.844 65.255H153.68L155.177 69.8717H154.881L156.289 65.255H157.027L158.435 69.8717H158.14L159.646 65.255H160.473L158.661 70.5312H157.923L156.555 66.013H156.761L155.393 70.5312H154.655ZM163.169 70.6494C162.663 70.6494 162.22 70.5214 161.84 70.2655C161.459 70.0095 161.183 69.6617 161.013 69.222L161.633 68.9267C161.784 69.2483 161.994 69.5042 162.263 69.6945C162.539 69.8848 162.84 69.98 163.169 69.98C163.484 69.98 163.749 69.9045 163.966 69.7536C164.182 69.5961 164.291 69.3927 164.291 69.1433C164.291 68.9595 164.238 68.8152 164.133 68.7102C164.028 68.5986 163.907 68.5133 163.769 68.4542C163.631 68.3952 163.51 68.3525 163.405 68.3263L162.647 68.1097C162.161 67.9719 161.81 67.7783 161.594 67.5289C161.377 67.2795 161.269 66.9908 161.269 66.6627C161.269 66.3542 161.347 66.0852 161.505 65.8555C161.662 65.6258 161.876 65.4486 162.145 65.3239C162.414 65.1992 162.712 65.1369 163.041 65.1369C163.487 65.1369 163.89 65.255 164.251 65.4913C164.619 65.721 164.878 66.0425 165.029 66.456L164.399 66.7513C164.268 66.456 164.077 66.2263 163.828 66.0622C163.585 65.8916 163.313 65.8063 163.011 65.8063C162.716 65.8063 162.479 65.8817 162.302 66.0327C162.125 66.1836 162.036 66.3739 162.036 66.6036C162.036 66.7808 162.082 66.9219 162.174 67.0269C162.266 67.1319 162.371 67.2106 162.489 67.2631C162.614 67.3156 162.722 67.355 162.814 67.3813L163.69 67.6372C164.117 67.7619 164.448 67.9555 164.684 68.218C164.927 68.4805 165.049 68.7889 165.049 69.1433C165.049 69.432 164.967 69.6913 164.803 69.9209C164.645 70.1506 164.425 70.3311 164.143 70.4623C163.861 70.587 163.536 70.6494 163.169 70.6494Z" fill="#868686"/>
</svg>
