<svg width="52" height="52" viewBox="0 0 52 52" fill="none" xmlns="http://www.w3.org/2000/svg">
<path d="M48.8808 26.5025C48.8808 24.8363 48.7312 23.2341 48.4535 21.696H26.3223V30.7964H38.9687C38.4133 33.723 36.747 36.201 34.2476 37.8672V43.7846H41.874C46.3173 39.683 48.8808 33.6589 48.8808 26.5025Z" fill="#4285F4"/>
<path d="M26.3229 49.467C32.6675 49.467 37.9867 47.3735 41.8746 43.7846L34.2483 37.8673C32.1548 39.2772 29.4845 40.1317 26.3229 40.1317C20.2133 40.1317 15.0223 36.0088 13.1638 30.4546H5.34521V36.5215C9.21178 44.1905 17.1372 49.467 26.3229 49.467Z" fill="#34A853"/>
<path d="M13.163 30.4335C12.6931 29.0236 12.4154 27.5283 12.4154 25.9688C12.4154 24.4094 12.6931 22.914 13.163 21.5041V15.4373H5.34447C3.74231 18.5989 2.82373 22.1664 2.82373 25.9688C2.82373 29.7713 3.74231 33.3388 5.34447 36.5004L11.4327 31.758L13.163 30.4335Z" fill="#FBBC05"/>
<path d="M26.3229 11.8269C29.7836 11.8269 32.8598 13.0231 35.3164 15.3303L42.0455 8.60117C37.9653 4.7987 32.6675 2.47021 26.3229 2.47021C17.1372 2.47021 9.21178 7.74668 5.34521 15.4371L13.1638 21.5039C15.0223 15.9498 20.2133 11.8269 26.3229 11.8269Z" fill="#EA4335"/>
</svg>
