<svg width="50" height="50" viewBox="0 0 50 50" fill="none" xmlns="http://www.w3.org/2000/svg">
<g opacity="0.5">
<circle cx="17.6777" cy="17.6777" r="17.1976" transform="matrix(-0.707107 0.707107 0.707107 0.707107 25.0001 0)" stroke="#9E9E9E" stroke-width="0.96015"/>
<mask id="path-2-inside-1_407_110" fill="white">
<path d="M19.4985 25.9078L23.79 29.3776C23.9053 29.4675 24.052 29.5093 24.1987 29.4938C24.3454 29.4783 24.4802 29.4069 24.5742 29.2949C24.6681 29.1829 24.7136 29.0393 24.701 28.895C24.6883 28.7507 24.6184 28.6173 24.5064 28.5235L21.2614 25.8998L31.1071 24.947C31.2556 24.9327 31.3924 24.8609 31.4874 24.7477C31.5824 24.6344 31.6279 24.4888 31.6138 24.343C31.5997 24.1972 31.5271 24.063 31.4122 23.97C31.2972 23.8771 31.1492 23.8329 31.0007 23.8473L21.155 24.8001L23.8367 21.6029C23.8852 21.547 23.922 21.4822 23.9448 21.4123C23.9677 21.3424 23.9762 21.2687 23.9697 21.1957C23.9633 21.1226 23.9421 21.0516 23.9075 20.9867C23.8728 20.9219 23.8253 20.8645 23.7677 20.8179C23.7101 20.7714 23.6437 20.7366 23.5722 20.7156C23.5007 20.6946 23.4256 20.6879 23.3514 20.6957C23.2771 20.7035 23.2051 20.7258 23.1396 20.7612C23.0741 20.7967 23.0163 20.8445 22.9698 20.902L19.4232 25.1303C19.3282 25.2436 19.2828 25.3891 19.2969 25.5349C19.311 25.6807 19.3835 25.8149 19.4985 25.9078Z"/>
</mask>
<path d="M19.4985 25.9078L23.79 29.3776C23.9053 29.4675 24.052 29.5093 24.1987 29.4938C24.3454 29.4783 24.4802 29.4069 24.5742 29.2949C24.6681 29.1829 24.7136 29.0393 24.701 28.895C24.6883 28.7507 24.6184 28.6173 24.5064 28.5235L21.2614 25.8998L31.1071 24.947C31.2556 24.9327 31.3924 24.8609 31.4874 24.7477C31.5824 24.6344 31.6279 24.4888 31.6138 24.343C31.5997 24.1972 31.5271 24.063 31.4122 23.97C31.2972 23.8771 31.1492 23.8329 31.0007 23.8473L21.155 24.8001L23.8367 21.6029C23.8852 21.547 23.922 21.4822 23.9448 21.4123C23.9677 21.3424 23.9762 21.2687 23.9697 21.1957C23.9633 21.1226 23.9421 21.0516 23.9075 20.9867C23.8728 20.9219 23.8253 20.8645 23.7677 20.8179C23.7101 20.7714 23.6437 20.7366 23.5722 20.7156C23.5007 20.6946 23.4256 20.6879 23.3514 20.6957C23.2771 20.7035 23.2051 20.7258 23.1396 20.7612C23.0741 20.7967 23.0163 20.8445 22.9698 20.902L19.4232 25.1303C19.3282 25.2436 19.2828 25.3891 19.2969 25.5349C19.311 25.6807 19.3835 25.8149 19.4985 25.9078Z" fill="#9E9E9E"/>
<path d="M19.4985 25.9078L6.61778 41.8342L6.62018 41.8362L19.4985 25.9078ZM23.79 29.3776L10.9117 45.3059L11.0501 45.4178L11.1903 45.5272L23.79 29.3776ZM24.5064 28.5235L37.6596 12.8214L37.5231 12.7071L37.3847 12.5951L24.5064 28.5235ZM21.2614 25.8998L19.2883 5.51189L-30.5669 10.3366L8.3831 41.8282L21.2614 25.8998ZM31.6138 24.343L52.0017 22.37L31.6138 24.343ZM21.155 24.8001L5.46136 11.6368L-26.7272 50.0128L23.128 45.1881L21.155 24.8001ZM23.8367 21.6029L8.37407 8.16902L8.25739 8.30332L8.14306 8.43962L23.8367 21.6029ZM22.9698 20.902L38.6634 34.0654L38.7778 33.929L38.8898 33.7906L22.9698 20.902ZM19.4232 25.1303L3.72962 11.967L3.72763 11.9694L19.4232 25.1303ZM6.62018 41.8362L10.9117 45.3059L36.6682 13.4493L32.3767 9.9795L6.62018 41.8362ZM11.1903 45.5272C15.5292 48.9124 20.9734 50.4304 26.3457 49.8642L22.0518 9.12343C27.1307 8.58813 32.2813 10.0227 36.3896 13.228L11.1903 45.5272ZM26.3457 49.8642C31.7182 49.2979 36.7286 46.6777 40.2677 42.4582L8.88056 16.1316C12.2318 12.1362 16.9726 9.65875 22.0518 9.12343L26.3457 49.8642ZM40.2677 42.4582C43.8177 38.2259 45.5986 32.7149 45.1056 27.1025L4.29634 30.6876C3.82863 25.3637 5.51848 20.14 8.88056 16.1316L40.2677 42.4582ZM45.1056 27.1025C44.6125 21.4897 41.8973 16.3712 37.6596 12.8214L11.3532 44.2256C7.3395 40.8634 4.76408 36.0118 4.29634 30.6876L45.1056 27.1025ZM37.3847 12.5951L34.1396 9.97151L8.3831 41.8282L11.6281 44.4518L37.3847 12.5951ZM23.2344 46.2878L33.0802 45.335L29.1341 4.55907L19.2883 5.51189L23.2344 46.2878ZM33.0802 45.335C38.5185 44.8087 43.6014 42.1786 47.181 37.911L15.7938 11.5844C19.1834 7.54324 23.9928 5.05662 29.1341 4.55907L33.0802 45.335ZM47.181 37.911C50.7719 33.6298 52.5507 28.0428 52.0017 22.37L11.2258 26.316C10.7051 20.9348 12.393 15.6389 15.7938 11.5844L47.181 37.911ZM52.0017 22.37C51.4527 16.6971 48.6356 11.5548 44.2904 8.04172L18.5339 39.8984C14.4187 36.5712 11.7466 31.6972 11.2258 26.316L52.0017 22.37ZM44.2904 8.04172C39.9589 4.53963 34.466 2.93306 29.0277 3.45935L32.9737 44.2353C27.8324 44.7328 22.6355 43.2145 18.5339 39.8984L44.2904 8.04172ZM29.0277 3.45935L19.1819 4.41217L23.128 45.1881L32.9737 44.2353L29.0277 3.45935ZM36.8485 37.9634L39.5302 34.7662L8.14306 8.43962L5.46136 11.6368L36.8485 37.9634ZM39.2992 35.0369C41.1304 32.9291 42.5363 30.4634 43.4149 27.7747L4.47482 15.05C5.30772 12.5011 6.64 10.165 8.37407 8.16902L39.2992 35.0369ZM43.4149 27.7747C44.2938 25.0851 44.6234 22.2378 44.3744 19.4031L3.56513 22.9882C3.32893 20.2997 3.64162 17.5997 4.47482 15.05L43.4149 27.7747ZM44.3744 19.4031C44.1253 16.5683 43.3042 13.8214 41.969 11.3253L5.84591 30.6481C4.5801 28.2817 3.80133 25.6769 3.56513 22.9882L44.3744 19.4031ZM41.969 11.3253C40.6342 8.83001 38.8186 6.64623 36.646 4.88962L10.8894 36.7463C8.83191 35.0827 7.11132 33.0137 5.84591 30.6481L41.969 11.3253ZM36.646 4.88962C34.4743 3.13382 31.9891 1.83914 29.343 1.06217L17.8013 40.3691C15.2982 39.6341 12.9459 38.409 10.8894 36.7463L36.646 4.88962ZM29.343 1.06217C26.6977 0.285421 23.9325 0.0377988 21.2044 0.325324L25.4983 41.0661C22.9188 41.3379 20.3037 41.1039 17.8013 40.3691L29.343 1.06217ZM21.2044 0.325324C18.4762 0.612863 15.8227 1.43165 13.3966 2.74357L32.8825 38.7789C30.5874 40.02 28.0779 40.7942 25.4983 41.0661L21.2044 0.325324ZM13.3966 2.74357C10.9699 4.05582 8.80821 5.84144 7.04976 8.01349L38.8898 33.7906C37.2244 35.8476 35.1782 37.5375 32.8825 38.7789L13.3966 2.74357ZM7.27617 7.73873L3.72962 11.967L35.1168 38.2936L38.6634 34.0654L7.27617 7.73873ZM3.72763 11.9694C0.138059 16.2503 -1.63992 21.8363 -1.09104 27.508L39.6849 23.5619C40.2055 28.942 38.5184 34.2369 35.1188 38.2913L3.72763 11.9694ZM-1.09104 27.508C-0.542166 33.1797 2.27394 38.3211 6.61778 41.8342L32.3791 9.98144C36.4931 13.3087 39.1642 18.1818 39.6849 23.5619L-1.09104 27.508Z" fill="#9E9E9E" mask="url(#path-2-inside-1_407_110)"/>
</g>
</svg>
