<svg width="1340" height="426" viewBox="0 0 1340 426" fill="none" xmlns="http://www.w3.org/2000/svg">
<path d="M2001.05 448H-661L-657.725 446.157L235.519 -55H1104.53L1104.76 -54.8765L2001.05 447.991V448ZM-653.48 446.033H1993.54L1104.03 -53.0332H236.039L-653.48 446.033Z" fill="#F99D50" fill-opacity="0.5"/>
<path d="M1201.86 -0.237061H138.181V1.72976H1201.86V-0.237061Z" fill="#F99D50" fill-opacity="0.5"/>
<path d="M1244.94 23.9207H95.1179V25.8875H1244.94V23.9207Z" fill="#F99D50" fill-opacity="0.5"/>
<path d="M1295.59 52.3472H44.4545V54.314H1295.59V52.3472Z" fill="#F99D50" fill-opacity="0.5"/>
<path d="M1356.04 86.26H-15.9879V88.2268H1356.04V86.26Z" fill="#F99D50" fill-opacity="0.5"/>
<path d="M1429.41 127.431H-89.3705V129.398H1429.41V127.431Z" fill="#F99D50" fill-opacity="0.5"/>
<path d="M1520.37 178.454H-180.326V180.421H1520.37V178.454Z" fill="#F99D50" fill-opacity="0.5"/>
<path d="M1636.08 243.378H-296.03V245.345H1636.08V243.378Z" fill="#F99D50" fill-opacity="0.5"/>
<path d="M1788.25 328.746H-448.188V330.713H1788.25V328.746Z" fill="#F99D50" fill-opacity="0.5"/>
<path d="M289.704 -54.4685L-492.101 445.921L-491.04 447.578L290.765 -52.8123L289.704 -54.4685Z" fill="#F99D50" fill-opacity="0.5"/>
<path d="M344.009 -54.607L-326.185 445.85L-325.006 447.426L345.187 -53.0315L344.009 -54.607Z" fill="#F99D50" fill-opacity="0.5"/>
<path d="M397.961 -54.6397L-160.215 446.345L-158.899 447.809L399.276 -53.1764L397.961 -54.6397Z" fill="#F99D50" fill-opacity="0.5"/>
<path d="M451.979 -54.96L5.87219 446.43L7.34314 447.737L453.45 -53.6532L451.979 -54.96Z" fill="#F99D50" fill-opacity="0.5"/>
<path d="M505.969 -54.8958L171.866 446.653L173.505 447.743L507.608 -53.8059L505.969 -54.8958Z" fill="#F99D50" fill-opacity="0.5"/>
<path d="M560.837 -54.2762L337.071 446.531L338.869 447.333L562.634 -53.4743L560.837 -54.2762Z" fill="#F99D50" fill-opacity="0.5"/>
<path d="M614.673 -54.3481L503.143 446.708L505.064 447.136L616.594 -53.921L614.673 -54.3481Z" fill="#F99D50" fill-opacity="0.5"/>
<path d="M671.01 -54.0122H669.042V447.021H671.01V-54.0122Z" fill="#F99D50" fill-opacity="0.5"/>
<path d="M725.254 -54.182L723.333 -53.7546L834.95 447.283L836.871 446.855L725.254 -54.182Z" fill="#F99D50" fill-opacity="0.5"/>
<path d="M779.486 -54.3503L777.688 -53.5503L1000.93 447.491L1002.73 446.691L779.486 -54.3503Z" fill="#F99D50" fill-opacity="0.5"/>
<path d="M833.678 -54.5941L832.042 -53.5017L1166.93 447.522L1168.57 446.43L833.678 -54.5941Z" fill="#F99D50" fill-opacity="0.5"/>
<path d="M887.857 -54.8094L886.387 -53.5012L1332.93 447.5L1334.4 446.192L887.857 -54.8094Z" fill="#F99D50" fill-opacity="0.5"/>
<path d="M942.018 -54.9017L940.703 -53.4385L1498.88 447.547L1500.19 446.083L942.018 -54.9017Z" fill="#F99D50" fill-opacity="0.5"/>
<path d="M1664.89 447.806L995.132 -53.2271L996.306 -54.7971L1666.07 446.236L1664.89 447.806Z" fill="#F99D50" fill-opacity="0.5"/>
<path d="M1050.6 -54.751L1049.53 -53.0957L1830.9 447.976L1831.96 446.32L1050.6 -54.751Z" fill="#F99D50" fill-opacity="0.5"/>
</svg>
