<svg width="179" height="25" viewBox="0 0 179 25" fill="none" xmlns="http://www.w3.org/2000/svg">
<path d="M12.193 13.4408L12.6336 10.5401H9.87785V8.65854C9.87785 7.86476 10.2621 7.09058 11.4963 7.09058H12.75V4.62104C12.75 4.62104 11.6128 4.42505 10.526 4.42505C8.25548 4.42505 6.77283 5.81465 6.77283 8.32927V10.5401H4.25V13.4408H6.77283V20.4535C7.27934 20.5339 7.79749 20.575 8.32534 20.575C8.8532 20.575 9.37135 20.5339 9.87785 20.4535V13.4408H12.193Z" fill="white"/>
<path d="M54.9552 8.9952C54.9168 8.09007 54.7791 7.47078 54.5839 6.92974C54.3791 6.3717 54.107 5.89532 53.6621 5.42574C53.2172 4.95616 52.7723 4.66013 52.2474 4.44576C51.7385 4.23479 51.156 4.09187 50.3046 4.05104C49.4501 4.01021 49.178 4 47.008 4C44.8347 4 44.5627 4.01021 43.7113 4.05104C42.86 4.09187 42.2774 4.23819 41.7685 4.44576C41.2404 4.66353 40.7923 4.95276 40.3507 5.42574C39.909 5.89872 39.6305 6.3717 39.4289 6.92974C39.2336 7.47078 39.096 8.09007 39.0576 8.9952C39.0192 9.90372 39.0096 10.193 39.0096 12.5C39.0096 14.8104 39.0192 15.0997 39.0576 16.0048C39.096 16.9099 39.2336 17.5292 39.4289 18.0703C39.6337 18.6283 39.9058 19.1047 40.3507 19.5743C40.7923 20.0472 41.2404 20.3399 41.7653 20.5542C42.2742 20.7652 42.8568 20.9081 43.7081 20.949C44.5627 20.9898 44.8347 21 47.0048 21C49.178 21 49.4501 20.9898 50.3014 20.949C51.1528 20.9081 51.7353 20.7618 52.2442 20.5542C52.7691 20.3365 53.2172 20.0472 53.6589 19.5743C54.1006 19.1013 54.3791 18.6283 54.5807 18.0703C54.7791 17.5292 54.9136 16.9099 54.952 16.0048C54.9904 15.0963 55 14.807 55 12.5C55 10.193 54.9936 9.90032 54.9552 8.9952ZM53.5181 15.9367C53.4829 16.767 53.3517 17.2196 53.2428 17.5156C53.0988 17.9103 52.9228 18.1962 52.6411 18.4956C52.3595 18.795 52.0938 18.9754 51.7193 19.1353C51.4377 19.251 51.012 19.3905 50.2342 19.4279C49.3925 19.4688 49.1396 19.479 47.0016 19.479C44.8636 19.479 44.6107 19.4688 43.7689 19.4279C42.988 19.3905 42.5623 19.251 42.2838 19.1353C41.9126 18.9822 41.6437 18.795 41.3621 18.4956C41.0804 18.1962 40.9108 17.9137 40.7603 17.5156C40.6515 17.2162 40.5203 16.7636 40.4851 15.9367C40.4467 15.0418 40.4371 14.773 40.4371 12.5C40.4371 10.227 40.4467 9.95817 40.4851 9.06325C40.5203 8.23299 40.6515 7.78042 40.7603 7.48439C40.9044 7.08967 41.0804 6.80384 41.3621 6.5044C41.6437 6.20496 41.9094 6.02462 42.2838 5.86469C42.5655 5.749 42.9912 5.60949 43.7689 5.57206C44.6107 5.53123 44.8636 5.52102 47.0016 5.52102C49.1396 5.52102 49.3925 5.53123 50.2342 5.57206C51.0152 5.60949 51.4409 5.749 51.7193 5.86469C52.0906 6.01781 52.3595 6.20496 52.6411 6.5044C52.9228 6.80384 53.0924 7.08627 53.2428 7.48439C53.3517 7.78383 53.4829 8.23639 53.5181 9.06325C53.5565 9.95817 53.5661 10.227 53.5661 12.5C53.5661 14.773 53.5533 15.0418 53.5181 15.9367Z" fill="white"/>
<path d="M47.0016 8.13086C44.7291 8.13086 42.892 10.0874 42.892 12.5C42.892 14.9159 44.7323 16.8691 47.0016 16.8691C49.2708 16.8691 51.1112 14.9091 51.1112 12.5C51.1112 10.084 49.274 8.13086 47.0016 8.13086ZM47.0016 15.3344C45.5293 15.3344 44.3355 14.0652 44.3355 12.5C44.3355 10.9347 45.5293 9.66549 47.0016 9.66549C48.4739 9.66549 49.6677 10.9347 49.6677 12.5C49.6677 14.0652 48.4739 15.3344 47.0016 15.3344Z" fill="white"/>
<path d="M51.2712 8.98158C51.8015 8.98158 52.2314 8.52454 52.2314 7.96076C52.2314 7.39698 51.8015 6.93994 51.2712 6.93994C50.7409 6.93994 50.311 7.39698 50.311 7.96076C50.311 8.52454 50.7409 8.98158 51.2712 8.98158Z" fill="white"/>
<path d="M39 12.5C39 14.8104 39.0096 15.0997 39.048 16.0048C39.0864 16.9099 39.224 17.5292 39.4193 18.0703C39.6241 18.6283 39.8962 19.1047 40.3411 19.5743C40.7828 20.0438 41.2308 20.3399 41.7558 20.5542C42.2647 20.7652 42.8472 20.9081 43.6985 20.949C44.5531 20.9898 44.8252 21 46.9952 21C49.1684 21 49.4405 20.9898 50.2919 20.949C51.1432 20.9081 51.7257 20.7618 52.2346 20.5542C52.7596 20.3365 53.2076 20.0472 53.6493 19.5743C54.091 19.1047 54.3695 18.6283 54.5711 18.0703C54.7696 17.5292 54.904 16.9099 54.9424 16.0048C54.9808 15.0963 54.9904 14.807 54.9904 12.5C54.9904 10.1896 54.9808 9.90032 54.9424 8.9952C54.904 8.09007 54.7664 7.47078 54.5711 6.92974C54.3663 6.3717 54.0942 5.89532 53.6493 5.42574C53.2108 4.95276 52.7628 4.66013 52.2378 4.44576C51.7289 4.23479 51.1464 4.09187 50.2951 4.05104C49.4405 4.01021 49.1684 4 46.9984 4C44.8252 4 44.5531 4.01021 43.7017 4.05104C42.8504 4.09187 42.2679 4.23819 41.759 4.44576C41.234 4.66353 40.786 4.95276 40.3443 5.42574C39.9026 5.89872 39.6241 6.3717 39.4225 6.92974C39.224 7.47078 39.0864 8.09007 39.048 8.9952C39.0096 9.90032 39 10.1896 39 12.5ZM40.4435 12.5C40.4435 10.2304 40.4531 9.95817 40.4915 9.06325C40.5267 8.23299 40.6579 7.78042 40.7668 7.48439C40.9108 7.08967 41.0868 6.80384 41.3685 6.5044C41.6501 6.20496 41.9158 6.02462 42.2903 5.86469C42.5719 5.749 42.9976 5.60949 43.7754 5.57206C44.6171 5.53123 44.87 5.52102 47.008 5.52102C49.146 5.52102 49.3989 5.53123 50.2406 5.57206C51.0216 5.60949 51.4473 5.749 51.7257 5.86469C52.097 6.01781 52.3659 6.20496 52.6475 6.5044C52.9292 6.80384 53.0988 7.08627 53.2493 7.48439C53.3581 7.78383 53.4893 8.23639 53.5245 9.06325C53.5629 9.95817 53.5725 10.227 53.5725 12.5C53.5725 14.773 53.5629 15.0418 53.5245 15.9367C53.4893 16.767 53.3581 17.2196 53.2493 17.5156C53.1052 17.9103 52.9292 18.1962 52.6475 18.4956C52.3659 18.795 52.1002 18.9754 51.7257 19.1353C51.4441 19.251 51.0184 19.3905 50.2406 19.4279C49.3989 19.4688 49.146 19.479 47.008 19.479C44.87 19.479 44.6171 19.4688 43.7754 19.4279C42.9944 19.3905 42.5687 19.251 42.2903 19.1353C41.919 18.9822 41.6501 18.795 41.3685 18.4956C41.0868 18.1962 40.9172 17.9137 40.7668 17.5156C40.6579 17.2162 40.5267 16.7636 40.4915 15.9367C40.4499 15.0418 40.4435 14.7696 40.4435 12.5Z" fill="white"/>
<g clip-path="url(#clip0_407_554)">
<path d="M77 6.26792C77 5.72094 77.1914 5.26968 77.5743 4.91416C77.9572 4.55862 78.455 4.38086 79.0676 4.38086C79.6692 4.38086 80.156 4.55588 80.528 4.90596C80.9109 5.26696 81.1023 5.73735 81.1023 6.31715C81.1023 6.84225 80.9164 7.27982 80.5444 7.62989C80.1615 7.9909 79.6583 8.1714 79.0347 8.1714H79.0183C78.4167 8.1714 77.9299 7.9909 77.5579 7.62989C77.186 7.26889 77 6.81489 77 6.26792ZM77.2133 20.626V9.66464H80.8562V20.626H77.2133ZM82.8745 20.626H86.5174V14.5054C86.5174 14.1225 86.5611 13.8271 86.6486 13.6193C86.8018 13.2473 87.0343 12.9328 87.346 12.6757C87.6578 12.4187 88.0489 12.2901 88.5193 12.2901C89.7445 12.2901 90.3571 13.1161 90.3571 14.7679V20.626H94V14.3413C94 12.7222 93.6171 11.4943 92.8514 10.6574C92.0856 9.82053 91.0737 9.40209 89.8156 9.40209C88.4044 9.40209 87.305 10.0092 86.5174 11.2235V11.2563H86.501L86.5174 11.2235V9.66464H82.8745C82.8964 10.0147 82.9073 11.1032 82.9073 12.9301C82.9073 14.757 82.8964 17.3223 82.8745 20.626Z" fill="white"/>
</g>
<g clip-path="url(#clip1_407_554)">
<path d="M116 25L117.767 18.5837C116.675 16.7003 116.101 14.5675 116.107 12.3871C116.107 5.5549 121.695 0 128.554 0C131.885 0 135.013 1.28921 137.359 3.62999C139.711 5.97077 141.006 9.08389 141 12.3931C141 19.2253 135.413 24.7802 128.548 24.7802H128.542C126.458 24.7802 124.411 24.2574 122.59 23.2712L116 25ZM122.907 21.0314L123.283 21.2571C124.871 22.1958 126.691 22.6889 128.548 22.6949H128.554C134.255 22.6949 138.899 18.0787 138.899 12.399C138.899 9.64829 137.824 7.06393 135.872 5.11526C133.92 3.16659 131.318 2.0972 128.554 2.0972C122.853 2.09126 118.209 6.70746 118.209 12.3871C118.209 14.3299 118.752 16.2251 119.791 17.8648L120.035 18.2569L118.991 22.0532L122.907 21.0314Z" fill="#101E2C"/>
<path d="M116.436 24.5662L118.143 18.3697C117.086 16.5576 116.531 14.4961 116.531 12.393C116.537 5.79838 121.928 0.433594 128.554 0.433594C131.771 0.433594 134.786 1.68122 137.054 3.93882C139.323 6.19643 140.57 9.20261 140.57 12.3989C140.57 18.9935 135.174 24.3583 128.554 24.3583H128.548C126.536 24.3583 124.56 23.8533 122.805 22.9027L116.436 24.5662Z" fill="white"/>
<path d="M116 25L117.767 18.5837C116.675 16.7003 116.101 14.5675 116.107 12.3871C116.107 5.5549 121.695 0 128.554 0C131.885 0 135.013 1.28921 137.359 3.62999C139.711 5.97077 141.006 9.08389 141 12.3931C141 19.2253 135.413 24.7802 128.548 24.7802H128.542C126.458 24.7802 124.411 24.2574 122.59 23.2712L116 25ZM122.907 21.0314L123.283 21.2571C124.871 22.1958 126.691 22.6889 128.548 22.6949H128.554C134.255 22.6949 138.899 18.0787 138.899 12.399C138.899 9.64829 137.824 7.06393 135.872 5.11526C133.92 3.16659 131.318 2.0972 128.554 2.0972C122.853 2.09126 118.209 6.70746 118.209 12.3871C118.209 14.3299 118.752 16.2251 119.791 17.8648L120.035 18.2569L118.991 22.0532L122.907 21.0314Z" fill="#101E2C"/>
<path fill-rule="evenodd" clip-rule="evenodd" d="M125.444 7.20641C125.211 6.68954 124.966 6.67765 124.745 6.67171C124.566 6.66577 124.357 6.66577 124.148 6.66577C123.939 6.66577 123.605 6.74301 123.318 7.05194C123.032 7.36088 122.232 8.10945 122.232 9.6363C122.232 11.1572 123.348 12.6306 123.503 12.8385C123.659 13.0465 125.658 16.2725 128.816 17.5142C131.443 18.5479 131.98 18.34 132.547 18.2865C133.114 18.233 134.386 17.5379 134.648 16.8131C134.905 16.0883 134.905 15.4704 134.827 15.3397C134.75 15.209 134.541 15.1318 134.231 14.9773C133.92 14.8229 132.392 14.0743 132.105 13.9673C131.819 13.8663 131.61 13.8129 131.407 14.1218C131.198 14.4307 130.601 15.1258 130.422 15.3338C130.243 15.5417 130.058 15.5655 129.748 15.411C129.437 15.2566 128.434 14.9298 127.246 13.8723C126.321 13.0524 125.694 12.0365 125.515 11.7276C125.336 11.4186 125.497 11.2523 125.652 11.0978C125.79 10.9612 125.963 10.7354 126.118 10.5572C126.273 10.3789 126.327 10.2482 126.429 10.0403C126.53 9.83236 126.482 9.65413 126.405 9.49966C126.327 9.35113 125.718 7.81834 125.444 7.20641Z" fill="#101E2C"/>
</g>
<g clip-path="url(#clip2_407_554)">
<path d="M165.518 12.4593C164.886 11.2883 164.581 10.3322 164.397 9.36302C164.125 7.92961 164.748 6.5294 165.78 5.63596C166.216 5.25835 166.715 5.38737 166.973 5.87886L167.555 6.98847C168.017 7.86798 168.248 8.30774 168.202 8.77396C168.156 9.24018 167.845 9.6199 167.223 10.3793L165.518 12.4593ZM165.518 12.4593C166.798 14.8293 168.805 16.9635 171.038 18.3243M171.038 18.3243C172.14 18.9958 173.04 19.32 173.953 19.5155C175.302 19.8047 176.619 19.143 177.46 18.0468C177.816 17.5835 177.694 17.0524 177.232 16.7784L176.187 16.1599C175.36 15.6697 174.946 15.4245 174.507 15.4732C174.068 15.5218 173.711 15.8524 172.996 16.5135L171.038 18.3243Z" stroke="white" stroke-width="1.5" stroke-linejoin="round"/>
<path d="M172.333 8.83931C173.282 9.26742 174.043 10.0753 174.445 11.0834M172.769 5.41675C175.127 6.13979 176.986 8.11445 177.667 10.6199" stroke="white" stroke-width="1.5" stroke-linecap="round"/>
</g>
<defs>
<clipPath id="clip0_407_554">
<rect width="17" height="17" fill="white" transform="translate(77 4)"/>
</clipPath>
<clipPath id="clip1_407_554">
<rect x="116" width="25" height="25" rx="6" fill="white"/>
</clipPath>
<clipPath id="clip2_407_554">
<rect width="16" height="17" fill="white" transform="translate(163 4)"/>
</clipPath>
</defs>
</svg>
