<svg width="1440" height="39" viewBox="0 0 1440 39" fill="none" xmlns="http://www.w3.org/2000/svg">
<path d="M-29.1992 14.6836C-29.8086 14.0898 -30.5234 13.6367 -31.3438 13.3242C-32.1641 13.0039 -33.0352 12.8438 -33.957 12.8438C-34.9023 12.8438 -35.7734 13.0078 -36.5703 13.3359C-37.3594 13.6641 -38.043 14.1328 -38.6211 14.7422C-39.1914 15.3516 -39.6367 16.0742 -39.957 16.9102C-40.2695 17.7461 -40.4258 18.668 -40.4258 19.6758C-40.4258 20.6836 -40.2695 21.6094 -39.957 22.4531C-39.6445 23.2969 -39.2031 24.0273 -38.6328 24.6445C-38.0547 25.2617 -37.375 25.7383 -36.5938 26.0742C-35.8047 26.4102 -34.9414 26.5781 -34.0039 26.5781C-33.1602 26.5781 -32.3828 26.4414 -31.6719 26.168C-30.9609 25.8945 -30.3359 25.5039 -29.7969 24.9961C-29.2578 24.4883 -28.8203 23.8789 -28.4844 23.168C-28.1484 22.457 -27.9336 21.6719 -27.8398 20.8125H-33.8281V18.8086H-25.5547L-25.4844 19.7695C-25.4844 21.1055 -25.6914 22.3281 -26.1055 23.4375C-26.5195 24.5469 -27.1094 25.5078 -27.875 26.3203C-28.6328 27.125 -29.5352 27.75 -30.582 28.1953C-31.6211 28.6328 -32.7695 28.8516 -34.0273 28.8516C-35.3242 28.8516 -36.5234 28.625 -37.625 28.1719C-38.7188 27.7109 -39.6758 27.0703 -40.4961 26.25C-41.3086 25.4219 -41.9414 24.4531 -42.3945 23.3438C-42.8398 22.2344 -43.0625 21.0312 -43.0625 19.7344C-43.0625 18.4219 -42.8359 17.2109 -42.3828 16.1016C-41.9297 14.9844 -41.2969 14.0117 -40.4844 13.1836C-39.6641 12.3555 -38.7031 11.7148 -37.6016 11.2617C-36.5 10.8008 -35.3008 10.5703 -34.0039 10.5703C-32.7773 10.5703 -31.6094 10.7812 -30.5 11.2031C-29.3828 11.625 -28.3906 12.2305 -27.5234 13.0195L-29.1992 14.6836ZM-12.4062 27.1055C-13.8594 28.1914 -15.457 28.7344 -17.1992 28.7344C-18.4414 28.7344 -19.5547 28.4609 -20.5391 27.9141C-21.5234 27.3672 -22.3008 26.6211 -22.8711 25.6758C-23.4414 24.7305 -23.7266 23.6641 -23.7266 22.4766C-23.7266 21.3438 -23.4648 20.332 -22.9414 19.4414C-22.418 18.543 -21.7031 17.8359 -20.7969 17.3203C-19.8906 16.8047 -18.8633 16.5469 -17.7148 16.5469C-16.5273 16.5469 -15.4844 16.8281 -14.5859 17.3906C-13.6797 17.9531 -12.9766 18.7383 -12.4766 19.7461C-11.9688 20.7461 -11.7148 21.9062 -11.7148 23.2266V23.6016H-21.125C-20.9844 24.2109 -20.7227 24.7461 -20.3398 25.207C-19.9492 25.6602 -19.4648 26.0156 -18.8867 26.2734C-18.3008 26.5234 -17.6445 26.6484 -16.918 26.6484C-15.6211 26.6484 -14.4297 26.2266 -13.3438 25.3828L-12.4062 27.1055ZM-21.2305 21.9375H-13.9531C-14.0312 21.2812 -14.2344 20.7109 -14.5625 20.2266C-14.8906 19.7344 -15.3164 19.3516 -15.8398 19.0781C-16.3555 18.7969 -16.9375 18.6562 -17.5859 18.6562C-18.2422 18.6562 -18.832 18.7969 -19.3555 19.0781C-19.8789 19.3516 -20.3047 19.7344 -20.6328 20.2266C-20.9531 20.7188 -21.1523 21.2891 -21.2305 21.9375ZM2.01953 28.5H-0.382812V21.9609C-0.382812 20.9609 -0.652344 20.1719 -1.19141 19.5938C-1.72266 19.0156 -2.44922 18.7266 -3.37109 18.7266C-4.02734 18.7266 -4.61328 18.875 -5.12891 19.1719C-5.64453 19.4688 -6.05078 19.8906 -6.34766 20.4375C-6.64453 20.9766 -6.79297 21.6055 -6.79297 22.3242V28.5H-9.19531V16.7812H-7.16797L-7.08594 18.668C-6.65625 17.9805 -6.07031 17.457 -5.32812 17.0977C-4.58594 16.7305 -3.74609 16.5469 -2.80859 16.5469C-1.32422 16.5469 -0.148438 16.9961 0.71875 17.8945C1.58594 18.793 2.01953 20.0117 2.01953 21.5508V28.5ZM15.625 27.1055C14.1719 28.1914 12.5742 28.7344 10.832 28.7344C9.58984 28.7344 8.47656 28.4609 7.49219 27.9141C6.50781 27.3672 5.73047 26.6211 5.16016 25.6758C4.58984 24.7305 4.30469 23.6641 4.30469 22.4766C4.30469 21.3438 4.56641 20.332 5.08984 19.4414C5.61328 18.543 6.32812 17.8359 7.23438 17.3203C8.14062 16.8047 9.16797 16.5469 10.3164 16.5469C11.5039 16.5469 12.5469 16.8281 13.4453 17.3906C14.3516 17.9531 15.0547 18.7383 15.5547 19.7461C16.0625 20.7461 16.3164 21.9062 16.3164 23.2266V23.6016H6.90625C7.04688 24.2109 7.30859 24.7461 7.69141 25.207C8.08203 25.6602 8.56641 26.0156 9.14453 26.2734C9.73047 26.5234 10.3867 26.6484 11.1133 26.6484C12.4102 26.6484 13.6016 26.2266 14.6875 25.3828L15.625 27.1055ZM6.80078 21.9375H14.0781C14 21.2812 13.7969 20.7109 13.4688 20.2266C13.1406 19.7344 12.7148 19.3516 12.1914 19.0781C11.6758 18.7969 11.0938 18.6562 10.4453 18.6562C9.78906 18.6562 9.19922 18.7969 8.67578 19.0781C8.15234 19.3516 7.72656 19.7344 7.39844 20.2266C7.07812 20.7188 6.87891 21.2891 6.80078 21.9375ZM21.2383 28.5H18.8359V16.7812H20.9336L21.0273 19.0078C21.4336 18.2344 21.9922 17.6328 22.7031 17.2031C23.4219 16.7656 24.2461 16.5469 25.1758 16.5469C25.4023 16.5469 25.6289 16.5625 25.8555 16.5938C26.0898 16.6172 26.3242 16.6562 26.5586 16.7109L26.2539 18.8789C25.8008 18.7617 25.3555 18.7031 24.918 18.7031C24.1914 18.7031 23.5508 18.8789 22.9961 19.2305C22.4414 19.5742 22.0078 20.0508 21.6953 20.6602C21.3906 21.2695 21.2383 21.9727 21.2383 22.7695V28.5ZM37.832 28.5H35.7578L35.6172 27C35.1875 27.5469 34.6445 27.9727 33.9883 28.2773C33.332 28.582 32.6055 28.7344 31.8086 28.7344C30.9727 28.7344 30.2266 28.5703 29.5703 28.2422C28.9141 27.9141 28.3984 27.4648 28.0234 26.8945C27.6484 26.3242 27.4609 25.6758 27.4609 24.9492C27.4609 24.1836 27.6641 23.5117 28.0703 22.9336C28.4766 22.3477 29.0312 21.8906 29.7344 21.5625C30.4375 21.2266 31.2383 21.0586 32.1367 21.0586C32.6992 21.0586 33.2695 21.125 33.8477 21.2578C34.4336 21.3906 34.9609 21.5781 35.4297 21.8203V21.3867C35.4297 20.8164 35.2812 20.3281 34.9844 19.9219C34.6953 19.5078 34.2969 19.1914 33.7891 18.9727C33.2891 18.7539 32.7344 18.6445 32.125 18.6445C31.5859 18.6445 31.0352 18.7383 30.4727 18.9258C29.918 19.1133 29.3945 19.4023 28.9023 19.793L28.1758 17.8359C28.8867 17.4141 29.625 17.0938 30.3906 16.875C31.1641 16.6562 31.9219 16.5469 32.6641 16.5469C33.7266 16.5469 34.6406 16.7578 35.4062 17.1797C36.1797 17.6016 36.7773 18.2031 37.1992 18.9844C37.6211 19.7578 37.832 20.6719 37.832 21.7266V28.5ZM32.2773 26.6953C32.832 26.6953 33.3438 26.582 33.8125 26.3555C34.2812 26.1211 34.6602 25.793 34.9492 25.3711C35.2461 24.9414 35.4062 24.4414 35.4297 23.8711V23.707C35.0312 23.4102 34.582 23.1797 34.082 23.0156C33.5898 22.8438 33.0859 22.7578 32.5703 22.7578C31.7812 22.7578 31.125 22.9453 30.6016 23.3203C30.0781 23.6953 29.8164 24.1758 29.8164 24.7617C29.8164 25.1289 29.9219 25.4609 30.1328 25.7578C30.3516 26.0469 30.6445 26.2773 31.0117 26.4492C31.3867 26.6133 31.8086 26.6953 32.2773 26.6953ZM43.5391 28.5H40.9844V10.9219H43.5391V28.5ZM52.6328 28.5V10.9219H57.9297C60.0703 10.9219 61.918 11.2773 63.4727 11.9883C65.0273 12.6914 66.2227 13.6992 67.0586 15.0117C67.8945 16.3242 68.3125 17.8906 68.3125 19.7109C68.3125 21.5234 67.8945 23.0898 67.0586 24.4102C66.2227 25.7227 65.0273 26.7344 63.4727 27.4453C61.918 28.1484 60.0703 28.5 57.9297 28.5H52.6328ZM55.2109 26.2266H58.0352C59.6523 26.2266 61.0312 25.9727 62.1719 25.4648C63.3125 24.9492 64.1797 24.207 64.7734 23.2383C65.375 22.2617 65.6758 21.0859 65.6758 19.7109C65.6758 18.3281 65.375 17.1523 64.7734 16.1836C64.1797 15.2148 63.3125 14.4766 62.1719 13.9688C61.0312 13.4531 59.6523 13.1953 58.0352 13.1953H55.2109V26.2266ZM81.3906 27.1055C79.9375 28.1914 78.3398 28.7344 76.5977 28.7344C75.3555 28.7344 74.2422 28.4609 73.2578 27.9141C72.2734 27.3672 71.4961 26.6211 70.9258 25.6758C70.3555 24.7305 70.0703 23.6641 70.0703 22.4766C70.0703 21.3438 70.332 20.332 70.8555 19.4414C71.3789 18.543 72.0938 17.8359 73 17.3203C73.9062 16.8047 74.9336 16.5469 76.082 16.5469C77.2695 16.5469 78.3125 16.8281 79.2109 17.3906C80.1172 17.9531 80.8203 18.7383 81.3203 19.7461C81.8281 20.7461 82.082 21.9062 82.082 23.2266V23.6016H72.6719C72.8125 24.2109 73.0742 24.7461 73.457 25.207C73.8477 25.6602 74.332 26.0156 74.9102 26.2734C75.4961 26.5234 76.1523 26.6484 76.8789 26.6484C78.1758 26.6484 79.3672 26.2266 80.4531 25.3828L81.3906 27.1055ZM72.5664 21.9375H79.8438C79.7656 21.2812 79.5625 20.7109 79.2344 20.2266C78.9062 19.7344 78.4805 19.3516 77.957 19.0781C77.4414 18.7969 76.8594 18.6562 76.2109 18.6562C75.5547 18.6562 74.9648 18.7969 74.4414 19.0781C73.918 19.3516 73.4922 19.7344 73.1641 20.2266C72.8438 20.7188 72.6445 21.2891 72.5664 21.9375ZM95.8164 28.5H93.4141V21.9609C93.4141 20.9609 93.1445 20.1719 92.6055 19.5938C92.0742 19.0156 91.3477 18.7266 90.4258 18.7266C89.7695 18.7266 89.1836 18.875 88.668 19.1719C88.1523 19.4688 87.7461 19.8906 87.4492 20.4375C87.1523 20.9766 87.0039 21.6055 87.0039 22.3242V28.5H84.6016V16.7812H86.6289L86.7109 18.668C87.1406 17.9805 87.7266 17.457 88.4688 17.0977C89.2109 16.7305 90.0508 16.5469 90.9883 16.5469C92.4727 16.5469 93.6484 16.9961 94.5156 17.8945C95.3828 18.793 95.8164 20.0117 95.8164 21.5508V28.5ZM106 28.207C105.18 28.5586 104.387 28.7344 103.621 28.7344C102.855 28.7344 102.184 28.5703 101.605 28.2422C101.035 27.9141 100.586 27.4531 100.258 26.8594C99.9375 26.2578 99.7773 25.5664 99.7773 24.7852V18.9258H97.7266V16.7812H99.8945V13.8516H102.18V16.7812H105.602V18.9258H102.18V24.3398C102.18 25.0273 102.363 25.5742 102.73 25.9805C103.105 26.3789 103.586 26.5781 104.172 26.5781C104.664 26.5781 105.152 26.4297 105.637 26.1328L106 28.207ZM109.258 13.3828C108.891 13.3828 108.582 13.2539 108.332 12.9961C108.082 12.7383 107.957 12.4258 107.957 12.0586C107.957 11.6914 108.082 11.3828 108.332 11.1328C108.582 10.875 108.891 10.7461 109.258 10.7461C109.633 10.7461 109.945 10.875 110.195 11.1328C110.453 11.3828 110.582 11.6914 110.582 12.0586C110.582 12.4258 110.453 12.7383 110.195 12.9961C109.945 13.2539 109.633 13.3828 109.258 13.3828ZM110.453 28.5H108.051V16.7812H110.453V28.5ZM113.055 27.4805L113.641 25.3242C113.906 25.5898 114.223 25.8242 114.59 26.0273C114.965 26.2305 115.359 26.3906 115.773 26.5078C116.195 26.6172 116.609 26.6719 117.016 26.6719C117.656 26.6719 118.172 26.5352 118.562 26.2617C118.953 25.9883 119.148 25.625 119.148 25.1719C119.148 24.8359 119.039 24.5586 118.82 24.3398C118.609 24.1133 118.324 23.918 117.965 23.7539C117.613 23.5898 117.234 23.4297 116.828 23.2734C116.305 23.0781 115.781 22.8516 115.258 22.5938C114.742 22.3359 114.309 21.9922 113.957 21.5625C113.605 21.1328 113.43 20.5664 113.43 19.8633C113.43 19.1914 113.602 18.6094 113.945 18.1172C114.289 17.6172 114.77 17.2305 115.387 16.957C116.004 16.6836 116.715 16.5469 117.52 16.5469C118.77 16.5469 120.008 16.8594 121.234 17.4844L120.531 19.5352C120.281 19.3555 119.984 19.1953 119.641 19.0547C119.297 18.9141 118.945 18.8047 118.586 18.7266C118.227 18.6406 117.895 18.5977 117.59 18.5977C117.082 18.5977 116.672 18.7109 116.359 18.9375C116.055 19.1641 115.902 19.4688 115.902 19.8516C115.902 20.0859 115.977 20.3008 116.125 20.4961C116.273 20.6836 116.508 20.8711 116.828 21.0586C117.156 21.2383 117.598 21.4414 118.152 21.668C118.684 21.8789 119.215 22.1211 119.746 22.3945C120.277 22.668 120.719 23.0234 121.07 23.4609C121.43 23.8984 121.609 24.4727 121.609 25.1836C121.609 25.8867 121.422 26.5078 121.047 27.0469C120.672 27.5781 120.148 27.9922 119.477 28.2891C118.812 28.5859 118.039 28.7344 117.156 28.7344C115.695 28.7344 114.328 28.3164 113.055 27.4805ZM131.312 28.207C130.492 28.5586 129.699 28.7344 128.934 28.7344C128.168 28.7344 127.496 28.5703 126.918 28.2422C126.348 27.9141 125.898 27.4531 125.57 26.8594C125.25 26.2578 125.09 25.5664 125.09 24.7852V18.9258H123.039V16.7812H125.207V13.8516H127.492V16.7812H130.914V18.9258H127.492V24.3398C127.492 25.0273 127.676 25.5742 128.043 25.9805C128.418 26.3789 128.898 26.5781 129.484 26.5781C129.977 26.5781 130.465 26.4297 130.949 26.1328L131.312 28.207ZM135.73 28.5H133.328V16.7812H135.426L135.52 19.0078C135.926 18.2344 136.484 17.6328 137.195 17.2031C137.914 16.7656 138.738 16.5469 139.668 16.5469C139.895 16.5469 140.121 16.5625 140.348 16.5938C140.582 16.6172 140.816 16.6562 141.051 16.7109L140.746 18.8789C140.293 18.7617 139.848 18.7031 139.41 18.7031C138.684 18.7031 138.043 18.8789 137.488 19.2305C136.934 19.5742 136.5 20.0508 136.188 20.6602C135.883 21.2695 135.73 21.9727 135.73 22.7695V28.5ZM147.637 34.3594H145.047L147.496 28.4297L141.789 16.7812H144.473L148.645 25.6758L152.324 16.7812H154.902L147.637 34.3594Z" fill="#011016"/>
<path d="M197.517 5.33842C197.718 4.24665 199.282 4.24664 199.483 5.33841L201.409 15.789C201.484 16.197 201.803 16.5162 202.211 16.5913L212.662 18.5165C213.753 18.7177 213.753 20.2823 212.662 20.4835L202.211 22.4087C201.803 22.4838 201.484 22.803 201.409 23.211L199.483 33.6616C199.282 34.7534 197.718 34.7534 197.517 33.6616L195.591 23.211C195.516 22.803 195.197 22.4838 194.789 22.4087L184.338 20.4835C183.247 20.2823 183.247 18.7177 184.338 18.5165L194.789 16.5913C195.197 16.5162 195.516 16.197 195.591 15.789L197.517 5.33842Z" fill="#F58220"/>
<path d="M257.676 26.2617C256.863 27.0742 255.895 27.7109 254.77 28.1719C253.652 28.625 252.434 28.8516 251.113 28.8516C249.793 28.8516 248.574 28.625 247.457 28.1719C246.34 27.7188 245.367 27.082 244.539 26.2617C243.719 25.4336 243.078 24.4648 242.617 23.3555C242.164 22.2383 241.938 21.0234 241.938 19.7109C241.938 18.3906 242.164 17.1758 242.617 16.0664C243.078 14.9492 243.719 13.9805 244.539 13.1602C245.367 12.3398 246.34 11.7031 247.457 11.25C248.574 10.7969 249.793 10.5703 251.113 10.5703C252.426 10.5703 253.641 10.8008 254.758 11.2617C255.883 11.7148 256.848 12.3438 257.652 13.1484L255.859 14.9766C255.273 14.3125 254.57 13.793 253.75 13.418C252.938 13.0352 252.047 12.8438 251.078 12.8438C250.141 12.8438 249.277 13.0156 248.488 13.3594C247.699 13.6953 247.012 14.1758 246.426 14.8008C245.84 15.418 245.383 16.1445 245.055 16.9805C244.734 17.8164 244.574 18.7266 244.574 19.7109C244.574 20.6953 244.734 21.6055 245.055 22.4414C245.383 23.2773 245.84 24.0078 246.426 24.6328C247.012 25.25 247.699 25.7305 248.488 26.0742C249.277 26.4102 250.141 26.5781 251.078 26.5781C252.047 26.5781 252.938 26.3906 253.75 26.0156C254.57 25.6328 255.27 25.1094 255.848 24.4453L257.676 26.2617ZM265.586 28.7344C264.414 28.7344 263.359 28.4688 262.422 27.9375C261.484 27.4062 260.746 26.6836 260.207 25.7695C259.668 24.8477 259.398 23.8047 259.398 22.6406C259.398 21.4844 259.668 20.4492 260.207 19.5352C260.746 18.6133 261.484 17.8867 262.422 17.3555C263.359 16.8164 264.414 16.5469 265.586 16.5469C266.766 16.5469 267.82 16.8164 268.75 17.3555C269.68 17.8867 270.41 18.6133 270.941 19.5352C271.48 20.4492 271.75 21.4844 271.75 22.6406C271.75 23.8047 271.48 24.8477 270.941 25.7695C270.41 26.6836 269.68 27.4062 268.75 27.9375C267.82 28.4688 266.766 28.7344 265.586 28.7344ZM265.574 26.5781C266.285 26.5781 266.918 26.4062 267.473 26.0625C268.035 25.7109 268.477 25.2422 268.797 24.6562C269.125 24.0625 269.289 23.3906 269.289 22.6406C269.289 21.8906 269.125 21.2227 268.797 20.6367C268.477 20.043 268.035 19.5742 267.473 19.2305C266.918 18.8789 266.285 18.7031 265.574 18.7031C264.871 18.7031 264.238 18.8789 263.676 19.2305C263.113 19.5742 262.668 20.043 262.34 20.6367C262.02 21.2227 261.859 21.8906 261.859 22.6406C261.859 23.3906 262.02 24.0625 262.34 24.6562C262.668 25.2422 263.113 25.7109 263.676 26.0625C264.238 26.4062 264.871 26.5781 265.574 26.5781ZM273.438 27.4805L274.023 25.3242C274.289 25.5898 274.605 25.8242 274.973 26.0273C275.348 26.2305 275.742 26.3906 276.156 26.5078C276.578 26.6172 276.992 26.6719 277.398 26.6719C278.039 26.6719 278.555 26.5352 278.945 26.2617C279.336 25.9883 279.531 25.625 279.531 25.1719C279.531 24.8359 279.422 24.5586 279.203 24.3398C278.992 24.1133 278.707 23.918 278.348 23.7539C277.996 23.5898 277.617 23.4297 277.211 23.2734C276.688 23.0781 276.164 22.8516 275.641 22.5938C275.125 22.3359 274.691 21.9922 274.34 21.5625C273.988 21.1328 273.812 20.5664 273.812 19.8633C273.812 19.1914 273.984 18.6094 274.328 18.1172C274.672 17.6172 275.152 17.2305 275.77 16.957C276.387 16.6836 277.098 16.5469 277.902 16.5469C279.152 16.5469 280.391 16.8594 281.617 17.4844L280.914 19.5352C280.664 19.3555 280.367 19.1953 280.023 19.0547C279.68 18.9141 279.328 18.8047 278.969 18.7266C278.609 18.6406 278.277 18.5977 277.973 18.5977C277.465 18.5977 277.055 18.7109 276.742 18.9375C276.438 19.1641 276.285 19.4688 276.285 19.8516C276.285 20.0859 276.359 20.3008 276.508 20.4961C276.656 20.6836 276.891 20.8711 277.211 21.0586C277.539 21.2383 277.98 21.4414 278.535 21.668C279.066 21.8789 279.598 22.1211 280.129 22.3945C280.66 22.668 281.102 23.0234 281.453 23.4609C281.812 23.8984 281.992 24.4727 281.992 25.1836C281.992 25.8867 281.805 26.5078 281.43 27.0469C281.055 27.5781 280.531 27.9922 279.859 28.2891C279.195 28.5859 278.422 28.7344 277.539 28.7344C276.078 28.7344 274.711 28.3164 273.438 27.4805ZM303.273 28.5H300.871V22.3711C300.871 21.207 300.621 20.3047 300.121 19.6641C299.629 19.0234 298.934 18.7031 298.035 18.7031C297.121 18.7031 296.406 19.0273 295.891 19.6758C295.375 20.3242 295.117 21.2227 295.117 22.3711V28.5H292.715V22.3711C292.715 21.207 292.465 20.3047 291.965 19.6641C291.465 19.0234 290.766 18.7031 289.867 18.7031C288.953 18.7031 288.238 19.0273 287.723 19.6758C287.207 20.3242 286.949 21.2227 286.949 22.3711V28.5H284.547V16.7812H286.492L286.586 18.8203C286.977 18.0781 287.504 17.5156 288.168 17.1328C288.84 16.7422 289.629 16.5469 290.535 16.5469C291.496 16.5469 292.32 16.7578 293.008 17.1797C293.695 17.6016 294.215 18.207 294.566 18.9961C294.957 18.1914 295.496 17.582 296.184 17.168C296.879 16.7539 297.703 16.5469 298.656 16.5469C300.109 16.5469 301.242 17.0078 302.055 17.9297C302.867 18.8516 303.273 20.1367 303.273 21.7852V28.5ZM316.867 27.1055C315.414 28.1914 313.816 28.7344 312.074 28.7344C310.832 28.7344 309.719 28.4609 308.734 27.9141C307.75 27.3672 306.973 26.6211 306.402 25.6758C305.832 24.7305 305.547 23.6641 305.547 22.4766C305.547 21.3438 305.809 20.332 306.332 19.4414C306.855 18.543 307.57 17.8359 308.477 17.3203C309.383 16.8047 310.41 16.5469 311.559 16.5469C312.746 16.5469 313.789 16.8281 314.688 17.3906C315.594 17.9531 316.297 18.7383 316.797 19.7461C317.305 20.7461 317.559 21.9062 317.559 23.2266V23.6016H308.148C308.289 24.2109 308.551 24.7461 308.934 25.207C309.324 25.6602 309.809 26.0156 310.387 26.2734C310.973 26.5234 311.629 26.6484 312.355 26.6484C313.652 26.6484 314.844 26.2266 315.93 25.3828L316.867 27.1055ZM308.043 21.9375H315.32C315.242 21.2812 315.039 20.7109 314.711 20.2266C314.383 19.7344 313.957 19.3516 313.434 19.0781C312.918 18.7969 312.336 18.6562 311.688 18.6562C311.031 18.6562 310.441 18.7969 309.918 19.0781C309.395 19.3516 308.969 19.7344 308.641 20.2266C308.32 20.7188 308.121 21.2891 308.043 21.9375ZM326.992 28.207C326.172 28.5586 325.379 28.7344 324.613 28.7344C323.848 28.7344 323.176 28.5703 322.598 28.2422C322.027 27.9141 321.578 27.4531 321.25 26.8594C320.93 26.2578 320.77 25.5664 320.77 24.7852V18.9258H318.719V16.7812H320.887V13.8516H323.172V16.7812H326.594V18.9258H323.172V24.3398C323.172 25.0273 323.355 25.5742 323.723 25.9805C324.098 26.3789 324.578 26.5781 325.164 26.5781C325.656 26.5781 326.145 26.4297 326.629 26.1328L326.992 28.207ZM330.25 13.3828C329.883 13.3828 329.574 13.2539 329.324 12.9961C329.074 12.7383 328.949 12.4258 328.949 12.0586C328.949 11.6914 329.074 11.3828 329.324 11.1328C329.574 10.875 329.883 10.7461 330.25 10.7461C330.625 10.7461 330.938 10.875 331.188 11.1328C331.445 11.3828 331.574 11.6914 331.574 12.0586C331.574 12.4258 331.445 12.7383 331.188 12.9961C330.938 13.2539 330.625 13.3828 330.25 13.3828ZM331.445 28.5H329.043V16.7812H331.445V28.5ZM344.816 26.7539C344.246 27.3867 343.562 27.875 342.766 28.2188C341.969 28.5625 341.105 28.7344 340.176 28.7344C339.004 28.7344 337.949 28.4688 337.012 27.9375C336.082 27.4062 335.348 26.6797 334.809 25.7578C334.27 24.8359 334 23.7969 334 22.6406C334 21.4766 334.27 20.4375 334.809 19.5234C335.348 18.6016 336.082 17.875 337.012 17.3438C337.949 16.8125 339.004 16.5469 340.176 16.5469C341.098 16.5469 341.957 16.7188 342.754 17.0625C343.551 17.3984 344.234 17.8828 344.805 18.5156L343.387 20.0039C343.004 19.5977 342.543 19.2852 342.004 19.0664C341.473 18.8398 340.906 18.7266 340.305 18.7266C339.562 18.7266 338.902 18.8945 338.324 19.2305C337.746 19.5664 337.293 20.0273 336.965 20.6133C336.637 21.1914 336.473 21.8633 336.473 22.6289C336.473 23.3867 336.637 24.0625 336.965 24.6562C337.293 25.25 337.746 25.7148 338.324 26.0508C338.902 26.3867 339.562 26.5547 340.305 26.5547C340.906 26.5547 341.477 26.4414 342.016 26.2148C342.555 25.9883 343.012 25.6758 343.387 25.2773L344.816 26.7539ZM353.031 28.5V10.9219H358.328C360.469 10.9219 362.316 11.2773 363.871 11.9883C365.426 12.6914 366.621 13.6992 367.457 15.0117C368.293 16.3242 368.711 17.8906 368.711 19.7109C368.711 21.5234 368.293 23.0898 367.457 24.4102C366.621 25.7227 365.426 26.7344 363.871 27.4453C362.316 28.1484 360.469 28.5 358.328 28.5H353.031ZM355.609 26.2266H358.434C360.051 26.2266 361.43 25.9727 362.57 25.4648C363.711 24.9492 364.578 24.207 365.172 23.2383C365.773 22.2617 366.074 21.0859 366.074 19.7109C366.074 18.3281 365.773 17.1523 365.172 16.1836C364.578 15.2148 363.711 14.4766 362.57 13.9688C361.43 13.4531 360.051 13.1953 358.434 13.1953H355.609V26.2266ZM381.789 27.1055C380.336 28.1914 378.738 28.7344 376.996 28.7344C375.754 28.7344 374.641 28.4609 373.656 27.9141C372.672 27.3672 371.895 26.6211 371.324 25.6758C370.754 24.7305 370.469 23.6641 370.469 22.4766C370.469 21.3438 370.73 20.332 371.254 19.4414C371.777 18.543 372.492 17.8359 373.398 17.3203C374.305 16.8047 375.332 16.5469 376.48 16.5469C377.668 16.5469 378.711 16.8281 379.609 17.3906C380.516 17.9531 381.219 18.7383 381.719 19.7461C382.227 20.7461 382.48 21.9062 382.48 23.2266V23.6016H373.07C373.211 24.2109 373.473 24.7461 373.855 25.207C374.246 25.6602 374.73 26.0156 375.309 26.2734C375.895 26.5234 376.551 26.6484 377.277 26.6484C378.574 26.6484 379.766 26.2266 380.852 25.3828L381.789 27.1055ZM372.965 21.9375H380.242C380.164 21.2812 379.961 20.7109 379.633 20.2266C379.305 19.7344 378.879 19.3516 378.355 19.0781C377.84 18.7969 377.258 18.6562 376.609 18.6562C375.953 18.6562 375.363 18.7969 374.84 19.0781C374.316 19.3516 373.891 19.7344 373.562 20.2266C373.242 20.7188 373.043 21.2891 372.965 21.9375ZM396.215 28.5H393.812V21.9609C393.812 20.9609 393.543 20.1719 393.004 19.5938C392.473 19.0156 391.746 18.7266 390.824 18.7266C390.168 18.7266 389.582 18.875 389.066 19.1719C388.551 19.4688 388.145 19.8906 387.848 20.4375C387.551 20.9766 387.402 21.6055 387.402 22.3242V28.5H385V16.7812H387.027L387.109 18.668C387.539 17.9805 388.125 17.457 388.867 17.0977C389.609 16.7305 390.449 16.5469 391.387 16.5469C392.871 16.5469 394.047 16.9961 394.914 17.8945C395.781 18.793 396.215 20.0117 396.215 21.5508V28.5ZM406.398 28.207C405.578 28.5586 404.785 28.7344 404.02 28.7344C403.254 28.7344 402.582 28.5703 402.004 28.2422C401.434 27.9141 400.984 27.4531 400.656 26.8594C400.336 26.2578 400.176 25.5664 400.176 24.7852V18.9258H398.125V16.7812H400.293V13.8516H402.578V16.7812H406V18.9258H402.578V24.3398C402.578 25.0273 402.762 25.5742 403.129 25.9805C403.504 26.3789 403.984 26.5781 404.57 26.5781C405.062 26.5781 405.551 26.4297 406.035 26.1328L406.398 28.207ZM409.656 13.3828C409.289 13.3828 408.98 13.2539 408.73 12.9961C408.48 12.7383 408.355 12.4258 408.355 12.0586C408.355 11.6914 408.48 11.3828 408.73 11.1328C408.98 10.875 409.289 10.7461 409.656 10.7461C410.031 10.7461 410.344 10.875 410.594 11.1328C410.852 11.3828 410.98 11.6914 410.98 12.0586C410.98 12.4258 410.852 12.7383 410.594 12.9961C410.344 13.2539 410.031 13.3828 409.656 13.3828ZM410.852 28.5H408.449V16.7812H410.852V28.5ZM413.453 27.4805L414.039 25.3242C414.305 25.5898 414.621 25.8242 414.988 26.0273C415.363 26.2305 415.758 26.3906 416.172 26.5078C416.594 26.6172 417.008 26.6719 417.414 26.6719C418.055 26.6719 418.57 26.5352 418.961 26.2617C419.352 25.9883 419.547 25.625 419.547 25.1719C419.547 24.8359 419.438 24.5586 419.219 24.3398C419.008 24.1133 418.723 23.918 418.363 23.7539C418.012 23.5898 417.633 23.4297 417.227 23.2734C416.703 23.0781 416.18 22.8516 415.656 22.5938C415.141 22.3359 414.707 21.9922 414.355 21.5625C414.004 21.1328 413.828 20.5664 413.828 19.8633C413.828 19.1914 414 18.6094 414.344 18.1172C414.688 17.6172 415.168 17.2305 415.785 16.957C416.402 16.6836 417.113 16.5469 417.918 16.5469C419.168 16.5469 420.406 16.8594 421.633 17.4844L420.93 19.5352C420.68 19.3555 420.383 19.1953 420.039 19.0547C419.695 18.9141 419.344 18.8047 418.984 18.7266C418.625 18.6406 418.293 18.5977 417.988 18.5977C417.48 18.5977 417.07 18.7109 416.758 18.9375C416.453 19.1641 416.301 19.4688 416.301 19.8516C416.301 20.0859 416.375 20.3008 416.523 20.4961C416.672 20.6836 416.906 20.8711 417.227 21.0586C417.555 21.2383 417.996 21.4414 418.551 21.668C419.082 21.8789 419.613 22.1211 420.145 22.3945C420.676 22.668 421.117 23.0234 421.469 23.4609C421.828 23.8984 422.008 24.4727 422.008 25.1836C422.008 25.8867 421.82 26.5078 421.445 27.0469C421.07 27.5781 420.547 27.9922 419.875 28.2891C419.211 28.5859 418.438 28.7344 417.555 28.7344C416.094 28.7344 414.727 28.3164 413.453 27.4805ZM431.711 28.207C430.891 28.5586 430.098 28.7344 429.332 28.7344C428.566 28.7344 427.895 28.5703 427.316 28.2422C426.746 27.9141 426.297 27.4531 425.969 26.8594C425.648 26.2578 425.488 25.5664 425.488 24.7852V18.9258H423.438V16.7812H425.605V13.8516H427.891V16.7812H431.312V18.9258H427.891V24.3398C427.891 25.0273 428.074 25.5742 428.441 25.9805C428.816 26.3789 429.297 26.5781 429.883 26.5781C430.375 26.5781 430.863 26.4297 431.348 26.1328L431.711 28.207ZM436.129 28.5H433.727V16.7812H435.824L435.918 19.0078C436.324 18.2344 436.883 17.6328 437.594 17.2031C438.312 16.7656 439.137 16.5469 440.066 16.5469C440.293 16.5469 440.52 16.5625 440.746 16.5938C440.98 16.6172 441.215 16.6562 441.449 16.7109L441.145 18.8789C440.691 18.7617 440.246 18.7031 439.809 18.7031C439.082 18.7031 438.441 18.8789 437.887 19.2305C437.332 19.5742 436.898 20.0508 436.586 20.6602C436.281 21.2695 436.129 21.9727 436.129 22.7695V28.5ZM448.035 34.3594H445.445L447.895 28.4297L442.188 16.7812H444.871L449.043 25.6758L452.723 16.7812H455.301L448.035 34.3594Z" fill="#011016"/>
<path d="M497.517 5.33842C497.718 4.24665 499.282 4.24664 499.483 5.33841L501.409 15.789C501.484 16.197 501.803 16.5162 502.211 16.5913L512.662 18.5165C513.753 18.7177 513.753 20.2823 512.662 20.4835L502.211 22.4087C501.803 22.4838 501.484 22.803 501.409 23.211L499.483 33.6616C499.282 34.7534 497.718 34.7534 497.517 33.6616L495.591 23.211C495.516 22.803 495.197 22.4838 494.789 22.4087L484.338 20.4835C483.247 20.2823 483.247 18.7177 484.338 18.5165L494.789 16.5913C495.197 16.5162 495.516 16.197 495.591 15.789L497.517 5.33842Z" fill="#F58220"/>
<path d="M549.426 28.5H546.848V13.1953H541.352V10.9219H554.922V13.1953H549.426V28.5ZM565.539 27.1055C564.086 28.1914 562.488 28.7344 560.746 28.7344C559.504 28.7344 558.391 28.4609 557.406 27.9141C556.422 27.3672 555.645 26.6211 555.074 25.6758C554.504 24.7305 554.219 23.6641 554.219 22.4766C554.219 21.3438 554.48 20.332 555.004 19.4414C555.527 18.543 556.242 17.8359 557.148 17.3203C558.055 16.8047 559.082 16.5469 560.23 16.5469C561.418 16.5469 562.461 16.8281 563.359 17.3906C564.266 17.9531 564.969 18.7383 565.469 19.7461C565.977 20.7461 566.23 21.9062 566.23 23.2266V23.6016H556.82C556.961 24.2109 557.223 24.7461 557.605 25.207C557.996 25.6602 558.48 26.0156 559.059 26.2734C559.645 26.5234 560.301 26.6484 561.027 26.6484C562.324 26.6484 563.516 26.2266 564.602 25.3828L565.539 27.1055ZM556.715 21.9375H563.992C563.914 21.2812 563.711 20.7109 563.383 20.2266C563.055 19.7344 562.629 19.3516 562.105 19.0781C561.59 18.7969 561.008 18.6562 560.359 18.6562C559.703 18.6562 559.113 18.7969 558.59 19.0781C558.066 19.3516 557.641 19.7344 557.312 20.2266C556.992 20.7188 556.793 21.2891 556.715 21.9375ZM579.203 27.1055C577.75 28.1914 576.152 28.7344 574.41 28.7344C573.168 28.7344 572.055 28.4609 571.07 27.9141C570.086 27.3672 569.309 26.6211 568.738 25.6758C568.168 24.7305 567.883 23.6641 567.883 22.4766C567.883 21.3438 568.145 20.332 568.668 19.4414C569.191 18.543 569.906 17.8359 570.812 17.3203C571.719 16.8047 572.746 16.5469 573.895 16.5469C575.082 16.5469 576.125 16.8281 577.023 17.3906C577.93 17.9531 578.633 18.7383 579.133 19.7461C579.641 20.7461 579.895 21.9062 579.895 23.2266V23.6016H570.484C570.625 24.2109 570.887 24.7461 571.27 25.207C571.66 25.6602 572.145 26.0156 572.723 26.2734C573.309 26.5234 573.965 26.6484 574.691 26.6484C575.988 26.6484 577.18 26.2266 578.266 25.3828L579.203 27.1055ZM570.379 21.9375H577.656C577.578 21.2812 577.375 20.7109 577.047 20.2266C576.719 19.7344 576.293 19.3516 575.77 19.0781C575.254 18.7969 574.672 18.6562 574.023 18.6562C573.367 18.6562 572.777 18.7969 572.254 19.0781C571.73 19.3516 571.305 19.7344 570.977 20.2266C570.656 20.7188 570.457 21.2891 570.379 21.9375ZM589.328 28.207C588.508 28.5586 587.715 28.7344 586.949 28.7344C586.184 28.7344 585.512 28.5703 584.934 28.2422C584.363 27.9141 583.914 27.4531 583.586 26.8594C583.266 26.2578 583.105 25.5664 583.105 24.7852V18.9258H581.055V16.7812H583.223V13.8516H585.508V16.7812H588.93V18.9258H585.508V24.3398C585.508 25.0273 585.691 25.5742 586.059 25.9805C586.434 26.3789 586.914 26.5781 587.5 26.5781C587.992 26.5781 588.48 26.4297 588.965 26.1328L589.328 28.207ZM591.695 28.5V10.9219H594.098V18.4102C594.965 17.168 596.281 16.5469 598.047 16.5469C599.57 16.5469 600.762 17.0078 601.621 17.9297C602.48 18.8516 602.91 20.1367 602.91 21.7852V28.5H600.508V22.3711C600.508 21.207 600.227 20.3047 599.664 19.6641C599.109 19.0234 598.332 18.7031 597.332 18.7031C596.324 18.7031 595.531 19.0312 594.953 19.6875C594.383 20.3359 594.098 21.2305 594.098 22.3711V28.5H591.695ZM629.23 28.5H626.934L622.797 15.2695L618.648 28.5H616.352L610.633 10.9219H613.328L617.488 24.1875L621.648 10.9219H623.934L628.082 24.1641L632.219 10.9219H634.926L629.23 28.5ZM637.164 28.5V10.9219H639.566V18.4102C640.434 17.168 641.75 16.5469 643.516 16.5469C645.039 16.5469 646.23 17.0078 647.09 17.9297C647.949 18.8516 648.379 20.1367 648.379 21.7852V28.5H645.977V22.3711C645.977 21.207 645.695 20.3047 645.133 19.6641C644.578 19.0234 643.801 18.7031 642.801 18.7031C641.793 18.7031 641 19.0312 640.422 19.6875C639.852 20.3359 639.566 21.2305 639.566 22.3711V28.5H637.164ZM652.773 13.3828C652.406 13.3828 652.098 13.2539 651.848 12.9961C651.598 12.7383 651.473 12.4258 651.473 12.0586C651.473 11.6914 651.598 11.3828 651.848 11.1328C652.098 10.875 652.406 10.7461 652.773 10.7461C653.148 10.7461 653.461 10.875 653.711 11.1328C653.969 11.3828 654.098 11.6914 654.098 12.0586C654.098 12.4258 653.969 12.7383 653.711 12.9961C653.461 13.2539 653.148 13.3828 652.773 13.3828ZM653.969 28.5H651.566V16.7812H653.969V28.5ZM664.656 28.207C663.836 28.5586 663.043 28.7344 662.277 28.7344C661.512 28.7344 660.84 28.5703 660.262 28.2422C659.691 27.9141 659.242 27.4531 658.914 26.8594C658.594 26.2578 658.434 25.5664 658.434 24.7852V18.9258H656.383V16.7812H658.551V13.8516H660.836V16.7812H664.258V18.9258H660.836V24.3398C660.836 25.0273 661.02 25.5742 661.387 25.9805C661.762 26.3789 662.242 26.5781 662.828 26.5781C663.32 26.5781 663.809 26.4297 664.293 26.1328L664.656 28.207ZM677.477 27.1055C676.023 28.1914 674.426 28.7344 672.684 28.7344C671.441 28.7344 670.328 28.4609 669.344 27.9141C668.359 27.3672 667.582 26.6211 667.012 25.6758C666.441 24.7305 666.156 23.6641 666.156 22.4766C666.156 21.3438 666.418 20.332 666.941 19.4414C667.465 18.543 668.18 17.8359 669.086 17.3203C669.992 16.8047 671.02 16.5469 672.168 16.5469C673.355 16.5469 674.398 16.8281 675.297 17.3906C676.203 17.9531 676.906 18.7383 677.406 19.7461C677.914 20.7461 678.168 21.9062 678.168 23.2266V23.6016H668.758C668.898 24.2109 669.16 24.7461 669.543 25.207C669.934 25.6602 670.418 26.0156 670.996 26.2734C671.582 26.5234 672.238 26.6484 672.965 26.6484C674.262 26.6484 675.453 26.2266 676.539 25.3828L677.477 27.1055ZM668.652 21.9375H675.93C675.852 21.2812 675.648 20.7109 675.32 20.2266C674.992 19.7344 674.566 19.3516 674.043 19.0781C673.527 18.7969 672.945 18.6562 672.297 18.6562C671.641 18.6562 671.051 18.7969 670.527 19.0781C670.004 19.3516 669.578 19.7344 669.25 20.2266C668.93 20.7188 668.73 21.2891 668.652 21.9375ZM691.902 28.5H689.5V21.9609C689.5 20.9609 689.23 20.1719 688.691 19.5938C688.16 19.0156 687.434 18.7266 686.512 18.7266C685.855 18.7266 685.27 18.875 684.754 19.1719C684.238 19.4688 683.832 19.8906 683.535 20.4375C683.238 20.9766 683.09 21.6055 683.09 22.3242V28.5H680.688V16.7812H682.715L682.797 18.668C683.227 17.9805 683.812 17.457 684.555 17.0977C685.297 16.7305 686.137 16.5469 687.074 16.5469C688.559 16.5469 689.734 16.9961 690.602 17.8945C691.469 18.793 691.902 20.0117 691.902 21.5508V28.5ZM696.297 13.3828C695.93 13.3828 695.621 13.2539 695.371 12.9961C695.121 12.7383 694.996 12.4258 694.996 12.0586C694.996 11.6914 695.121 11.3828 695.371 11.1328C695.621 10.875 695.93 10.7461 696.297 10.7461C696.672 10.7461 696.984 10.875 697.234 11.1328C697.492 11.3828 697.621 11.6914 697.621 12.0586C697.621 12.4258 697.492 12.7383 697.234 12.9961C696.984 13.2539 696.672 13.3828 696.297 13.3828ZM697.492 28.5H695.09V16.7812H697.492V28.5ZM712.129 28.5H709.727V21.9609C709.727 20.9609 709.457 20.1719 708.918 19.5938C708.387 19.0156 707.66 18.7266 706.738 18.7266C706.082 18.7266 705.496 18.875 704.98 19.1719C704.465 19.4688 704.059 19.8906 703.762 20.4375C703.465 20.9766 703.316 21.6055 703.316 22.3242V28.5H700.914V16.7812H702.941L703.023 18.668C703.453 17.9805 704.039 17.457 704.781 17.0977C705.523 16.7305 706.363 16.5469 707.301 16.5469C708.785 16.5469 709.961 16.9961 710.828 17.8945C711.695 18.793 712.129 20.0117 712.129 21.5508V28.5ZM720.203 28.5469C719.102 28.5469 718.113 28.2852 717.238 27.7617C716.363 27.2383 715.672 26.5234 715.164 25.6172C714.664 24.7109 714.414 23.6875 714.414 22.5469C714.414 21.3984 714.664 20.375 715.164 19.4766C715.672 18.5703 716.363 17.8555 717.238 17.332C718.113 16.8086 719.105 16.5469 720.215 16.5469C721.09 16.5469 721.895 16.7148 722.629 17.0508C723.371 17.3867 724 17.8477 724.516 18.4336L724.633 16.7812H726.754V28.1836C726.754 29.4961 726.484 30.6289 725.945 31.582C725.414 32.543 724.66 33.2852 723.684 33.8086C722.707 34.332 721.551 34.5938 720.215 34.5938C718.332 34.5938 716.672 33.9805 715.234 32.7539L716.254 30.8086C717.309 31.8945 718.582 32.4375 720.074 32.4375C720.941 32.4375 721.691 32.2578 722.324 31.8984C722.965 31.5391 723.461 31.0352 723.812 30.3867C724.172 29.7461 724.352 28.9883 724.352 28.1133V26.8359C723.836 27.3672 723.223 27.7852 722.512 28.0898C721.801 28.3945 721.031 28.5469 720.203 28.5469ZM720.602 26.4141C721.289 26.4141 721.914 26.2578 722.477 25.9453C723.047 25.6328 723.5 25.207 723.836 24.668C724.18 24.1211 724.352 23.5 724.352 22.8047V22.2773C724.352 21.582 724.18 20.9648 723.836 20.4258C723.5 19.8867 723.047 19.4609 722.477 19.1484C721.914 18.8359 721.289 18.6797 720.602 18.6797C719.883 18.6797 719.242 18.8516 718.68 19.1953C718.117 19.5312 717.672 19.9922 717.344 20.5781C717.016 21.1562 716.852 21.8125 716.852 22.5469C716.852 23.2812 717.016 23.9414 717.344 24.5273C717.672 25.1133 718.117 25.5742 718.68 25.9102C719.242 26.2461 719.883 26.4141 720.602 26.4141Z" fill="#011016"/>
<path d="M776.517 5.33842C776.718 4.24665 778.282 4.24664 778.483 5.33841L780.409 15.789C780.484 16.197 780.803 16.5162 781.211 16.5913L791.662 18.5165C792.753 18.7177 792.753 20.2823 791.662 20.4835L781.211 22.4087C780.803 22.4838 780.484 22.803 780.409 23.211L778.483 33.6616C778.282 34.7534 776.718 34.7534 776.517 33.6616L774.591 23.211C774.516 22.803 774.197 22.4838 773.789 22.4087L763.338 20.4835C762.247 20.2823 762.247 18.7177 763.338 18.5165L773.789 16.5913C774.197 16.5162 774.516 16.197 774.591 15.789L776.517 5.33842Z" fill="#F58220"/>
<path d="M834.801 14.6836C834.191 14.0898 833.477 13.6367 832.656 13.3242C831.836 13.0039 830.965 12.8438 830.043 12.8438C829.098 12.8438 828.227 13.0078 827.43 13.3359C826.641 13.6641 825.957 14.1328 825.379 14.7422C824.809 15.3516 824.363 16.0742 824.043 16.9102C823.73 17.7461 823.574 18.668 823.574 19.6758C823.574 20.6836 823.73 21.6094 824.043 22.4531C824.355 23.2969 824.797 24.0273 825.367 24.6445C825.945 25.2617 826.625 25.7383 827.406 26.0742C828.195 26.4102 829.059 26.5781 829.996 26.5781C830.84 26.5781 831.617 26.4414 832.328 26.168C833.039 25.8945 833.664 25.5039 834.203 24.9961C834.742 24.4883 835.18 23.8789 835.516 23.168C835.852 22.457 836.066 21.6719 836.16 20.8125H830.172V18.8086H838.445L838.516 19.7695C838.516 21.1055 838.309 22.3281 837.895 23.4375C837.48 24.5469 836.891 25.5078 836.125 26.3203C835.367 27.125 834.465 27.75 833.418 28.1953C832.379 28.6328 831.23 28.8516 829.973 28.8516C828.676 28.8516 827.477 28.625 826.375 28.1719C825.281 27.7109 824.324 27.0703 823.504 26.25C822.691 25.4219 822.059 24.4531 821.605 23.3438C821.16 22.2344 820.938 21.0312 820.938 19.7344C820.938 18.4219 821.164 17.2109 821.617 16.1016C822.07 14.9844 822.703 14.0117 823.516 13.1836C824.336 12.3555 825.297 11.7148 826.398 11.2617C827.5 10.8008 828.699 10.5703 829.996 10.5703C831.223 10.5703 832.391 10.7812 833.5 11.2031C834.617 11.625 835.609 12.2305 836.477 13.0195L834.801 14.6836ZM852.121 28.5H850.082L850 26.6133C849.57 27.3008 849.008 27.8281 848.312 28.1953C847.625 28.5547 846.809 28.7344 845.863 28.7344C844.332 28.7344 843.121 28.2695 842.23 27.3398C841.348 26.4023 840.906 25.1211 840.906 23.4961V16.7812H843.309V23.1445C843.309 24.1836 843.59 25.0117 844.152 25.6289C844.715 26.2461 845.473 26.5547 846.426 26.5547C847.41 26.5547 848.203 26.2266 848.805 25.5703C849.414 24.9062 849.719 24.0352 849.719 22.957V16.7812H852.121V28.5ZM874.234 28.5H871.832V22.3711C871.832 21.207 871.582 20.3047 871.082 19.6641C870.59 19.0234 869.895 18.7031 868.996 18.7031C868.082 18.7031 867.367 19.0273 866.852 19.6758C866.336 20.3242 866.078 21.2227 866.078 22.3711V28.5H863.676V22.3711C863.676 21.207 863.426 20.3047 862.926 19.6641C862.426 19.0234 861.727 18.7031 860.828 18.7031C859.914 18.7031 859.199 19.0273 858.684 19.6758C858.168 20.3242 857.91 21.2227 857.91 22.3711V28.5H855.508V16.7812H857.453L857.547 18.8203C857.938 18.0781 858.465 17.5156 859.129 17.1328C859.801 16.7422 860.59 16.5469 861.496 16.5469C862.457 16.5469 863.281 16.7578 863.969 17.1797C864.656 17.6016 865.176 18.207 865.527 18.9961C865.918 18.1914 866.457 17.582 867.145 17.168C867.84 16.7539 868.664 16.5469 869.617 16.5469C871.07 16.5469 872.203 17.0078 873.016 17.9297C873.828 18.8516 874.234 20.1367 874.234 21.7852V28.5ZM889.832 28.5H887.254V13.1953H881.758V10.9219H895.328V13.1953H889.832V28.5ZM899.77 28.5H897.367V16.7812H899.465L899.559 19.0078C899.965 18.2344 900.523 17.6328 901.234 17.2031C901.953 16.7656 902.777 16.5469 903.707 16.5469C903.934 16.5469 904.16 16.5625 904.387 16.5938C904.621 16.6172 904.855 16.6562 905.09 16.7109L904.785 18.8789C904.332 18.7617 903.887 18.7031 903.449 18.7031C902.723 18.7031 902.082 18.8789 901.527 19.2305C900.973 19.5742 900.539 20.0508 900.227 20.6602C899.922 21.2695 899.77 21.9727 899.77 22.7695V28.5ZM917.383 27.1055C915.93 28.1914 914.332 28.7344 912.59 28.7344C911.348 28.7344 910.234 28.4609 909.25 27.9141C908.266 27.3672 907.488 26.6211 906.918 25.6758C906.348 24.7305 906.062 23.6641 906.062 22.4766C906.062 21.3438 906.324 20.332 906.848 19.4414C907.371 18.543 908.086 17.8359 908.992 17.3203C909.898 16.8047 910.926 16.5469 912.074 16.5469C913.262 16.5469 914.305 16.8281 915.203 17.3906C916.109 17.9531 916.812 18.7383 917.312 19.7461C917.82 20.7461 918.074 21.9062 918.074 23.2266V23.6016H908.664C908.805 24.2109 909.066 24.7461 909.449 25.207C909.84 25.6602 910.324 26.0156 910.902 26.2734C911.488 26.5234 912.145 26.6484 912.871 26.6484C914.168 26.6484 915.359 26.2266 916.445 25.3828L917.383 27.1055ZM908.559 21.9375H915.836C915.758 21.2812 915.555 20.7109 915.227 20.2266C914.898 19.7344 914.473 19.3516 913.949 19.0781C913.434 18.7969 912.852 18.6562 912.203 18.6562C911.547 18.6562 910.957 18.7969 910.434 19.0781C909.91 19.3516 909.484 19.7344 909.156 20.2266C908.836 20.7188 908.637 21.2891 908.559 21.9375ZM930.379 28.5H928.305L928.164 27C927.734 27.5469 927.191 27.9727 926.535 28.2773C925.879 28.582 925.152 28.7344 924.355 28.7344C923.52 28.7344 922.773 28.5703 922.117 28.2422C921.461 27.9141 920.945 27.4648 920.57 26.8945C920.195 26.3242 920.008 25.6758 920.008 24.9492C920.008 24.1836 920.211 23.5117 920.617 22.9336C921.023 22.3477 921.578 21.8906 922.281 21.5625C922.984 21.2266 923.785 21.0586 924.684 21.0586C925.246 21.0586 925.816 21.125 926.395 21.2578C926.98 21.3906 927.508 21.5781 927.977 21.8203V21.3867C927.977 20.8164 927.828 20.3281 927.531 19.9219C927.242 19.5078 926.844 19.1914 926.336 18.9727C925.836 18.7539 925.281 18.6445 924.672 18.6445C924.133 18.6445 923.582 18.7383 923.02 18.9258C922.465 19.1133 921.941 19.4023 921.449 19.793L920.723 17.8359C921.434 17.4141 922.172 17.0938 922.938 16.875C923.711 16.6562 924.469 16.5469 925.211 16.5469C926.273 16.5469 927.188 16.7578 927.953 17.1797C928.727 17.6016 929.324 18.2031 929.746 18.9844C930.168 19.7578 930.379 20.6719 930.379 21.7266V28.5ZM924.824 26.6953C925.379 26.6953 925.891 26.582 926.359 26.3555C926.828 26.1211 927.207 25.793 927.496 25.3711C927.793 24.9414 927.953 24.4414 927.977 23.8711V23.707C927.578 23.4102 927.129 23.1797 926.629 23.0156C926.137 22.8438 925.633 22.7578 925.117 22.7578C924.328 22.7578 923.672 22.9453 923.148 23.3203C922.625 23.6953 922.363 24.1758 922.363 24.7617C922.363 25.1289 922.469 25.4609 922.68 25.7578C922.898 26.0469 923.191 26.2773 923.559 26.4492C923.934 26.6133 924.355 26.6953 924.824 26.6953ZM940.445 28.207C939.625 28.5586 938.832 28.7344 938.066 28.7344C937.301 28.7344 936.629 28.5703 936.051 28.2422C935.48 27.9141 935.031 27.4531 934.703 26.8594C934.383 26.2578 934.223 25.5664 934.223 24.7852V18.9258H932.172V16.7812H934.34V13.8516H936.625V16.7812H940.047V18.9258H936.625V24.3398C936.625 25.0273 936.809 25.5742 937.176 25.9805C937.551 26.3789 938.031 26.5781 938.617 26.5781C939.109 26.5781 939.598 26.4297 940.082 26.1328L940.445 28.207ZM961.188 28.5H958.785V22.3711C958.785 21.207 958.535 20.3047 958.035 19.6641C957.543 19.0234 956.848 18.7031 955.949 18.7031C955.035 18.7031 954.32 19.0273 953.805 19.6758C953.289 20.3242 953.031 21.2227 953.031 22.3711V28.5H950.629V22.3711C950.629 21.207 950.379 20.3047 949.879 19.6641C949.379 19.0234 948.68 18.7031 947.781 18.7031C946.867 18.7031 946.152 19.0273 945.637 19.6758C945.121 20.3242 944.863 21.2227 944.863 22.3711V28.5H942.461V16.7812H944.406L944.5 18.8203C944.891 18.0781 945.418 17.5156 946.082 17.1328C946.754 16.7422 947.543 16.5469 948.449 16.5469C949.41 16.5469 950.234 16.7578 950.922 17.1797C951.609 17.6016 952.129 18.207 952.48 18.9961C952.871 18.1914 953.41 17.582 954.098 17.168C954.793 16.7539 955.617 16.5469 956.57 16.5469C958.023 16.5469 959.156 17.0078 959.969 17.9297C960.781 18.8516 961.188 20.1367 961.188 21.7852V28.5ZM974.781 27.1055C973.328 28.1914 971.73 28.7344 969.988 28.7344C968.746 28.7344 967.633 28.4609 966.648 27.9141C965.664 27.3672 964.887 26.6211 964.316 25.6758C963.746 24.7305 963.461 23.6641 963.461 22.4766C963.461 21.3438 963.723 20.332 964.246 19.4414C964.77 18.543 965.484 17.8359 966.391 17.3203C967.297 16.8047 968.324 16.5469 969.473 16.5469C970.66 16.5469 971.703 16.8281 972.602 17.3906C973.508 17.9531 974.211 18.7383 974.711 19.7461C975.219 20.7461 975.473 21.9062 975.473 23.2266V23.6016H966.062C966.203 24.2109 966.465 24.7461 966.848 25.207C967.238 25.6602 967.723 26.0156 968.301 26.2734C968.887 26.5234 969.543 26.6484 970.27 26.6484C971.566 26.6484 972.758 26.2266 973.844 25.3828L974.781 27.1055ZM965.957 21.9375H973.234C973.156 21.2812 972.953 20.7109 972.625 20.2266C972.297 19.7344 971.871 19.3516 971.348 19.0781C970.832 18.7969 970.25 18.6562 969.602 18.6562C968.945 18.6562 968.355 18.7969 967.832 19.0781C967.309 19.3516 966.883 19.7344 966.555 20.2266C966.234 20.7188 966.035 21.2891 965.957 21.9375ZM989.207 28.5H986.805V21.9609C986.805 20.9609 986.535 20.1719 985.996 19.5938C985.465 19.0156 984.738 18.7266 983.816 18.7266C983.16 18.7266 982.574 18.875 982.059 19.1719C981.543 19.4688 981.137 19.8906 980.84 20.4375C980.543 20.9766 980.395 21.6055 980.395 22.3242V28.5H977.992V16.7812H980.02L980.102 18.668C980.531 17.9805 981.117 17.457 981.859 17.0977C982.602 16.7305 983.441 16.5469 984.379 16.5469C985.863 16.5469 987.039 16.9961 987.906 17.8945C988.773 18.793 989.207 20.0117 989.207 21.5508V28.5ZM999.391 28.207C998.57 28.5586 997.777 28.7344 997.012 28.7344C996.246 28.7344 995.574 28.5703 994.996 28.2422C994.426 27.9141 993.977 27.4531 993.648 26.8594C993.328 26.2578 993.168 25.5664 993.168 24.7852V18.9258H991.117V16.7812H993.285V13.8516H995.57V16.7812H998.992V18.9258H995.57V24.3398C995.57 25.0273 995.754 25.5742 996.121 25.9805C996.496 26.3789 996.977 26.5781 997.562 26.5781C998.055 26.5781 998.543 26.4297 999.027 26.1328L999.391 28.207Z" fill="#011016"/>
<path d="M1048.52 5.33842C1048.72 4.24665 1050.28 4.24664 1050.48 5.33841L1052.41 15.789C1052.48 16.197 1052.8 16.5162 1053.21 16.5913L1063.66 18.5165C1064.75 18.7177 1064.75 20.2823 1063.66 20.4835L1053.21 22.4087C1052.8 22.4838 1052.48 22.803 1052.41 23.211L1050.48 33.6616C1050.28 34.7534 1048.72 34.7534 1048.52 33.6616L1046.59 23.211C1046.52 22.803 1046.2 22.4838 1045.79 22.4087L1035.34 20.4835C1034.25 20.2823 1034.25 18.7177 1035.34 18.5165L1045.79 16.5913C1046.2 16.5162 1046.52 16.197 1046.59 15.789L1048.52 5.33842Z" fill="#F58220"/>
<path d="M1107.43 28.5H1104.56L1100.54 21.6211H1096.27V28.5H1093.69V10.9219H1100.51C1101.82 10.9219 1102.95 11.1367 1103.88 11.5664C1104.82 11.9961 1105.54 12.6094 1106.05 13.4062C1106.56 14.2031 1106.81 15.1562 1106.81 16.2656C1106.81 17.5078 1106.5 18.5547 1105.86 19.4062C1105.23 20.2578 1104.34 20.8633 1103.18 21.2227L1107.43 28.5ZM1096.27 19.4414H1100.33C1101.54 19.4414 1102.48 19.168 1103.16 18.6211C1103.84 18.0664 1104.18 17.2969 1104.18 16.3125C1104.18 15.3359 1103.84 14.5742 1103.16 14.0273C1102.48 13.4727 1101.54 13.1953 1100.33 13.1953H1096.27V19.4414ZM1115.09 28.7344C1113.91 28.7344 1112.86 28.4688 1111.92 27.9375C1110.98 27.4062 1110.25 26.6836 1109.71 25.7695C1109.17 24.8477 1108.9 23.8047 1108.9 22.6406C1108.9 21.4844 1109.17 20.4492 1109.71 19.5352C1110.25 18.6133 1110.98 17.8867 1111.92 17.3555C1112.86 16.8164 1113.91 16.5469 1115.09 16.5469C1116.27 16.5469 1117.32 16.8164 1118.25 17.3555C1119.18 17.8867 1119.91 18.6133 1120.44 19.5352C1120.98 20.4492 1121.25 21.4844 1121.25 22.6406C1121.25 23.8047 1120.98 24.8477 1120.44 25.7695C1119.91 26.6836 1119.18 27.4062 1118.25 27.9375C1117.32 28.4688 1116.27 28.7344 1115.09 28.7344ZM1115.07 26.5781C1115.79 26.5781 1116.42 26.4062 1116.97 26.0625C1117.54 25.7109 1117.98 25.2422 1118.3 24.6562C1118.62 24.0625 1118.79 23.3906 1118.79 22.6406C1118.79 21.8906 1118.62 21.2227 1118.3 20.6367C1117.98 20.043 1117.54 19.5742 1116.97 19.2305C1116.42 18.8789 1115.79 18.7031 1115.07 18.7031C1114.37 18.7031 1113.74 18.8789 1113.18 19.2305C1112.61 19.5742 1112.17 20.043 1111.84 20.6367C1111.52 21.2227 1111.36 21.8906 1111.36 22.6406C1111.36 23.3906 1111.52 24.0625 1111.84 24.6562C1112.17 25.2422 1112.61 25.7109 1113.18 26.0625C1113.74 26.4062 1114.37 26.5781 1115.07 26.5781ZM1129.08 28.7344C1127.91 28.7344 1126.85 28.4688 1125.91 27.9375C1124.98 27.4062 1124.24 26.6836 1123.7 25.7695C1123.16 24.8477 1122.89 23.8047 1122.89 22.6406C1122.89 21.4844 1123.16 20.4492 1123.7 19.5352C1124.24 18.6133 1124.98 17.8867 1125.91 17.3555C1126.85 16.8164 1127.91 16.5469 1129.08 16.5469C1130.26 16.5469 1131.31 16.8164 1132.24 17.3555C1133.17 17.8867 1133.9 18.6133 1134.43 19.5352C1134.97 20.4492 1135.24 21.4844 1135.24 22.6406C1135.24 23.8047 1134.97 24.8477 1134.43 25.7695C1133.9 26.6836 1133.17 27.4062 1132.24 27.9375C1131.31 28.4688 1130.26 28.7344 1129.08 28.7344ZM1129.07 26.5781C1129.78 26.5781 1130.41 26.4062 1130.96 26.0625C1131.53 25.7109 1131.97 25.2422 1132.29 24.6562C1132.62 24.0625 1132.78 23.3906 1132.78 22.6406C1132.78 21.8906 1132.62 21.2227 1132.29 20.6367C1131.97 20.043 1131.53 19.5742 1130.96 19.2305C1130.41 18.8789 1129.78 18.7031 1129.07 18.7031C1128.36 18.7031 1127.73 18.8789 1127.17 19.2305C1126.61 19.5742 1126.16 20.043 1125.83 20.6367C1125.51 21.2227 1125.35 21.8906 1125.35 22.6406C1125.35 23.3906 1125.51 24.0625 1125.83 24.6562C1126.16 25.2422 1126.61 25.7109 1127.17 26.0625C1127.73 26.4062 1128.36 26.5781 1129.07 26.5781ZM1144.9 28.207C1144.08 28.5586 1143.29 28.7344 1142.52 28.7344C1141.75 28.7344 1141.08 28.5703 1140.5 28.2422C1139.93 27.9141 1139.48 27.4531 1139.16 26.8594C1138.84 26.2578 1138.68 25.5664 1138.68 24.7852V18.9258H1136.62V16.7812H1138.79V13.8516H1141.08V16.7812H1144.5V18.9258H1141.08V24.3398C1141.08 25.0273 1141.26 25.5742 1141.63 25.9805C1142 26.3789 1142.48 26.5781 1143.07 26.5781C1143.56 26.5781 1144.05 26.4297 1144.54 26.1328L1144.9 28.207ZM1167.97 26.2617C1167.16 27.0742 1166.19 27.7109 1165.07 28.1719C1163.95 28.625 1162.73 28.8516 1161.41 28.8516C1160.09 28.8516 1158.87 28.625 1157.75 28.1719C1156.64 27.7188 1155.66 27.082 1154.84 26.2617C1154.02 25.4336 1153.38 24.4648 1152.91 23.3555C1152.46 22.2383 1152.23 21.0234 1152.23 19.7109C1152.23 18.3906 1152.46 17.1758 1152.91 16.0664C1153.38 14.9492 1154.02 13.9805 1154.84 13.1602C1155.66 12.3398 1156.64 11.7031 1157.75 11.25C1158.87 10.7969 1160.09 10.5703 1161.41 10.5703C1162.72 10.5703 1163.94 10.8008 1165.05 11.2617C1166.18 11.7148 1167.14 12.3438 1167.95 13.1484L1166.16 14.9766C1165.57 14.3125 1164.87 13.793 1164.05 13.418C1163.23 13.0352 1162.34 12.8438 1161.38 12.8438C1160.44 12.8438 1159.57 13.0156 1158.79 13.3594C1158 13.6953 1157.31 14.1758 1156.72 14.8008C1156.14 15.418 1155.68 16.1445 1155.35 16.9805C1155.03 17.8164 1154.87 18.7266 1154.87 19.7109C1154.87 20.6953 1155.03 21.6055 1155.35 22.4414C1155.68 23.2773 1156.14 24.0078 1156.72 24.6328C1157.31 25.25 1158 25.7305 1158.79 26.0742C1159.57 26.4102 1160.44 26.5781 1161.38 26.5781C1162.34 26.5781 1163.23 26.3906 1164.05 26.0156C1164.87 25.6328 1165.57 25.1094 1166.14 24.4453L1167.97 26.2617ZM1180.35 28.5H1178.27L1178.13 27C1177.7 27.5469 1177.16 27.9727 1176.5 28.2773C1175.85 28.582 1175.12 28.7344 1174.32 28.7344C1173.49 28.7344 1172.74 28.5703 1172.09 28.2422C1171.43 27.9141 1170.91 27.4648 1170.54 26.8945C1170.16 26.3242 1169.98 25.6758 1169.98 24.9492C1169.98 24.1836 1170.18 23.5117 1170.59 22.9336C1170.99 22.3477 1171.55 21.8906 1172.25 21.5625C1172.95 21.2266 1173.75 21.0586 1174.65 21.0586C1175.21 21.0586 1175.79 21.125 1176.36 21.2578C1176.95 21.3906 1177.48 21.5781 1177.95 21.8203V21.3867C1177.95 20.8164 1177.8 20.3281 1177.5 19.9219C1177.21 19.5078 1176.81 19.1914 1176.3 18.9727C1175.8 18.7539 1175.25 18.6445 1174.64 18.6445C1174.1 18.6445 1173.55 18.7383 1172.99 18.9258C1172.43 19.1133 1171.91 19.4023 1171.42 19.793L1170.69 17.8359C1171.4 17.4141 1172.14 17.0938 1172.91 16.875C1173.68 16.6562 1174.44 16.5469 1175.18 16.5469C1176.24 16.5469 1177.16 16.7578 1177.92 17.1797C1178.7 17.6016 1179.29 18.2031 1179.71 18.9844C1180.14 19.7578 1180.35 20.6719 1180.35 21.7266V28.5ZM1174.79 26.6953C1175.35 26.6953 1175.86 26.582 1176.33 26.3555C1176.8 26.1211 1177.18 25.793 1177.46 25.3711C1177.76 24.9414 1177.92 24.4414 1177.95 23.8711V23.707C1177.55 23.4102 1177.1 23.1797 1176.6 23.0156C1176.11 22.8438 1175.6 22.7578 1175.09 22.7578C1174.3 22.7578 1173.64 22.9453 1173.12 23.3203C1172.59 23.6953 1172.33 24.1758 1172.33 24.7617C1172.33 25.1289 1172.44 25.4609 1172.65 25.7578C1172.87 26.0469 1173.16 26.2773 1173.53 26.4492C1173.9 26.6133 1174.32 26.6953 1174.79 26.6953ZM1194.71 28.5H1192.31V21.9609C1192.31 20.9609 1192.04 20.1719 1191.5 19.5938C1190.97 19.0156 1190.25 18.7266 1189.32 18.7266C1188.67 18.7266 1188.08 18.875 1187.57 19.1719C1187.05 19.4688 1186.64 19.8906 1186.35 20.4375C1186.05 20.9766 1185.9 21.6055 1185.9 22.3242V28.5H1183.5V16.7812H1185.53L1185.61 18.668C1186.04 17.9805 1186.62 17.457 1187.37 17.0977C1188.11 16.7305 1188.95 16.5469 1189.89 16.5469C1191.37 16.5469 1192.55 16.9961 1193.41 17.8945C1194.28 18.793 1194.71 20.0117 1194.71 21.5508V28.5ZM1207.65 28.5H1205.58L1205.44 27C1205.01 27.5469 1204.46 27.9727 1203.81 28.2773C1203.15 28.582 1202.43 28.7344 1201.63 28.7344C1200.79 28.7344 1200.05 28.5703 1199.39 28.2422C1198.73 27.9141 1198.22 27.4648 1197.84 26.8945C1197.47 26.3242 1197.28 25.6758 1197.28 24.9492C1197.28 24.1836 1197.48 23.5117 1197.89 22.9336C1198.3 22.3477 1198.85 21.8906 1199.55 21.5625C1200.26 21.2266 1201.06 21.0586 1201.96 21.0586C1202.52 21.0586 1203.09 21.125 1203.67 21.2578C1204.25 21.3906 1204.78 21.5781 1205.25 21.8203V21.3867C1205.25 20.8164 1205.1 20.3281 1204.8 19.9219C1204.52 19.5078 1204.12 19.1914 1203.61 18.9727C1203.11 18.7539 1202.55 18.6445 1201.95 18.6445C1201.41 18.6445 1200.86 18.7383 1200.29 18.9258C1199.74 19.1133 1199.21 19.4023 1198.72 19.793L1198 17.8359C1198.71 17.4141 1199.45 17.0938 1200.21 16.875C1200.98 16.6562 1201.74 16.5469 1202.48 16.5469C1203.55 16.5469 1204.46 16.7578 1205.23 17.1797C1206 17.6016 1206.6 18.2031 1207.02 18.9844C1207.44 19.7578 1207.65 20.6719 1207.65 21.7266V28.5ZM1202.1 26.6953C1202.65 26.6953 1203.16 26.582 1203.63 26.3555C1204.1 26.1211 1204.48 25.793 1204.77 25.3711C1205.07 24.9414 1205.23 24.4414 1205.25 23.8711V23.707C1204.85 23.4102 1204.4 23.1797 1203.9 23.0156C1203.41 22.8438 1202.91 22.7578 1202.39 22.7578C1201.6 22.7578 1200.95 22.9453 1200.42 23.3203C1199.9 23.6953 1199.64 24.1758 1199.64 24.7617C1199.64 25.1289 1199.74 25.4609 1199.95 25.7578C1200.17 26.0469 1200.46 26.2773 1200.83 26.4492C1201.21 26.6133 1201.63 26.6953 1202.1 26.6953ZM1213.36 28.5H1210.8V10.9219H1213.36V28.5ZM1229.19 28.5H1226.61V13.1953H1221.12V10.9219H1234.69V13.1953H1229.19V28.5ZM1239.13 28.5H1236.73V16.7812H1238.82L1238.92 19.0078C1239.32 18.2344 1239.88 17.6328 1240.59 17.2031C1241.31 16.7656 1242.14 16.5469 1243.07 16.5469C1243.29 16.5469 1243.52 16.5625 1243.75 16.5938C1243.98 16.6172 1244.21 16.6562 1244.45 16.7109L1244.14 18.8789C1243.69 18.7617 1243.25 18.7031 1242.81 18.7031C1242.08 18.7031 1241.44 18.8789 1240.89 19.2305C1240.33 19.5742 1239.9 20.0508 1239.59 20.6602C1239.28 21.2695 1239.13 21.9727 1239.13 22.7695V28.5ZM1256.74 27.1055C1255.29 28.1914 1253.69 28.7344 1251.95 28.7344C1250.71 28.7344 1249.59 28.4609 1248.61 27.9141C1247.62 27.3672 1246.85 26.6211 1246.28 25.6758C1245.71 24.7305 1245.42 23.6641 1245.42 22.4766C1245.42 21.3438 1245.68 20.332 1246.21 19.4414C1246.73 18.543 1247.45 17.8359 1248.35 17.3203C1249.26 16.8047 1250.29 16.5469 1251.43 16.5469C1252.62 16.5469 1253.66 16.8281 1254.56 17.3906C1255.47 17.9531 1256.17 18.7383 1256.67 19.7461C1257.18 20.7461 1257.43 21.9062 1257.43 23.2266V23.6016H1248.02C1248.16 24.2109 1248.43 24.7461 1248.81 25.207C1249.2 25.6602 1249.68 26.0156 1250.26 26.2734C1250.85 26.5234 1251.5 26.6484 1252.23 26.6484C1253.53 26.6484 1254.72 26.2266 1255.8 25.3828L1256.74 27.1055ZM1247.92 21.9375H1255.2C1255.12 21.2812 1254.91 20.7109 1254.59 20.2266C1254.26 19.7344 1253.83 19.3516 1253.31 19.0781C1252.79 18.7969 1252.21 18.6562 1251.56 18.6562C1250.91 18.6562 1250.32 18.7969 1249.79 19.0781C1249.27 19.3516 1248.84 19.7344 1248.52 20.2266C1248.2 20.7188 1248 21.2891 1247.92 21.9375ZM1269.74 28.5H1267.66L1267.52 27C1267.09 27.5469 1266.55 27.9727 1265.89 28.2773C1265.24 28.582 1264.51 28.7344 1263.71 28.7344C1262.88 28.7344 1262.13 28.5703 1261.48 28.2422C1260.82 27.9141 1260.3 27.4648 1259.93 26.8945C1259.55 26.3242 1259.37 25.6758 1259.37 24.9492C1259.37 24.1836 1259.57 23.5117 1259.98 22.9336C1260.38 22.3477 1260.94 21.8906 1261.64 21.5625C1262.34 21.2266 1263.14 21.0586 1264.04 21.0586C1264.61 21.0586 1265.18 21.125 1265.75 21.2578C1266.34 21.3906 1266.87 21.5781 1267.34 21.8203V21.3867C1267.34 20.8164 1267.19 20.3281 1266.89 19.9219C1266.6 19.5078 1266.2 19.1914 1265.7 18.9727C1265.2 18.7539 1264.64 18.6445 1264.03 18.6445C1263.49 18.6445 1262.94 18.7383 1262.38 18.9258C1261.82 19.1133 1261.3 19.4023 1260.81 19.793L1260.08 17.8359C1260.79 17.4141 1261.53 17.0938 1262.3 16.875C1263.07 16.6562 1263.83 16.5469 1264.57 16.5469C1265.63 16.5469 1266.55 16.7578 1267.31 17.1797C1268.09 17.6016 1268.68 18.2031 1269.11 18.9844C1269.53 19.7578 1269.74 20.6719 1269.74 21.7266V28.5ZM1264.18 26.6953C1264.74 26.6953 1265.25 26.582 1265.72 26.3555C1266.19 26.1211 1266.57 25.793 1266.86 25.3711C1267.15 24.9414 1267.31 24.4414 1267.34 23.8711V23.707C1266.94 23.4102 1266.49 23.1797 1265.99 23.0156C1265.5 22.8438 1264.99 22.7578 1264.48 22.7578C1263.69 22.7578 1263.03 22.9453 1262.51 23.3203C1261.98 23.6953 1261.72 24.1758 1261.72 24.7617C1261.72 25.1289 1261.83 25.4609 1262.04 25.7578C1262.26 26.0469 1262.55 26.2773 1262.92 26.4492C1263.29 26.6133 1263.71 26.6953 1264.18 26.6953ZM1279.8 28.207C1278.98 28.5586 1278.19 28.7344 1277.43 28.7344C1276.66 28.7344 1275.99 28.5703 1275.41 28.2422C1274.84 27.9141 1274.39 27.4531 1274.06 26.8594C1273.74 26.2578 1273.58 25.5664 1273.58 24.7852V18.9258H1271.53V16.7812H1273.7V13.8516H1275.98V16.7812H1279.41V18.9258H1275.98V24.3398C1275.98 25.0273 1276.17 25.5742 1276.54 25.9805C1276.91 26.3789 1277.39 26.5781 1277.98 26.5781C1278.47 26.5781 1278.96 26.4297 1279.44 26.1328L1279.8 28.207ZM1300.55 28.5H1298.14V22.3711C1298.14 21.207 1297.89 20.3047 1297.39 19.6641C1296.9 19.0234 1296.21 18.7031 1295.31 18.7031C1294.39 18.7031 1293.68 19.0273 1293.16 19.6758C1292.65 20.3242 1292.39 21.2227 1292.39 22.3711V28.5H1289.99V22.3711C1289.99 21.207 1289.74 20.3047 1289.24 19.6641C1288.74 19.0234 1288.04 18.7031 1287.14 18.7031C1286.23 18.7031 1285.51 19.0273 1285 19.6758C1284.48 20.3242 1284.22 21.2227 1284.22 22.3711V28.5H1281.82V16.7812H1283.77L1283.86 18.8203C1284.25 18.0781 1284.78 17.5156 1285.44 17.1328C1286.11 16.7422 1286.9 16.5469 1287.81 16.5469C1288.77 16.5469 1289.59 16.7578 1290.28 17.1797C1290.97 17.6016 1291.49 18.207 1291.84 18.9961C1292.23 18.1914 1292.77 17.582 1293.46 17.168C1294.15 16.7539 1294.98 16.5469 1295.93 16.5469C1297.38 16.5469 1298.52 17.0078 1299.33 17.9297C1300.14 18.8516 1300.55 20.1367 1300.55 21.7852V28.5ZM1314.14 27.1055C1312.69 28.1914 1311.09 28.7344 1309.35 28.7344C1308.11 28.7344 1306.99 28.4609 1306.01 27.9141C1305.02 27.3672 1304.25 26.6211 1303.68 25.6758C1303.11 24.7305 1302.82 23.6641 1302.82 22.4766C1302.82 21.3438 1303.08 20.332 1303.61 19.4414C1304.13 18.543 1304.84 17.8359 1305.75 17.3203C1306.66 16.8047 1307.68 16.5469 1308.83 16.5469C1310.02 16.5469 1311.06 16.8281 1311.96 17.3906C1312.87 17.9531 1313.57 18.7383 1314.07 19.7461C1314.58 20.7461 1314.83 21.9062 1314.83 23.2266V23.6016H1305.42C1305.56 24.2109 1305.82 24.7461 1306.21 25.207C1306.6 25.6602 1307.08 26.0156 1307.66 26.2734C1308.25 26.5234 1308.9 26.6484 1309.63 26.6484C1310.93 26.6484 1312.12 26.2266 1313.2 25.3828L1314.14 27.1055ZM1305.32 21.9375H1312.59C1312.52 21.2812 1312.31 20.7109 1311.98 20.2266C1311.66 19.7344 1311.23 19.3516 1310.71 19.0781C1310.19 18.7969 1309.61 18.6562 1308.96 18.6562C1308.3 18.6562 1307.71 18.7969 1307.19 19.0781C1306.67 19.3516 1306.24 19.7344 1305.91 20.2266C1305.59 20.7188 1305.39 21.2891 1305.32 21.9375ZM1328.57 28.5H1326.16V21.9609C1326.16 20.9609 1325.89 20.1719 1325.36 19.5938C1324.82 19.0156 1324.1 18.7266 1323.18 18.7266C1322.52 18.7266 1321.93 18.875 1321.42 19.1719C1320.9 19.4688 1320.5 19.8906 1320.2 20.4375C1319.9 20.9766 1319.75 21.6055 1319.75 22.3242V28.5H1317.35V16.7812H1319.38L1319.46 18.668C1319.89 17.9805 1320.48 17.457 1321.22 17.0977C1321.96 16.7305 1322.8 16.5469 1323.74 16.5469C1325.22 16.5469 1326.4 16.9961 1327.27 17.8945C1328.13 18.793 1328.57 20.0117 1328.57 21.5508V28.5ZM1338.75 28.207C1337.93 28.5586 1337.14 28.7344 1336.37 28.7344C1335.61 28.7344 1334.93 28.5703 1334.36 28.2422C1333.79 27.9141 1333.34 27.4531 1333.01 26.8594C1332.69 26.2578 1332.53 25.5664 1332.53 24.7852V18.9258H1330.48V16.7812H1332.64V13.8516H1334.93V16.7812H1338.35V18.9258H1334.93V24.3398C1334.93 25.0273 1335.11 25.5742 1335.48 25.9805C1335.86 26.3789 1336.34 26.5781 1336.92 26.5781C1337.41 26.5781 1337.9 26.4297 1338.39 26.1328L1338.75 28.207Z" fill="#011016"/>
<path d="M1387.52 5.33842C1387.72 4.24665 1389.28 4.24664 1389.48 5.33841L1391.41 15.789C1391.48 16.197 1391.8 16.5162 1392.21 16.5913L1402.66 18.5165C1403.75 18.7177 1403.75 20.2823 1402.66 20.4835L1392.21 22.4087C1391.8 22.4838 1391.48 22.803 1391.41 23.211L1389.48 33.6616C1389.28 34.7534 1387.72 34.7534 1387.52 33.6616L1385.59 23.211C1385.52 22.803 1385.2 22.4838 1384.79 22.4087L1374.34 20.4835C1373.25 20.2823 1373.25 18.7177 1374.34 18.5165L1384.79 16.5913C1385.2 16.5162 1385.52 16.197 1385.59 15.789L1387.52 5.33842Z" fill="#F58220"/>
<path d="M1447.68 26.2617C1446.86 27.0742 1445.89 27.7109 1444.77 28.1719C1443.65 28.625 1442.43 28.8516 1441.11 28.8516C1439.79 28.8516 1438.57 28.625 1437.46 28.1719C1436.34 27.7188 1435.37 27.082 1434.54 26.2617C1433.72 25.4336 1433.08 24.4648 1432.62 23.3555C1432.16 22.2383 1431.94 21.0234 1431.94 19.7109C1431.94 18.3906 1432.16 17.1758 1432.62 16.0664C1433.08 14.9492 1433.72 13.9805 1434.54 13.1602C1435.37 12.3398 1436.34 11.7031 1437.46 11.25C1438.57 10.7969 1439.79 10.5703 1441.11 10.5703C1442.43 10.5703 1443.64 10.8008 1444.76 11.2617C1445.88 11.7148 1446.85 12.3438 1447.65 13.1484L1445.86 14.9766C1445.27 14.3125 1444.57 13.793 1443.75 13.418C1442.94 13.0352 1442.05 12.8438 1441.08 12.8438C1440.14 12.8438 1439.28 13.0156 1438.49 13.3594C1437.7 13.6953 1437.01 14.1758 1436.43 14.8008C1435.84 15.418 1435.38 16.1445 1435.05 16.9805C1434.73 17.8164 1434.57 18.7266 1434.57 19.7109C1434.57 20.6953 1434.73 21.6055 1435.05 22.4414C1435.38 23.2773 1435.84 24.0078 1436.43 24.6328C1437.01 25.25 1437.7 25.7305 1438.49 26.0742C1439.28 26.4102 1440.14 26.5781 1441.08 26.5781C1442.05 26.5781 1442.94 26.3906 1443.75 26.0156C1444.57 25.6328 1445.27 25.1094 1445.85 24.4453L1447.68 26.2617ZM1452.9 28.5H1450.5V16.7812H1452.6L1452.69 19.0078C1453.1 18.2344 1453.66 17.6328 1454.37 17.2031C1455.09 16.7656 1455.91 16.5469 1456.84 16.5469C1457.07 16.5469 1457.29 16.5625 1457.52 16.5938C1457.75 16.6172 1457.99 16.6562 1458.22 16.7109L1457.92 18.8789C1457.46 18.7617 1457.02 18.7031 1456.58 18.7031C1455.86 18.7031 1455.21 18.8789 1454.66 19.2305C1454.11 19.5742 1453.67 20.0508 1453.36 20.6602C1453.05 21.2695 1452.9 21.9727 1452.9 22.7695V28.5ZM1465.38 28.7344C1464.21 28.7344 1463.16 28.4688 1462.22 27.9375C1461.28 27.4062 1460.54 26.6836 1460 25.7695C1459.46 24.8477 1459.2 23.8047 1459.2 22.6406C1459.2 21.4844 1459.46 20.4492 1460 19.5352C1460.54 18.6133 1461.28 17.8867 1462.22 17.3555C1463.16 16.8164 1464.21 16.5469 1465.38 16.5469C1466.56 16.5469 1467.62 16.8164 1468.55 17.3555C1469.48 17.8867 1470.21 18.6133 1470.74 19.5352C1471.28 20.4492 1471.55 21.4844 1471.55 22.6406C1471.55 23.8047 1471.28 24.8477 1470.74 25.7695C1470.21 26.6836 1469.48 27.4062 1468.55 27.9375C1467.62 28.4688 1466.56 28.7344 1465.38 28.7344ZM1465.37 26.5781C1466.08 26.5781 1466.71 26.4062 1467.27 26.0625C1467.83 25.7109 1468.27 25.2422 1468.59 24.6562C1468.92 24.0625 1469.09 23.3906 1469.09 22.6406C1469.09 21.8906 1468.92 21.2227 1468.59 20.6367C1468.27 20.043 1467.83 19.5742 1467.27 19.2305C1466.71 18.8789 1466.08 18.7031 1465.37 18.7031C1464.67 18.7031 1464.04 18.8789 1463.47 19.2305C1462.91 19.5742 1462.46 20.043 1462.14 20.6367C1461.82 21.2227 1461.66 21.8906 1461.66 22.6406C1461.66 23.3906 1461.82 24.0625 1462.14 24.6562C1462.46 25.2422 1462.91 25.7109 1463.47 26.0625C1464.04 26.4062 1464.67 26.5781 1465.37 26.5781ZM1486.97 28.5H1484.2L1481.81 20.1211L1479.42 28.5H1476.66L1472.91 16.7812H1475.45L1478.02 25.7578L1480.72 16.7812H1482.9L1485.61 25.7695L1488.19 16.7812H1490.73L1486.97 28.5ZM1504.18 28.5H1501.78V21.9609C1501.78 20.9609 1501.51 20.1719 1500.97 19.5938C1500.44 19.0156 1499.71 18.7266 1498.79 18.7266C1498.14 18.7266 1497.55 18.875 1497.04 19.1719C1496.52 19.4688 1496.11 19.8906 1495.82 20.4375C1495.52 20.9766 1495.37 21.6055 1495.37 22.3242V28.5H1492.97V16.7812H1495L1495.08 18.668C1495.51 17.9805 1496.09 17.457 1496.84 17.0977C1497.58 16.7305 1498.42 16.5469 1499.36 16.5469C1500.84 16.5469 1502.02 16.9961 1502.88 17.8945C1503.75 18.793 1504.18 20.0117 1504.18 21.5508V28.5ZM1506.52 27.4805L1507.1 25.3242C1507.37 25.5898 1507.68 25.8242 1508.05 26.0273C1508.43 26.2305 1508.82 26.3906 1509.23 26.5078C1509.66 26.6172 1510.07 26.6719 1510.48 26.6719C1511.12 26.6719 1511.63 26.5352 1512.02 26.2617C1512.41 25.9883 1512.61 25.625 1512.61 25.1719C1512.61 24.8359 1512.5 24.5586 1512.28 24.3398C1512.07 24.1133 1511.79 23.918 1511.43 23.7539C1511.07 23.5898 1510.7 23.4297 1510.29 23.2734C1509.77 23.0781 1509.24 22.8516 1508.72 22.5938C1508.2 22.3359 1507.77 21.9922 1507.42 21.5625C1507.07 21.1328 1506.89 20.5664 1506.89 19.8633C1506.89 19.1914 1507.06 18.6094 1507.41 18.1172C1507.75 17.6172 1508.23 17.2305 1508.85 16.957C1509.46 16.6836 1510.18 16.5469 1510.98 16.5469C1512.23 16.5469 1513.47 16.8594 1514.7 17.4844L1513.99 19.5352C1513.74 19.3555 1513.45 19.1953 1513.1 19.0547C1512.76 18.9141 1512.41 18.8047 1512.05 18.7266C1511.69 18.6406 1511.36 18.5977 1511.05 18.5977C1510.54 18.5977 1510.13 18.7109 1509.82 18.9375C1509.52 19.1641 1509.36 19.4688 1509.36 19.8516C1509.36 20.0859 1509.44 20.3008 1509.59 20.4961C1509.73 20.6836 1509.97 20.8711 1510.29 21.0586C1510.62 21.2383 1511.06 21.4414 1511.61 21.668C1512.14 21.8789 1512.68 22.1211 1513.21 22.3945C1513.74 22.668 1514.18 23.0234 1514.53 23.4609C1514.89 23.8984 1515.07 24.4727 1515.07 25.1836C1515.07 25.8867 1514.88 26.5078 1514.51 27.0469C1514.13 27.5781 1513.61 27.9922 1512.94 28.2891C1512.27 28.5859 1511.5 28.7344 1510.62 28.7344C1509.16 28.7344 1507.79 28.3164 1506.52 27.4805ZM1533.13 28.5H1531.05L1530.91 27C1530.48 27.5469 1529.94 27.9727 1529.29 28.2773C1528.63 28.582 1527.9 28.7344 1527.11 28.7344C1526.27 28.7344 1525.52 28.5703 1524.87 28.2422C1524.21 27.9141 1523.7 27.4648 1523.32 26.8945C1522.95 26.3242 1522.76 25.6758 1522.76 24.9492C1522.76 24.1836 1522.96 23.5117 1523.37 22.9336C1523.77 22.3477 1524.33 21.8906 1525.03 21.5625C1525.73 21.2266 1526.54 21.0586 1527.43 21.0586C1528 21.0586 1528.57 21.125 1529.14 21.2578C1529.73 21.3906 1530.26 21.5781 1530.73 21.8203V21.3867C1530.73 20.8164 1530.58 20.3281 1530.28 19.9219C1529.99 19.5078 1529.59 19.1914 1529.09 18.9727C1528.59 18.7539 1528.03 18.6445 1527.42 18.6445C1526.88 18.6445 1526.33 18.7383 1525.77 18.9258C1525.21 19.1133 1524.69 19.4023 1524.2 19.793L1523.47 17.8359C1524.18 17.4141 1524.92 17.0938 1525.69 16.875C1526.46 16.6562 1527.22 16.5469 1527.96 16.5469C1529.02 16.5469 1529.94 16.7578 1530.7 17.1797C1531.48 17.6016 1532.07 18.2031 1532.5 18.9844C1532.92 19.7578 1533.13 20.6719 1533.13 21.7266V28.5ZM1527.57 26.6953C1528.13 26.6953 1528.64 26.582 1529.11 26.3555C1529.58 26.1211 1529.96 25.793 1530.25 25.3711C1530.54 24.9414 1530.7 24.4414 1530.73 23.8711V23.707C1530.33 23.4102 1529.88 23.1797 1529.38 23.0156C1528.89 22.8438 1528.38 22.7578 1527.87 22.7578C1527.08 22.7578 1526.42 22.9453 1525.9 23.3203C1525.38 23.6953 1525.11 24.1758 1525.11 24.7617C1525.11 25.1289 1525.22 25.4609 1525.43 25.7578C1525.65 26.0469 1525.94 26.2773 1526.31 26.4492C1526.68 26.6133 1527.11 26.6953 1527.57 26.6953ZM1547.5 28.5H1545.09V21.9609C1545.09 20.9609 1544.82 20.1719 1544.29 19.5938C1543.75 19.0156 1543.03 18.7266 1542.11 18.7266C1541.45 18.7266 1540.86 18.875 1540.35 19.1719C1539.83 19.4688 1539.43 19.8906 1539.13 20.4375C1538.83 20.9766 1538.68 21.6055 1538.68 22.3242V28.5H1536.28V16.7812H1538.31L1538.39 18.668C1538.82 17.9805 1539.41 17.457 1540.15 17.0977C1540.89 16.7305 1541.73 16.5469 1542.67 16.5469C1544.15 16.5469 1545.33 16.9961 1546.2 17.8945C1547.06 18.793 1547.5 20.0117 1547.5 21.5508V28.5ZM1562.3 28.5H1560.18L1560.05 26.8242C1559.52 27.418 1558.88 27.8867 1558.12 28.2305C1557.38 28.5664 1556.57 28.7344 1555.68 28.7344C1554.55 28.7344 1553.54 28.4688 1552.65 27.9375C1551.76 27.4062 1551.06 26.6797 1550.54 25.7578C1550.04 24.8359 1549.78 23.7969 1549.78 22.6406C1549.78 21.4766 1550.04 20.4375 1550.54 19.5234C1551.06 18.6016 1551.76 17.875 1552.65 17.3438C1553.54 16.8125 1554.55 16.5469 1555.68 16.5469C1556.52 16.5469 1557.3 16.6992 1558.02 17.0039C1558.75 17.3086 1559.37 17.7344 1559.89 18.2812V10.9219H1562.3V28.5ZM1556.07 26.5781C1556.79 26.5781 1557.43 26.4141 1558 26.0859C1558.57 25.7578 1559.04 25.3125 1559.38 24.75C1559.72 24.1875 1559.89 23.5469 1559.89 22.8281V22.4297C1559.89 21.7109 1559.72 21.0703 1559.38 20.5078C1559.04 19.9453 1558.57 19.5039 1558 19.1836C1557.43 18.8633 1556.79 18.7031 1556.07 18.7031C1555.35 18.7031 1554.7 18.875 1554.12 19.2188C1553.54 19.5625 1553.08 20.0312 1552.75 20.625C1552.41 21.2109 1552.24 21.8789 1552.24 22.6289C1552.24 23.3789 1552.41 24.0508 1552.75 24.6445C1553.08 25.2383 1553.54 25.7109 1554.12 26.0625C1554.7 26.4062 1555.35 26.5781 1556.07 26.5781ZM1571.39 28.5V10.9219H1577.72C1579.47 10.9219 1580.84 11.3125 1581.82 12.0938C1582.81 12.875 1583.31 13.957 1583.31 15.3398C1583.31 16.2773 1583.08 17.0977 1582.62 17.8008C1582.16 18.5039 1581.55 19.0195 1580.79 19.3477C1581.84 19.6211 1582.66 20.1328 1583.25 20.8828C1583.84 21.625 1584.14 22.5352 1584.14 23.6133C1584.14 24.5898 1583.9 25.4453 1583.41 26.1797C1582.94 26.9141 1582.26 27.4844 1581.39 27.8906C1580.52 28.2969 1579.5 28.5 1578.34 28.5H1571.39ZM1573.97 18.5508H1577.61C1578.57 18.5508 1579.34 18.3047 1579.91 17.8125C1580.48 17.3203 1580.77 16.6641 1580.77 15.8438C1580.77 15.0234 1580.47 14.3789 1579.89 13.9102C1579.31 13.4336 1578.52 13.1953 1577.51 13.1953H1573.97V18.5508ZM1573.97 26.2266H1577.74C1578.5 26.2266 1579.16 26.1055 1579.72 25.8633C1580.29 25.6133 1580.72 25.2695 1581.04 24.832C1581.35 24.3867 1581.5 23.8711 1581.5 23.2852C1581.5 22.7148 1581.36 22.2188 1581.06 21.7969C1580.77 21.375 1580.36 21.0547 1579.82 20.8359C1579.28 20.6094 1578.64 20.4961 1577.92 20.4961H1573.97V26.2266ZM1589.14 28.5H1586.74V16.7812H1588.84L1588.93 19.0078C1589.34 18.2344 1589.9 17.6328 1590.61 17.2031C1591.33 16.7656 1592.15 16.5469 1593.08 16.5469C1593.31 16.5469 1593.54 16.5625 1593.76 16.5938C1594 16.6172 1594.23 16.6562 1594.46 16.7109L1594.16 18.8789C1593.71 18.7617 1593.26 18.7031 1592.82 18.7031C1592.1 18.7031 1591.46 18.8789 1590.9 19.2305C1590.35 19.5742 1589.91 20.0508 1589.6 20.6602C1589.3 21.2695 1589.14 21.9727 1589.14 22.7695V28.5ZM1597.55 13.3828C1597.18 13.3828 1596.87 13.2539 1596.62 12.9961C1596.37 12.7383 1596.25 12.4258 1596.25 12.0586C1596.25 11.6914 1596.37 11.3828 1596.62 11.1328C1596.87 10.875 1597.18 10.7461 1597.55 10.7461C1597.92 10.7461 1598.23 10.875 1598.48 11.1328C1598.74 11.3828 1598.87 11.6914 1598.87 12.0586C1598.87 12.4258 1598.74 12.7383 1598.48 12.9961C1598.23 13.2539 1597.92 13.3828 1597.55 13.3828ZM1598.74 28.5H1596.34V16.7812H1598.74V28.5ZM1613.81 28.5H1611.69L1611.56 26.8242C1611.03 27.418 1610.39 27.8867 1609.64 28.2305C1608.9 28.5664 1608.08 28.7344 1607.19 28.7344C1606.07 28.7344 1605.06 28.4688 1604.17 27.9375C1603.28 27.4062 1602.57 26.6797 1602.06 25.7578C1601.55 24.8359 1601.3 23.7969 1601.3 22.6406C1601.3 21.4766 1601.55 20.4375 1602.06 19.5234C1602.57 18.6016 1603.28 17.875 1604.17 17.3438C1605.06 16.8125 1606.07 16.5469 1607.19 16.5469C1608.04 16.5469 1608.82 16.6992 1609.54 17.0039C1610.26 17.3086 1610.89 17.7344 1611.41 18.2812V10.9219H1613.81V28.5ZM1607.59 26.5781C1608.3 26.5781 1608.94 26.4141 1609.51 26.0859C1610.09 25.7578 1610.55 25.3125 1610.89 24.75C1611.24 24.1875 1611.41 23.5469 1611.41 22.8281V22.4297C1611.41 21.7109 1611.24 21.0703 1610.89 20.5078C1610.55 19.9453 1610.09 19.5039 1609.51 19.1836C1608.94 18.8633 1608.3 18.7031 1607.59 18.7031C1606.86 18.7031 1606.21 18.875 1605.63 19.2188C1605.05 19.5625 1604.6 20.0312 1604.26 20.625C1603.93 21.2109 1603.76 21.8789 1603.76 22.6289C1603.76 23.3789 1603.93 24.0508 1604.26 24.6445C1604.6 25.2383 1605.05 25.7109 1605.63 26.0625C1606.21 26.4062 1606.86 26.5781 1607.59 26.5781ZM1622.11 28.5469C1621.01 28.5469 1620.02 28.2852 1619.14 27.7617C1618.27 27.2383 1617.58 26.5234 1617.07 25.6172C1616.57 24.7109 1616.32 23.6875 1616.32 22.5469C1616.32 21.3984 1616.57 20.375 1617.07 19.4766C1617.58 18.5703 1618.27 17.8555 1619.14 17.332C1620.02 16.8086 1621.01 16.5469 1622.12 16.5469C1623 16.5469 1623.8 16.7148 1624.54 17.0508C1625.28 17.3867 1625.91 17.8477 1626.42 18.4336L1626.54 16.7812H1628.66V28.1836C1628.66 29.4961 1628.39 30.6289 1627.85 31.582C1627.32 32.543 1626.57 33.2852 1625.59 33.8086C1624.61 34.332 1623.46 34.5938 1622.12 34.5938C1620.24 34.5938 1618.58 33.9805 1617.14 32.7539L1618.16 30.8086C1619.21 31.8945 1620.49 32.4375 1621.98 32.4375C1622.85 32.4375 1623.6 32.2578 1624.23 31.8984C1624.87 31.5391 1625.37 31.0352 1625.72 30.3867C1626.08 29.7461 1626.26 28.9883 1626.26 28.1133V26.8359C1625.74 27.3672 1625.13 27.7852 1624.42 28.0898C1623.71 28.3945 1622.94 28.5469 1622.11 28.5469ZM1622.51 26.4141C1623.2 26.4141 1623.82 26.2578 1624.38 25.9453C1624.95 25.6328 1625.41 25.207 1625.74 24.668C1626.09 24.1211 1626.26 23.5 1626.26 22.8047V22.2773C1626.26 21.582 1626.09 20.9648 1625.74 20.4258C1625.41 19.8867 1624.95 19.4609 1624.38 19.1484C1623.82 18.8359 1623.2 18.6797 1622.51 18.6797C1621.79 18.6797 1621.15 18.8516 1620.59 19.1953C1620.02 19.5312 1619.58 19.9922 1619.25 20.5781C1618.92 21.1562 1618.76 21.8125 1618.76 22.5469C1618.76 23.2812 1618.92 23.9414 1619.25 24.5273C1619.58 25.1133 1620.02 25.5742 1620.59 25.9102C1621.15 26.2461 1621.79 26.4141 1622.51 26.4141ZM1642.38 27.1055C1640.93 28.1914 1639.33 28.7344 1637.59 28.7344C1636.35 28.7344 1635.23 28.4609 1634.25 27.9141C1633.27 27.3672 1632.49 26.6211 1631.92 25.6758C1631.35 24.7305 1631.06 23.6641 1631.06 22.4766C1631.06 21.3438 1631.32 20.332 1631.85 19.4414C1632.37 18.543 1633.09 17.8359 1633.99 17.3203C1634.9 16.8047 1635.93 16.5469 1637.07 16.5469C1638.26 16.5469 1639.3 16.8281 1640.2 17.3906C1641.11 17.9531 1641.81 18.7383 1642.31 19.7461C1642.82 20.7461 1643.07 21.9062 1643.07 23.2266V23.6016H1633.66C1633.8 24.2109 1634.07 24.7461 1634.45 25.207C1634.84 25.6602 1635.32 26.0156 1635.9 26.2734C1636.49 26.5234 1637.14 26.6484 1637.87 26.6484C1639.17 26.6484 1640.36 26.2266 1641.45 25.3828L1642.38 27.1055ZM1633.56 21.9375H1640.84C1640.76 21.2812 1640.55 20.7109 1640.23 20.2266C1639.9 19.7344 1639.47 19.3516 1638.95 19.0781C1638.43 18.7969 1637.85 18.6562 1637.2 18.6562C1636.55 18.6562 1635.96 18.7969 1635.43 19.0781C1634.91 19.3516 1634.48 19.7344 1634.16 20.2266C1633.84 20.7188 1633.64 21.2891 1633.56 21.9375ZM1644.77 27.4805L1645.36 25.3242C1645.62 25.5898 1645.94 25.8242 1646.31 26.0273C1646.68 26.2305 1647.08 26.3906 1647.49 26.5078C1647.91 26.6172 1648.33 26.6719 1648.73 26.6719C1649.38 26.6719 1649.89 26.5352 1650.28 26.2617C1650.67 25.9883 1650.87 25.625 1650.87 25.1719C1650.87 24.8359 1650.76 24.5586 1650.54 24.3398C1650.33 24.1133 1650.04 23.918 1649.68 23.7539C1649.33 23.5898 1648.95 23.4297 1648.55 23.2734C1648.02 23.0781 1647.5 22.8516 1646.98 22.5938C1646.46 22.3359 1646.03 21.9922 1645.68 21.5625C1645.32 21.1328 1645.15 20.5664 1645.15 19.8633C1645.15 19.1914 1645.32 18.6094 1645.66 18.1172C1646.01 17.6172 1646.49 17.2305 1647.11 16.957C1647.72 16.6836 1648.43 16.5469 1649.24 16.5469C1650.49 16.5469 1651.73 16.8594 1652.95 17.4844L1652.25 19.5352C1652 19.3555 1651.7 19.1953 1651.36 19.0547C1651.02 18.9141 1650.66 18.8047 1650.3 18.7266C1649.95 18.6406 1649.61 18.5977 1649.31 18.5977C1648.8 18.5977 1648.39 18.7109 1648.08 18.9375C1647.77 19.1641 1647.62 19.4688 1647.62 19.8516C1647.62 20.0859 1647.7 20.3008 1647.84 20.4961C1647.99 20.6836 1648.23 20.8711 1648.55 21.0586C1648.88 21.2383 1649.32 21.4414 1649.87 21.668C1650.4 21.8789 1650.93 22.1211 1651.46 22.3945C1652 22.668 1652.44 23.0234 1652.79 23.4609C1653.15 23.8984 1653.33 24.4727 1653.33 25.1836C1653.33 25.8867 1653.14 26.5078 1652.77 27.0469C1652.39 27.5781 1651.87 27.9922 1651.2 28.2891C1650.53 28.5859 1649.76 28.7344 1648.88 28.7344C1647.41 28.7344 1646.05 28.3164 1644.77 27.4805Z" fill="#011016"/>
</svg>
