<svg width="86" height="86" viewBox="0 0 86 86" fill="none" xmlns="http://www.w3.org/2000/svg">
<rect width="86" height="86" rx="43" fill="#FFFAF5"/>
<path d="M42.9 54.3101C44.62 54.3101 46.04 55.7301 46.04 57.4501C46.04 59.1701 44.62 60.5901 42.9 60.5901C41.18 60.5901 39.76 59.1701 39.76 57.4501C39.76 55.7301 41.18 54.3101 42.9 54.3101Z" fill="white"/>
<path d="M63.74 23.0601C66.2 23.0601 68.19 25.0501 68.19 27.5101C68.19 29.9701 66.2 31.9601 63.74 31.9601C61.28 31.9601 59.29 29.9701 59.29 27.5101C59.29 25.0501 61.28 23.0601 63.74 23.0601Z" fill="#FBE5D0"/>
<path d="M23.99 35.7C25.71 35.7 27.13 37.12 27.13 38.84C27.13 40.56 25.71 41.9799 23.99 41.9799C22.27 41.9799 20.85 40.56 20.85 38.84C20.85 37.12 22.17 35.7 23.99 35.7Z" fill="#FBE5D0"/>
<path d="M46.04 35.8999H35.82V33.6699C35.82 29.8299 38.96 26.6899 42.8 26.6899C44.72 26.6899 46.44 27.4999 47.76 28.7099C48.97 29.9199 49.78 31.7399 49.78 33.6699V35.8999H46.04Z" fill="#FBE5D0"/>
<path d="M64.45 65.6399H54.23V63.4099C54.23 59.5699 57.37 56.4299 61.21 56.4299C63.13 56.4299 64.85 57.2399 66.17 58.4499C67.38 59.6599 68.19 61.4799 68.19 63.4099V65.6399H64.45Z" fill="#FBE5D0"/>
<path d="M27.73 65.6399H17.51V63.4099C17.51 59.5699 20.65 56.4299 24.49 56.4299C26.41 56.4299 28.13 57.2399 29.45 58.4499C30.66 59.6599 31.47 61.4799 31.47 63.4099V65.6399H27.73Z" fill="#FBE5D0"/>
<path d="M24.59 48.3501C26.82 48.3501 28.64 50.1701 28.64 52.4001C28.64 54.6301 26.82 56.4501 24.59 56.4501C22.36 56.4501 20.54 54.6301 20.54 52.4001C20.54 50.1701 22.36 48.3501 24.59 48.3501Z" fill="white"/>
<path d="M61.31 48.3501C63.54 48.3501 65.36 50.1701 65.36 52.4001C65.36 54.6301 63.54 56.4501 61.31 56.4501C59.08 56.4501 57.26 54.6301 57.26 52.4001C57.16 50.1701 58.98 48.3501 61.31 48.3501Z" fill="white"/>
<path d="M42.9 18.6001C45.13 18.6001 46.95 20.4201 46.95 22.6501C46.95 24.8801 45.13 26.7001 42.9 26.7001C40.67 26.7001 38.85 24.8801 38.85 22.6501C38.85 20.4201 40.67 18.6001 42.9 18.6001Z" fill="white"/>
<path d="M67.89 39.1401C68.3 39.5401 68.3 40.1501 67.89 40.4501C67.49 40.8501 66.88 40.8501 66.58 40.4501C66.17 40.0501 66.17 39.4401 66.58 39.1401C66.98 38.7401 67.59 38.7401 67.89 39.1401Z" fill="#F58220"/>
<path d="M55.24 18.3C55.64 18.7 55.64 19.31 55.24 19.61C54.84 20.01 54.23 20.01 53.92 19.61C53.52 19.21 53.52 18.6 53.92 18.3C54.33 17.9 54.93 17.9 55.24 18.3Z" fill="#F58220"/>
<path d="M54.03 44.1999C54.43 44.5999 54.43 45.2099 54.03 45.5199C53.63 45.9199 53.02 45.9199 52.71 45.5199C52.31 45.1199 52.31 44.5099 52.71 44.1999C53.01 43.7999 53.62 43.7999 54.03 44.1999Z" fill="#F58220"/>
<path d="M42.6 66.35C43 66.75 43 67.36 42.6 67.67C42.19 68.07 41.59 68.07 41.28 67.67C40.88 67.27 40.88 66.66 41.28 66.35C41.68 65.95 42.29 65.95 42.6 66.35Z" fill="#F58220"/>
<path d="M33.09 42.9799C33.49 43.3799 33.49 43.9899 33.09 44.2999C32.68 44.6999 32.08 44.6999 31.77 44.2999C31.36 43.8999 31.36 43.2899 31.77 42.9799C32.17 42.5799 32.78 42.5799 33.09 42.9799Z" fill="#F58220"/>
<path d="M24.29 21.4399C24.7 21.8399 24.7 22.4499 24.29 22.7499C23.89 23.1499 23.28 23.1499 22.98 22.7499C22.57 22.3499 22.57 21.7399 22.98 21.4399C23.28 21.0399 23.89 21.0399 24.29 21.4399Z" fill="#F58220"/>
<path d="M68.19 66.2501H54.33C54.03 66.2501 53.72 65.9501 53.72 65.6401V63.4101C53.72 59.2601 57.16 55.8201 61.31 55.8201C63.33 55.8201 65.26 56.6301 66.67 58.0501C68.09 59.4701 68.9 61.3901 68.9 63.4101V65.6401C68.8 66.0401 68.5 66.2501 68.19 66.2501ZM54.94 65.0401H67.59V63.4201C67.59 61.7001 66.88 60.1801 65.77 58.9701C64.56 57.7601 63.04 57.1501 61.32 57.1501C57.88 57.1501 55.05 59.9801 55.05 63.5201L54.95 65.0401H54.94Z" fill="#F58220"/>
<path d="M42.9 61.2901C40.78 61.2901 39.06 59.5701 39.06 57.4501C39.06 55.3301 40.78 53.6101 42.9 53.6101C45.02 53.6101 46.74 55.3301 46.74 57.4501C46.74 59.5701 45.02 61.2901 42.9 61.2901ZM42.9 54.9201C41.48 54.9201 40.37 56.0301 40.37 57.4501C40.37 58.8701 41.48 59.9801 42.9 59.9801C44.32 59.9801 45.43 58.8701 45.43 57.4501C45.43 56.1401 44.32 54.9201 42.9 54.9201Z" fill="#F58220"/>
<path d="M52.41 58.1599H46.04C45.74 58.1599 45.43 57.8599 45.43 57.5499C45.43 57.2399 45.73 56.9399 46.04 56.9399H52.41C52.71 56.9399 53.02 57.2399 53.02 57.5499C53.02 57.8599 52.72 58.1599 52.41 58.1599Z" fill="#F58220"/>
<path d="M39.77 58.1599H33.4C33.1 58.1599 32.79 57.8599 32.79 57.5499C32.79 57.2399 33.09 56.9399 33.4 56.9399H39.77C40.07 56.9399 40.38 57.2399 40.38 57.5499C40.38 57.8599 40.08 58.1599 39.77 58.1599Z" fill="#F58220"/>
<path d="M42.9 54.9199C42.6 54.9199 42.29 54.6199 42.29 54.3099V39.7399C42.29 39.4399 42.59 39.1299 42.9 39.1299C43.21 39.1299 43.51 39.4299 43.51 39.7399V54.3099C43.51 54.7099 43.21 54.9199 42.9 54.9199Z" fill="#F58220"/>
<path d="M61.31 57.1499C58.68 57.1499 56.56 55.0299 56.56 52.3999C56.56 49.7699 58.68 47.6499 61.21 47.6499C63.74 47.6499 65.96 49.7699 65.96 52.2999C65.96 54.8299 63.84 57.1599 61.31 57.1599V57.1499ZM61.31 48.9499C59.39 48.9499 57.87 50.4699 57.87 52.3899C57.87 54.3099 59.39 55.8299 61.31 55.8299C63.23 55.8299 64.75 54.3099 64.75 52.3899C64.75 50.4699 63.13 48.9499 61.31 48.9499Z" fill="#F58220"/>
<path d="M31.57 66.2501H17.61C17.31 66.2501 17 65.9501 17 65.6401V63.4101C17 59.2601 20.44 55.8201 24.59 55.8201C26.61 55.8201 28.54 56.6301 29.95 58.0501C31.37 59.4701 32.18 61.3901 32.18 63.4101V65.6401C32.18 66.0401 31.88 66.2501 31.57 66.2501ZM18.22 65.0401H30.87V63.4201C30.87 61.7001 30.16 60.1801 29.05 58.9701C27.84 57.7601 26.22 57.1501 24.6 57.1501C21.16 57.1501 18.23 59.9801 18.23 63.5201V65.0401H18.22Z" fill="#F58220"/>
<path d="M24.59 57.1499C21.96 57.1499 19.94 55.0299 19.94 52.3999C19.94 49.7699 22.06 47.6499 24.59 47.6499C27.12 47.6499 29.24 49.7699 29.24 52.2999C29.24 54.8299 27.22 57.1599 24.59 57.1599V57.1499ZM24.59 48.9499C22.67 48.9499 21.15 50.4699 21.15 52.3899C21.15 54.3099 22.67 55.8299 24.59 55.8299C26.51 55.8299 28.03 54.3099 28.03 52.3899C28.03 50.4699 26.51 48.9499 24.59 48.9499Z" fill="#F58220"/>
<path d="M21.46 66.2499C21.16 66.2499 20.85 65.9499 20.85 65.6399V62.4999C20.85 62.1999 21.15 61.8899 21.46 61.8899C21.77 61.8899 22.07 62.1899 22.07 62.4999V65.6399C22.07 66.0399 21.77 66.2499 21.46 66.2499Z" fill="#F58220"/>
<path d="M27.73 66.2499C27.43 66.2499 27.12 65.9499 27.12 65.6399V62.4999C27.12 62.1999 27.42 61.8899 27.73 61.8899C28.04 61.8899 28.34 62.1899 28.34 62.4999V65.6399C28.34 66.0399 28.04 66.2499 27.73 66.2499Z" fill="#F58220"/>
<path d="M58.08 66.2499C57.78 66.2499 57.47 65.9499 57.47 65.6399V62.4999C57.47 62.1999 57.77 61.8899 58.08 61.8899C58.39 61.8899 58.69 62.1899 58.69 62.4999V65.6399C58.69 66.0399 58.39 66.2499 58.08 66.2499Z" fill="#F58220"/>
<path d="M64.45 66.2499C64.15 66.2499 63.84 65.9499 63.84 65.6399V62.4999C63.84 62.1999 64.14 61.8899 64.45 61.8899C64.76 61.8899 65.06 62.1899 65.06 62.4999V65.6399C65.06 66.0399 64.76 66.2499 64.45 66.2499Z" fill="#F58220"/>
<path d="M49.88 36.6099H35.92C35.62 36.6099 35.31 36.3099 35.31 35.9999V33.7699C35.31 29.6199 38.75 26.1799 42.9 26.1799C44.92 26.1799 46.85 26.9899 48.26 28.4099C49.68 29.8299 50.49 31.7499 50.49 33.7699V35.9999C50.49 36.2999 50.19 36.6099 49.88 36.6099ZM36.63 35.2999H49.27V33.6799C49.27 31.9599 48.56 30.4399 47.45 29.2299C46.34 28.0199 44.62 27.4099 43 27.4099C39.56 27.4099 36.63 30.2399 36.63 33.7799V35.2999Z" fill="#F58220"/>
<path d="M42.9 27.4101C40.27 27.4101 38.15 25.2901 38.15 22.7601C38.15 20.2301 40.27 18.1101 42.9 18.1101C45.53 18.1101 47.55 20.2301 47.55 22.7601C47.55 25.2901 45.53 27.4101 42.9 27.4101ZM42.9 19.3101C40.98 19.3101 39.46 20.8301 39.46 22.7501C39.46 24.6701 40.98 26.1901 42.9 26.1901C44.82 26.1901 46.34 24.6701 46.34 22.7501C46.34 20.8301 44.82 19.3101 42.9 19.3101Z" fill="#F58220"/>
<path d="M39.77 36.61C39.47 36.61 39.16 36.31 39.16 36V32.86C39.16 32.56 39.46 32.25 39.77 32.25C40.08 32.25 40.38 32.55 40.38 32.86V36C40.38 36.3 40.08 36.61 39.77 36.61Z" fill="#F58220"/>
<path d="M46.04 36.61C45.74 36.61 45.43 36.31 45.43 36V32.86C45.43 32.56 45.73 32.25 46.04 32.25C46.35 32.25 46.65 32.55 46.65 32.86V36C46.75 36.3 46.45 36.61 46.04 36.61Z" fill="#F58220"/>
<path d="M63.74 32.5599C60.91 32.5599 58.68 30.3299 58.68 27.4999C58.68 24.6699 60.91 22.4399 63.74 22.4399C66.57 22.4399 68.8 24.6699 68.8 27.4999C68.8 30.3299 66.57 32.5599 63.74 32.5599ZM63.74 23.6599C61.62 23.6599 59.9 25.3799 59.9 27.3999C59.9 29.4199 61.62 31.2399 63.74 31.2399C65.86 31.2399 67.58 29.5199 67.58 27.3999C67.58 25.2799 65.86 23.6599 63.74 23.6599Z" fill="#F58220"/>
<path d="M23.99 42.68C21.87 42.68 20.15 40.96 20.15 38.84C20.15 36.72 21.87 35 23.99 35C26.11 35 27.83 36.72 27.83 38.84C27.73 40.96 26.01 42.68 23.99 42.68ZM23.99 36.31C22.57 36.31 21.46 37.42 21.46 38.84C21.46 40.26 22.57 41.37 23.99 41.37C25.41 41.37 26.52 40.26 26.52 38.84C26.52 37.53 25.31 36.31 23.99 36.31Z" fill="#F58220"/>
</svg>
