<svg width="86" height="86" viewBox="0 0 86 86" fill="none" xmlns="http://www.w3.org/2000/svg">
<rect width="86" height="86" rx="43" fill="#FFFAF5"/>
<path d="M23.1987 64.2299C25.7655 64.2299 27.8463 62.1492 27.8463 59.5824C27.8463 57.0156 25.7655 54.9348 23.1987 54.9348C20.632 54.9348 18.5512 57.0156 18.5512 59.5824C18.5512 62.1492 20.632 64.2299 23.1987 64.2299Z" fill="#FBE5D0"/>
<path d="M64.3563 49.7271C65.9453 49.7271 67.2404 51.0129 67.2404 52.6111C67.2404 54.2093 65.9545 55.4952 64.3563 55.4952C62.7582 55.4952 61.4723 54.2093 61.4723 52.6111C61.4723 51.0129 62.7582 49.7271 64.3563 49.7271Z" fill="#FBE5D0"/>
<path d="M64.0805 19.5364C64.5397 19.5364 64.9163 19.913 64.9163 20.3722C64.9163 20.8314 64.5397 21.208 64.0805 21.208C63.6213 21.208 63.2447 20.8314 63.2447 20.3722C63.2447 19.913 63.6213 19.5364 64.0805 19.5364Z" fill="#F58220"/>
<path d="M59.4333 59.5823C59.8926 59.5823 60.2692 59.9589 60.2692 60.4181C60.2692 60.8774 59.8926 61.2539 59.4333 61.2539C58.9741 61.2539 58.5975 60.8774 58.5975 60.4181C58.5975 59.9589 58.9741 59.5823 59.4333 59.5823Z" fill="#F58220"/>
<path d="M43.4515 54.9348C32.8613 54.9348 24.3102 46.3837 24.3102 35.7935C24.3102 25.2033 32.8613 16.6521 43.4515 16.6521C54.0417 16.6521 62.6847 25.2033 62.6847 35.7935C62.6847 46.3837 54.0417 54.9348 43.4515 54.9348Z" fill="white"/>
<path d="M43.4514 21.8599C51.1668 21.8599 57.3849 28.0872 57.3849 35.7934C57.3849 43.4995 51.1576 49.7269 43.4514 49.7269C35.7453 49.7269 29.5179 43.4995 29.5179 35.7934C29.5179 28.0872 35.7453 21.8599 43.4514 21.8599Z" fill="#FBE5D0"/>
<path d="M52.5535 33.378L46.9782 37.4653L49.1183 44.06L43.4512 39.9727L37.876 44.06L40.0161 37.4653L34.349 33.378H41.3111L43.4512 26.7832L45.5913 33.378H52.5535Z" fill="white"/>
<path d="M51.0747 53.355V69.9889L43.4604 64.2299L35.9379 70.0807V53.355C40.7692 55.4951 46.2526 55.4951 51.0839 53.355H51.0747Z" fill="#FBE5D0"/>
<path d="M30.9969 64.2207C31.4561 64.2207 31.8327 64.5973 31.8327 65.0565C31.8327 65.5158 31.4561 65.8924 30.9969 65.8924C30.5376 65.8924 30.161 65.5158 30.161 65.0565C30.161 64.5973 30.5376 64.2207 30.9969 64.2207Z" fill="#F58220"/>
<path d="M23.474 20.0872C23.9333 20.0872 24.3099 20.4637 24.3099 20.923C24.3099 21.3822 23.9333 21.7588 23.474 21.7588C23.0148 21.7588 22.6382 21.3822 22.6382 20.923C22.6382 20.4637 23.0148 20.0872 23.474 20.0872Z" fill="#F58220"/>
<path d="M19.387 37.5569C19.8463 37.5569 20.2228 37.9335 20.2228 38.3927C20.2228 38.852 19.8463 39.2285 19.387 39.2285C18.9278 39.2285 18.5512 38.852 18.5512 38.3927C18.5512 37.9335 18.9278 37.5569 19.387 37.5569Z" fill="#F58220"/>
<path d="M43.4516 50.2874C35.4607 50.2874 28.9578 43.7845 28.9578 35.7936C28.9578 27.8027 35.4607 21.2998 43.4516 21.2998C51.4424 21.2998 57.9454 27.8027 57.9454 35.7936C57.9454 43.7845 51.4424 50.2874 43.4516 50.2874ZM43.4516 22.4112C36.1128 22.4112 30.0691 28.3538 30.0691 35.7936C30.0691 43.2334 36.0118 49.176 43.4516 49.176C50.8913 49.176 56.834 43.2334 56.834 35.7936C56.834 28.3538 50.8913 22.4112 43.4516 22.4112Z" fill="#F58220"/>
<path d="M51.0749 70.6319C50.983 70.6319 50.7994 70.6319 50.7075 70.5401L43.5525 64.9648L36.3974 70.5401C36.2137 70.6319 36.03 70.7238 35.7453 70.6319C35.5616 70.5401 35.4697 70.3564 35.4697 70.0717V53.3459C35.4697 53.0704 35.7453 52.7856 36.03 52.7856C36.3147 52.7856 36.5903 53.0612 36.5903 53.3459V68.8592L43.1851 63.7524C43.3688 63.5687 43.6535 63.5687 43.929 63.7524L50.5238 68.8592V53.3459C50.5238 53.0704 50.7994 52.7856 51.0841 52.7856C51.3688 52.7856 51.6444 53.0612 51.6444 53.3459V69.9798C51.6444 70.1635 51.5525 70.4482 51.3688 70.5401C51.1851 70.6319 51.0933 70.6319 51.0933 70.6319H51.0749Z" fill="#F58220"/>
<path d="M43.4515 55.4951C40.7604 55.4951 38.1518 54.9349 35.6444 53.9153C28.3975 50.7557 23.6581 43.6925 23.6581 35.7935C23.6581 24.9186 32.4848 16 43.4515 16C54.4183 16 63.245 24.8267 63.245 35.7935C63.245 43.6925 58.5056 50.8476 51.2587 53.9153C48.7512 54.9349 46.1519 55.4951 43.4515 55.4951ZM43.4515 17.2124C33.2287 17.2124 24.8705 25.5707 24.8705 35.7935C24.8705 43.2241 29.3343 49.9199 36.1128 52.8866C38.4366 53.9062 40.8522 54.3746 43.4515 54.3746C46.0509 54.3746 48.4665 53.9062 50.7903 52.8866C57.6698 49.9107 62.0326 43.2241 62.0326 35.7935C62.0326 25.4788 53.7662 17.2124 43.4515 17.2124Z" fill="#F58220"/>
<path d="M49.1185 44.7119C49.0266 44.7119 48.8429 44.7119 48.7419 44.62L43.4422 40.8083L38.1425 44.62C37.9588 44.8037 37.6832 44.8037 37.4904 44.62C37.3067 44.4363 37.2148 44.2526 37.3067 43.9679L39.3549 37.7405L34.0552 33.837C33.8715 33.6533 33.7796 33.4696 33.8715 33.1848C33.9633 32.9093 34.147 32.8174 34.4318 32.8174H40.9347L42.9829 26.5901C43.0748 26.3145 43.2585 26.2227 43.5432 26.2227C43.8279 26.2227 44.0116 26.4064 44.1035 26.5901L46.1517 32.8174H52.6546C52.9302 32.8174 53.1231 33.0011 53.2149 33.1848C53.3068 33.4604 53.2149 33.6533 53.0312 33.837L47.7315 37.6487L49.7798 43.8761C49.8716 44.1516 49.7798 44.3445 49.5961 44.5282C49.3205 44.62 49.2195 44.7119 49.1276 44.7119H49.1185ZM43.4514 39.4214C43.5432 39.4214 43.7269 39.4214 43.8188 39.5132L47.9979 42.581L46.4181 37.6579C46.3262 37.3823 46.4181 37.1894 46.6018 37.0057L50.7809 33.938H45.5823C45.3067 33.938 45.1138 33.7543 45.022 33.5706L43.4422 28.6475L41.8624 33.5706C41.7705 33.8461 41.5868 33.938 41.3021 33.938H36.1034L40.2826 37.0057C40.4663 37.1894 40.5581 37.3731 40.4663 37.6579L38.8865 42.581L43.0656 39.5132C43.2493 39.5132 43.3411 39.4214 43.433 39.4214H43.4514Z" fill="#F58220"/>
<path d="M64.3562 56.138C62.409 56.138 60.8292 54.5582 60.8292 52.611C60.8292 50.6638 62.409 49.084 64.3562 49.084C66.3034 49.084 67.8832 50.6638 67.8832 52.611C67.8832 54.5582 66.3034 56.138 64.3562 56.138ZM64.3562 50.2872C63.0519 50.2872 62.0324 51.3067 62.0324 52.611C62.0324 53.9153 63.0519 54.9348 64.3562 54.9348C65.6604 54.9348 66.68 53.9153 66.68 52.611C66.68 51.3067 65.6604 50.2872 64.3562 50.2872Z" fill="#F58220"/>
<path d="M23.1987 64.7811C20.3146 64.7811 18 62.4573 18 59.5825C18 56.7076 20.3238 54.3838 23.1987 54.3838C26.0735 54.3838 28.3973 56.7076 28.3973 59.5825C28.3973 62.4573 26.0735 64.7811 23.1987 64.7811ZM23.1987 55.4952C20.9667 55.4952 19.1114 57.3505 19.1114 59.5825C19.1114 61.8144 20.9667 63.6697 23.1987 63.6697C25.4306 63.6697 27.286 61.8144 27.286 59.5825C27.1941 57.3505 25.4306 55.4952 23.1987 55.4952Z" fill="#F58220"/>
</svg>
