<svg width="51" height="50" viewBox="0 0 51 50" fill="none" xmlns="http://www.w3.org/2000/svg">
<g opacity="0.5">
<circle cx="17.6777" cy="17.6777" r="17.1976" transform="matrix(0.770305 -0.637676 -0.637676 -0.770305 23.3467 49.8901)" stroke="#9E9E9E" stroke-width="0.96015"/>
<mask id="path-2-inside-1_407_107" fill="white">
<path d="M31.2539 24.6125L27.3067 20.7555C27.2003 20.6552 27.0581 20.5999 26.9106 20.6015C26.7632 20.6031 26.6222 20.6616 26.5182 20.7643C26.4142 20.867 26.3554 21.0057 26.3545 21.1505C26.3535 21.2954 26.4106 21.4348 26.5133 21.5387L29.498 24.4551L19.6063 24.4803C19.4571 24.4807 19.3142 24.5393 19.209 24.6432C19.1037 24.747 19.0448 24.8877 19.0452 25.0342C19.0456 25.1807 19.1052 25.3211 19.2109 25.4244C19.3167 25.5277 19.4599 25.5856 19.6091 25.5852L29.5008 25.5599L26.5311 28.4915C26.4775 28.5426 26.4348 28.6037 26.4055 28.6712C26.3762 28.7387 26.3608 28.8112 26.3604 28.8845C26.3599 28.9579 26.3743 29.0306 26.4028 29.0984C26.4313 29.1662 26.4732 29.2278 26.5261 29.2795C26.5791 29.3313 26.642 29.3721 26.7112 29.3997C26.7804 29.4273 26.8545 29.4411 26.9292 29.4403C27.0038 29.4395 27.0776 29.424 27.1462 29.3949C27.2147 29.3658 27.2767 29.3235 27.3284 29.2706L31.2559 25.3936C31.3611 25.2897 31.4199 25.1491 31.4196 25.0026C31.4192 24.8561 31.3596 24.7158 31.2539 24.6125Z"/>
</mask>
<path d="M31.2539 24.6125L27.3067 20.7555C27.2003 20.6552 27.0581 20.5999 26.9106 20.6015C26.7632 20.6031 26.6222 20.6616 26.5182 20.7643C26.4142 20.867 26.3554 21.0057 26.3545 21.1505C26.3535 21.2954 26.4106 21.4348 26.5133 21.5387L29.498 24.4551L19.6063 24.4803C19.4571 24.4807 19.3142 24.5393 19.209 24.6432C19.1037 24.747 19.0448 24.8877 19.0452 25.0342C19.0456 25.1807 19.1052 25.3211 19.2109 25.4244C19.3167 25.5277 19.4599 25.5856 19.6091 25.5852L29.5008 25.5599L26.5311 28.4915C26.4775 28.5426 26.4348 28.6037 26.4055 28.6712C26.3762 28.7387 26.3608 28.8112 26.3604 28.8845C26.3599 28.9579 26.3743 29.0306 26.4028 29.0984C26.4313 29.1662 26.4732 29.2278 26.5261 29.2795C26.5791 29.3313 26.642 29.3721 26.7112 29.3997C26.7804 29.4273 26.8545 29.4411 26.9292 29.4403C27.0038 29.4395 27.0776 29.424 27.1462 29.3949C27.2147 29.3658 27.2767 29.3235 27.3284 29.2706L31.2559 25.3936C31.3611 25.2897 31.4199 25.1491 31.4196 25.0026C31.4192 24.8561 31.3596 24.7158 31.2539 24.6125Z" fill="#9E9E9E"/>
<path d="M31.2539 24.6125L45.5714 9.96426L45.5692 9.9621L31.2539 24.6125ZM27.3067 20.7555L41.622 6.10516L41.4947 5.98082L41.3653 5.85872L27.3067 20.7555ZM26.5133 21.5387L11.9455 35.938L12.0707 36.0647L12.198 36.1891L26.5133 21.5387ZM29.498 24.4551L29.5503 44.9382L79.6382 44.8103L43.8133 9.80472L29.498 24.4551ZM19.0452 25.0342L-1.43793 25.0865L19.0452 25.0342ZM29.5008 25.5599L43.8907 40.137L79.5365 4.94892L29.4485 5.07681L29.5008 25.5599ZM26.5311 28.4915L40.6656 43.3164L40.7944 43.1936L40.921 43.0686L26.5311 28.4915ZM27.3284 29.2706L12.9385 14.6936L12.8118 14.8186L12.6873 14.9459L27.3284 29.2706ZM31.2559 25.3936L45.6458 39.9707L45.648 39.9685L31.2559 25.3936ZM45.5692 9.9621L41.622 6.10516L12.9914 35.4059L16.9386 39.2628L45.5692 9.9621ZM41.3653 5.85872C37.363 2.08157 32.0852 0.0596543 26.6835 0.119549L27.1377 41.0834C22.031 41.1401 17.0376 39.2288 13.248 35.6523L41.3653 5.85872ZM26.6835 0.119549C21.2816 0.179447 16.0475 2.31824 12.1283 6.1872L40.9081 35.3414C37.1969 39.0049 32.2447 41.0268 27.1377 41.0834L26.6835 0.119549ZM12.1283 6.1872C8.19703 10.068 5.90713 15.3876 5.87167 21.0216L46.8373 21.2794C46.8036 26.6237 44.6313 31.666 40.9081 35.3414L12.1283 6.1872ZM5.87167 21.0216C5.8362 26.6559 8.05938 32.0064 11.9455 35.938L41.0811 7.13935C44.7618 10.8631 46.8709 15.9348 46.8373 21.2794L5.87167 21.0216ZM12.198 36.1891L15.1827 39.1055L43.8133 9.80472L40.8286 6.88832L12.198 36.1891ZM29.4457 3.97195L19.554 3.99721L19.6586 44.9635L29.5503 44.9382L29.4457 3.97195ZM19.554 3.99721C14.0903 4.01116 8.78307 6.15292 4.81901 10.0661L33.5989 39.2202C29.8453 42.9257 24.8239 44.9503 19.6586 44.9635L19.554 3.99721ZM4.81901 10.0661C0.842463 13.9916 -1.45248 19.3872 -1.43793 25.0865L39.5283 24.9819C39.5421 30.3882 37.365 35.5025 33.5989 39.2202L4.81901 10.0661ZM-1.43793 25.0865C-1.42338 30.7859 0.89909 36.1696 4.89563 40.0748L33.5263 10.774C37.3113 14.4725 39.5145 19.5756 39.5283 24.9819L-1.43793 25.0865ZM4.89563 40.0748C8.87962 43.9677 14.1977 46.0823 19.6614 46.0683L19.5568 5.10207C24.7221 5.08888 29.7538 7.08783 33.5263 10.774L4.89563 40.0748ZM19.6614 46.0683L29.5531 46.0431L29.4485 5.07681L19.5568 5.10207L19.6614 46.0683ZM15.1109 10.9829L12.1411 13.9145L40.921 43.0686L43.8907 40.137L15.1109 10.9829ZM12.3965 13.6667C10.3757 15.5934 8.74483 17.9165 7.61794 20.5109L45.193 36.8314C44.1248 39.2909 42.5793 41.4919 40.6656 43.3164L12.3965 13.6667ZM7.61794 20.5109C6.49068 23.1062 5.8955 25.9101 5.87759 28.7556L46.8432 29.0135C46.8262 31.7123 46.2617 34.3711 45.193 36.8314L7.61794 20.5109ZM5.87759 28.7556C5.85968 31.6013 6.41957 34.413 7.51479 37.0233L45.2908 21.1735C46.3291 23.6481 46.8602 26.3145 46.8432 29.0135L5.87759 28.7556ZM7.51479 37.0233C8.60967 39.6329 10.2125 41.9773 12.2108 43.9299L40.8414 14.6292C42.7339 16.4783 44.2528 18.6996 45.2908 21.1735L7.51479 37.0233ZM12.2108 43.9299C14.2082 45.8816 16.561 47.4037 19.1226 48.4254L34.2997 10.3741C36.7229 11.3406 38.9499 12.7809 40.8414 14.6292L12.2108 43.9299ZM19.1226 48.4254C21.6834 49.4468 24.4133 49.9526 27.1563 49.9222L26.702 8.95835C29.2957 8.92959 31.8773 9.40788 34.2997 10.3741L19.1226 48.4254ZM27.1563 49.9222C29.8994 49.8918 32.618 49.3255 35.1564 48.2469L19.1359 10.5429C21.5372 9.52258 24.1083 8.98711 26.702 8.95835L27.1563 49.9222ZM35.1564 48.2469C37.6956 47.168 40.0151 45.593 41.9695 43.5954L12.6873 14.9459C14.5382 13.0541 16.7339 11.5636 19.1359 10.5429L35.1564 48.2469ZM41.7184 43.8477L45.6458 39.9707L16.8659 10.8165L12.9385 14.6936L41.7184 43.8477ZM45.648 39.9685C49.6232 36.0431 51.9172 30.6485 51.9027 24.9503L10.9364 25.0549C10.9226 19.6497 13.0989 14.5363 16.8637 10.8187L45.648 39.9685ZM51.9027 24.9503C51.8881 19.2521 49.5666 13.8693 45.5714 9.96426L16.9364 39.2607C13.1526 35.5623 10.9502 30.4601 10.9364 25.0549L51.9027 24.9503Z" fill="#9E9E9E" mask="url(#path-2-inside-1_407_107)"/>
</g>
</svg>
