<svg width="107" height="94" viewBox="0 0 107 94" fill="none" xmlns="http://www.w3.org/2000/svg">
<g clip-path="url(#clip0_407_346)">
<path d="M102.913 67.6614C101.909 67.6614 100.905 67.2951 100.135 66.5625L71.417 39.6578L60.8402 50.1467C60.5389 50.4463 60.1038 50.6461 59.6687 50.6461C59.2336 50.6461 58.7984 50.4796 58.4972 50.1467L51.9369 43.6203C51.2675 42.9543 51.2675 41.9221 51.9369 41.2561L62.2125 31.0337L47.251 17.0152L37.4105 26.8048C36.7411 27.4708 35.7035 27.4708 35.0341 26.8048L28.4737 20.2784C28.1725 19.9787 27.9717 19.5459 27.9717 19.113C27.9717 18.6801 28.139 18.2473 28.4737 17.9476L46.0125 0.499469C46.682 -0.16649 47.7196 -0.16649 48.389 0.499469L51.6691 3.76266L51.7026 3.79596L105.892 60.8686C107.398 62.4669 107.365 64.9309 105.825 66.4959C104.988 67.2618 103.951 67.6614 102.913 67.6614ZM71.3501 35.6621C71.7517 35.6621 72.1868 35.8286 72.4881 36.1282L102.411 64.1318C102.679 64.3982 103.147 64.3982 103.415 64.1318C103.683 63.8654 103.683 63.4325 103.415 63.1328L49.2927 6.06022L47.2175 3.99575L32.0217 19.113L36.2055 23.2752L46.0125 13.519C46.6485 12.8863 47.6861 12.853 48.3555 13.4857L65.7604 29.7683C66.0951 30.068 66.2959 30.5009 66.2959 30.9671C66.2959 31.4332 66.1286 31.8661 65.7939 32.1658L55.4848 42.4215L59.6687 46.5838L70.1786 36.1282C70.5133 35.8286 70.9484 35.6621 71.3501 35.6621Z" fill="#F58220"/>
<path d="M55.5518 41.6556C55.1166 41.6556 54.6815 41.4891 54.3803 41.1561L37.4774 24.3407C36.808 23.6747 36.808 22.6425 37.4774 21.9765C38.1469 21.3106 39.1845 21.3106 39.8539 21.9765L56.7567 38.792C57.4261 39.4579 57.4261 40.4902 56.7567 41.1561C56.422 41.4891 55.9869 41.6556 55.5518 41.6556Z" fill="#F58220"/>
<path d="M30.9506 93.9999C30.0134 93.9999 29.2771 93.2674 29.2771 92.335V77.6507C29.2771 75.12 27.2019 73.0555 24.6581 73.0555H24.5911C22.0473 73.0555 19.9721 75.12 19.9721 77.6507V92.335C19.9721 93.2674 19.2358 93.9999 18.2986 93.9999C11.5709 93.9999 6.11515 88.5724 6.11515 81.8795V76.4519C6.11515 72.9557 5.11102 69.5593 3.20317 66.6291C0.893677 63.0995 -0.177394 59.0371 0.0234323 54.8416C0.358142 48.1154 5.94779 42.821 12.7089 42.821C12.8428 42.821 12.9767 42.821 13.0771 42.8543L17.9973 43.9865C22.3151 44.9854 26.9006 44.9854 31.2518 43.9865L36.2056 42.8543C36.3394 42.821 36.4398 42.821 36.5737 42.821C43.3683 42.821 48.9245 48.1154 49.2592 54.8416C49.4601 59.0371 48.3555 63.0995 46.0795 66.6291C44.1716 69.5593 43.1675 72.9557 43.1675 76.4519V81.8795C43.1675 88.5391 37.6783 93.9999 30.9506 93.9999ZM24.5911 69.7258H24.6581C29.0428 69.7258 32.6242 73.2886 32.6242 77.6507V90.5036C36.7076 89.7378 39.7869 86.1416 39.7869 81.8462V76.4186C39.7869 72.2897 40.9919 68.2606 43.2345 64.7977C45.1423 61.8675 46.046 58.4711 45.8787 55.0081C45.6444 50.1133 41.6278 46.2507 36.7076 46.1508L31.9547 47.2497C27.1349 48.3485 22.0473 48.3485 17.2275 47.2497L12.4746 46.1508C7.5544 46.2507 3.53788 50.1133 3.30359 55.0081C3.13623 58.5044 4.03995 61.9007 5.94779 64.7977C8.22382 68.2606 9.3953 72.2897 9.3953 76.4186V81.8462C9.3953 86.1416 12.4746 89.7045 16.5581 90.5036V77.6507C16.625 73.2553 20.2064 69.7258 24.5911 69.7258Z" fill="#F58220"/>
</g>
<defs>
<clipPath id="clip0_407_346">
<rect width="107" height="94" fill="white"/>
</clipPath>
</defs>
</svg>
