<svg width="98" height="98" viewBox="0 0 98 98" fill="none" xmlns="http://www.w3.org/2000/svg">
<g clip-path="url(#clip0_407_257)">
<path d="M72.0912 67.4362C70.8254 67.4362 69.9067 66.6399 69.6821 65.3332L69.0696 61.9849C68.9471 61.2499 68.7021 61.2499 68.6 61.2499C68.4979 61.2499 68.2529 61.2499 68.1304 61.9849L67.5179 65.3332C67.2729 66.6603 66.3746 67.4362 65.1087 67.4362C63.2917 67.4362 62.1892 66.2112 61.8217 63.8224L61.4542 61.3928V61.352C61.4337 61.2295 61.4337 61.107 61.4133 61.0049C61.2908 59.8207 61.2704 59.5349 60.0658 58.3916C58.6367 57.0032 57.8404 55.1657 57.8404 53.1649C57.8404 52.1237 58.0242 51.1232 58.3917 50.1841C58.4121 50.1432 58.4121 50.1228 58.4325 50.1024L58.5754 49.837C59.2492 48.5303 60.2904 47.4278 61.5358 46.652C61.5562 46.6316 61.5767 46.6316 61.6175 46.6112C62.5362 46.1416 63.5571 45.917 64.6392 45.917C65.9662 45.917 67.4567 46.407 68.6 46.897C69.7433 46.4274 71.2542 45.917 72.5608 45.917C73.6429 45.917 74.6637 46.162 75.5825 46.6112C75.6029 46.6316 75.6437 46.6316 75.6642 46.652C76.9096 47.4278 77.9304 48.5303 78.6246 49.837L78.7675 50.1024C78.7879 50.1228 78.7879 50.1637 78.8083 50.1841C79.1758 51.1232 79.3596 52.1237 79.3596 53.1649C79.3596 55.1453 78.5633 57.0032 77.1342 58.3916C75.95 59.5553 75.9092 59.8207 75.7867 61.0049C75.7662 61.107 75.7662 61.2295 75.7458 61.352V61.3928L75.3783 63.8224C75.0108 66.2112 73.9083 67.4362 72.0912 67.4362ZM68.6 59.3103C69.1921 59.3103 70.5804 59.5349 70.9683 61.6174L71.5808 64.9657C71.6625 65.4557 71.8667 65.4966 72.1117 65.4966C72.52 65.4966 73.1937 65.4966 73.5 63.5162L73.8675 61.107C73.8879 61.0049 73.8879 60.8824 73.9083 60.8007C74.0717 59.3103 74.1942 58.5753 75.8275 57.0032C76.8687 55.9824 77.4608 54.6349 77.4608 53.1649C77.4608 52.3687 77.3179 51.6337 77.0525 50.9395L76.93 50.7149C76.4196 49.7349 75.6437 48.8978 74.7046 48.3057C74.0512 47.9995 73.3571 47.8362 72.5812 47.8362C71.6829 47.8362 70.4171 48.1832 69.0083 48.8162C68.7633 48.9182 68.4775 48.9182 68.2325 48.8162C66.8237 48.1832 65.5375 47.8362 64.6596 47.8362C63.9042 47.8362 63.1896 47.9995 62.5362 48.3057C61.5971 48.8978 60.8212 49.7349 60.3108 50.7149L60.1883 50.9395C59.9229 51.6337 59.78 52.3687 59.78 53.1649C59.78 54.6145 60.3517 55.9824 61.4133 57.0032C63.0467 58.5753 63.1896 59.3103 63.3325 60.8007C63.3529 60.9028 63.3529 61.0049 63.3733 61.107L63.7408 63.5162C64.0471 65.4966 64.7208 65.4966 65.1292 65.4966C65.3742 65.4966 65.5579 65.4557 65.66 64.9657L66.2725 61.6174C66.6196 59.5349 68.0079 59.3103 68.6 59.3103Z" fill="#F58220"/>
<path d="M52.4912 67.4361C51.2254 67.4361 50.3066 66.6398 50.0821 65.3332L49.4696 61.9848C49.3266 61.2498 49.1021 61.2498 49 61.2498C48.8979 61.2498 48.6529 61.2498 48.5304 61.9848L47.9179 65.3332C47.6729 66.6603 46.7746 67.4361 45.5087 67.4361C43.6916 67.4361 42.5891 66.2111 42.2216 63.8223L41.8541 61.3928V61.3519C41.8337 61.2294 41.8337 61.1069 41.8133 60.9844C41.7929 60.7394 41.7725 60.5148 41.7316 60.3107C41.65 59.7798 41.9971 59.2898 42.5279 59.2082C43.0587 59.1265 43.5487 59.4736 43.6304 60.0044C43.6712 60.2494 43.6916 60.5148 43.7325 60.7803C43.7529 60.8823 43.7529 61.0048 43.7733 61.1069L44.1408 63.5161C44.4471 65.4965 45.1208 65.4965 45.5291 65.4965C45.7741 65.4965 45.9579 65.4557 46.06 64.9657L46.6725 61.6173C47.0604 59.5348 48.4487 59.3103 49.0408 59.3103C49.6329 59.3103 51.0212 59.5348 51.4091 61.6173L52.0216 64.9657C52.1033 65.4557 52.3075 65.4965 52.5525 65.4965C52.9608 65.4965 53.6346 65.4965 53.9408 63.5161L54.3083 61.1069C54.3287 60.9844 54.3287 60.8823 54.3491 60.7803C54.3696 60.5148 54.4104 60.2494 54.4512 60.0044C54.5329 59.4736 55.0229 59.1265 55.5537 59.2082C56.0846 59.2898 56.4316 59.7798 56.35 60.3107C56.3091 60.4944 56.2887 60.719 56.2683 60.9844C56.2479 61.1069 56.2479 61.2294 56.2275 61.3519V61.3928L55.86 63.8223C55.4108 66.2111 54.3083 67.4361 52.4912 67.4361Z" fill="#F58220"/>
<path d="M52.4913 52.5931C51.2254 52.5931 50.3067 51.7969 50.0821 50.4902L49.4696 47.1419C49.3471 46.4069 49.1021 46.4069 49 46.4069C48.8979 46.4069 48.6529 46.4069 48.5304 47.1419L47.9179 50.4902C47.6729 51.8173 46.7746 52.5931 45.5087 52.5931C43.6917 52.5931 42.5892 51.3681 42.2217 48.9794L41.8542 46.5498V46.509C41.8338 46.3865 41.8338 46.264 41.8133 46.1619C41.6908 44.9777 41.6704 44.6919 40.4658 43.5486C39.0367 42.1602 38.2404 40.3227 38.2404 38.3219C38.2404 37.2806 38.4242 36.2802 38.7917 35.3411C38.8121 35.3002 38.8121 35.2798 38.8325 35.2594L38.9754 34.994C39.6492 33.6873 40.6904 32.5848 41.9358 31.809C41.9562 31.7886 41.9767 31.7886 42.0175 31.7681C42.9363 31.2986 43.9571 31.074 45.0392 31.074C46.3663 31.074 47.8567 31.564 49 32.054C50.1433 31.5844 51.6542 31.074 52.9608 31.074C54.0429 31.074 55.0638 31.319 55.9825 31.7681C56.0029 31.7886 56.0438 31.7886 56.0642 31.809C57.3096 32.5848 58.3304 33.6873 59.0246 34.994L59.1675 35.2594C59.1879 35.2798 59.1879 35.3206 59.2083 35.3411C59.5758 36.2802 59.7596 37.2806 59.7596 38.3219C59.7596 40.3023 58.9633 42.1602 57.5342 43.5486C56.35 44.7123 56.3092 44.9777 56.1867 46.1619C56.1663 46.264 56.1663 46.3865 56.1458 46.509V46.5498L55.7783 48.9794C55.4108 51.3886 54.3083 52.5931 52.4913 52.5931ZM49 44.4877C49.5921 44.4877 50.9804 44.7123 51.3683 46.7948L51.9808 50.1431C52.0625 50.6331 52.2667 50.674 52.5117 50.674C52.92 50.674 53.5938 50.674 53.9 48.6936L54.2675 46.2844C54.2879 46.1823 54.2879 46.0598 54.3083 45.9781C54.4717 44.4877 54.5942 43.7527 56.2275 42.1806C57.2687 41.1598 57.8608 39.8123 57.8608 38.3423C57.8608 37.5461 57.7179 36.8111 57.4525 36.1169L57.33 35.8923C56.8196 34.9123 56.0437 34.0752 55.1046 33.4831C54.4717 33.1769 53.7571 33.0136 52.9812 33.0136C52.0829 33.0136 50.8171 33.3606 49.4083 33.9936C49.1633 34.0956 48.8775 34.0956 48.6325 33.9936C47.2237 33.3606 45.9375 33.0136 45.0596 33.0136C44.3042 33.0136 43.5896 33.1769 42.9363 33.4831C41.9971 34.0752 41.2212 34.9123 40.7108 35.8923L40.5883 36.1169C40.3229 36.8111 40.18 37.5461 40.18 38.3423C40.18 39.7919 40.7517 41.1598 41.8133 42.1806C43.4467 43.7527 43.5896 44.4877 43.7325 45.9781C43.7529 46.0802 43.7529 46.1823 43.7733 46.2844L44.1408 48.6936C44.4471 50.674 45.1208 50.674 45.5292 50.674C45.7742 50.674 45.9579 50.6331 46.06 50.1431L46.6725 46.7948C47.0196 44.7123 48.4079 44.4877 49 44.4877Z" fill="#F58220"/>
<path d="M32.9117 67.4362C31.6458 67.4362 30.7271 66.6399 30.5025 65.3332L29.89 61.9849C29.7675 61.2499 29.5225 61.2499 29.4204 61.2499C29.3183 61.2499 29.0733 61.2499 28.9508 61.9849L28.3383 65.3332C28.0933 66.6603 27.195 67.4362 25.9292 67.4362C24.1121 67.4362 23.0096 66.2112 22.6421 63.8224L22.2746 61.3928V61.352C22.2542 61.2295 22.2542 61.107 22.2337 61.0049C22.1112 59.8207 22.0908 59.5349 20.8862 58.3916C19.4571 57.0032 18.6608 55.1657 18.6608 53.1649C18.6608 52.1237 18.8446 51.1232 19.2121 50.1841C19.2325 50.1432 19.2325 50.1228 19.2529 50.1024L19.3958 49.837C20.0696 48.5303 21.1108 47.4278 22.3562 46.652C22.3767 46.6316 22.3971 46.6316 22.4379 46.6112C23.3567 46.1416 24.3775 45.917 25.4596 45.917C26.7867 45.917 28.2771 46.407 29.4204 46.897C30.5637 46.4274 32.0746 45.917 33.3812 45.917C34.4633 45.917 35.4842 46.162 36.4029 46.6112C36.4233 46.6316 36.4642 46.6316 36.4846 46.652C37.73 47.4278 38.7508 48.5303 39.445 49.837L39.5879 50.1024C39.6083 50.1228 39.6083 50.1637 39.6287 50.1841C39.9962 51.1232 40.18 52.1237 40.18 53.1649C40.18 55.1453 39.3837 57.0032 37.9546 58.3916C36.7704 59.5553 36.7296 59.8207 36.6071 61.0049C36.5867 61.107 36.5867 61.2295 36.5662 61.352V61.3928L36.1987 63.8224C35.8108 66.2112 34.7083 67.4362 32.9117 67.4362ZM29.4 59.3103C29.9921 59.3103 31.3804 59.5349 31.7683 61.6174L32.3808 64.9657C32.4625 65.4557 32.6667 65.4966 32.9117 65.4966C33.32 65.4966 33.9937 65.4966 34.3 63.5162L34.6675 61.107C34.6879 61.0049 34.6879 60.8824 34.7083 60.8007C34.8717 59.3103 34.9942 58.5753 36.6275 57.0032C37.6687 55.9824 38.2608 54.6349 38.2608 53.1649C38.2608 52.3687 38.1179 51.6337 37.8525 50.9395L37.73 50.7149C37.2196 49.7349 36.4437 48.8978 35.5046 48.3057C34.8717 47.9995 34.1571 47.8362 33.3812 47.8362C32.4829 47.8362 31.2171 48.1832 29.8083 48.8162C29.5633 48.9182 29.2775 48.9182 29.0325 48.8162C27.6237 48.1832 26.3375 47.8362 25.4596 47.8362C24.7042 47.8362 23.9896 47.9995 23.3362 48.3057C22.3971 48.8978 21.6212 49.7349 21.1108 50.7149L20.9883 50.9395C20.7229 51.6337 20.58 52.3687 20.58 53.1649C20.58 54.6145 21.1517 55.9824 22.2133 57.0032C23.8467 58.5753 23.9896 59.3103 24.1325 60.8007C24.1529 60.9028 24.1529 61.0049 24.1733 61.107L24.5408 63.5162C24.8471 65.4966 25.5208 65.4966 25.9292 65.4966C26.1742 65.4966 26.3579 65.4557 26.46 64.9657L27.0725 61.6174C27.4196 59.5349 28.8079 59.3103 29.4 59.3103Z" fill="#F58220"/>
<path d="M42.6708 61.1274H35.7292C35.1983 61.1274 34.7696 60.6987 34.7696 60.1678C34.7696 59.637 35.1983 59.2083 35.7292 59.2083H42.6708C43.2017 59.2083 43.6304 59.637 43.6304 60.1678C43.6304 60.6987 43.2017 61.1274 42.6708 61.1274Z" fill="#F58220"/>
<path d="M62.2708 61.1274H55.3292C54.7983 61.1274 54.3696 60.6987 54.3696 60.1678C54.3696 59.637 54.7983 59.2083 55.3292 59.2083H62.2708C62.8017 59.2083 63.2304 59.637 63.2304 60.1678C63.2304 60.6987 62.8017 61.1274 62.2708 61.1274Z" fill="#F58220"/>
<path d="M49 79.7064H48.755C43.0383 79.7064 35.525 78.8693 30.2371 78.1956C24.6837 77.481 20.2942 73.316 19.2733 67.8648C18.8446 65.5577 18.6404 63.1893 18.6404 60.8414V60.1881C18.6404 59.6573 19.0692 59.2285 19.6 59.2285H23.0708C23.6017 59.2285 24.0304 59.6573 24.0304 60.1881C24.0304 60.7189 23.6017 61.1477 23.0708 61.1477H20.5596C20.58 63.271 20.7842 65.4148 21.1721 67.5177C22.0296 72.1523 25.7658 75.6843 30.4821 76.2968C35.7292 76.9706 43.1404 77.7873 48.755 77.7873C54.6758 77.8077 60.6579 77.3993 66.5175 76.6235C71.4175 75.9702 75.3987 72.2952 76.4604 67.4973C77.0321 64.8839 77.3587 62.7606 77.42 61.1477H74.9292C74.3983 61.1477 73.9696 60.7189 73.9696 60.1881C73.9696 59.6573 74.3983 59.2285 74.9292 59.2285H78.4C78.9308 59.2285 79.3596 59.6573 79.3596 60.1881V60.576C79.3596 62.3727 79.0125 64.8227 78.3387 67.9056C77.1138 73.4998 72.4587 77.7873 66.7829 78.5427C60.9029 79.2981 54.9208 79.7064 49 79.7064Z" fill="#F58220"/>
<path d="M51.9808 23.0911C51.7358 23.0911 51.4908 22.989 51.3071 22.8053L49.1225 20.6207L46.9379 22.8053C46.5704 23.1728 45.9579 23.1728 45.57 22.8053C45.2025 22.4378 45.2025 21.8253 45.57 21.4374L48.4283 18.579C48.6121 18.3953 48.8571 18.2932 49.1021 18.2932C49.3675 18.2932 49.6125 18.3953 49.7758 18.579L52.6342 21.4374C53.0017 21.8049 53.0017 22.4174 52.6342 22.8053C52.4708 22.989 52.2258 23.0911 51.9808 23.0911Z" fill="#F58220"/>
<path d="M49.1225 28.7874C48.5917 28.7874 48.1629 28.3586 48.1629 27.8278V19.2528C48.1629 18.722 48.5917 18.2932 49.1225 18.2932C49.6533 18.2932 50.0821 18.722 50.0821 19.2528V27.8278C50.0821 28.3586 49.6533 28.7874 49.1225 28.7874Z" fill="#F58220"/>
<path d="M49 98C42.385 98 35.9742 96.6933 29.9308 94.1413C24.0917 91.6913 18.865 88.1592 14.3529 83.6471C9.84083 79.135 6.30875 73.9083 3.85875 68.0692C1.30667 62.0258 0 55.615 0 49C0 42.385 1.30667 35.9742 3.85875 29.9308C6.30875 24.0917 9.84083 18.865 14.3529 14.3529C18.865 9.84083 24.0917 6.30875 29.9308 3.85875C35.9742 1.30667 42.385 0 49 0C55.615 0 62.0258 1.30667 68.0692 3.85875C73.8879 6.30875 79.1146 9.84083 83.6471 14.3529C88.1592 18.865 91.6913 24.0917 94.1413 29.9308C96.6933 35.9742 98 42.385 98 49C98 55.615 96.6933 62.0258 94.1413 68.0692C91.6708 73.9083 88.1388 79.135 83.6471 83.6471C79.135 88.1592 73.9083 91.6913 68.0692 94.1413C62.0258 96.6933 55.615 98 49 98ZM49 1.69458C22.9075 1.69458 1.69458 22.9279 1.69458 49C1.69458 75.0721 22.9279 96.3054 49 96.3054C75.0721 96.3054 96.3054 75.0721 96.3054 49C96.3054 22.9279 75.0925 1.69458 49 1.69458Z" fill="#F58220"/>
</g>
<defs>
<clipPath id="clip0_407_257">
<rect width="98" height="98" fill="white"/>
</clipPath>
</defs>
</svg>
