<svg width="91" height="77" viewBox="0 0 91 77" fill="none" xmlns="http://www.w3.org/2000/svg">
<g clip-path="url(#clip0_407_317)">
<path fill-rule="evenodd" clip-rule="evenodd" d="M48.358 28.6402C48.3303 28.6484 48.3082 28.654 48.2916 28.6622C48.3054 28.6567 48.3193 28.6512 48.3358 28.6484L48.358 28.6402ZM48.0483 59.1266L51.2478 69.5538C51.4137 70.1113 51.5575 70.666 51.6792 71.2097C52.0912 72.9954 53.6592 74.2484 55.4926 74.2484C57.9123 74.2484 59.9366 72.4434 60.202 70.0533L63.8026 38.0157C63.8053 37.9412 63.8136 37.8833 63.8191 37.8391V37.6956C63.8191 37.6956 63.8191 37.679 63.8191 37.6707C63.8634 35.1205 62.7075 32.7691 60.6417 31.2262C58.529 29.6475 55.8798 29.1894 53.3688 29.9732L49.1433 31.2759C48.1644 31.5519 42.559 31.5133 41.8455 31.2952C41.8455 31.2952 41.8455 31.2952 41.8428 31.2952L37.6422 29.9925C35.1174 29.2087 32.4543 29.6696 30.3416 31.2566C28.2869 32.7994 27.1393 35.1454 27.1919 37.6873C27.1919 37.6983 27.1919 37.7066 27.1919 37.7149V37.9081C27.1946 37.9329 27.2001 37.9605 27.2029 37.9854L30.7509 70.0561C31.0191 72.4434 33.0351 74.2484 35.4437 74.2484C37.291 74.2484 38.8589 73.0009 39.2599 71.2097C39.3816 70.666 39.5226 70.1113 39.6858 69.5676L42.8936 59.1211C42.8936 59.1211 42.8964 59.1101 42.8991 59.1046C43.184 58.2186 44.1491 57.7273 45.5622 57.7494C47.3652 57.7798 47.8934 58.6216 48.0455 59.1322L48.0483 59.1266ZM55.4954 77.0001C52.3705 77.0001 49.6964 74.8694 48.994 71.8169C48.8834 71.3229 48.7562 70.8344 48.6124 70.3486L45.5898 60.4983C45.5152 60.4983 45.435 60.4983 45.3603 60.4983L42.335 70.3569C42.194 70.8289 42.0668 71.3201 41.9589 71.8031C41.2786 74.8612 38.6018 76.9974 35.452 76.9974C31.6386 76.9974 28.4446 74.1436 28.0187 70.3541L24.4763 38.3469C24.4431 38.1592 24.4431 38.0019 24.4431 37.9026V37.7259C24.3739 34.2925 25.9225 31.1324 28.6934 29.0541C31.4837 26.9566 35.1395 26.3246 38.469 27.3623L42.6032 28.6429C43.4024 28.7478 47.6334 28.7368 48.3884 28.6291L52.5613 27.3402C55.8742 26.308 59.5162 26.9345 62.3065 29.021C65.0857 31.0993 66.6453 34.2622 66.5873 37.7039V37.8833C66.5873 38.0074 66.5734 38.1096 66.5679 38.1703C66.5679 38.2034 66.5652 38.2338 66.5596 38.2669L62.9536 70.3569C62.5305 74.1436 59.3254 76.9974 55.5009 76.9974L55.4954 77.0001Z" fill="#F58220"/>
<path fill-rule="evenodd" clip-rule="evenodd" d="M14.615 34.3257C13.7356 34.3257 12.9115 34.6651 12.2976 35.2834C11.692 35.8933 11.3629 36.6965 11.3684 37.5548V70.9944C11.3684 72.7801 12.823 74.2318 14.6122 74.2318C16.4014 74.2318 17.856 72.7801 17.856 70.9944V37.5658C17.856 35.7801 16.4014 34.3284 14.6122 34.3284L14.615 34.3257ZM14.615 76.9808C11.3076 76.9808 8.61413 74.2953 8.61413 70.9917V37.5631C8.60307 35.9789 9.21422 34.4747 10.3425 33.3431C11.4763 32.2005 12.9972 31.574 14.615 31.574C17.9251 31.574 20.6158 34.2594 20.6158 37.5631V70.9917C20.6158 74.2953 17.9251 76.9808 14.615 76.9808Z" fill="#F58220"/>
<path fill-rule="evenodd" clip-rule="evenodd" d="M14.615 34.3257C13.8545 34.3257 13.235 33.7102 13.235 32.9484V27.7984C13.235 27.0394 13.8517 26.4211 14.615 26.4211C15.3782 26.4211 15.9949 27.0366 15.9949 27.7984V32.9484C15.9949 33.7074 15.3782 34.3257 14.6177 34.3257H14.615Z" fill="#F58220"/>
<path fill-rule="evenodd" clip-rule="evenodd" d="M14.615 8.1143C11.0393 8.1143 8.1274 11.0178 8.1274 14.5864C8.1274 18.155 11.0366 21.0613 14.615 21.0613C18.1906 21.0613 21.0997 18.1578 21.0997 14.5864C21.0997 11.015 18.1906 8.1143 14.615 8.1143ZM14.615 23.8129C9.51838 23.8129 5.37033 19.673 5.37033 14.5864C5.37033 9.4998 9.51838 5.35986 14.615 5.35986C19.7115 5.35986 23.8596 9.4998 23.8596 14.5864C23.8596 19.673 19.7115 23.8129 14.615 23.8129Z" fill="#F58220"/>
<path fill-rule="evenodd" clip-rule="evenodd" d="M14.615 2.75168C8.07764 2.75168 2.75707 8.06183 2.75707 14.5864C2.75707 21.1109 8.07764 26.4211 14.615 26.4211C21.1523 26.4211 26.4729 21.1109 26.4729 14.5864C26.4729 8.06183 21.1523 2.75168 14.615 2.75168ZM14.615 29.1727C6.55669 29.1727 0 22.6289 0 14.5864C0 6.54385 6.55669 0 14.615 0C22.6732 0 29.2299 6.54385 29.2299 14.5864C29.2299 22.6289 22.6732 29.1727 14.615 29.1727Z" fill="#F58220"/>
<path fill-rule="evenodd" clip-rule="evenodd" d="M77.5935 32.7717C75.2236 32.7717 73.2933 34.6954 73.2933 37.0634V69.9566C73.2933 72.3246 75.2236 74.2483 77.5935 74.2483C79.9662 74.2483 81.8936 72.3246 81.8936 69.9566V37.0634C81.8936 34.6954 79.9662 32.7717 77.5935 32.7717ZM77.5935 77C73.7026 77 70.5363 73.8426 70.5363 69.9566V37.0634C70.5363 33.1802 73.7026 30.02 77.5935 30.02C81.4843 30.02 84.6507 33.1802 84.6507 37.0634V69.9566C84.6507 73.8399 81.4843 77 77.5935 77Z" fill="#F58220"/>
<path fill-rule="evenodd" clip-rule="evenodd" d="M83.2707 40.45H71.9327C71.1723 40.45 70.5528 39.8345 70.5528 39.0728C70.5528 38.3138 71.1695 37.6956 71.9327 37.6956H83.2707C84.0312 37.6956 84.6507 38.311 84.6507 39.0728C84.6507 39.8318 84.034 40.45 83.2707 40.45Z" fill="#F58220"/>
<path fill-rule="evenodd" clip-rule="evenodd" d="M83.2707 69.3218H71.9327C71.1723 69.3218 70.5528 68.7063 70.5528 67.9446C70.5528 67.1856 71.1695 66.5674 71.9327 66.5674H83.2707C84.0312 66.5674 84.6507 67.1829 84.6507 67.9446C84.6507 68.7036 84.034 69.3218 83.2707 69.3218Z" fill="#F58220"/>
<path fill-rule="evenodd" clip-rule="evenodd" d="M77.5935 32.791C76.833 32.791 76.2136 32.1756 76.2136 31.4138V15.235C76.2136 14.7437 76.4763 14.2883 76.9021 14.0427L86.863 8.30471L76.9021 2.56676C76.244 2.18588 76.0172 1.3441 76.3988 0.687228C76.7805 0.0275982 77.6239 -0.195958 78.2821 0.184916L90.3114 7.11517C90.7373 7.3608 91 7.81619 91 8.30747C91 8.79874 90.7373 9.25413 90.3114 9.49977L78.9734 16.0353V31.4193C78.9734 32.1783 78.3567 32.7966 77.5935 32.7966V32.791Z" fill="#F58220"/>
</g>
<defs>
<clipPath id="clip0_407_317">
<rect width="91" height="77" fill="white"/>
</clipPath>
</defs>
</svg>
