<svg width="108" height="60" viewBox="0 0 108 60" fill="none" xmlns="http://www.w3.org/2000/svg">
<g clip-path="url(#clip0_407_226)">
<path d="M106.682 20.3522H104.054C104.628 11.8717 104.598 1.71709 95.7473 0.362699C91.2846 -0.322179 88.311 0.0996501 85.4342 0.506114C83.6685 0.755626 81.8432 1.01428 79.6441 1.01428C77.445 1.01428 75.6197 0.755626 73.8541 0.506114C70.9779 0.100382 68.0022 -0.321448 63.5409 0.362699C54.6902 1.71746 54.6605 11.8721 55.2339 20.3522H52.7657C53.3395 11.8717 53.3094 1.71709 44.4587 0.362699C39.996 -0.322179 37.0224 0.0996501 34.1455 0.506114C32.3799 0.755626 30.5546 1.01428 28.3555 1.01428C26.1564 1.01428 24.3311 0.755626 22.5655 0.506114C19.6893 0.100382 16.7143 -0.321448 12.2523 0.362699C3.40196 1.71746 3.37193 11.8721 3.9457 20.3522H1.31816C0.590244 20.3522 0 20.942 0 21.6693C0 22.3966 0.590244 22.9864 1.31816 22.9864H4.13903C4.20091 23.8037 4.26133 24.6049 4.31222 25.3779C4.48395 27.9868 4.5407 30.1739 4.59087 32.1038C4.72012 37.12 4.81349 40.7442 6.66917 46.8232C8.5384 52.9439 11.8225 57.7692 15.2409 59.4155C16.6041 60.0726 17.9446 60.1758 19.1134 59.7166C20.965 58.9853 21.5783 56.3142 22.3553 52.9315C23.6057 47.4858 24.8415 43.3198 28.3559 43.3198C31.8702 43.3198 33.1057 47.4858 34.3564 52.9315C35.1334 56.3142 35.7467 58.9856 37.5984 59.7166C38.0766 59.905 38.5837 59.9994 39.1095 59.9994C39.8678 59.9994 40.665 59.804 41.4709 59.4155C44.8893 57.7692 48.1734 52.9443 50.0426 46.8225C51.8975 40.7453 51.9916 37.1215 52.1209 32.1067C52.1703 30.1761 52.2271 27.9879 52.3995 25.3783C52.4504 24.6045 52.5108 23.8033 52.5727 22.986H55.4273C55.4892 23.8033 55.5496 24.6045 55.6005 25.3776C55.7722 27.9865 55.8289 30.1736 55.8791 32.1034C56.0084 37.1197 56.1017 40.7438 57.9574 46.8228C59.8266 52.9436 63.1107 57.7688 66.5291 59.4151C67.8931 60.0722 69.2328 60.1754 70.4016 59.7162C72.2533 58.9849 72.8666 56.3138 73.6435 52.9311C74.894 47.4854 76.1297 43.3194 79.6441 43.3194C83.1585 43.3194 84.3939 47.4854 85.6447 52.9311C86.4217 56.3138 87.035 58.9853 88.8866 59.7162C89.3648 59.9047 89.872 59.999 90.3978 59.999C91.1561 59.999 91.9536 59.8037 92.7591 59.4151C96.1775 57.7688 99.4616 52.9439 101.331 46.8221C103.186 40.7449 103.28 37.1211 103.409 32.1064C103.459 30.1757 103.515 27.9876 103.688 25.3779C103.739 24.6042 103.799 23.8029 103.861 22.9856H106.682C107.41 22.9856 108 22.3959 108 21.6686C108 20.9412 107.41 20.3515 106.682 20.3515V20.3522ZM63.94 2.96575C68.0187 2.3405 70.674 2.7155 73.485 3.11428C75.3407 3.3766 77.2593 3.64807 79.6445 3.64807C82.0296 3.64807 83.9483 3.3766 85.804 3.11428C88.6153 2.7155 91.2678 2.34197 95.3489 2.96575C101.627 3.92685 102.02 10.9688 101.407 20.3522H91.5625V16.4339C91.5625 13.8203 89.4348 11.6939 86.819 11.6939H72.47C69.8542 11.6939 67.7265 13.8206 67.7265 16.4339V20.3522H57.8816C57.269 10.9688 57.6623 3.92721 63.94 2.96575ZM86.6714 22.9864H88.9258V26.9047C88.9258 28.0655 87.9804 29.0101 86.8186 29.0101H72.4697C71.3078 29.0101 70.3624 28.0655 70.3624 26.9047V22.9864H72.7278C73.4557 22.9864 74.046 22.3966 74.046 21.6693C74.046 20.942 73.4557 20.3522 72.7278 20.3522H70.3624V16.4339C70.3624 15.2723 71.3078 14.3277 72.4697 14.3277H86.8186C87.9804 14.3277 88.9258 15.2723 88.9258 16.4339V20.3522H86.6714C85.9435 20.3522 85.3532 20.942 85.3532 21.6693C85.3532 22.3966 85.9435 22.9864 86.6714 22.9864ZM12.6514 2.96575C16.7308 2.3405 19.3854 2.7155 22.1964 3.11428C24.0521 3.3766 25.9707 3.64807 28.3559 3.64807C30.741 3.64807 32.6597 3.3766 34.5154 3.11428C37.3267 2.7155 39.9791 2.34197 44.0603 2.96575C50.3381 3.92685 50.7313 10.9688 50.1187 20.3522H40.2739V16.4339C40.2739 13.8203 38.1462 11.6939 35.5303 11.6939H21.1814C18.5656 11.6939 16.4379 13.8206 16.4379 16.4339V20.3522H6.59338C5.9808 10.9688 6.37405 3.92721 12.6518 2.96575H12.6514ZM35.2722 22.9864H37.6376V26.9047C37.6376 28.0655 36.6922 29.0101 35.5303 29.0101H21.1814C20.0196 29.0101 19.0742 28.0655 19.0742 26.9047V22.9864H21.3286C22.0565 22.9864 22.6468 22.3966 22.6468 21.6693C22.6468 20.942 22.0565 20.3522 21.3286 20.3522H19.0742V16.4339C19.0742 15.2723 20.0196 14.3277 21.1814 14.3277H35.5303C36.6922 14.3277 37.6376 15.2723 37.6376 16.4339V20.3522H35.2722C34.5443 20.3522 33.954 20.942 33.954 21.6693C33.954 22.3966 34.5443 22.9864 35.2722 22.9864ZM49.7683 25.2049C49.5933 27.8672 49.5358 30.0839 49.4853 32.039C49.3612 36.8467 49.2715 40.3201 47.5209 46.0545C45.6608 52.1478 42.5668 55.9637 40.3266 57.0429C39.6291 57.3792 39.0374 57.4512 38.5746 57.2705C37.981 56.9387 37.3457 54.1728 36.9258 52.3425C35.7962 47.4236 34.2495 40.686 28.3559 40.686C22.4622 40.686 20.9156 47.4236 19.786 52.3425C19.3656 54.1728 18.7304 56.9387 18.1452 57.2665C17.6722 57.4542 17.0808 57.377 16.3851 57.0426C14.1446 55.9633 11.051 52.1475 9.19089 46.0549C7.43956 40.3187 7.35022 36.8442 7.22609 32.0358C7.17593 30.0814 7.11881 27.8661 6.94342 25.2049C6.89546 24.486 6.8398 23.7437 6.78268 22.9864H16.4382V26.9047C16.4382 29.5183 18.566 31.6443 21.1818 31.6443H35.5307C38.1465 31.6443 40.2743 29.5183 40.2743 26.9047V22.9864H49.9298C49.8723 23.7437 49.817 24.486 49.7691 25.2049H49.7683ZM101.057 25.2049C100.882 27.8672 100.824 30.0839 100.774 32.039C100.649 36.8467 100.56 40.3201 98.8091 46.0545C96.949 52.1478 93.855 55.9637 91.6149 57.0429C90.9177 57.3792 90.3249 57.4512 89.8628 57.2705C89.2693 56.9387 88.634 54.1728 88.214 52.3425C87.0844 47.4236 85.5378 40.686 79.6441 40.686C73.7505 40.686 72.2038 47.4236 71.0742 52.3425C70.6539 54.1728 70.0186 56.9387 69.4335 57.2665C68.9619 57.4542 68.3683 57.377 67.6734 57.0426C65.4329 55.9633 62.3392 52.1475 60.4791 46.0549C58.7278 40.3187 58.6385 36.8442 58.5143 32.0358C58.4642 30.0814 58.4067 27.8661 58.2317 25.2049C58.1837 24.486 58.128 23.7437 58.0709 22.9864H67.7265V26.9047C67.7265 29.5183 69.8542 31.6443 72.47 31.6443H86.819C89.4344 31.6443 91.5625 29.5183 91.5625 26.9047V22.9864H101.218C101.161 23.7437 101.105 24.486 101.057 25.2049H101.057Z" fill="#F58220"/>
</g>
<defs>
<clipPath id="clip0_407_226">
<rect width="108" height="60" fill="white"/>
</clipPath>
</defs>
</svg>
