<svg width="116" height="98" viewBox="0 0 116 98" fill="none" xmlns="http://www.w3.org/2000/svg">
<path d="M16.6807 56.2094C17.2362 56.059 17.5642 55.4866 17.4145 54.9317L17.4144 54.9315C15.4444 47.6414 14.355 42.2381 14.1594 38.8509C14.0336 36.6617 14.1997 33.382 15.0285 30.0521C15.8581 26.7187 17.3419 23.3745 19.822 21.0116L19.822 21.0115C22.4776 18.4806 25.9771 17.4072 30.2674 17.8594L30.2674 17.8594C32.8762 18.134 34.7372 19.152 36.7779 20.2725C36.7779 20.2725 36.7779 20.2725 36.7779 20.2725L36.7999 20.2845C39.4079 21.7167 42.1669 23.2318 46.6951 23.1539L46.6953 23.1539C47.2702 23.1437 47.7296 22.6687 47.7194 22.0929C47.7094 21.524 47.2495 21.0532 46.6541 21.0693L46.6649 21.4692L46.6561 21.0693C42.7157 21.1561 40.363 19.8633 37.8088 18.4599L37.7818 18.4451L37.7817 18.4451L37.7638 18.4353C35.7101 17.3073 33.52 16.1046 30.4848 15.7853C25.6051 15.2715 21.5197 16.5109 18.3815 19.5015C15.5809 22.1702 13.9412 25.8714 13.0333 29.4674C12.1246 33.0664 11.9392 36.5976 12.0758 38.9694C12.281 42.5338 13.4044 48.0931 15.3994 55.4736C15.5082 55.8764 15.8394 56.1594 16.2243 56.228L16.2422 56.2458H16.4078C16.4975 56.2458 16.5895 56.2343 16.6807 56.2094ZM16.6807 56.2094C16.6808 56.2093 16.681 56.2093 16.6812 56.2092L16.5755 55.8234L16.6795 56.2097C16.6799 56.2096 16.6803 56.2095 16.6807 56.2094Z" fill="#F58220" stroke="#F58220" stroke-width="0.8"/>
<path d="M24.9559 86.5129L24.9559 86.5129C24.552 85.1709 23.8954 83.1439 23.0634 80.5754L22.9804 80.3191L22.9804 80.3191C22.3519 78.3785 21.637 76.171 20.8808 73.7993L20.8808 73.7992C20.7064 73.2517 21.0081 72.6647 21.5567 72.4897C22.107 72.3122 22.6936 72.6189 22.8678 73.1666L24.9559 86.5129ZM24.9559 86.5129C26.5476 91.7971 29.1962 94.9397 32.6014 95.0396L24.9559 86.5129ZM24.9654 79.6774L24.9654 79.6774C25.8381 82.3705 26.5292 84.5041 26.9539 85.913L26.9539 85.9132C27.2995 87.0611 27.972 88.9375 29.0186 90.4716C30.0723 92.0159 31.4273 93.108 33.1327 92.9395L33.1332 92.9395C34.7585 92.781 35.663 92.0741 36.238 91.141C36.8344 90.1732 37.0887 88.9459 37.3403 87.7092L37.3404 87.7087C37.3485 87.6692 37.3566 87.6298 37.3646 87.5904C37.4026 87.4045 37.4404 87.2197 37.4793 87.04C37.5606 86.6627 37.6646 85.7016 37.8008 84.4305C38.1108 81.5318 38.5826 77.1259 39.5155 72.9825M24.9654 79.6774L39.9058 73.0704M24.9654 79.6774C24.3368 77.7385 23.6225 75.5345 22.8679 73.1668L24.9654 79.6774ZM39.5155 72.9825L39.9058 73.0704M39.5155 72.9825C39.5155 72.9825 39.5155 72.9825 39.5155 72.9826L39.9058 73.0704M39.5155 72.9825C39.642 72.4206 40.2012 72.0667 40.7627 72.1947M39.9058 73.0704C39.9838 72.7236 40.329 72.5059 40.6742 72.5847M40.7627 72.1947C40.7624 72.1946 40.7621 72.1945 40.7618 72.1945L40.6742 72.5847M40.7627 72.1947C40.7629 72.1947 40.7631 72.1947 40.7632 72.1948L40.6742 72.5847M40.7627 72.1947L40.6742 72.5847M41.5503 73.441C41.5503 73.4408 41.5503 73.4406 41.5504 73.4405L41.1602 73.3526L41.5501 73.4415C41.5502 73.4414 41.5502 73.4412 41.5503 73.441ZM39.8749 84.6528L39.8749 84.6526L39.4772 84.6102L39.8749 84.6528ZM39.5185 87.4806C39.5186 87.4805 39.5186 87.4803 39.5186 87.4802L39.1275 87.3966L39.5183 87.4815C39.5184 87.4812 39.5185 87.4809 39.5185 87.4806Z" fill="#F58220" stroke="#F58220" stroke-width="0.8"/>
<path d="M46.9682 49.7393H47.1339L47.1362 49.7369C51.7104 49.6579 55.6624 46.3407 56.5786 41.7974L56.5787 41.7972C56.6922 41.2328 56.3258 40.6825 55.7614 40.5691L55.7608 40.569C55.1939 40.456 54.6463 40.8219 54.5328 41.3859C53.7991 45.0267 50.8116 47.6536 46.9682 47.6536C43.1291 47.6536 39.8347 44.7403 39.3173 40.8689L39.3172 40.8683C39.2407 40.3013 38.7176 39.8924 38.1431 39.9737C37.5732 40.0514 37.1737 40.5742 37.2493 41.1446L37.2493 41.1451C37.9039 46.0419 42.0781 49.7393 46.9682 49.7393Z" fill="#F58220" stroke="#F58220" stroke-width="0.8"/>
<path d="M76.5773 54.7293L76.5773 54.7293C78.5133 47.5413 79.5848 42.205 79.7778 38.849L79.7778 38.8489C79.9039 36.6598 79.7379 33.3803 78.9091 30.0506C78.0795 26.7175 76.5956 23.3734 74.116 21.0105L74.116 21.0105C71.4604 18.4796 67.9627 17.4062 63.6697 17.8584L76.5773 54.7293ZM76.5773 54.7293C76.4393 55.2419 76.7083 55.7666 77.1849 55.9635V56.0441M76.5773 54.7293L77.1849 56.0441M46.8353 23.1529L46.8347 23.1529C46.2586 23.1427 45.8004 22.6673 45.8106 22.0918L45.8106 22.0908C45.8223 21.5149 46.3065 21.0556 46.8733 21.0682M46.8353 23.1529L63.4514 15.7843M46.8353 23.1529C51.3658 23.2263 54.2613 21.7076 56.9933 20.2695M46.8353 23.1529L56.9933 20.2695M46.8733 21.0682C46.8737 21.0682 46.8741 21.0683 46.8744 21.0683L46.8651 21.4682L46.8726 21.0682C46.8729 21.0682 46.8731 21.0682 46.8733 21.0682ZM46.8733 21.0682C50.8571 21.1429 53.4384 19.7839 56.0123 18.4286L56.0217 18.4237L56.0219 18.4236L56.0494 18.4092C58.1748 17.2915 60.4389 16.101 63.4514 15.7843M63.4514 15.7843C68.3312 15.2704 72.4174 16.5108 75.5556 19.5014M63.4514 15.7843L75.5556 19.5014M77.1849 56.0441H77.5849M77.1849 56.0441H77.5849M77.5849 56.0441C78.0454 56.0441 78.4664 55.7381 78.5917 55.2723C80.5517 47.993 81.657 42.5011 81.8604 38.9693C81.997 36.5975 81.8119 33.0662 80.9034 29.4673C79.9957 25.8713 78.3562 22.1701 75.5556 19.5014M77.5849 56.0441L75.5556 19.5014M56.9933 20.2695C59.1189 19.151 61.0611 18.1334 63.6697 17.8584L56.9933 20.2695Z" fill="#F58220" stroke="#F58220" stroke-width="0.8"/>
<path d="M61.5666 95.0422H61.1666C60.9789 95.0422 60.7904 95.0325 60.6012 95.0144L60.6005 95.0143C58.253 94.7853 56.8514 93.7211 55.9841 92.3536C55.1424 91.0263 54.8179 89.4313 54.5579 88.1533L54.5519 88.1242L54.5518 88.1235C54.5072 87.9025 54.4627 87.6872 54.4182 87.4794L54.8094 87.3957M61.5666 95.0422L53.9824 76.0839C53.4139 76.1769 53.0281 76.7112 53.1198 77.2796L53.1198 77.2799C53.5698 80.0596 53.8539 82.7089 54.062 84.6518C54.062 84.6518 54.062 84.6519 54.062 84.6519L54.0633 84.6641C54.2045 85.9881 54.3107 86.9837 54.4185 87.4805L54.8094 87.3957M61.5666 95.0422V95.0272M61.5666 95.0422V95.0272M54.8094 87.3957C54.7072 86.9245 54.6032 85.9542 54.4597 84.6093C54.2517 82.6669 53.9666 80.0077 53.5147 77.216M54.8094 87.3957C54.8542 87.6054 54.8991 87.8222 54.9439 88.0444C55.4711 90.6355 56.1929 94.1825 60.6394 94.6162C60.6819 94.6203 60.7243 94.6239 60.7666 94.627V94.6413V94.6422H61.1666L53.5147 77.216M53.5147 77.216C53.4582 76.8656 53.6958 76.5359 54.0473 76.4786C54.3961 76.4213 54.7278 76.6605 54.7852 77.0108M53.5147 77.216L54.7852 77.0108M61.5666 95.0272C64.8593 94.7943 67.4247 91.6767 68.9809 86.5132C69.3999 85.124 70.0879 83 70.9618 80.3031L70.9618 80.3031C71.7804 77.7766 72.7089 74.911 73.6992 71.7745C73.8737 71.2246 73.5677 70.6391 73.0188 70.4662M61.5666 95.0272L53.9826 76.0839C54.5509 75.9906 55.0871 76.3793 55.1799 76.9461L55.18 76.9468C55.6365 79.7612 55.9226 82.4309 56.1319 84.3838L56.1369 84.4305L56.1369 84.4305C56.2731 85.7011 56.3771 86.662 56.4583 87.0396C56.4964 87.2145 56.5334 87.3957 56.5705 87.5772C56.5794 87.6211 56.5884 87.665 56.5973 87.7088L56.5974 87.7093C56.8491 88.9455 57.1032 90.1726 57.6993 91.1403C58.2741 92.0733 59.1783 92.7802 60.8037 92.9387L60.8049 92.9388C62.4559 93.1045 63.768 92.1358 64.8092 90.6723C65.8482 89.2117 66.5534 87.34 66.9839 85.9122L66.9839 85.9122C67.4041 84.5183 68.0851 82.415 68.9441 79.7617L68.9768 79.6605L68.9769 79.6605L69.0038 79.5773C69.815 77.0728 70.7322 74.2409 71.7098 71.1464C71.8828 70.5988 72.4674 70.2918 73.0188 70.4662M73.0188 70.4662C73.0188 70.4662 73.0188 70.4662 73.0189 70.4662L72.8982 70.8476L73.0183 70.466C73.0184 70.4661 73.0186 70.4661 73.0188 70.4662ZM54.7852 77.0108C55.2399 79.8145 55.5251 82.4753 55.7345 84.429L55.7392 84.4731L54.7852 77.0108ZM67.3669 86.0276C66.4971 88.9126 64.486 93.7104 60.7649 93.3368C57.2652 92.9955 56.7025 90.2308 56.2058 87.7906L56.2055 87.7891C56.1964 87.7446 56.1873 87.7003 56.1783 87.6562L67.3669 86.0276ZM67.3669 86.0276C67.7859 84.6377 68.4659 82.5374 69.3263 79.8799M67.3669 86.0276L69.3263 79.8799M69.3263 79.8799L69.3574 79.7838L69.3263 79.8799Z" fill="#F58220" stroke="#F58220" stroke-width="0.8"/>
<path d="M80.3489 43.6051L80.3477 43.6047C79.8038 43.424 79.2116 43.7137 79.0275 44.2606C78.8427 44.8077 79.1385 45.399 79.6836 45.582C83.415 46.8347 86.3875 47.3893 88.9127 47.3893H88.9136C93.8768 47.3893 97.0332 45.2431 100.718 42.2811L100.718 42.281C101.166 41.9208 101.239 41.2648 100.877 40.8151V40.8151C100.516 40.3681 99.8608 40.2949 99.4111 40.6567C97.0626 42.5438 95.0326 44.1684 92.2364 44.8919C89.4476 45.6135 85.8417 45.449 80.3489 43.6051Z" fill="#F58220" stroke="#F58220" stroke-width="0.8"/>
<path d="M3.90049 62.1479L3.90044 62.1474C3.25407 56.4584 3.09986 53.0185 4.23379 50.0291C5.36755 47.0402 7.76943 44.5537 12.0366 40.6961C12.4643 40.3095 13.1232 40.3432 13.5097 40.77L13.2136 41.0381L13.5097 40.77C13.8968 41.1975 13.863 41.8565 13.4357 42.2428L13.4357 42.2428C9.28233 45.9974 7.15113 48.1799 6.17128 50.7626C5.19161 53.3449 5.34411 56.3769 5.97304 61.9119L5.97311 61.9125C6.03705 62.4832 5.62737 63.0005 5.05427 63.0659L5.05149 63.0662C5.00893 63.0708 4.97024 63.072 4.93629 63.0721L3.90049 62.1479ZM3.90049 62.1479C3.96158 62.6797 4.41209 63.0716 4.93539 63.0721V62.6721C4.61299 62.6716 4.33551 62.4298 4.29788 62.1022L3.90049 62.1479ZM5.00892 62.6685C4.98412 62.6711 4.9602 62.672 4.93629 62.6721L12.3049 40.9928C12.5685 40.7545 12.9747 40.7751 13.2132 41.0385C13.4517 41.3019 13.4311 41.7078 13.1675 41.9461C4.88967 49.429 4.32209 50.9253 5.5756 61.9571C5.61505 62.3092 5.3622 62.6282 5.00892 62.6685Z" fill="#F58220" stroke="#F58220" stroke-width="0.8"/>
<path d="M98.417 23.756C98.4788 23.7309 98.5376 23.7 98.5933 23.6635C98.5935 23.6634 98.5936 23.6633 98.5937 23.6632L102.612 21.0363C102.675 21.0238 102.741 21.0289 102.802 21.0508L106.159 24.1815L106.159 24.1815L106.162 24.1842C106.211 24.2289 106.265 24.2696 106.322 24.3053L106.324 24.3068C106.688 24.5308 107.094 24.6527 107.504 24.6695L107.51 24.6724H107.604C108.063 24.6724 108.52 24.541 108.923 24.2817L108.923 24.2815C109.72 23.7671 110.138 22.8624 110.014 21.8964L110.012 21.8866L110.011 21.8769L109.244 17.5991C109.234 17.4984 109.268 17.3976 109.337 17.3238L113.548 13.9994C113.577 13.9775 113.601 13.9554 113.61 13.9468L113.611 13.9458C113.611 13.9456 113.611 13.9454 113.612 13.9452C114.272 13.3395 114.541 12.4514 114.33 11.5812L114.33 11.5808C114.119 10.7118 113.474 10.0462 112.611 9.80876C112.562 9.79428 112.515 9.78558 112.474 9.78012C112.474 9.78006 112.473 9.78 112.473 9.77995L108.126 9.17586C108.05 9.14403 107.988 9.08653 107.95 9.01061L106.293 4.16259C106.293 4.162 106.293 4.16142 106.293 4.16084C106.285 4.13661 106.276 4.1143 106.271 4.10245L106.27 4.1002L106.27 4.10018L106.267 4.09413C105.915 3.25325 105.131 2.68339 104.221 2.60841L104.22 2.60836C103.307 2.53455 102.443 2.96798 101.958 3.74171L101.958 3.74169L101.955 3.74638C101.932 3.78375 101.912 3.82167 101.893 3.86187L101.893 3.86185L101.891 3.86667L99.86 8.36949C99.8124 8.42713 99.7493 8.46628 99.6778 8.48331L94.9983 8.33417L94.9981 8.33416C94.9545 8.3328 94.9053 8.3339 94.8536 8.34008C93.9598 8.43447 93.1947 9.00903 92.8552 9.84068C92.5156 10.6725 92.6607 11.6186 93.2339 12.31C93.2677 12.352 93.3024 12.3857 93.3242 12.4065L93.3242 12.4065L93.3278 12.4099L96.7105 15.5582C96.7548 15.6288 96.773 15.7148 96.7604 15.7971L95.1451 20.8701L95.145 20.8701L95.1426 20.8785C95.1373 20.8964 95.1302 20.9214 95.1239 20.9493C94.9147 21.8392 95.2179 22.7626 95.9143 23.3558C96.6111 23.9492 97.5708 24.1014 98.417 23.756ZM98.417 23.756C98.4173 23.7559 98.4175 23.7558 98.4177 23.7557L98.2664 23.3854L98.4164 23.7562C98.4166 23.7561 98.4168 23.7561 98.417 23.756ZM107.18 17.9119L107.179 17.9021C107.075 17.092 107.358 16.3064 107.941 15.7702M107.18 17.9119L108.212 16.0646M107.18 17.9119L107.182 17.9217L107.948 22.2001C107.963 22.3369 107.907 22.4532 107.791 22.5273C107.692 22.591 107.586 22.602 107.486 22.5646L104.123 19.4293L104.123 19.4293L104.12 19.4266C104.072 19.382 104.018 19.3412 103.961 19.3056L103.96 19.3046C103.299 18.8961 102.476 18.8283 101.757 19.124C101.696 19.149 101.637 19.1798 101.582 19.2163C101.581 19.2163 101.581 19.2164 101.581 19.2165L97.5609 21.8443C97.4556 21.8665 97.3522 21.8402 97.2673 21.7678L97.2669 21.7674C97.1698 21.6847 97.1287 21.5722 97.1486 21.4508L98.7632 16.3768L98.7633 16.3768L98.7658 16.3684C98.7711 16.3505 98.7782 16.3255 98.7845 16.2975C98.9573 15.5609 98.7729 14.7742 98.2903 14.1918C98.2564 14.1498 98.2218 14.1161 98.2 14.0953L98.2 14.0952L98.1964 14.0919L94.8127 10.9426C94.7522 10.8487 94.7413 10.7365 94.7857 10.6278C94.8303 10.5184 94.9159 10.446 95.0238 10.4208L99.7035 10.57L99.7035 10.5702H99.7163C99.7544 10.5702 99.7947 10.569 99.8394 10.5649L99.8394 10.565L99.8442 10.5645C100.594 10.4873 101.256 10.0748 101.656 9.43637L101.656 9.43639L101.659 9.43176C101.681 9.3943 101.702 9.35638 101.72 9.31625L101.72 9.31627L101.723 9.31146L103.754 4.80861C103.827 4.71875 103.93 4.67547 104.047 4.68582L104.049 4.68598C104.177 4.69674 104.277 4.76518 104.332 4.8766L105.989 9.72514C105.989 9.7257 105.989 9.72626 105.99 9.72682C105.998 9.75272 106.008 9.77644 106.012 9.78753L106.012 9.78754L106.015 9.7931C106.304 10.4865 106.888 11.0003 107.612 11.1996C107.663 11.2146 107.71 11.2233 107.75 11.2286C107.75 11.2287 107.751 11.2287 107.751 11.2288L112.099 11.833C112.202 11.8746 112.275 11.9589 112.302 12.0709L112.302 12.0719C112.331 12.1898 112.3 12.3037 112.218 12.3902L108.002 15.7186L107.18 17.9119ZM107.941 15.7702L108.212 16.0646M107.941 15.7702C107.941 15.7703 107.941 15.7705 107.941 15.7706L108.212 16.0646M107.941 15.7702C107.96 15.753 107.98 15.7356 108.001 15.719L108.001 15.7193L108.249 16.0333C108.236 16.0431 108.224 16.0539 108.212 16.0646" fill="#F58220" stroke="#F58220" stroke-width="0.8"/>
<path d="M40.562 5.01509L40.562 5.01509C40.9449 4.8528 41.389 4.93222 41.6914 5.21987L41.6922 5.22058L41.6922 5.22058L43.8234 7.25836L45.8141 5.24228L40.562 5.01509ZM40.562 5.01509L40.5609 5.01559C40.1766 5.17993 39.9281 5.55776 39.9281 5.97469V12.0492C39.9281 14.41 41.8488 16.3287 44.2106 16.3287H49.4954H49.4963C51.8581 16.3287 53.7787 14.41 53.7787 12.0492V5.97469C53.7787 5.5694 53.5445 5.20147 53.1769 5.02998L40.562 5.01509ZM44.0216 7.44779L44.0208 7.44702L44.0216 7.44779ZM41.4157 5.5097L43.7443 7.73613L53.3787 5.97469V12.0492C53.3787 14.1888 51.6375 15.9287 49.4963 15.9287H49.4954H44.2106C42.0694 15.9287 40.3281 14.1888 40.3281 12.0492V5.97469C40.3281 5.71756 40.4814 5.48461 40.7182 5.38337C40.9549 5.28302 41.2292 5.3323 41.4157 5.5097ZM42.0139 12.0492V8.41389L42.5801 8.9551C42.5801 8.95516 42.5802 8.95521 42.5803 8.95527C43.2904 9.63474 44.4278 9.61869 45.1184 8.91846C45.1185 8.9184 45.1185 8.91835 45.1186 8.91829L46.6031 7.41442L48.3582 8.98228C49.0247 9.57797 50.0413 9.59407 50.7263 9.01908L51.692 8.20976V12.0492C51.692 13.2589 50.7067 14.2439 49.4954 14.2439H44.2106C42.9993 14.2439 42.0139 13.2589 42.0139 12.0492Z" fill="#F58220" stroke="#F58220" stroke-width="0.8"/>
<path d="M103.452 20.8869L100.528 56.5826L100.528 56.5829C100.483 57.1279 100.026 57.5403 99.4891 57.5403H99.0891V57.4607C98.6816 57.292 98.4107 56.8747 98.4493 56.4119L98.4493 56.4124L98.848 56.4451L98.4494 56.4117L101.373 20.7164L101.373 20.716L101.772 20.7487C101.801 20.3948 102.109 20.1332 102.465 20.161L103.452 20.8869ZM103.452 20.8869C103.452 20.8867 103.452 20.8865 103.452 20.8863L103.452 20.8869Z" fill="#F58220" stroke="#F58220" stroke-width="0.8"/>
<path d="M27.7689 31.9259C27.7689 33.1371 28.7544 34.1213 29.9658 34.1213C31.1772 34.1213 32.1627 33.1371 32.1627 31.9259C32.1627 30.7146 31.1772 29.7304 29.9658 29.7304C28.7544 29.7304 27.7689 30.7146 27.7689 31.9259ZM29.8556 31.9267C29.8556 31.8666 29.9049 31.817 29.9658 31.817C30.0267 31.817 30.076 31.8666 30.076 31.9267C30.076 31.9869 30.0267 32.0365 29.9658 32.0365C29.9049 32.0365 29.8556 31.9869 29.8556 31.9267Z" fill="#F58220" stroke="#F58220" stroke-width="0.8"/>
<path d="M59.683 30.7735C59.683 31.9847 60.6685 32.969 61.8799 32.969C63.0913 32.969 64.0767 31.9847 64.0767 30.7735C64.0767 29.5623 63.0913 28.578 61.8799 28.578C60.6685 28.578 59.683 29.5623 59.683 30.7735ZM61.7697 30.7735C61.7697 30.7134 61.819 30.6637 61.8799 30.6637C61.9408 30.6637 61.9901 30.7134 61.9901 30.7735C61.9901 30.8336 61.9408 30.8833 61.8799 30.8833C61.819 30.8833 61.7697 30.8336 61.7697 30.7735Z" fill="#F58220" stroke="#F58220" stroke-width="0.8"/>
<path d="M49.8987 79.4481H49.8339C47.7267 79.4481 45.8096 78.3595 44.2662 77.0612C42.9742 75.9743 41.911 74.7127 41.1757 73.7321C40.0767 75.8867 37.6091 79.1405 32.7869 78.9568L32.7863 78.9568C29.8481 78.8403 27.9427 77.4729 26.7272 75.8286C25.7168 74.4617 25.1862 72.9099 24.909 71.7388C23.9177 72.4764 22.4892 73.4342 20.874 74.1896C18.9669 75.0815 16.7446 75.7172 14.6571 75.3132L14.6568 75.3131C12.5876 74.9112 11.0002 73.5701 9.93228 71.4014C8.50658 68.5072 9.12147 65.1104 10.4571 62.0461C11.7977 58.9706 13.9003 56.1431 15.5967 54.3173C15.8349 54.0596 16.1838 53.9415 16.5295 53.9976L16.5303 53.9978L18.7925 54.3696L18.7926 54.3696C29.4636 56.1284 36.485 57.2851 46.8552 57.2851C57.6531 57.2851 76.9021 53.9347 77.4326 53.8423L77.4421 53.8407L77.4441 53.8403C77.7335 53.7917 78.0343 53.8641 78.2692 54.0504M49.8987 79.4481L78.0207 54.3638M49.8987 79.4481L49.9021 79.447M49.8987 79.4481L49.9021 79.447M78.2692 54.0504L78.0207 54.3638M78.2692 54.0504C78.269 54.0502 78.2688 54.05 78.2685 54.0499L78.0207 54.3638M78.2692 54.0504C78.4484 54.1919 80.4864 55.8201 82.4937 58.2218C84.4916 60.6122 86.5228 63.8436 86.5612 67.1784C86.5906 69.724 85.4614 71.943 83.2638 73.7628L83.2637 73.7628C81.2771 75.4071 79.1131 75.5588 77.1606 75.0028C75.454 74.5167 73.9036 73.4912 72.7319 72.4542M78.0207 54.3638C78.3497 54.6236 86.0877 60.803 86.1613 67.183C86.1891 69.5896 85.1283 71.6995 83.0087 73.4547C79.4368 76.4111 75.3005 74.2416 72.8814 72.0512C72.836 72.1789 72.7863 72.3137 72.7319 72.4542M72.7319 72.4542C72.6227 72.3576 72.5168 72.2608 72.4143 72.1643C71.5959 74.348 69.6051 78.1244 65.5538 78.4218M72.7319 72.4542C72.3349 73.4813 71.6928 74.8175 70.7203 76.0018C69.5505 77.4264 67.8838 78.6516 65.5837 78.8207M65.5837 78.8207C65.5838 78.8207 65.5839 78.8207 65.584 78.8207L65.5538 78.4218M65.5837 78.8207C65.5835 78.8207 65.5833 78.8207 65.5831 78.8207L65.5538 78.4218M65.5837 78.8207C65.3366 78.8394 65.0952 78.8478 64.8625 78.8478C61.0739 78.8478 59.1362 76.5531 58.2141 74.802M65.5538 78.4218C65.3171 78.4397 65.0857 78.4478 64.8625 78.4478C61.1578 78.4478 59.3269 76.1421 58.4819 74.4481C58.3986 74.5616 58.3093 74.6799 58.2141 74.802M58.2141 74.802C58.1421 74.6653 58.0763 74.5319 58.0163 74.4032L49.9629 79.4267L49.9602 79.4276L49.9021 79.447M58.2141 74.802C56.7647 76.6615 53.9416 79.4174 49.9021 79.447M57.5425 72.0715L57.5436 72.0695C57.7525 71.6824 58.1825 71.4667 58.6184 71.5334C59.0521 71.599 59.3997 71.9294 59.4848 72.3612C59.5043 72.4556 59.7607 73.6482 60.625 74.7668C61.4794 75.8729 62.9364 76.9223 65.4277 76.7408C67.5561 76.5846 69.0012 75.0461 69.9372 73.4422C70.401 72.6474 70.7263 71.858 70.9366 71.2618C71.0415 70.9643 71.1173 70.7164 71.167 70.542C71.2171 70.3662 71.2402 70.2673 71.2398 70.2688L71.2402 70.2672C71.3277 69.8809 71.6262 69.5807 72.007 69.4864M57.5425 72.0715L24.9546 69.0296L24.9536 69.0305L24.9498 69.0339L24.9358 69.0461C24.9238 69.0566 24.9064 69.0718 24.8838 69.0912C24.8387 69.13 24.7729 69.1859 24.6884 69.2561C24.5192 69.3967 24.2748 69.5945 23.9693 69.8283C23.3575 70.2963 22.5034 70.9059 21.518 71.4868C19.5207 72.6641 17.0888 73.6601 15.054 73.2654C13.6768 72.9982 12.6112 72.1197 11.803 70.4799C10.7172 68.2757 11.1714 65.544 12.3459 62.8676C13.4778 60.2882 15.243 57.8453 16.7506 56.147L18.4509 56.4267C18.451 56.4267 18.451 56.4268 18.4511 56.4268C29.1852 58.1963 36.5098 59.3699 46.8525 59.3699C56.9751 59.3699 74.2497 56.501 77.3227 55.9766C78.0404 56.5886 79.7284 58.1038 81.2869 60.0626C82.9701 62.178 84.4448 64.7403 84.4728 67.2046V67.2047C84.4945 69.0611 83.6614 70.7232 81.9305 72.1565C79.9759 73.7743 77.8679 73.3135 76.1355 72.3425C74.3988 71.3692 73.1453 69.9311 73.0504 69.8203L73.0499 69.8197C72.7942 69.5224 72.3909 69.3901 72.007 69.4864M57.5425 72.0715C57.5428 72.071 57.3583 72.4079 57.0037 72.9129C56.6496 73.4172 56.1296 74.0838 55.4592 74.7475C54.1119 76.0812 52.1996 77.3624 49.8339 77.3624C47.8213 77.3624 45.8491 75.8585 44.3254 74.2374C42.8371 72.6539 41.8702 71.06 41.8374 71.0058C41.6466 70.6862 41.3046 70.4976 40.9419 70.4976C40.896 70.4976 40.8459 70.5003 40.793 70.5081M57.5425 72.0715L26.052 68.845M72.007 69.4864C72.0072 69.4863 72.0075 69.4862 72.0078 69.4861L72.1037 69.8745M72.007 69.4864C72.0067 69.4864 72.0064 69.4865 72.0061 69.4866L72.1037 69.8745M72.1037 69.8745C72.3386 69.8153 72.5879 69.896 72.7466 70.0805L71.6303 70.3556C71.6841 70.1182 71.8679 69.9327 72.1037 69.8745ZM26.052 68.845L26.0527 68.8453C26.4229 69.0005 26.6719 69.3546 26.6912 69.7562C26.6983 69.8929 26.8052 71.6387 27.6415 73.3695C28.4713 75.087 29.9974 76.7579 32.8691 76.8717L32.8698 76.8718C35.6184 76.9855 37.3545 75.6633 38.4278 74.266C39.5106 72.8563 39.9047 71.3831 39.9314 71.2796L40.3187 71.3797M26.052 68.845C25.6833 68.6912 25.2561 68.7605 24.9549 69.0294L26.052 68.845ZM40.3187 71.3797L39.9312 71.2803C40.0362 70.8709 40.3781 70.5678 40.793 70.5081M40.3187 71.3797C40.3833 71.1279 40.594 70.9407 40.8504 70.9039M40.3187 71.3797C40.2542 71.6296 38.6752 77.5124 32.8533 77.2714C26.7283 77.0286 26.3069 70.0716 26.2917 69.7759L40.8504 70.9039M40.793 70.5081C40.7927 70.5081 40.7925 70.5081 40.7923 70.5082L40.8504 70.9039M40.793 70.5081C40.7932 70.508 40.7935 70.508 40.7937 70.508L40.8504 70.9039" fill="#F58220" stroke="#F58220" stroke-width="0.8"/>
<path d="M24.4978 69.4348C24.3364 69.9887 24.6553 70.5675 25.2094 70.7274L25.2097 70.7275C25.3064 70.7553 25.4047 70.7681 25.4996 70.7681H25.5941L25.6066 70.7619C26.0163 70.7202 26.3802 70.4371 26.5025 70.0155C27.0211 68.2273 27.5225 65.7419 28.0031 63.3591L28.0105 63.3227L28.0105 63.3225L28.169 62.535C28.1691 62.5348 28.1691 62.5347 28.1691 62.5345C28.284 61.9695 27.9169 61.4192 27.3528 61.3059L27.2741 61.6981M24.4978 69.4348C24.4978 69.4347 24.4978 69.4347 24.4978 69.4346L24.8818 69.5466M24.4978 69.4348C24.4977 69.4349 24.4977 69.435 24.4977 69.435L24.8818 69.5466M24.4978 69.4348C24.9932 67.7281 25.4846 65.2925 25.9647 62.911L25.9647 62.9107L26.1243 62.1218C26.1243 62.1217 26.1243 62.1216 26.1243 62.1215C26.1243 62.1215 26.1243 62.1214 26.1243 62.1214C26.2379 61.5578 26.7907 61.1895 27.3552 61.3064L27.2741 61.6981M24.8818 69.5466C25.3831 67.8201 25.878 65.3652 26.3568 62.99L26.5164 62.2007C26.5863 61.8531 26.928 61.6264 27.2741 61.6981M24.8818 69.5466L27.7771 62.4551C27.8479 62.1075 27.622 61.7679 27.2741 61.6981" fill="#F58220" stroke="#F58220" stroke-width="0.8"/>
<path d="M42.5537 64.2356L42.5537 64.2357C42.3843 65.7839 42.2761 67.1521 42.1711 68.4807L42.1657 68.5485C42.1657 68.5485 42.1657 68.5485 42.1657 68.5485C42.068 69.784 41.9753 70.9573 41.8418 72.1781L42.5537 64.2356ZM42.5537 64.2356C42.6163 63.663 42.2024 63.1493 41.6317 63.086C41.0463 63.0183 40.5404 63.4426 40.4798 64.0099L40.8775 64.0524L42.5537 64.2356ZM40.6923 73.1013L40.7358 72.7037L39.7688 71.9517C39.7063 72.5248 40.1209 73.0389 40.6923 73.1013ZM40.086 68.3844C39.9891 69.6117 39.8981 70.7642 39.7688 71.9516L40.086 68.3844ZM40.8066 73.1073C41.3312 73.1068 41.7835 72.7124 41.8418 72.1782L40.8066 73.1073Z" fill="#F58220" stroke="#F58220" stroke-width="0.8"/>
<path d="M59.2889 73.8386H58.3273C57.7818 73.8386 57.3221 73.4148 57.2871 72.862L59.2889 73.8386ZM59.2889 73.8386L59.023 73.5711M59.2889 73.8386L59.023 73.5711M59.023 73.5711C59.2523 73.3652 59.3886 73.0601 59.3676 72.7289L59.3676 72.7287C59.2602 71.0426 59.2082 69.8912 59.1583 68.7848L59.1546 68.7044L59.1546 68.7043L59.1511 68.625C59.1019 67.5327 59.0506 66.3907 58.9453 64.7466M59.023 73.5711L58.9453 64.7466M58.9453 64.7466C58.9095 64.1841 58.4267 63.7237 57.8337 63.773C57.2614 63.8118 56.8275 64.3062 56.8638 64.879L56.8638 64.8792M58.9453 64.7466L56.8638 64.8792M56.8638 64.8792C56.9677 66.5022 57.0187 67.6321 57.0678 68.7177L57.0714 68.7986C57.0715 68.7986 57.0715 68.7986 57.0715 68.7987M56.8638 64.8792L57.0715 68.7987M57.0715 68.7987C57.1226 69.9361 57.1756 71.1146 57.287 72.8618L57.0715 68.7987Z" fill="#F58220" stroke="#F58220" stroke-width="0.8"/>
<path d="M72.0097 62.1108L72.0098 62.1112C72.2546 63.5678 72.4475 64.8559 72.6506 66.2127L72.6565 66.2522L72.6565 66.2523C72.8734 67.7053 73.098 69.2037 73.4004 71.004L72.0097 62.1108ZM72.0097 62.1108C71.914 61.5445 71.3742 61.1575 70.8067 61.2565C70.2413 61.3528 69.857 61.8881 69.953 62.4571L72.0097 62.1108ZM72.3721 72.2197C72.427 72.2196 72.4851 72.2155 72.5455 72.2051C73.1115 72.1094 73.4964 71.5737 73.4005 71.0044L72.3721 72.2197ZM71.3445 71.3499C71.4294 71.8603 71.8721 72.2192 72.3712 72.2197L69.953 62.4573C70.1937 63.8881 70.384 65.1592 70.5854 66.504L70.5938 66.5605L70.5939 66.5607C70.6008 66.6066 70.6076 66.6525 70.6146 66.6986C70.8269 68.1143 71.0478 69.5873 71.3445 71.3499Z" fill="#F58220" stroke="#F58220" stroke-width="0.8"/>
</svg>
