<svg width="120" height="77" viewBox="0 0 120 77" fill="none" xmlns="http://www.w3.org/2000/svg">
<g clip-path="url(#clip0_407_274)">
<path d="M107.75 0.0362465C110.317 -0.220698 110.934 0.949674 112.865 1.08607C113.965 1.16322 115.013 0.534981 116.117 0.496405C121.092 0.323501 120.197 8.77787 119.294 11.7882C116.578 20.8364 114.534 17.7627 117.212 27.5066C119.84 37.0659 114.204 47.0909 105.934 52.0871C105.015 52.6424 104.04 53.1122 103.14 53.6963C97.9255 57.0793 94.2374 64.3647 92.5289 70.0719C91.8919 72.1998 91.808 73.8847 90.1534 75.5648C87.5569 78.2025 85.8254 76.6705 83.2806 75.2149C72.3951 68.9862 54.0348 67.4949 42.5808 72.3465C38.3521 74.1375 32.5933 79.2365 28.8317 74.9862C27.561 73.5513 27.3673 71.4365 26.9366 69.6469C25.4009 63.2646 21.9568 56.8162 16.1959 53.2644C13.1056 51.359 11.6217 50.5599 8.97062 47.9678C4.06147 43.2367 0.942554 35.5449 2.27823 28.8037C2.76285 26.3589 4.0307 23.9472 3.87755 21.4219C3.67895 18.1512 1.39361 14.6683 0.588703 11.4224C-0.0805352 8.71932 -0.861663 2.20064 2.47894 0.778837C4.28945 0.00800336 5.56289 1.13498 7.29717 1.08262C8.32306 1.05163 9.23356 0.495716 10.2203 0.288369C15.8001 -0.882003 15.5728 4.57583 15.991 7.94366C16.4735 11.8309 16.9896 16.9112 17.7896 20.7227C18.9526 26.2646 26.631 27.2896 31.2611 27.6223C34.0723 27.8241 38.1584 28.1176 40.878 27.5045C47.241 26.0696 49.5655 17.9741 57.3418 16.4683C67.3244 14.5347 69.6601 22.2051 75.4567 26.0083C80.1064 29.0586 86.7009 28.2299 91.887 27.2076C100.345 25.5392 101.959 23.6807 102.871 15.8903L103.951 6.55768C104.27 3.82704 104.358 0.636932 107.75 0.0376243V0.0362465ZM108.151 2.72349C106.451 3.11269 106.841 5.38042 106.672 6.72231C106.29 9.77603 105.985 12.838 105.59 15.8897C104.722 22.5957 103.589 27.0189 95.7493 29.0076C89.2499 30.6567 80.3812 31.947 74.3336 28.4049C68.9769 25.2671 66.1538 16.9553 57.5103 19.1052C50.4291 20.866 48.7872 28.8437 40.436 30.2448C37.4891 30.7394 34.2814 30.4528 31.3212 30.2283C25.3142 29.7722 16.9833 28.4379 15.249 21.5851C14.349 18.0272 13.8175 11.5636 13.3448 7.7928C13.063 5.54299 13.6993 2.26264 10.2727 3.1492C9.22167 3.42061 8.20488 3.774 7.10347 3.77537C6.14751 3.77675 3.74049 2.60638 3.14538 3.57698C0.666326 7.62196 6.31814 17.1964 6.53563 21.5204C6.65381 23.8653 5.67618 26.0531 5.11463 28.2843C3.68105 33.9805 5.76219 40.1816 9.50559 44.622C12.6455 48.1179 14.149 48.7944 17.9994 51.266C23.7379 54.9494 27.3359 60.9776 29.138 67.3743C30.5191 72.2742 29.6485 76.1449 36.0353 72.6406C38.9381 71.048 41.7542 69.5614 44.9522 68.6108C57.0222 65.0232 70.956 66.2529 82.2582 71.7134C83.7862 72.4519 86.8911 74.9139 88.152 73.8096C89.6198 72.5242 89.7464 70.034 90.2891 68.2981C92.0996 62.5096 95.5891 56.3243 100.354 52.4254C102.033 51.0511 104.051 50.19 105.827 48.9535C112.382 44.3871 116.624 36.5479 114.782 28.6246C113.003 20.9645 112.605 20.9776 115.723 13.4848C116.87 10.728 117.429 8.65043 117.288 5.61738C117.094 1.43808 115.073 3.99581 112.133 3.712C110.742 3.57767 109.541 2.74346 108.15 2.72486L108.151 2.72349Z" fill="#F58220"/>
<path d="M108.151 2.72379C109.541 2.74239 110.743 3.5766 112.133 3.71093C115.073 3.99542 117.095 1.437 117.289 5.61631C117.429 8.64936 116.871 10.727 115.724 13.4838C112.605 20.9765 113.004 20.9634 114.783 28.6235C116.624 36.5468 112.382 44.386 105.828 48.9524C104.053 50.1889 102.035 51.0507 100.355 52.4243C95.5899 56.3232 92.1004 62.5085 90.2899 68.297C89.7472 70.0329 89.6206 72.5231 88.1528 73.8086C86.8919 74.9128 83.787 72.4508 82.259 71.7124C70.9568 66.2518 57.023 65.0222 44.953 68.6097C41.7557 69.5604 38.9389 71.0469 36.0361 72.6396C29.6493 76.1438 30.5192 72.2731 29.1388 67.3732C27.336 60.9765 23.7387 54.9483 18.0002 51.2649C14.1498 48.7933 12.6463 48.1169 9.50641 44.6209C5.76301 40.1805 3.68186 33.9794 5.11545 28.2832C5.67699 26.052 6.65462 23.8642 6.53644 21.5193C6.31826 17.1953 0.666443 7.62089 3.14619 3.57591C3.7406 2.60531 6.14832 3.77568 7.10428 3.7743C8.20639 3.77292 9.22249 3.41954 10.2735 3.14813C13.7009 2.26225 13.0638 5.54191 13.3456 7.79173C13.8183 11.5625 14.3498 18.0261 15.2498 21.5841C16.9834 28.4368 25.315 29.7712 31.322 30.2272C34.2822 30.4518 37.4899 30.7383 40.4368 30.2437C48.788 28.8426 50.4307 20.8649 57.5112 19.1042C66.1546 16.9542 68.9777 25.266 74.3344 28.4038C80.3814 31.9459 89.2507 30.6557 95.7501 29.0065C103.59 27.0178 104.724 22.5946 105.591 15.8886C105.986 12.8369 106.291 9.77495 106.673 6.72124C106.842 5.37934 106.452 3.11231 108.152 2.72241L108.151 2.72379ZM60.6126 32.6368C60.1958 32.5542 59.5315 32.4612 59.3315 32.8986C58.8175 29.4502 57.3377 25.9886 53.165 26.6224C48.1299 27.3863 46.4803 33.3174 45.0446 37.3341C44.8907 37.3286 44.7467 37.3142 44.597 37.2742L44.4963 37.3479L44.4509 37.649C41.4585 35.2503 40.4173 33.4628 36.5249 36.5013C36.1571 35.9206 35.2815 35.3165 34.7053 35.9509C32.9081 32.6658 29.785 32.7271 27.2318 35.0905C27.4164 34.3459 27.1835 34.1372 26.1206 34.505L26.0297 34.7006C23.7359 31.0352 22.0961 30.1459 18.4646 32.8986C16.6603 18.6061 4.17627 33.7776 12.5659 35.9509C12.847 39.2754 14.9547 45.0921 18.8429 41.1683C20.2821 43.8466 22.9457 46.7584 26.029 44.2221C27.1318 46.8321 29.2262 49.6572 32.4444 48.276C33.3102 47.904 33.9801 47.1201 34.7046 46.5435C35.6969 51.5742 40.69 52.1281 44.4502 49.2569C45.5348 51.464 46.5145 53.1938 49.0139 54.0424C51.881 55.0158 55.1503 53.8537 56.7056 51.2973C57.5713 49.8741 58.2825 45.4978 60.3385 46.1378C61.8245 46.6 62.2965 49.0785 62.7791 50.324C65.1553 56.4603 72.7477 55.3347 75.3233 49.2569C77.3484 51.081 81.5842 51.9531 83.6394 49.6799C84.3723 48.8691 84.708 47.8489 85.1129 46.8604C86.4206 48.8884 88.7898 49.6957 90.9206 48.2891C92.4927 47.251 93.0053 45.6921 93.9885 44.2214C97.0151 46.4305 99.269 44.1346 100.847 41.457C105.398 43.5504 106.516 38.9874 107.75 35.9502C108.83 35.3688 109.742 34.7771 110.119 33.544C111.685 28.4272 102.921 22.1689 101.247 32.8979C98.176 29.8153 94.7046 31.2426 94.2445 35.4129C93.7507 35.0802 93.0444 35.333 93.4319 35.9502C89.5619 32.4811 86.2849 32.2862 84.5122 37.6483C80.4142 34.2673 77.9841 33.3532 75.0205 38.4956C74.2156 35.7511 72.8568 31.6152 71.1694 29.3386C67.3455 24.1783 61.5916 26.1278 60.6112 32.6361L60.6126 32.6368Z" fill="#FBFBFB"/>
<path d="M60.6126 32.6367C61.593 26.1284 67.3469 24.1789 71.1708 29.3392C72.8582 31.6165 74.2169 35.7518 75.0219 38.4962C77.9855 33.3538 80.4156 34.268 84.5136 37.6489C86.2863 32.2868 89.5633 32.4817 93.4333 35.9508C93.0458 35.3336 93.7521 35.0808 94.2458 35.4135C94.706 31.2432 98.1774 29.8165 101.249 32.8985C102.923 22.1702 111.686 28.4278 110.12 33.5447C109.743 34.777 108.831 35.3688 107.751 35.9508C106.517 38.9887 105.399 43.5517 100.848 41.4576C99.2697 44.1352 97.0165 46.4311 93.9899 44.222C93.0074 45.6927 92.4948 47.2523 90.922 48.2897C88.7905 49.6963 86.4213 48.889 85.1143 46.861C84.7094 47.8495 84.373 48.8697 83.6408 49.6805C81.5856 51.9537 77.3498 51.0809 75.3246 49.2575C72.7491 55.336 65.1567 56.4609 62.7804 50.3246C62.2979 49.0791 61.8259 46.6006 60.3399 46.1384C58.2832 45.4984 57.572 49.8748 56.707 51.2979C55.1524 53.8543 51.8831 55.0164 49.0153 54.043C46.5159 53.1951 45.5355 51.4646 44.4516 49.2575C40.6921 52.128 35.6983 51.5749 34.706 46.5441C33.9808 47.12 33.3116 47.9046 32.4458 48.2766C29.2283 49.6578 27.1339 46.8327 26.0304 44.2227C22.9471 46.759 20.2828 43.8465 18.8443 41.169C14.9561 45.0927 12.8477 39.276 12.5673 35.9515C4.17767 33.7782 16.6617 18.6067 18.4659 32.8992C22.0975 30.1465 23.7373 31.0358 26.0311 34.7012L26.122 34.5056C27.1849 34.1371 27.4178 34.3465 27.2332 35.0911C29.7864 32.7277 32.9088 32.6664 34.7067 35.9515C35.2829 35.3171 36.1585 35.9212 36.5263 36.5019C40.4187 33.4634 41.4599 35.251 44.4523 37.6496L44.4977 37.3485L44.5984 37.2748C44.7481 37.3148 44.8921 37.3292 45.046 37.3348C46.4824 33.318 48.132 27.3869 53.1664 26.623C57.3391 25.9899 58.8182 29.4508 59.3329 32.8992C59.5329 32.4618 60.1979 32.5541 60.614 32.6374L60.6126 32.6367ZM59.3308 32.8985C59.6615 36.6652 60.4783 34.9079 60.6119 32.6367C60.1951 32.5541 59.5308 32.4611 59.3308 32.8985ZM34.7053 35.9508C34.999 36.5109 35.2766 37.0723 35.5354 37.6489L36.5249 36.5012C36.1571 35.9205 35.2815 35.3164 34.7053 35.9508ZM26.0297 34.7006C26.2122 35.1153 26.3996 35.5286 26.5639 35.9508C26.7772 35.6801 27.0591 35.3839 27.2318 35.0905C27.4164 34.3458 27.1835 34.1371 26.1206 34.5049L26.0297 34.7006ZM93.4333 35.9508L93.9892 36.5012C94.0556 36.1348 94.1535 35.7745 94.2458 35.4135C93.7521 35.0808 93.0458 35.3336 93.4333 35.9508ZM44.4502 37.6489L44.704 38.2213L45.0439 37.3341C44.89 37.3286 44.746 37.3141 44.5963 37.2741L44.4956 37.3478L44.4502 37.6489Z" fill="#F58220"/>
<path d="M15.3855 36.5012C17.2827 36.4971 18.1282 37.5462 17.0813 39.183C16.9212 39.3428 16.745 39.4881 16.5743 39.6369C15.8687 38.8454 15.3876 37.5517 15.3855 36.5012Z" fill="#FFFAF5"/>
<path d="M102.524 36.1775C103.291 36.09 104 36.0997 104.768 36.1775C104.478 37.0923 104.066 37.9644 103.875 38.9061C101.712 40.5697 101.668 36.7162 102.524 36.1775Z" fill="#FFFAF5"/>
<path d="M98.4054 39.8513L98.5123 39.8788C98.4711 41.0885 96.7571 42.9663 95.4941 42.418C95.0703 41.6575 94.9976 40.95 94.9738 40.1034C96.1179 40.038 97.262 39.9312 98.4054 39.8506V39.8513Z" fill="#FFFAF5"/>
<path d="M21.3464 39.6369C22.5289 39.8119 23.7359 39.8649 24.908 40.104C24.7821 40.7949 24.6192 41.4548 24.3499 42.1065C23.2436 43.9065 21.617 40.4484 21.3464 39.6362V39.6369Z" fill="#FFFAF5"/>
<path d="M97.9466 33.7666C98.6907 33.8906 99.4291 34.8784 99.918 35.4137C99.6557 35.9365 99.4179 36.4731 99.2928 37.0456C98.9935 37.1262 98.6991 37.2371 98.4047 37.3349C97.7214 37.3686 97.1018 37.4885 96.4389 37.6497C96.762 36.3657 96.9976 34.7537 97.9459 33.7673L97.9466 33.7666Z" fill="#FFFAF5"/>
<path d="M21.7289 34.1096C23.1653 34.2315 23.6926 36.1948 23.9611 37.3342C23.4639 37.2756 22.9408 37.319 22.4401 37.3342C21.7408 37.1186 21.0065 37.051 20.3177 36.8161C19.3953 35.9351 20.7079 34.2825 21.7289 34.1096Z" fill="#FFFAF5"/>
<path d="M14.0946 29.641C15.675 29.5555 15.5806 32.5417 15.6358 33.5592C15.1288 33.5282 14.6051 33.5668 14.0946 33.5592C11.4477 32.6774 12.2484 30.9987 14.0946 29.641Z" fill="#FFFAF5"/>
<path d="M28.543 42.4187C30.0129 42.6549 31.5067 43.1206 32.95 43.494C32.7472 44.0829 32.4591 44.6264 32.1214 45.15C30.264 47.7373 28.8871 43.9066 28.5437 42.418L28.543 42.4187Z" fill="#FFFAF5"/>
<path d="M105.463 29.6409C106.378 29.6478 109.755 32.6636 105.956 33.5591C105.257 33.5846 104.573 33.5867 103.875 33.5591C104.045 32.2702 104.324 30.4365 105.463 29.6409Z" fill="#FFFAF5"/>
<path d="M91.4011 42.4185L91.4703 42.4743C91.2647 44.06 89.629 47.835 87.5423 45.7326C87.0381 45.043 86.7863 44.2853 86.4968 43.4945C88.008 42.9041 89.8004 42.7353 91.4018 42.4191L91.4011 42.4185Z" fill="#FFFAF5"/>
<path d="M88.6912 35.9509C90.1059 36.0267 91.6682 37.857 92.4514 38.9061C91.7248 39.367 90.9136 39.7376 90.1332 40.1041C89.0528 40.3093 87.908 40.4072 86.8108 40.4657C86.8332 38.8221 87.3213 36.998 88.6912 35.9509Z" fill="#FFFAF5"/>
<path d="M30.5801 35.9509C32.6472 36.0219 33.4759 39.3628 33.7186 40.9293C33.0745 40.7537 32.4172 40.6159 31.7661 40.4657C30.5157 40.1661 29.2486 39.9442 27.9996 39.637C28.2493 37.9376 29.0409 36.8451 30.5794 35.9509H30.5801Z" fill="#FFFAF5"/>
<path d="M39.5613 44.6214C40.7599 44.4086 41.9956 44.6876 43.1481 45.0044C42.7998 46.5619 42.4788 47.7544 40.897 48.5314C38.334 48.3661 37.862 47.4024 37.2795 45.0044C38.0753 44.7261 38.7165 44.6476 39.5613 44.6214Z" fill="#FFFAF5"/>
<path d="M79.231 44.6216C80.3995 44.51 81.5345 44.6395 82.6443 45.0046C82.3296 46.6007 82.1401 48.2822 80.2457 48.5315C77.7317 48.5302 77.2254 47.4046 76.5792 45.1506C77.4289 44.8461 78.3359 44.7132 79.231 44.6216Z" fill="#FFFAF5"/>
<path d="M39.5613 37.649C41.8396 37.2825 43.5348 40.888 43.6411 42.6487C42.7194 42.3677 41.8599 42.1769 40.897 42.1073C39.3942 41.9158 38.2368 42.3181 36.7767 42.4187C36.7501 40.2818 37.4746 38.6499 39.5613 37.649Z" fill="#FFFAF5"/>
<path d="M79.5653 37.649C81.3933 37.2874 83.6835 40.5842 83.6101 42.6488C82.5716 42.356 81.5877 42.1211 80.5037 42.1073C79.0212 42.1046 77.6568 42.3243 76.2184 42.6488C76.3191 40.7206 77.5373 38.1925 79.5653 37.649Z" fill="#FFFAF5"/>
<path d="M53.4706 29.1698C57.0573 28.6738 56.3 34.0352 57.2384 36.0047C58.0091 37.6214 59.9217 38.2145 61.5259 37.3975C64.2588 36.0047 62.3602 27.356 67.1707 29.3496C71.4659 31.1296 74.2659 44.851 72.5973 48.6921C71.682 50.8 69.3428 52.4209 67.0322 51.4034C64.4833 49.8018 64.1245 41.8111 58.6161 43.6331C54.4398 45.0143 55.0783 54.5908 49.1055 51.1988C43.7488 48.1575 48.1782 35.3351 50.4481 31.5464C51.1789 30.3278 52.0545 29.5246 53.4713 29.1691L53.4706 29.1698Z" fill="#FBFBFB"/>
</g>
<defs>
<clipPath id="clip0_407_274">
<rect width="120" height="77" fill="white"/>
</clipPath>
</defs>
</svg>
