<svg width="83" height="83" viewBox="0 0 83 83" fill="none" xmlns="http://www.w3.org/2000/svg">
<path d="M66.4531 29.6833C66.271 24.7842 64.3587 21.9613 61.4083 19.9215C58.4579 17.9182 54.2691 16.9894 50.1349 17.0076C46.2921 17.0076 42.504 17.8089 39.9543 18.9563L38.9344 19.4116L37.9145 18.9563C35.8747 18.0275 33.0154 17.3354 29.974 17.0986L24.7471 17.1715C21.651 17.5175 18.7188 18.4281 16.4605 19.9398C13.5283 21.9613 11.5978 24.8024 11.4157 29.7015C11.4157 30.084 11.3975 30.4482 11.3975 30.7943C11.4521 37.7149 13.0366 40.21 14.9671 43.7067C16.9522 47.1306 19.2287 51.538 19.1741 59.6607C19.1741 69.0946 20.7586 74.6311 22.5069 77.5633C24.2735 80.4955 24.8745 80.9508 26.805 80.9508C28.8448 80.9508 29.5551 78.8928 29.6279 77.8001C30.0286 73.8116 29.3365 67.5648 31.3035 60.9173C31.868 59.0779 32.5601 56.7649 33.9442 54.6887C35.8019 51.884 40.8467 49.6804 43.9428 54.6887C45.254 56.8196 46.019 59.0779 46.5835 60.9173C48.0952 65.9985 48.5322 71.2983 48.168 75.3414C47.6763 80.969 50.9727 80.9508 51.082 80.9508C52.8303 80.9508 53.5952 80.5137 55.3618 77.5633C57.1102 74.6311 58.7129 69.0946 58.6947 59.6607C58.64 51.5198 60.9166 47.1306 62.9017 43.7067C64.8322 40.21 66.3985 37.7149 66.4531 30.7943C66.4713 30.43 66.4713 30.0658 66.4531 29.6833Z" stroke="#F58220" stroke-width="3" stroke-miterlimit="10" stroke-linecap="round" stroke-linejoin="round"/>
<path d="M38.934 19.4102L45.9457 23.1255" stroke="#F58220" stroke-width="3" stroke-miterlimit="10" stroke-linecap="round" stroke-linejoin="round"/>
<path d="M72.5354 23.2719C72.5354 12.636 80.8948 12.636 80.8948 12.636C72.5354 12.636 72.5354 2 72.5354 2C72.5354 2 72.5354 12.636 64.176 12.636C64.176 12.6177 72.5354 12.6177 72.5354 23.2719Z" stroke="#F58220" stroke-width="3" stroke-miterlimit="10" stroke-linecap="round" stroke-linejoin="round"/>
<path d="M29.9559 46.9278C29.9559 36.5104 38.1332 36.5104 38.1332 36.5104C29.9559 36.5104 29.9559 26.093 29.9559 26.093C29.9559 26.093 29.9559 36.5104 21.7786 36.5104C21.7786 36.5104 29.9559 36.5104 29.9559 46.9278Z" stroke="white" stroke-width="3" stroke-miterlimit="10" stroke-linecap="round" stroke-linejoin="round"/>
<path d="M7.7915 19.83C7.7915 12.4541 13.583 12.4541 13.583 12.4541C7.7915 12.4541 7.7915 5.07812 7.7915 5.07812C7.7915 5.07812 7.7915 12.4541 2 12.4541C2.01821 12.4541 7.7915 12.4541 7.7915 19.83Z" stroke="#F58220" stroke-width="3" stroke-miterlimit="10" stroke-linecap="round" stroke-linejoin="round"/>
</svg>
