<svg width="105" height="105" viewBox="0 0 105 105" fill="none" xmlns="http://www.w3.org/2000/svg">
<g clip-path="url(#clip0_407_230)">
<path d="M15.2797 76.3814C16.0754 76.0115 17.0626 75.8037 17.8416 75.9243C18.6206 76.0448 19.2496 76.3398 19.9453 76.7013C21.3783 77.4493 22.9362 78.4258 24.6316 78.2596C26.3271 78.0934 27.9517 76.8717 29.4722 76.1196C29.8221 75.945 30.0554 75.8328 30.4136 75.7123C30.5719 75.6583 30.7344 75.6126 30.8968 75.571C30.9343 75.5627 31.2217 75.5336 30.9885 75.5503C31.0718 75.5461 31.1509 75.5419 31.2342 75.5419C31.505 75.5461 30.8802 75.4464 31.3634 75.571C31.4634 75.596 31.5675 75.6167 31.6675 75.6417C31.8966 75.6999 32.1257 75.7663 32.3506 75.837C32.5256 75.8952 32.4756 75.8702 32.6756 75.9783C32.7422 76.0157 32.8089 76.0572 32.8755 76.0946C32.9255 76.1279 32.9797 76.1611 33.0297 76.1985C32.9672 76.1486 32.963 76.1445 33.0172 76.1902C34.7376 77.5573 36.4247 79.5935 35.679 81.9206C35.2874 83.134 37.1995 83.6534 37.5869 82.4442C37.9743 81.2349 37.9035 79.8221 37.4244 78.6045C36.9454 77.387 36.1622 76.4478 35.225 75.5419C34.5585 74.8979 33.9086 74.3202 33.0297 73.9837C32.1507 73.6471 31.2093 73.4476 30.2761 73.6803C28.4932 74.1208 26.8436 75.4214 25.269 76.0489C25.0857 76.1237 24.8983 76.1902 24.7066 76.2401C24.6233 76.2608 24.5358 76.2816 24.4484 76.2982C24.6608 76.265 24.5233 76.2899 24.4734 76.2899C24.0068 76.2941 23.7527 76.2484 23.2778 76.1029C22.5446 75.8744 21.799 75.4381 21.0408 75.0391C20.0702 74.528 19.0788 74.0959 17.9832 73.9546C16.6835 73.7883 15.4463 74.1166 14.2758 74.6651C13.7926 74.8895 13.6676 75.5877 13.9217 76.0157C14.2133 76.5102 14.7923 76.5974 15.2755 76.3689L15.2797 76.3814Z" fill="#F58220"/>
<path d="M14.6132 74.5487C12.9969 75.2676 11.5848 76.5475 10.8558 78.1681C10.0101 80.0505 9.94348 82.1948 10.2059 84.2143C10.7475 88.3656 12.7012 92.0847 14.0342 96.0075C14.7798 98.2057 15.3047 100.458 15.1922 102.789C15.1297 104.061 17.1126 104.057 17.1709 102.789C17.3625 98.7958 15.8379 95.0517 14.3883 91.4115C13.0261 87.9958 11.4265 84.0398 12.2263 80.2957C12.6345 78.4008 13.8509 77.0378 15.6088 76.2525C16.0962 76.0364 16.2128 75.3258 15.9629 74.9019C15.6671 74.3991 15.0964 74.3285 14.609 74.5487H14.6132Z" fill="#F58220"/>
<path d="M35.629 82.228C35.1625 85.7726 34.2835 89.2507 33.4462 92.7205C33.0338 94.4243 32.6048 96.1114 32.5214 97.8691C32.4381 99.6269 32.384 101.38 32.1049 103.13C32.0216 103.658 32.2423 104.194 32.7964 104.343C33.2671 104.472 33.9294 104.181 34.0128 103.654C34.3002 101.863 34.4168 100.08 34.4835 98.2681C34.5501 96.4563 34.9834 94.7816 35.4041 93.0447C36.2705 89.4627 37.1328 85.8807 37.6119 82.2239C37.6827 81.692 37.1079 81.2349 36.6205 81.2349C36.0289 81.2349 35.6999 81.692 35.629 82.2239V82.228Z" fill="#F58220"/>
<path d="M15.1839 102.893C15.2547 103.733 15.5172 104.626 16.4086 104.917C17.3584 105.228 18.2082 104.584 18.808 103.924C20.0952 102.515 20.5451 100.79 20.9825 98.987C21.2158 98.0229 21.4491 97.0589 21.6824 96.099C21.8115 95.5671 21.9365 95.0352 22.0698 94.5033C22.0906 94.4202 22.2656 94.0379 22.1073 94.2124C22.2281 94.0836 22.5405 93.988 22.703 93.9215C24.0943 93.3439 25.7272 93.1777 27.0436 94.0171C28.1183 94.7069 29.1139 92.9948 28.0433 92.3092C26.6478 91.4158 24.9524 91.2994 23.3653 91.6485C22.5988 91.8147 21.7782 92.0973 21.1075 92.5045C20.2535 93.0281 20.1619 93.9838 19.9453 94.8731C19.512 96.6558 19.1413 98.4676 18.6289 100.225C18.4165 100.961 18.1082 101.663 17.6292 102.266C17.525 102.399 17.4084 102.523 17.2917 102.648C17.2001 102.744 16.9418 102.901 16.8752 103.014C16.8044 103.13 17.1459 103.188 17.1918 103.134C17.1918 103.134 17.1626 102.914 17.1626 102.889C17.1168 102.357 16.7419 101.9 16.1712 101.9C15.6713 101.9 15.1339 102.353 15.1797 102.889L15.1839 102.893Z" fill="#F58220"/>
<path d="M26.6187 93.7136C28.3891 95.5337 28.8681 98.1267 29.4846 100.491C29.7887 101.663 30.0512 103.234 30.9676 104.106C31.9424 105.033 33.4962 104.738 33.9836 103.483C34.1752 102.984 33.7711 102.399 33.2921 102.27C32.7339 102.116 32.2673 102.461 32.0757 102.96C32.0923 102.914 32.3506 102.677 32.3465 102.698C32.3465 102.681 32.184 102.461 32.159 102.411C31.9424 101.979 31.8174 101.476 31.6841 101.011C31.3634 99.9094 31.1176 98.7874 30.8093 97.6821C30.2594 95.7207 29.468 93.7967 28.0266 92.3132C27.1394 91.399 25.7397 92.7953 26.627 93.7095L26.6187 93.7136Z" fill="#F58220"/>
<path d="M21.2741 77.4409C24.2151 78.8704 27.1061 81.775 30.6594 80.4536C31.1593 80.2666 31.5008 79.7846 31.3509 79.2402C31.2176 78.7582 30.6344 78.3634 30.1345 78.5504C27.2519 79.6225 24.665 76.8965 22.278 75.7372C21.799 75.5045 21.2075 75.6083 20.9242 76.0904C20.6701 76.5225 20.7951 77.2082 21.2783 77.4409H21.2741Z" fill="#F58220"/>
<path d="M27.5809 37.8313C25.0649 37.3493 22.5905 38.5959 21.12 40.6196C19.7286 42.5353 19.5454 45.2031 21.045 47.1105C22.5446 49.0178 25.5439 49.4001 27.7226 48.5815C29.9012 47.7629 31.4509 45.6477 31.4675 43.2625C31.4883 40.7028 29.6055 38.4006 27.131 37.7939C25.8938 37.4906 25.3648 39.3938 26.6062 39.6971C28.0433 40.0503 29.2264 41.2263 29.4555 42.7098C29.6846 44.1933 28.9473 45.6935 27.6851 46.429C26.3604 47.2019 24.2526 47.2808 22.9945 46.3001C21.7365 45.3195 21.724 43.5118 22.4322 42.232C23.2986 40.6654 25.2023 39.3772 27.0561 39.7304C27.5809 39.8301 28.1266 39.5849 28.2724 39.0406C28.4057 38.5585 28.11 37.9269 27.5809 37.8272V37.8313Z" fill="#F58220"/>
<path d="M21.7032 30.9625C17.375 33.1566 13.7801 36.9256 12.3221 41.6004C10.8141 46.4374 11.7389 51.8935 15.2422 55.6459C16.996 57.52 19.3246 58.8871 21.849 59.3899C22.3739 59.4938 22.9196 59.2403 23.0654 58.7001C23.1987 58.2139 22.9029 57.5906 22.3738 57.4867C18.354 56.693 15.1381 53.5266 14.0425 49.6205C12.822 45.2572 14.1341 40.4909 17.0418 37.0793C18.6122 35.2343 20.541 33.7716 22.6988 32.6745C23.836 32.0969 22.8321 30.3932 21.699 30.9666L21.7032 30.9625Z" fill="#F58220"/>
<path d="M22.1489 59.4397C26.3188 60.7445 30.0929 63.2128 32.888 66.5704C35.8498 70.1275 37.437 74.686 37.3162 79.3069C37.2495 81.9456 36.608 84.5635 35.3791 86.903C34.7876 88.0292 36.4955 89.0265 37.0912 87.9004C39.5281 83.2546 39.9239 77.7153 38.4076 72.7122C36.9871 68.0165 33.9003 64.0273 29.9512 61.1559C27.7476 59.556 25.2732 58.3426 22.6738 57.5323C21.4533 57.15 20.9326 59.0574 22.1489 59.4355V59.4397Z" fill="#F58220"/>
<path d="M35.0708 88.881C35.4332 89.0929 35.829 89.1428 36.2455 89.176C36.4163 89.1927 36.5913 89.1885 36.7621 89.2093C36.8037 89.2134 37.0537 89.3049 36.937 89.2342C37.2953 89.442 37.8493 89.4046 38.1368 89.0805C42.0358 84.6549 45.1018 79.3484 46.039 73.4684C46.9097 67.9998 45.9307 62.3941 42.844 57.7483C41.286 55.4047 39.2948 53.3934 36.9662 51.806C35.9123 51.0872 34.9167 52.7992 35.9664 53.5139C39.6989 56.0529 42.4691 59.9341 43.6813 64.2724C45.1726 69.6039 44.1978 75.3716 41.7734 80.2751C40.4445 82.9636 38.7158 85.4361 36.7329 87.6842L37.9326 87.5305C37.5702 87.3186 37.1745 87.2687 36.7579 87.2354C36.5871 87.2188 36.4122 87.223 36.2414 87.2022C36.1997 87.198 35.9498 87.1066 36.0664 87.1773C34.9625 86.5332 33.9669 88.2411 35.0666 88.8852L35.0708 88.881Z" fill="#F58220"/>
<path d="M37.162 40.3827C40.1238 43.8359 38.4575 48.918 35.7665 51.964C34.925 52.9156 36.3205 54.316 37.1662 53.3602C39.0449 51.2368 40.3612 48.6687 40.6528 45.8264C40.9069 43.3456 40.1904 40.8814 38.5658 38.9823C38.2159 38.5751 37.5244 38.625 37.1662 38.9823C36.7621 39.3854 36.8162 39.9713 37.1662 40.3786L37.162 40.3827Z" fill="#F58220"/>
<path d="M22.7529 32.5747C30.9218 28.3694 39.2781 24.5381 47.6428 20.74C56.0075 16.9419 64.3722 13.1854 72.5952 9.10886C77.2358 6.80674 81.8263 4.40073 86.3294 1.84513C87.4375 1.21765 86.4419 -0.490237 85.3297 0.137236C77.3274 4.67499 69.0627 8.72656 60.7189 12.6036C52.375 16.4806 44.002 20.1707 35.6873 24.0602C31.0051 26.2501 26.3479 28.5024 21.749 30.8668C20.6159 31.4486 21.6157 33.1565 22.7487 32.5747H22.7529Z" fill="#F58220"/>
<path d="M38.3909 39.9174C44.7893 35.2425 51.2753 30.6881 57.8487 26.2626C64.393 21.8536 71.0206 17.5694 77.7315 13.4139C81.5348 11.0578 85.3672 8.73903 89.2246 6.466C90.3202 5.81775 89.3246 4.10986 88.2248 4.75811C81.4015 8.78474 74.6489 12.9444 67.9838 17.2286C61.3187 21.5129 54.7911 25.8886 48.3177 30.4056C44.6477 32.9695 41.0069 35.5708 37.3911 38.2095C36.962 38.5253 36.7454 39.0655 37.037 39.56C37.287 39.9839 37.9576 40.2332 38.3909 39.9132V39.9174Z" fill="#F58220"/>
<path d="M12.3304 42.9758C9.43527 45.1325 6.78173 47.5842 4.71139 50.5554C2.89933 53.1525 1.63713 56.1071 0.924796 59.1862C-0.495699 65.3363 -0.316575 72.1346 1.70794 78.1268C3.0243 82.0246 5.17378 85.5817 8.0606 88.5238C8.95205 89.4338 10.3559 88.0376 9.46026 87.1275C4.81137 82.3945 2.44943 76.0408 2.07869 69.4876C1.7496 63.6991 2.62023 57.6238 5.71949 52.6248C7.66486 49.4833 10.3809 46.882 13.3302 44.6837C13.7592 44.3637 13.9759 43.8277 13.6843 43.3332C13.4385 42.9135 12.7595 42.6559 12.3304 42.98V42.9758Z" fill="#F58220"/>
<path d="M12.3846 85.6315C10.2684 82.3487 9.48527 78.1683 9.28532 74.3287C9.17701 72.2634 9.23533 70.1483 9.64774 68.1163C10.081 65.9804 11.1765 64.0356 12.5054 62.3278C14.0384 60.3581 15.9087 58.6169 17.9083 57.1251C18.3373 56.8052 18.5539 56.2691 18.2624 55.7746C18.0166 55.3549 17.3376 55.0973 16.9085 55.4214C13.1219 58.2471 9.39363 61.9579 7.99396 66.5912C7.33579 68.7646 7.22331 71.1706 7.2733 73.427C7.32329 75.6834 7.61905 78.0354 8.15226 80.271C8.68546 82.5066 9.44362 84.709 10.6808 86.6288C11.3682 87.6968 13.0844 86.7036 12.3929 85.6315H12.3846Z" fill="#F58220"/>
<path d="M39.7989 46.2046C47.7678 49.4791 55.9117 52.3214 64.1764 54.7565C72.4661 57.1958 80.8808 59.2278 89.3621 60.8858C94.136 61.8208 98.9348 62.6311 103.75 63.3375C104.279 63.4165 104.813 63.2046 104.967 62.6477C105.096 62.1823 104.808 61.5091 104.275 61.4343C95.7481 60.1835 87.2709 58.592 78.8854 56.6098C70.4749 54.6235 62.1561 52.2425 53.983 49.4417C49.3799 47.8626 44.8269 46.1506 40.3238 44.3014C39.8281 44.0978 39.2365 44.5216 39.1074 44.9912C38.9491 45.5563 39.3032 46.001 39.7989 46.2046Z" fill="#F58220"/>
<path d="M43.7479 63.1048C51.3753 64.3515 59.0151 65.5067 66.6716 66.5497C74.4864 67.6135 82.3137 68.5734 90.1577 69.3837C94.4692 69.8284 98.7848 70.2273 103.105 70.5722C103.638 70.6137 104.096 70.086 104.096 69.5832C104.096 69.0139 103.642 68.6399 103.105 68.5942C95.4356 67.9833 87.7791 67.198 80.1393 66.2921C72.4203 65.3779 64.7138 64.3348 57.0239 63.1921C52.7708 62.5605 48.5176 61.8956 44.2728 61.1975C43.7438 61.1102 43.2064 61.3346 43.0564 61.8873C42.9273 62.361 43.2189 63.0176 43.7479 63.1007V63.1048Z" fill="#F58220"/>
<path d="M9.07702 89.0057C9.82684 89.0389 10.5767 88.9683 11.3098 88.8187C11.5431 88.773 11.7847 88.5652 11.9013 88.3657C12.0263 88.1538 12.0763 87.8421 12.0013 87.6053C11.9263 87.3684 11.7764 87.1357 11.5473 87.0152C11.3015 86.8864 11.0557 86.8614 10.7849 86.9155C10.61 86.9487 10.435 86.982 10.2601 87.0027L10.5225 86.9695C10.0435 87.0318 9.56024 87.0526 9.07702 87.0318C8.83124 87.0194 8.54798 87.1482 8.37718 87.3227C8.20639 87.4972 8.07726 87.7756 8.08559 88.0208C8.09392 88.266 8.1814 88.5402 8.37718 88.7189C8.57297 88.8976 8.80625 88.9973 9.07702 89.0098V89.0057Z" fill="#F58220"/>
</g>
<defs>
<clipPath id="clip0_407_230">
<rect width="105" height="105" fill="white"/>
</clipPath>
</defs>
</svg>
