<svg width="83" height="77" viewBox="0 0 83 77" fill="none" xmlns="http://www.w3.org/2000/svg">
<g clip-path="url(#clip0_407_340)">
<path d="M59.5385 53.6242L59.111 57.2045C58.6498 60.7077 57.7486 64.1965 56.1432 67.3459C54.7519 70.0477 52.2362 73.4699 48.8934 73.3913C48.8814 73.3913 48.8559 73.3914 48.8631 73.3899C48.8631 73.388 48.8636 73.388 48.865 73.386C48.8698 73.3822 48.8747 73.3788 48.8578 73.3658C48.825 73.3412 48.7161 73.2429 48.6072 73.0844C48.4968 72.9272 48.3836 72.7219 48.2785 72.4993C48.1734 72.2747 48.0756 72.0308 47.984 71.7778C47.8019 71.2694 47.6438 70.7262 47.4992 70.1725C46.4997 66.1184 45.9821 61.9492 45.089 57.8561C44.4254 54.7973 43.664 51.7215 42.2952 48.8603C42.0736 48.3991 41.8085 47.934 41.5092 47.5181C38.141 42.8611 31.0685 43.2563 28.1711 48.2049C27.9075 48.6429 27.6675 49.1311 27.4511 49.588C25.1354 54.697 24.3243 60.2803 23.1474 65.6968C22.7826 67.3879 22.4264 69.0337 21.8722 70.6207C21.7141 71.0612 21.5329 71.5123 21.3185 71.8945C21.2674 71.9831 21.223 72.0559 21.1806 72.1186C19.4148 71.8858 17.9859 70.2756 17.0037 68.7956C15.8533 67.0298 15.0374 64.983 14.4711 62.9189C13.1906 58.42 13.4022 53.6763 12.8239 49.0338C12.5429 46.5441 12.1891 44.0674 11.5819 41.6071C11.1245 39.7372 10.4884 37.903 9.73946 36.1333C9.57801 35.7521 9.35728 35.2316 9.18668 34.8542C8.08545 32.4012 7.01362 30.004 6.05891 27.509C4.57936 23.6135 4.12875 18.7291 5.00732 14.6543C5.17022 13.8948 5.39721 13.128 5.67769 12.4037C7.8093 6.9289 13.8528 4.18957 19.4071 3.65944C21.0124 3.50618 22.6592 3.6951 24.2361 4.03294C25.6525 4.33511 27.0347 4.75199 28.4184 5.19151C28.8299 5.32549 29.3519 5.48839 29.7673 5.61032C30.0488 5.68213 30.4377 5.78767 30.7211 5.84647C31.4228 6.00454 32.1833 6.12165 32.898 6.19587C33.0589 6.21081 33.4633 6.23876 33.6295 6.25419C33.7818 6.25949 34.2194 6.27732 34.3621 6.28165C34.5351 6.28551 34.9163 6.28069 35.0946 6.28021C35.2397 6.28214 35.4349 6.26527 35.5819 6.26093C35.7173 6.24985 35.939 6.25081 36.0686 6.2325C36.2113 6.21756 36.6706 6.18093 36.7959 6.16358C36.9559 6.14527 37.354 6.08454 37.5193 6.06623C37.6556 6.0431 38.1149 5.95924 38.2369 5.939C38.4079 5.9096 38.7713 5.8161 38.9482 5.78333C39.2518 5.71008 39.5848 5.61996 39.8846 5.53224C40.7632 5.27296 41.6543 4.9091 42.5087 4.58572C44.0081 4.02137 45.5252 3.49365 47.0862 3.13702C48.3951 2.83243 49.7431 2.66568 51.0882 2.7052C55.3712 2.86617 59.7279 4.14668 63.0768 6.89612C63.9916 7.65036 64.8104 8.51929 65.5179 9.47497C65.5463 9.51449 65.6012 9.52702 65.6441 9.50196C65.6904 9.47545 65.7063 9.41617 65.6798 9.36991C65.0764 8.31928 64.3275 7.34288 63.4653 6.47202C60.6233 3.61124 56.7644 1.93314 52.8323 1.21602C51.8362 1.03818 50.7942 0.907578 49.7817 0.893602C47.3508 0.866131 44.9435 1.39723 42.6215 2.06953C41.7656 2.3076 40.8899 2.60881 40.0369 2.85364C38.7067 3.23967 37.3135 3.43582 35.9361 3.46232C34.1462 3.49028 32.3659 3.20786 30.6724 2.64351C30.4521 2.5611 30.1003 2.44158 29.8873 2.35724C28.1711 1.70085 26.3812 1.05601 24.5648 0.609259C22.4857 0.0810564 20.3204 -0.135333 18.1772 0.0868396C12.2523 0.613115 6.18662 3.29702 2.87475 8.43254C0.0380703 12.8606 -0.421697 18.8067 0.306991 23.9046C0.562899 25.6931 0.991823 27.4686 1.60918 29.1722C2.48535 31.6017 3.52006 34.0369 4.54129 36.3873C5.29311 38.1386 5.96637 39.7729 6.46325 41.5676C6.57169 41.9493 6.68735 42.3927 6.77651 42.7787C7.81412 47.2362 8.11726 52.0083 8.4151 56.6315C8.4922 57.9115 8.63052 59.1892 8.83583 60.461C9.53849 64.6871 10.8918 68.8896 13.4894 72.3793C15.3945 74.9345 18.2577 77.0618 21.5946 76.9986C24.3166 76.9235 25.68 74.3875 26.4024 72.1836C27.0097 70.3556 27.3909 68.4631 27.7509 66.6274C28.6478 62.0051 29.2786 57.3038 30.7702 52.884C31.0825 51.9962 31.4155 51.1427 31.8536 50.3225C32.6719 48.7784 34.4098 48.0155 36.111 48.362C37.1043 48.5562 37.9997 49.1499 38.5761 49.9832C38.6557 50.0844 38.7188 50.2054 38.7896 50.3143C38.7969 50.3263 38.8031 50.335 38.8113 50.35L38.8354 50.3938C39.6788 51.9317 40.2865 53.5645 40.8355 55.2614C42.2707 59.7313 43.1594 64.597 44.3922 69.1402C44.8273 70.6766 45.2722 72.2207 46.0413 73.6535C46.597 74.6849 47.5166 75.7634 48.8274 75.7552C54.469 75.5326 57.5105 69.2621 58.7288 64.4871C59.3351 62.1179 59.6483 59.687 59.7206 57.2518C59.7486 56.2643 59.7553 54.6238 59.7712 53.6406C59.7732 53.4956 59.5592 53.4748 59.538 53.6238L59.5385 53.6242ZM21.0322 72.3002C21.0322 72.3002 21.0293 72.3036 21.0274 72.3051C21.0274 72.3046 21.0293 72.3027 21.0322 72.3002Z" fill="#F58220"/>
<path d="M82.669 17.7429C82.6772 17.1043 82.3085 16.4937 81.6859 16.2248C76.401 13.9462 70.6563 12.911 64.9227 13.0319C62.0894 13.1693 59.2604 13.5977 56.5191 14.324C53.7986 15.0426 51.159 16.0585 48.678 17.3824C48.5368 17.4426 48.4375 17.58 48.4448 17.7429C48.4684 18.2619 48.491 18.7824 48.5248 19.3029C48.6385 20.8629 48.7281 22.4461 49.1484 23.9608C49.1812 24.0572 49.3214 24.0244 49.3074 23.9223C49.2192 23.4177 49.185 22.9035 49.1619 22.3892C49.1055 20.9343 49.159 19.4783 49.2221 18.0234C49.6183 17.8822 50.094 17.7246 50.4554 17.6036C55.1172 16.0995 60.031 15.4199 64.9227 15.5337C69.8534 15.792 74.7913 16.8619 79.3244 18.8133C79.3147 19.3371 79.3046 19.8856 79.2988 20.2311C79.2425 22.6832 79.1649 25.1748 78.9345 27.5946C78.6477 30.734 78.0444 33.8502 76.7494 36.7317C76.5234 37.2478 76.2419 37.8131 75.9812 38.3158C73.3932 43.2229 69.4919 47.3367 64.8701 50.4124C63.1626 49.4374 61.5298 48.3251 60.0031 47.0837C57.4536 45.0137 55.1895 42.5886 53.3297 39.8777C52.3528 38.4527 51.4921 36.9635 50.7745 35.3861C50.761 35.3567 50.7287 35.3403 50.6964 35.3485C50.6598 35.3577 50.6381 35.3943 50.6467 35.4309C50.9296 36.562 51.3161 37.6782 51.775 38.7558C53.5494 42.9053 56.3186 46.5974 59.6753 49.6023C61.0985 50.8813 62.6378 52.0356 64.2605 53.0659C64.6253 53.2963 65.1019 53.3291 65.5073 53.1079C68.581 51.4447 71.4206 49.3155 73.8804 46.7849C76.3301 44.2619 78.3967 41.3457 79.8839 38.1539C82.1423 33.3711 82.5746 28.0076 82.6681 22.7984C82.7003 21.1102 82.6917 19.4272 82.6681 17.7429H82.669Z" fill="#F58220"/>
<path d="M58.3761 32.1038C60.3828 32.3472 62.4012 32.4523 64.42 32.4527C64.4528 33.4581 64.5082 34.4634 64.5844 35.4663C64.702 36.809 64.8465 38.1545 65.1232 39.4774C65.2114 39.8591 65.7511 39.8509 65.8311 39.4707C66.0813 38.1425 66.1998 36.7945 66.2909 35.4499C66.3497 34.4407 66.3858 33.4306 66.3974 32.4209C67.4071 32.3882 68.4158 32.3327 69.4225 32.2561C70.7652 32.1385 72.1108 31.9939 73.4337 31.7173C73.8154 31.6291 73.8072 31.0893 73.4269 31.0093C72.0987 30.7592 70.7507 30.6407 69.4061 30.5496C68.4013 30.4913 67.3955 30.4551 66.3897 30.4431C66.3545 28.7625 66.247 27.0835 66.0572 25.4112C65.9748 24.7398 65.8846 24.0709 65.7482 23.4058C65.6451 22.9403 64.9853 22.948 64.8914 23.414C64.8282 23.7494 64.78 24.0844 64.7367 24.4198C64.4938 26.4223 64.3887 28.4363 64.3877 30.4513C62.7111 30.4869 61.0363 30.5939 59.3674 30.7838C58.6961 30.8662 58.0271 30.9563 57.3621 31.0927C56.8965 31.1958 56.9042 31.8556 57.3703 31.9496C57.7057 32.0127 58.0406 32.0609 58.3761 32.1043V32.1038Z" fill="#F58220"/>
</g>
<defs>
<clipPath id="clip0_407_340">
<rect width="82.6898" height="77" fill="white"/>
</clipPath>
</defs>
</svg>
