<svg width="85" height="18" viewBox="0 0 85 18" fill="none" xmlns="http://www.w3.org/2000/svg">
<path d="M8.74513 1.69008C8.96455 1.24846 9.59452 1.24846 9.81394 1.69008L11.6059 5.29673C11.6928 5.47161 11.8598 5.59291 12.0529 5.62151L16.0368 6.21126C16.5246 6.28347 16.7193 6.88261 16.3671 7.22776L13.4907 10.0465C13.3512 10.1832 13.2875 10.3795 13.32 10.572L13.9902 14.5432C14.0722 15.0294 13.5626 15.3997 13.1255 15.1714L9.55581 13.3069C9.38272 13.2165 9.17635 13.2165 9.00326 13.3069L5.43358 15.1714C4.9965 15.3997 4.48684 15.0294 4.5689 14.5432L5.2391 10.572C5.27159 10.3795 5.20782 10.1832 5.06835 10.0465L2.19197 7.22776C1.83978 6.88261 2.03445 6.28347 2.52225 6.21126L6.50613 5.62151C6.6993 5.59291 6.86626 5.47161 6.95315 5.29673L8.74513 1.69008Z" fill="#FCD503"/>
<path d="M25.4536 1.69008C25.673 1.24846 26.303 1.24846 26.5224 1.69008L28.3144 5.29673C28.4013 5.47161 28.5683 5.59291 28.7614 5.62151L32.7453 6.21126C33.2331 6.28347 33.4278 6.88261 33.0756 7.22776L30.1992 10.0465C30.0597 10.1832 29.996 10.3795 30.0285 10.572L30.6987 14.5432C30.7807 15.0294 30.2711 15.3997 29.834 15.1714L26.2643 13.3069C26.0912 13.2165 25.8848 13.2165 25.7118 13.3069L22.1421 15.1714C21.705 15.3997 21.1953 15.0294 21.2774 14.5432L21.9476 10.572C21.9801 10.3795 21.9163 10.1832 21.7768 10.0465L18.9005 7.22776C18.5483 6.88261 18.7429 6.28347 19.2307 6.21126L23.2146 5.62151C23.4078 5.59291 23.5748 5.47161 23.6616 5.29673L25.4536 1.69008Z" fill="#FCD503"/>
<path d="M42.1621 1.69008C42.3815 1.24846 43.0115 1.24846 43.2309 1.69008L45.0229 5.29673C45.1098 5.47161 45.2768 5.59291 45.4699 5.62151L49.4538 6.21126C49.9416 6.28347 50.1363 6.88261 49.7841 7.22776L46.9077 10.0465C46.7682 10.1832 46.7045 10.3795 46.737 10.572L47.4072 14.5432C47.4892 15.0294 46.9796 15.3997 46.5425 15.1714L42.9728 13.3069C42.7997 13.2165 42.5933 13.2165 42.4203 13.3069L38.8506 15.1714C38.4135 15.3997 37.9038 15.0294 37.9859 14.5432L38.6561 10.572C38.6886 10.3795 38.6248 10.1832 38.4853 10.0465L35.609 7.22776C35.2568 6.88261 35.4514 6.28347 35.9392 6.21126L39.9231 5.62151C40.1163 5.59291 40.2833 5.47161 40.3701 5.29673L42.1621 1.69008Z" fill="#FCD503"/>
<path d="M58.8706 1.69008C59.09 1.24846 59.72 1.24846 59.9394 1.69008L61.7314 5.29673C61.8183 5.47161 61.9852 5.59291 62.1784 5.62151L66.1623 6.21126C66.6501 6.28347 66.8448 6.88261 66.4926 7.22776L63.6162 10.0465C63.4767 10.1832 63.413 10.3795 63.4455 10.572L64.1157 14.5432C64.1977 15.0294 63.6881 15.3997 63.251 15.1714L59.6813 13.3069C59.5082 13.2165 59.3018 13.2165 59.1287 13.3069L55.5591 15.1714C55.122 15.3997 54.6123 15.0294 54.6944 14.5432L55.3646 10.572C55.3971 10.3795 55.3333 10.1832 55.1938 10.0465L52.3175 7.22776C51.9653 6.88261 52.1599 6.28347 52.6477 6.21126L56.6316 5.62151C56.8248 5.59291 56.9917 5.47161 57.0786 5.29673L58.8706 1.69008Z" fill="#FCD503"/>
<path d="M75.5865 1.60677C75.8109 1.18433 76.4162 1.18433 76.6405 1.60677L78.5401 5.18335C78.6264 5.34575 78.7827 5.45931 78.9638 5.49116L82.9523 6.19255C83.4234 6.27539 83.6105 6.85106 83.278 7.19498L80.4635 10.1068C80.3357 10.239 80.276 10.4228 80.3017 10.6049L80.8671 14.6149C80.9339 15.0886 80.4442 15.4444 80.0144 15.2345L76.3754 13.4575C76.2101 13.3768 76.0169 13.3768 75.8517 13.4575L72.2126 15.2345C71.7828 15.4444 71.2931 15.0886 71.3599 14.6149L71.9254 10.6049C71.951 10.4228 71.8913 10.239 71.7635 10.1068L68.949 7.19498C68.6166 6.85106 68.8036 6.27539 69.2747 6.19255L73.2633 5.49116C73.4444 5.45931 73.6007 5.34575 73.6869 5.18335L75.5865 1.60677Z" fill="#6A6A6A"/>
<mask id="mask0_76_1015" style="mask-type:alpha" maskUnits="userSpaceOnUse" x="67" y="0" width="11" height="18">
<rect x="67.7593" y="0.614502" width="9.84607" height="16.7085" fill="#D9D9D9"/>
</mask>
<g mask="url(#mask0_76_1015)">
<path d="M75.5865 1.60677C75.8109 1.18433 76.4162 1.18433 76.6405 1.60677L78.5401 5.18335C78.6264 5.34575 78.7827 5.45931 78.9638 5.49116L82.9523 6.19255C83.4234 6.27539 83.6105 6.85106 83.278 7.19498L80.4635 10.1068C80.3357 10.239 80.276 10.4228 80.3017 10.6049L80.8671 14.6149C80.9339 15.0886 80.4442 15.4444 80.0144 15.2345L76.3754 13.4575C76.2101 13.3768 76.0169 13.3768 75.8517 13.4575L72.2126 15.2345C71.7828 15.4444 71.2931 15.0886 71.3599 14.6149L71.9254 10.6049C71.951 10.4228 71.8913 10.239 71.7635 10.1068L68.949 7.19498C68.6166 6.85106 68.8036 6.27539 69.2747 6.19255L73.2633 5.49116C73.4444 5.45931 73.6007 5.34575 73.6869 5.18335L75.5865 1.60677Z" fill="#FCD503"/>
</g>
</svg>
