<svg width="95" height="50" viewBox="0 0 95 50" fill="none" xmlns="http://www.w3.org/2000/svg">
<g opacity="0.5">
<circle cx="17.6777" cy="17.6777" r="17.1976" transform="matrix(0.770305 -0.637676 -0.637676 -0.770305 67.3467 49.8901)" stroke="#9E9E9E" stroke-width="0.96015"/>
<mask id="path-2-inside-1_407_106" fill="white">
<path d="M75.2539 24.6125L71.3067 20.7555C71.2003 20.6552 71.0581 20.5999 70.9106 20.6015C70.7632 20.6031 70.6222 20.6616 70.5182 20.7643C70.4142 20.867 70.3554 21.0057 70.3545 21.1505C70.3535 21.2954 70.4106 21.4348 70.5133 21.5387L73.498 24.4551L63.6063 24.4803C63.4571 24.4807 63.3142 24.5393 63.209 24.6432C63.1037 24.747 63.0448 24.8877 63.0452 25.0342C63.0456 25.1807 63.1052 25.3211 63.2109 25.4244C63.3167 25.5277 63.4599 25.5856 63.6091 25.5852L73.5008 25.5599L70.5311 28.4915C70.4775 28.5426 70.4348 28.6037 70.4055 28.6712C70.3762 28.7387 70.3608 28.8112 70.3604 28.8845C70.3599 28.9579 70.3743 29.0306 70.4028 29.0984C70.4313 29.1662 70.4732 29.2278 70.5261 29.2795C70.5791 29.3313 70.642 29.3721 70.7112 29.3997C70.7804 29.4273 70.8545 29.4411 70.9292 29.4403C71.0038 29.4395 71.0776 29.424 71.1462 29.3949C71.2147 29.3658 71.2767 29.3235 71.3284 29.2706L75.2559 25.3936C75.3611 25.2897 75.4199 25.1491 75.4196 25.0026C75.4192 24.8561 75.3596 24.7158 75.2539 24.6125Z"/>
</mask>
<path d="M75.2539 24.6125L71.3067 20.7555C71.2003 20.6552 71.0581 20.5999 70.9106 20.6015C70.7632 20.6031 70.6222 20.6616 70.5182 20.7643C70.4142 20.867 70.3554 21.0057 70.3545 21.1505C70.3535 21.2954 70.4106 21.4348 70.5133 21.5387L73.498 24.4551L63.6063 24.4803C63.4571 24.4807 63.3142 24.5393 63.209 24.6432C63.1037 24.747 63.0448 24.8877 63.0452 25.0342C63.0456 25.1807 63.1052 25.3211 63.2109 25.4244C63.3167 25.5277 63.4599 25.5856 63.6091 25.5852L73.5008 25.5599L70.5311 28.4915C70.4775 28.5426 70.4348 28.6037 70.4055 28.6712C70.3762 28.7387 70.3608 28.8112 70.3604 28.8845C70.3599 28.9579 70.3743 29.0306 70.4028 29.0984C70.4313 29.1662 70.4732 29.2278 70.5261 29.2795C70.5791 29.3313 70.642 29.3721 70.7112 29.3997C70.7804 29.4273 70.8545 29.4411 70.9292 29.4403C71.0038 29.4395 71.0776 29.424 71.1462 29.3949C71.2147 29.3658 71.2767 29.3235 71.3284 29.2706L75.2559 25.3936C75.3611 25.2897 75.4199 25.1491 75.4196 25.0026C75.4192 24.8561 75.3596 24.7158 75.2539 24.6125Z" fill="#9E9E9E"/>
<path d="M75.2539 24.6125L89.5714 9.96426L89.5692 9.9621L75.2539 24.6125ZM71.3067 20.7555L85.622 6.10516L85.4947 5.98082L85.3653 5.85872L71.3067 20.7555ZM70.5133 21.5387L55.9455 35.938L56.0707 36.0647L56.198 36.1891L70.5133 21.5387ZM73.498 24.4551L73.5503 44.9382L123.638 44.8103L87.8133 9.80472L73.498 24.4551ZM63.0452 25.0342L42.5621 25.0865L63.0452 25.0342ZM73.5008 25.5599L87.8907 40.137L123.536 4.94892L73.4485 5.07681L73.5008 25.5599ZM70.5311 28.4915L84.6656 43.3164L84.7944 43.1936L84.921 43.0686L70.5311 28.4915ZM71.3284 29.2706L56.9385 14.6936L56.8118 14.8186L56.6873 14.9459L71.3284 29.2706ZM75.2559 25.3936L89.6458 39.9707L89.648 39.9685L75.2559 25.3936ZM89.5692 9.9621L85.622 6.10516L56.9914 35.4059L60.9386 39.2628L89.5692 9.9621ZM85.3653 5.85872C81.363 2.08157 76.0852 0.0596543 70.6835 0.119549L71.1377 41.0834C66.031 41.1401 61.0376 39.2288 57.248 35.6523L85.3653 5.85872ZM70.6835 0.119549C65.2816 0.179447 60.0475 2.31824 56.1283 6.1872L84.9081 35.3414C81.1969 39.0049 76.2447 41.0268 71.1377 41.0834L70.6835 0.119549ZM56.1283 6.1872C52.197 10.068 49.9071 15.3876 49.8717 21.0216L90.8373 21.2794C90.8036 26.6237 88.6313 31.666 84.9081 35.3414L56.1283 6.1872ZM49.8717 21.0216C49.8362 26.6559 52.0594 32.0064 55.9455 35.938L85.0811 7.13935C88.7618 10.8631 90.8709 15.9348 90.8373 21.2794L49.8717 21.0216ZM56.198 36.1891L59.1827 39.1055L87.8133 9.80472L84.8286 6.88832L56.198 36.1891ZM73.4457 3.97195L63.554 3.99721L63.6586 44.9635L73.5503 44.9382L73.4457 3.97195ZM63.554 3.99721C58.0903 4.01116 52.7831 6.15292 48.819 10.0661L77.5989 39.2202C73.8453 42.9257 68.8239 44.9503 63.6586 44.9635L63.554 3.99721ZM48.819 10.0661C44.8425 13.9916 42.5475 19.3872 42.5621 25.0865L83.5283 24.9819C83.5421 30.3882 81.365 35.5025 77.5989 39.2202L48.819 10.0661ZM42.5621 25.0865C42.5766 30.7859 44.8991 36.1696 48.8956 40.0748L77.5263 10.774C81.3113 14.4725 83.5145 19.5756 83.5283 24.9819L42.5621 25.0865ZM48.8956 40.0748C52.8796 43.9677 58.1977 46.0823 63.6614 46.0683L63.5568 5.10207C68.7221 5.08888 73.7538 7.08783 77.5263 10.774L48.8956 40.0748ZM63.6614 46.0683L73.5531 46.0431L73.4485 5.07681L63.5568 5.10207L63.6614 46.0683ZM59.1109 10.9829L56.1411 13.9145L84.921 43.0686L87.8907 40.137L59.1109 10.9829ZM56.3965 13.6667C54.3757 15.5934 52.7448 17.9165 51.6179 20.5109L89.193 36.8314C88.1248 39.2909 86.5793 41.4919 84.6656 43.3164L56.3965 13.6667ZM51.6179 20.5109C50.4907 23.1062 49.8955 25.9101 49.8776 28.7556L90.8432 29.0135C90.8262 31.7123 90.2617 34.3711 89.193 36.8314L51.6179 20.5109ZM49.8776 28.7556C49.8597 31.6013 50.4196 34.413 51.5148 37.0233L89.2908 21.1735C90.3291 23.6481 90.8602 26.3145 90.8432 29.0135L49.8776 28.7556ZM51.5148 37.0233C52.6097 39.6329 54.2125 41.9773 56.2108 43.9299L84.8414 14.6292C86.7339 16.4783 88.2528 18.6996 89.2908 21.1735L51.5148 37.0233ZM56.2108 43.9299C58.2082 45.8816 60.561 47.4037 63.1226 48.4254L78.2997 10.3741C80.7229 11.3406 82.9499 12.7809 84.8414 14.6292L56.2108 43.9299ZM63.1226 48.4254C65.6834 49.4468 68.4133 49.9526 71.1563 49.9222L70.702 8.95835C73.2957 8.92959 75.8773 9.40788 78.2997 10.3741L63.1226 48.4254ZM71.1563 49.9222C73.8994 49.8918 76.618 49.3255 79.1564 48.2469L63.1359 10.5429C65.5372 9.52258 68.1083 8.98711 70.702 8.95835L71.1563 49.9222ZM79.1564 48.2469C81.6956 47.168 84.0151 45.593 85.9695 43.5954L56.6873 14.9459C58.5382 13.0541 60.7339 11.5636 63.1359 10.5429L79.1564 48.2469ZM85.7184 43.8477L89.6458 39.9707L60.8659 10.8165L56.9385 14.6936L85.7184 43.8477ZM89.648 39.9685C93.6232 36.0431 95.9172 30.6485 95.9027 24.9503L54.9364 25.0549C54.9226 19.6497 57.0989 14.5363 60.8637 10.8187L89.648 39.9685ZM95.9027 24.9503C95.8881 19.2521 93.5666 13.8693 89.5714 9.96426L60.9364 39.2607C57.1526 35.5623 54.9502 30.4601 54.9364 25.0549L95.9027 24.9503Z" fill="#9E9E9E" mask="url(#path-2-inside-1_407_106)"/>
</g>
<g opacity="0.5">
<circle cx="17.6777" cy="17.6777" r="17.1976" transform="matrix(-0.707107 0.707107 0.707107 0.707107 25.0001 0)" stroke="#9E9E9E" stroke-width="0.96015"/>
<mask id="path-5-inside-2_407_106" fill="white">
<path d="M19.4985 25.9078L23.79 29.3776C23.9053 29.4675 24.052 29.5093 24.1987 29.4938C24.3454 29.4783 24.4802 29.4069 24.5742 29.2949C24.6681 29.1829 24.7136 29.0393 24.701 28.895C24.6883 28.7507 24.6184 28.6173 24.5064 28.5235L21.2614 25.8998L31.1071 24.947C31.2556 24.9327 31.3924 24.8609 31.4874 24.7477C31.5824 24.6344 31.6279 24.4888 31.6138 24.343C31.5997 24.1972 31.5271 24.063 31.4122 23.97C31.2972 23.8771 31.1492 23.8329 31.0007 23.8473L21.155 24.8001L23.8367 21.6029C23.8852 21.547 23.922 21.4822 23.9448 21.4123C23.9677 21.3424 23.9762 21.2687 23.9697 21.1957C23.9633 21.1226 23.9421 21.0516 23.9075 20.9867C23.8728 20.9219 23.8253 20.8645 23.7677 20.8179C23.7101 20.7714 23.6437 20.7366 23.5722 20.7156C23.5007 20.6946 23.4256 20.6879 23.3514 20.6957C23.2771 20.7035 23.2051 20.7258 23.1396 20.7612C23.0741 20.7967 23.0163 20.8445 22.9698 20.902L19.4232 25.1303C19.3282 25.2436 19.2828 25.3891 19.2969 25.5349C19.311 25.6807 19.3835 25.8149 19.4985 25.9078Z"/>
</mask>
<path d="M19.4985 25.9078L23.79 29.3776C23.9053 29.4675 24.052 29.5093 24.1987 29.4938C24.3454 29.4783 24.4802 29.4069 24.5742 29.2949C24.6681 29.1829 24.7136 29.0393 24.701 28.895C24.6883 28.7507 24.6184 28.6173 24.5064 28.5235L21.2614 25.8998L31.1071 24.947C31.2556 24.9327 31.3924 24.8609 31.4874 24.7477C31.5824 24.6344 31.6279 24.4888 31.6138 24.343C31.5997 24.1972 31.5271 24.063 31.4122 23.97C31.2972 23.8771 31.1492 23.8329 31.0007 23.8473L21.155 24.8001L23.8367 21.6029C23.8852 21.547 23.922 21.4822 23.9448 21.4123C23.9677 21.3424 23.9762 21.2687 23.9697 21.1957C23.9633 21.1226 23.9421 21.0516 23.9075 20.9867C23.8728 20.9219 23.8253 20.8645 23.7677 20.8179C23.7101 20.7714 23.6437 20.7366 23.5722 20.7156C23.5007 20.6946 23.4256 20.6879 23.3514 20.6957C23.2771 20.7035 23.2051 20.7258 23.1396 20.7612C23.0741 20.7967 23.0163 20.8445 22.9698 20.902L19.4232 25.1303C19.3282 25.2436 19.2828 25.3891 19.2969 25.5349C19.311 25.6807 19.3835 25.8149 19.4985 25.9078Z" fill="#9E9E9E"/>
<path d="M19.4985 25.9078L6.61778 41.8342L6.62018 41.8362L19.4985 25.9078ZM23.79 29.3776L10.9117 45.3059L11.0501 45.4178L11.1903 45.5272L23.79 29.3776ZM24.5064 28.5235L37.6596 12.8214L37.5231 12.7071L37.3847 12.5951L24.5064 28.5235ZM21.2614 25.8998L19.2883 5.51189L-30.5669 10.3366L8.3831 41.8282L21.2614 25.8998ZM31.6138 24.343L52.0017 22.37L31.6138 24.343ZM21.155 24.8001L5.46136 11.6368L-26.7272 50.0128L23.128 45.1881L21.155 24.8001ZM23.8367 21.6029L8.37407 8.16902L8.25739 8.30332L8.14306 8.43962L23.8367 21.6029ZM22.9698 20.902L38.6634 34.0654L38.7778 33.929L38.8898 33.7906L22.9698 20.902ZM19.4232 25.1303L3.72962 11.967L3.72763 11.9694L19.4232 25.1303ZM6.62018 41.8362L10.9117 45.3059L36.6682 13.4493L32.3767 9.9795L6.62018 41.8362ZM11.1903 45.5272C15.5292 48.9124 20.9734 50.4304 26.3457 49.8642L22.0518 9.12343C27.1307 8.58813 32.2813 10.0227 36.3896 13.228L11.1903 45.5272ZM26.3457 49.8642C31.7182 49.2979 36.7286 46.6777 40.2677 42.4582L8.88056 16.1316C12.2318 12.1362 16.9726 9.65875 22.0518 9.12343L26.3457 49.8642ZM40.2677 42.4582C43.8177 38.2259 45.5986 32.7149 45.1056 27.1025L4.29634 30.6876C3.82863 25.3637 5.51848 20.14 8.88056 16.1316L40.2677 42.4582ZM45.1056 27.1025C44.6125 21.4897 41.8973 16.3712 37.6596 12.8214L11.3532 44.2256C7.3395 40.8634 4.76408 36.0118 4.29634 30.6876L45.1056 27.1025ZM37.3847 12.5951L34.1396 9.97151L8.3831 41.8282L11.6281 44.4518L37.3847 12.5951ZM23.2344 46.2878L33.0802 45.335L29.1341 4.55907L19.2883 5.51189L23.2344 46.2878ZM33.0802 45.335C38.5185 44.8087 43.6014 42.1786 47.181 37.911L15.7938 11.5844C19.1834 7.54324 23.9928 5.05662 29.1341 4.55907L33.0802 45.335ZM47.181 37.911C50.7719 33.6298 52.5507 28.0428 52.0017 22.37L11.2258 26.316C10.7051 20.9348 12.393 15.6389 15.7938 11.5844L47.181 37.911ZM52.0017 22.37C51.4527 16.6971 48.6356 11.5548 44.2904 8.04172L18.5339 39.8984C14.4187 36.5712 11.7466 31.6972 11.2258 26.316L52.0017 22.37ZM44.2904 8.04172C39.9589 4.53963 34.466 2.93306 29.0277 3.45935L32.9737 44.2353C27.8324 44.7328 22.6355 43.2145 18.5339 39.8984L44.2904 8.04172ZM29.0277 3.45935L19.1819 4.41217L23.128 45.1881L32.9737 44.2353L29.0277 3.45935ZM36.8485 37.9634L39.5302 34.7662L8.14306 8.43962L5.46136 11.6368L36.8485 37.9634ZM39.2992 35.0369C41.1304 32.9291 42.5363 30.4634 43.4149 27.7747L4.47482 15.05C5.30772 12.5011 6.64 10.165 8.37407 8.16902L39.2992 35.0369ZM43.4149 27.7747C44.2938 25.0851 44.6234 22.2378 44.3744 19.4031L3.56513 22.9882C3.32893 20.2997 3.64162 17.5997 4.47482 15.05L43.4149 27.7747ZM44.3744 19.4031C44.1253 16.5683 43.3042 13.8214 41.969 11.3253L5.84591 30.6481C4.5801 28.2817 3.80133 25.6769 3.56513 22.9882L44.3744 19.4031ZM41.969 11.3253C40.6342 8.83001 38.8186 6.64623 36.646 4.88962L10.8894 36.7463C8.83191 35.0827 7.11132 33.0137 5.84591 30.6481L41.969 11.3253ZM36.646 4.88962C34.4743 3.13382 31.9891 1.83914 29.343 1.06217L17.8013 40.3691C15.2982 39.6341 12.9459 38.409 10.8894 36.7463L36.646 4.88962ZM29.343 1.06217C26.6977 0.285421 23.9325 0.0377988 21.2044 0.325324L25.4983 41.0661C22.9188 41.3379 20.3037 41.1039 17.8013 40.3691L29.343 1.06217ZM21.2044 0.325324C18.4762 0.612863 15.8227 1.43165 13.3966 2.74357L32.8825 38.7789C30.5874 40.02 28.0779 40.7942 25.4983 41.0661L21.2044 0.325324ZM13.3966 2.74357C10.9699 4.05582 8.80821 5.84144 7.04976 8.01349L38.8898 33.7906C37.2244 35.8476 35.1782 37.5375 32.8825 38.7789L13.3966 2.74357ZM7.27617 7.73873L3.72962 11.967L35.1168 38.2936L38.6634 34.0654L7.27617 7.73873ZM3.72763 11.9694C0.138059 16.2503 -1.63992 21.8363 -1.09104 27.508L39.6849 23.5619C40.2055 28.942 38.5184 34.2369 35.1188 38.2913L3.72763 11.9694ZM-1.09104 27.508C-0.542166 33.1797 2.27394 38.3211 6.61778 41.8342L32.3791 9.98144C36.4931 13.3087 39.1642 18.1818 39.6849 23.5619L-1.09104 27.508Z" fill="#9E9E9E" mask="url(#path-5-inside-2_407_106)"/>
</g>
</svg>
