<svg width="86" height="86" viewBox="0 0 86 86" fill="none" xmlns="http://www.w3.org/2000/svg">
<rect width="86" height="86" rx="43" fill="#FFFAF5"/>
<path d="M64.2241 22.9906C62.4044 20.1329 59.2384 18.8763 56.1672 18.2278C53.38 17.64 50.5861 18.2143 48.117 19.6668C46.4257 20.6598 44.5384 21.1665 42.651 21.18C42.4886 21.18 41.8392 21.18 41.6768 21.18C39.7894 21.1598 37.902 20.6598 36.2108 19.6668C33.7416 18.2143 30.9477 17.64 28.1606 18.2278C25.0894 18.8696 21.9234 20.1329 20.1037 22.9906C16.8971 28.0236 17.5533 35.4684 20.7396 40.3055C21.4093 41.3256 21.4972 42.643 21.416 43.886C21.301 45.6763 21.2672 47.3517 21.3349 49.142C21.416 51.3511 21.619 53.5603 22.0316 55.7356C22.742 59.458 24.1423 63.1804 26.8618 65.7679C27.5382 66.4097 28.2891 66.9771 29.0874 67.4433C31.3198 68.7606 33.7755 67.5311 34.8037 65.1734C35.4531 63.6803 35.5614 62.0049 35.7034 60.37C36.0079 56.7625 37.1917 53.3981 41.0477 52.9658C41.2642 52.9387 41.4739 52.932 41.6903 52.9387C41.8527 52.9387 42.0151 52.9455 42.1774 52.959C42.3398 52.9455 42.5021 52.932 42.6645 52.9387C42.881 52.9387 43.0907 52.9387 43.3071 52.9658C47.1564 53.3981 48.347 56.7625 48.6514 60.37C48.7867 62.0049 48.9017 63.6871 49.5511 65.1734C50.5794 67.5311 53.035 68.7606 55.2674 67.4433C56.0657 66.9704 56.8098 66.4097 57.4931 65.7679C60.2193 63.1804 61.6129 59.458 62.3232 55.7356C62.7358 53.567 62.9388 51.3511 63.02 49.142C63.0876 47.3517 63.0538 45.6763 62.9388 43.886C62.8576 42.6498 62.9388 41.3256 63.6153 40.3055C66.8015 35.4684 67.4577 28.0236 64.2512 22.9906H64.2241Z" fill="#FBE5D0"/>
<path d="M60.0974 60.485C57.0396 61.7145 53.6707 60.5661 52.2636 58.3637C51.3707 56.972 51.2218 55.4047 51.0324 53.8779C50.613 50.5068 48.9894 47.3654 43.7129 46.9668C43.422 46.9465 43.1243 46.933 42.8334 46.9397C42.6102 46.9397 42.3869 46.9465 42.1637 46.96C41.9405 46.9465 41.7172 46.9397 41.494 46.9397C41.2031 46.9397 40.9054 46.9397 40.6145 46.9668C35.3379 47.3654 33.7076 50.5135 33.295 53.8779C33.1055 55.4047 32.9567 56.972 32.0638 58.3637C30.6567 60.5661 27.2878 61.7145 24.23 60.485C23.8783 60.3431 23.54 60.1877 23.2018 60.0323C24.0203 62.255 25.2245 64.329 27.0104 65.9301C27.6801 66.5314 28.4243 67.0583 29.209 67.4974C31.4211 68.727 33.8497 67.5785 34.8644 65.3761C35.5071 63.9845 35.6153 62.4171 35.7506 60.8903C36.0483 57.5192 37.2253 54.3778 41.0407 53.9792C41.2504 53.9589 41.4669 53.9454 41.6766 53.9522C41.839 53.9522 42.0013 53.9589 42.1637 53.9725C42.3261 53.9589 42.4884 53.9522 42.6508 53.9522C42.8605 53.9522 43.077 53.9522 43.2867 53.9792C47.102 54.3778 48.2724 57.526 48.5768 60.8903C48.7121 62.4171 48.8203 63.9845 49.463 65.3761C50.4777 67.5785 52.9131 68.727 55.1184 67.4974C55.9099 67.0583 56.6473 66.5314 57.317 65.9301C59.1029 64.329 60.3071 62.2617 61.1256 60.0323C60.7874 60.1877 60.4491 60.3431 60.0974 60.485Z" fill="#FBE5D0"/>
<path d="M42.1974 25.1254C47.5214 25.1254 52.0471 22.1461 53.6774 18.0049C51.7291 18.0387 49.8214 18.5791 48.0829 19.5452C46.4119 20.4707 44.5448 20.9436 42.6777 20.9571C42.5154 20.9571 41.8727 20.9571 41.7104 20.9571C39.8433 20.9436 37.9829 20.4707 36.3052 19.5452C34.5599 18.5791 32.659 18.0387 30.7107 18.0049C32.341 22.1461 36.8667 25.1254 42.1907 25.1254H42.1974Z" fill="#FBE5D0"/>
<path d="M40.9594 23.2878C42.7656 24.4363 46.4728 26.1658 51.5397 25.3619" stroke="#F58220" stroke-width="1.74455" stroke-miterlimit="10" stroke-linecap="round"/>
<path d="M50.4914 23.1731C48.7596 24.3148 44.9712 26.1929 39.7285 25.362" stroke="#F58220" stroke-width="1.74455" stroke-miterlimit="10" stroke-linecap="round"/>
<path d="M66.8696 22.9906C65.0499 20.1329 61.8839 18.8763 58.8127 18.2278C56.0255 17.64 53.2316 18.2143 50.7625 19.6668C49.0713 20.6598 47.1839 21.1665 45.2965 21.18C45.1341 21.18 44.4847 21.18 44.3223 21.18C42.4349 21.1598 40.5475 20.6598 38.8563 19.6668C36.3871 18.2143 33.5932 17.64 30.8061 18.2278C27.7349 18.8696 24.5689 20.1329 22.7492 22.9906C19.5426 28.0236 20.1988 35.4684 23.3851 40.3055C24.0548 41.3256 24.1427 42.643 24.0616 43.886C23.9466 45.6763 23.9127 47.3517 23.9804 49.142C24.0616 51.3511 24.2645 53.5603 24.6772 55.7356C25.3875 59.458 26.7878 63.1804 29.5073 65.7679C30.1838 66.4097 30.9347 66.9771 31.7329 67.4433C33.9653 68.7606 36.421 67.5311 37.4492 65.1734C38.0986 63.6803 38.2069 62.0049 38.3489 60.37C38.6534 56.7625 39.8372 53.3981 43.6932 52.9658C43.9097 52.9387 44.1194 52.932 44.3358 52.9387C44.4982 52.9387 44.6606 52.9455 44.8229 52.959C44.9853 52.9455 45.1476 52.932 45.31 52.9387C45.5265 52.9387 45.7362 52.9387 45.9527 52.9658C49.8019 53.3981 50.9925 56.7625 51.2969 60.37C51.4322 62.0049 51.5472 63.6871 52.1966 65.1734C53.2249 67.5311 55.6805 68.7606 57.9129 67.4433C58.7112 66.9704 59.4553 66.4097 60.1386 65.7679C62.8648 63.1804 64.2584 59.458 64.9687 55.7356C65.3813 53.567 65.5843 51.3511 65.6655 49.142C65.7331 47.3517 65.6993 45.6763 65.5843 43.886C65.5031 42.6498 65.5843 41.3256 66.2608 40.3055C69.447 35.4684 70.1032 28.0236 66.8967 22.9906H66.8696Z" stroke="#F58220" stroke-width="1.74455" stroke-miterlimit="10"/>
</svg>
