<svg width="123" height="123" viewBox="0 0 123 123" fill="none" xmlns="http://www.w3.org/2000/svg">
<g filter="url(#filter0_d_407_748)">
<rect x="36" y="36" width="51" height="51" rx="25.5" fill="white"/>
<rect x="36.5" y="36.5" width="50" height="50" rx="25" stroke="#38D01F"/>
<path d="M46 77L48.2617 68.7871C46.8634 66.3764 46.1299 63.6464 46.1375 60.8555C46.1375 52.1103 53.2894 45 62.0688 45C66.3324 45 70.3362 46.6502 73.339 49.6464C76.3495 52.6426 78.0076 56.6274 78 60.8631C78 69.6084 70.8481 76.7186 62.0611 76.7186H62.0535C59.3868 76.7186 56.766 76.0494 54.4355 74.7871L46 77ZM54.8405 71.9202L55.3219 72.2091C57.3543 73.4107 59.6848 74.0418 62.0611 74.0494H62.0688C69.3658 74.0494 75.3104 68.1407 75.3104 60.8707C75.3104 57.3498 73.935 54.0418 71.4365 51.5475C68.9379 49.0532 65.6065 47.6844 62.0688 47.6844C54.7717 47.6768 48.8271 53.5856 48.8271 60.8555C48.8271 63.3422 49.5224 65.7681 50.852 67.8669L51.1652 68.3688L49.8281 73.2281L54.8405 71.9202Z" fill="white"/>
<path d="M46.5577 76.4449L48.743 68.5134C47.3906 66.194 46.68 63.5552 46.68 60.8632C46.6876 52.4221 53.5873 45.5552 62.0687 45.5552C66.1871 45.5552 70.0458 47.1521 72.9493 50.0419C75.8528 52.9316 77.4498 56.7795 77.4498 60.8708C77.4498 69.3118 70.5424 76.1788 62.0687 76.1788H62.0611C59.4861 76.1788 56.957 75.5324 54.7105 74.3156L46.5577 76.4449Z" fill="#25BF0C"/>
<path d="M46 77L48.2617 68.7871C46.8634 66.3764 46.1299 63.6464 46.1375 60.8555C46.1375 52.1103 53.2894 45 62.0688 45C66.3324 45 70.3362 46.6502 73.339 49.6464C76.3495 52.6426 78.0076 56.6274 78 60.8631C78 69.6084 70.8481 76.7186 62.0611 76.7186H62.0535C59.3868 76.7186 56.766 76.0494 54.4355 74.7871L46 77ZM54.8405 71.9202L55.3219 72.2091C57.3543 73.4107 59.6848 74.0418 62.0611 74.0494H62.0688C69.3658 74.0494 75.3104 68.1407 75.3104 60.8707C75.3104 57.3498 73.935 54.0418 71.4365 51.5475C68.9379 49.0532 65.6065 47.6844 62.0688 47.6844C54.7717 47.6768 48.8271 53.5856 48.8271 60.8555C48.8271 63.3422 49.5224 65.7681 50.852 67.8669L51.1652 68.3688L49.8281 73.2281L54.8405 71.9202Z" fill="white"/>
<path fill-rule="evenodd" clip-rule="evenodd" d="M58.0877 54.2242C57.7897 53.5626 57.4764 53.5474 57.1937 53.5398C56.9645 53.5322 56.6971 53.5322 56.4296 53.5322C56.1622 53.5322 55.7343 53.6311 55.3676 54.0265C55.0008 54.422 53.9769 55.3801 53.9769 57.3345C53.9769 59.2813 55.4058 61.1672 55.6044 61.4334C55.8031 61.6995 58.3628 65.8288 62.4048 67.4182C65.7668 68.7414 66.4545 68.4752 67.1804 68.4068C67.9062 68.3383 69.5337 67.4486 69.8699 66.5208C70.1985 65.5931 70.1985 64.8022 70.0992 64.6349C69.9998 64.4676 69.7324 64.3687 69.3351 64.171C68.9378 63.9733 66.9817 63.0151 66.6149 62.8782C66.2482 62.749 65.9807 62.6805 65.721 63.076C65.4535 63.4714 64.6894 64.3611 64.4602 64.6273C64.231 64.8934 63.9941 64.9239 63.5968 64.7261C63.1995 64.5284 61.9158 64.1102 60.3953 62.7566C59.2109 61.7071 58.4086 60.4068 58.1794 60.0113C57.9502 59.6159 58.1565 59.403 58.3551 59.2052C58.5309 59.0303 58.7525 58.7414 58.9511 58.5132C59.1498 58.2851 59.2186 58.1178 59.3485 57.8516C59.4784 57.5855 59.4172 57.3573 59.3179 57.1596C59.2186 56.9695 58.4392 55.0075 58.0877 54.2242Z" fill="white"/>
</g>
<defs>
<filter id="filter0_d_407_748" x="0" y="0" width="123" height="123" filterUnits="userSpaceOnUse" color-interpolation-filters="sRGB">
<feFlood flood-opacity="0" result="BackgroundImageFix"/>
<feColorMatrix in="SourceAlpha" type="matrix" values="0 0 0 0 0 0 0 0 0 0 0 0 0 0 0 0 0 0 127 0" result="hardAlpha"/>
<feOffset/>
<feGaussianBlur stdDeviation="18"/>
<feComposite in2="hardAlpha" operator="out"/>
<feColorMatrix type="matrix" values="0 0 0 0 0 0 0 0 0 0 0 0 0 0 0 0 0 0 0.06 0"/>
<feBlend mode="normal" in2="BackgroundImageFix" result="effect1_dropShadow_407_748"/>
<feBlend mode="normal" in="SourceGraphic" in2="effect1_dropShadow_407_748" result="shape"/>
</filter>
</defs>
</svg>
