<svg width="47" height="47" viewBox="0 0 47 47" fill="none" xmlns="http://www.w3.org/2000/svg">
<path d="M32.334 19.0834L37.0806 20.5073C40.113 21.4171 41.6292 21.872 42.5024 23.0456C43.3757 24.2192 43.3757 25.8022 43.3757 28.9681V45.5834" stroke="#F58220" stroke-width="2.8" stroke-linejoin="round"/>
<path d="M14.667 16.875L21.292 16.875M14.667 25.7083L21.292 25.7083" stroke="#F58220" stroke-width="2.8" stroke-linecap="round" stroke-linejoin="round"/>
<path d="M23.5007 45.5834V38.9584C23.5007 36.8764 23.5007 35.8354 22.8538 35.1886C22.207 34.5417 21.166 34.5417 19.084 34.5417H16.8757C14.7936 34.5417 13.7526 34.5417 13.1058 35.1886C12.459 35.8354 12.459 36.8764 12.459 38.9584V45.5834" stroke="#F58220" stroke-width="2.8" stroke-linejoin="round"/>
<path d="M1.41699 45.5834L45.5837 45.5834" stroke="#F58220" stroke-width="2.8" stroke-linecap="round"/>
<path d="M3.625 45.5834V11.834C3.625 6.28941 3.625 3.51712 5.37219 2.14162C7.11939 0.766118 9.69221 1.51292 14.8379 3.00652L25.8795 6.21152C28.9847 7.11285 30.5373 7.56351 31.4353 8.79182C32.3333 10.0201 32.3333 11.6931 32.3333 15.039V45.5834" stroke="#F58220" stroke-width="2.8" stroke-linecap="round" stroke-linejoin="round"/>
</svg>
