<svg width="135" height="135" viewBox="0 0 135 135" fill="none" xmlns="http://www.w3.org/2000/svg">
<rect width="135" height="135" fill="#9B9B9B"/>
<g clip-path="url(#clip0_0_1)">
<rect width="1440" height="5178" transform="translate(-348 -1822)" fill="white"/>
<rect width="135" height="135" rx="67.5" fill="#FFFAF5"/>
<path d="M73.9247 83.3626C71.3162 83.3626 68.1005 82.6557 65.2929 81.8592C65.0938 81.8592 64.9942 81.7597 64.7951 81.7597C64.0882 81.5605 63.69 80.8537 63.8891 80.2563C64.0882 79.5494 64.7951 79.1512 65.3924 79.3503C65.492 79.3503 65.6911 79.4499 65.8902 79.4499C67.0949 79.7486 69.4047 80.3559 71.7145 80.6546C75.1294 81.0528 76.2345 80.555 76.5332 80.2563C76.6327 80.1568 76.8318 79.9576 76.7323 79.2508C76.6327 78.5439 77.1305 77.9465 77.7378 77.847C78.4447 77.7474 79.0421 78.2452 79.1416 78.8525C79.4403 80.555 78.7434 81.5605 78.1361 82.1679C77.2301 83.0738 75.7267 83.3725 73.9247 83.3725V83.3626Z" fill="#F58220"/>
<path d="M54.153 91.2876H40.3042C39.5974 91.2876 39 90.6903 39 89.9834V74.93C39 74.2231 39.5974 73.6257 40.3042 73.6257H54.153C54.8598 73.6257 55.4572 74.233 55.4572 74.93V89.9834C55.3576 90.6903 54.7503 91.2876 54.153 91.2876ZM41.6085 88.7787H52.8487V76.2342H41.6085V88.7787Z" fill="#F58220"/>
<path d="M72.8202 92.9005C69.8135 92.9005 67.6033 92.094 65.5922 91.2976C62.476 90.0929 59.8675 89.0873 54.4515 91.198C54.0533 91.2976 53.6451 91.2976 53.2468 91.0984C52.9481 90.8993 52.749 90.4911 52.749 90.0929V74.6313C52.749 74.1335 53.0477 73.7253 53.4459 73.5262C54.8497 72.8193 56.0544 72.421 57.06 72.2219C58.9715 71.8237 62.6851 71.9232 66.2991 72.421C68.9076 72.8193 73.6267 73.7253 76.4343 75.7364C77.6389 76.5428 78.4454 77.5384 78.744 78.544C81.8603 76.3337 86.1712 74.2231 89.2874 73.7253C90.7908 73.5262 93.1005 73.8248 94.6039 75.0295C95.5099 75.7364 96.0077 76.6324 96.0077 77.7375C96.1072 79.0418 95.2013 80.6447 93.1005 82.5562C91.5972 83.96 89.387 85.5629 86.8781 87.1758C82.5572 89.8838 76.8425 92.8009 73.8258 93C73.7262 92.9005 73.328 92.9005 72.8202 92.9005ZM60.1762 87.4745C62.6851 87.4745 64.6962 88.1813 66.5978 88.9778C68.808 89.7843 70.9087 90.5807 74.0249 90.3816C76.1356 90.1825 81.2529 87.8727 85.8725 84.9656C91.9954 81.1524 93.907 78.544 93.8074 77.8371C93.8074 77.638 93.7079 77.2298 93.3096 76.9311C92.5032 76.2242 90.9003 76.0251 89.8947 76.1247C86.5794 76.6225 81.462 79.5396 78.6544 81.8493C78.2562 82.2476 77.5493 82.2476 77.1511 81.9489C76.6533 81.6502 76.5537 80.9434 76.7529 80.4456C76.8524 80.346 76.8524 80.0473 76.7529 79.6391C76.6533 78.9322 76.1555 78.3349 75.2495 77.7276C71.2372 74.92 61.0921 74.014 57.7867 74.7209C57.0799 74.8204 56.2834 75.1191 55.477 75.5273V88.3805C57.1794 87.6736 58.7923 87.4745 60.1961 87.4745H60.1762Z" fill="#F58220"/>
<path d="M76.5342 71.6146C75.1304 71.6146 73.7266 71.3159 72.5219 70.609C69.7143 69.1057 67.9023 66.1886 67.9023 62.9827C67.9023 60.0756 70.3117 57.1585 72.5219 54.4505C73.627 53.1462 74.7321 51.842 75.4291 50.5378C75.6282 50.1395 76.0364 49.9404 76.5342 49.9404C76.9324 49.9404 77.3406 50.1395 77.6393 50.5378C78.4457 51.7425 79.4413 53.0467 80.5464 54.3509C82.8562 57.1585 85.166 60.0756 85.166 62.9827C85.166 64.6852 84.6682 66.2981 83.7622 67.7019C82.2588 70.1112 79.4513 71.6146 76.5342 71.6146ZM76.5342 53.3454C75.8273 54.2514 75.1304 55.1474 74.4235 55.9538C72.4124 58.3632 70.3117 60.8721 70.3117 62.9827C70.3117 65.2925 71.6159 67.3036 73.627 68.3988C74.533 68.8966 75.4291 69.1057 76.4346 69.1057C78.5453 69.1057 80.4469 68.0005 81.552 66.2981C82.1593 65.2925 82.5575 64.1874 82.5575 62.9827C82.5575 60.9716 80.4469 58.3632 78.4457 55.9538C77.9479 55.0478 77.241 54.1518 76.5342 53.3454Z" fill="#F58220"/>
<path d="M86.8778 55.2569C85.9718 55.2569 85.0757 55.0578 84.1697 54.5501C82.2681 53.5445 81.0635 51.6429 81.0635 49.4327C81.0635 47.4216 82.5668 45.6196 83.9706 43.9171C84.568 43.1107 85.2748 42.3142 85.7726 41.6073C85.9718 41.2091 86.38 41 86.8778 41C87.276 41 87.6842 41.1991 87.9829 41.6073C88.3811 42.3142 89.088 43.1107 89.6853 43.9171C91.0891 45.7191 92.5925 47.5311 92.5925 49.4327C92.5925 50.5378 92.2938 51.6429 91.6865 52.5489C90.6809 54.2514 88.8789 55.2569 86.8678 55.2569H86.8778ZM86.8778 44.5145C86.5791 44.9127 86.2704 45.2213 85.9718 45.6196C84.7671 47.0234 83.5624 48.5267 83.5624 49.5323C83.5624 50.7369 84.2693 51.842 85.2649 52.4394C85.7627 52.6385 86.2704 52.8376 86.7682 52.8376C87.8734 52.8376 88.8789 52.2403 89.4763 51.3343C89.7749 50.8365 89.9741 50.2292 89.9741 49.6318C89.9741 48.5267 88.6698 47.0234 87.5647 45.6196C87.4652 45.2213 87.1665 44.8131 86.8578 44.5145H86.8778Z" fill="#F58220"/>
<path d="M45.3219 67.8014C43.2113 67.8014 41.5088 66.099 41.5088 63.9883C41.5088 61.8776 43.2113 60.1752 45.3219 60.1752C47.4326 60.1752 49.1351 61.8776 49.1351 63.9883C49.1351 66.099 47.4326 67.8014 45.3219 67.8014ZM45.3219 62.7836C44.615 62.7836 44.0177 63.381 44.0177 64.0879C44.0177 64.7947 44.615 65.3921 45.3219 65.3921C46.0288 65.3921 46.6262 64.7947 46.6262 64.0879C46.6262 63.381 46.0188 62.7836 45.3219 62.7836Z" fill="#F58220"/>
<path d="M56.6619 60.2748C53.247 60.2748 50.3398 57.4672 50.3398 53.9528C50.3398 50.4383 53.1474 47.6307 56.6619 47.6307C60.1763 47.6307 62.9839 50.4383 62.9839 53.9528C62.9839 57.4672 60.0768 60.2748 56.6619 60.2748ZM56.6619 50.2392C54.5512 50.2392 52.8487 51.9417 52.8487 54.0523C52.8487 56.163 54.5512 57.8655 56.6619 57.8655C58.7725 57.8655 60.475 56.163 60.475 54.0523C60.475 51.9417 58.673 50.2392 56.6619 50.2392Z" fill="#F58220"/>
</g>
<defs>
<clipPath id="clip0_0_1">
<rect width="1440" height="5178" fill="white" transform="translate(-348 -1822)"/>
</clipPath>
</defs>
</svg>
