<svg width="53" height="53" viewBox="0 0 53 53" fill="none" xmlns="http://www.w3.org/2000/svg">
<path d="M8.34258 26.3727C6.24902 22.7222 5.23816 19.7413 4.62863 16.7197C3.72716 12.2509 5.79016 7.88549 9.20771 5.10005C10.6521 3.92281 12.3079 4.32502 13.162 5.85734L15.0903 9.31671C16.6187 12.0587 17.3829 13.4297 17.2313 14.8832C17.0797 16.3367 16.0491 17.5206 13.9879 19.8882L8.34258 26.3727ZM8.34258 26.3727C12.5801 33.7616 19.2301 40.4152 26.6276 44.6577M26.6276 44.6577C30.2781 46.7513 33.259 47.7621 36.2806 48.3716C40.7494 49.2731 45.1148 47.2101 47.9002 43.7926C49.0775 42.3482 48.6753 40.6924 47.1429 39.8383L43.6836 37.91C40.9416 36.3816 39.5706 35.6174 38.1171 35.769C36.6635 35.9206 35.4797 36.9512 33.1121 39.0124L26.6276 44.6577Z" stroke="#F58220" stroke-width="2.8" stroke-linejoin="round"/>
<path d="M30.917 6.625V12.8083M41.8487 11.1538L37.4764 15.5261M46.3753 22.0833H40.192" stroke="#F58220" stroke-width="2.8" stroke-linecap="round"/>
</svg>
