<svg width="58" height="56" viewBox="0 0 58 56" fill="none" xmlns="http://www.w3.org/2000/svg">
<g clip-path="url(#clip0_126_152)">
<path d="M51.4586 56C51.3617 54.6155 50.9741 53.8039 50.3926 53.231C49.8112 52.6581 48.939 52.2762 47.8246 52.0375L47.9699 49.6027C49.3266 49.4595 50.1019 48.9821 50.5865 48.4569C51.1195 47.884 51.4586 47.0247 51.6525 45.9267L52.9123 46.1654L54.1721 45.9267C54.4144 47.0247 54.7051 47.884 55.2381 48.4569C55.7226 49.0298 56.4979 49.4595 57.8546 49.6027L58 52.0375C56.8371 52.2762 56.0134 52.7059 55.4319 53.231C54.8989 53.7562 54.4628 54.6155 54.3659 56L52.9123 55.9045L51.4586 56ZM30.2356 54.6632C13.7611 50.1756 7.99499 35.9011 5.76608 19.1918C5.71763 18.8099 5.86299 18.428 6.20217 18.237C12.3074 13.9881 15.8446 8.92752 18.1704 3.38959C18.3642 2.95992 18.8488 2.67348 19.3333 2.76896C23.5004 3.53281 26.117 3.96248 30.1871 3.91474C34.3058 3.91474 36.5831 3.53281 40.7987 2.76896C41.2832 2.67348 41.7678 2.91218 41.9616 3.38959C44.2874 8.87978 47.8246 13.9881 53.9298 18.237C54.269 18.4757 54.4144 18.8576 54.3659 19.1918C52.137 35.8534 47.2431 50.1756 30.7686 54.6632H30.1871H30.2356ZM30.4779 52.6104L32.9006 51.7988C44.1905 47.5499 48.939 37.6675 51.3133 24.9684L52.1855 19.526L50.3926 18.1892C46.0317 14.6564 43.076 10.6462 40.9925 6.34952L40.3626 4.96504L39.6842 5.10826C36.3409 5.72889 33.9666 6.06308 30.1871 6.01533C26.9891 6.01533 24.6149 5.82437 21.853 5.34696L19.721 4.96504L19.0911 6.34952C16.9591 10.5985 14.0518 14.6564 9.69089 18.1892L7.89808 19.526L8.77026 24.9684C11.3383 37.6198 16.6199 47.5499 28.0067 51.7988L30.4779 52.6104ZM52.9123 52.3717L53.2515 51.942C53.2515 51.942 53.4937 51.6556 53.6391 51.5123C53.7845 51.3691 53.8814 51.2736 54.0752 51.1304L54.3659 50.9395L54.2206 50.844C53.9298 50.6053 53.6391 50.3666 53.3968 50.0801C53.2515 49.9369 53.1546 49.7937 53.0576 49.6505L52.9607 49.5072L52.8638 49.6505C52.8638 49.6505 52.67 49.9369 52.5246 50.0801C52.2824 50.3666 52.0401 50.6053 51.7009 50.844L51.5556 50.9395L51.8463 51.1304C51.8463 51.1304 52.137 51.3691 52.2339 51.5123C52.3793 51.6556 52.4762 51.7988 52.6216 51.942L52.9607 52.3717H52.9123ZM30.1387 48.5047C17.589 45.0673 13.2281 34.1824 11.5322 21.5788C11.4837 21.1969 11.6291 20.815 11.9683 20.5763C16.523 17.4254 19.1395 13.6539 20.8839 9.54816C21.0777 9.11849 21.5622 8.83204 22.0468 8.92753C25.1963 9.50041 27.0861 9.8346 30.1871 9.78686C33.2398 9.78686 34.9841 9.50041 38.1337 8.92753C38.6182 8.83204 39.1028 9.07075 39.2966 9.54816C41.0409 13.6539 43.6575 17.4254 48.2122 20.5763C48.5514 20.815 48.6967 21.1969 48.6483 21.5788C47.0008 34.0869 43.2698 45.0673 30.6717 48.5047H30.1387ZM30.381 46.4041L32.1253 45.8312C40.5079 42.6803 43.9967 35.3282 45.8379 25.8278L46.4678 21.8653L45.2565 20.9582C41.9131 18.2847 39.6842 15.2293 38.0852 11.9829L37.6976 11.1236H37.3584C34.8388 11.6488 32.9975 11.8875 30.1871 11.8875C27.7644 11.8875 25.9716 11.7442 23.8881 11.41L22.4829 11.1713L22.0952 12.0307C20.4962 15.2771 18.2673 18.3325 14.924 21.006L13.7126 21.913L14.3425 25.8278C16.2322 35.3282 20.2055 42.6803 28.6366 45.8312L30.381 46.4041ZM29.0242 34.8508V29.4083H23.5004V26.9258H29.0242V21.4834H31.5439V26.9258H37.0677V29.4083H31.5439V34.8508H29.0242ZM3.63409 10.121C3.53718 8.73656 3.14954 7.92497 2.56809 7.39982C1.98663 6.82693 1.11445 6.445 0 6.15856L0.145363 3.72377C1.50209 3.58055 2.27736 3.10314 2.7619 2.57799C3.2949 2.0051 3.63409 1.14577 3.8279 0.0477295L5.08772 0.286434L6.34754 0.0477295C6.58981 1.14577 6.88053 2.0051 7.41353 2.57799C7.89808 3.15088 8.67335 3.58055 10.0301 3.72377L10.1754 6.15856C9.01253 6.39726 8.18881 6.82693 7.60735 7.39982C7.0259 7.97271 6.63826 8.7843 6.54135 10.121L5.08772 10.0256L3.63409 10.121ZM5.08772 6.445L5.4269 6.01533C5.4269 6.01533 5.66917 5.72889 5.81454 5.58567C5.9599 5.44244 6.10526 5.34696 6.25063 5.20374L6.54135 5.01278L6.39599 4.91729C6.10526 4.67859 5.81454 4.43989 5.57226 4.15344C5.47536 4.01022 5.32999 3.867 5.23308 3.72377L5.13617 3.58055L5.03926 3.72377C5.03926 3.72377 4.84545 4.01022 4.70008 4.15344C4.45781 4.43989 4.16708 4.67859 3.87636 4.91729L3.73099 5.01278L4.02172 5.20374C4.02172 5.20374 4.31245 5.44244 4.40936 5.58567C4.50627 5.72889 4.65163 5.87211 4.79699 6.01533L5.13617 6.445H5.08772Z" fill="#F58220"/>
</g>
<defs>
<clipPath id="clip0_126_152">
<rect width="58" height="56" fill="white"/>
</clipPath>
</defs>
</svg>
