<svg width="82" height="65" viewBox="0 0 82 65" fill="none" xmlns="http://www.w3.org/2000/svg">
<g clip-path="url(#clip0_126_330)">
<path d="M78.6135 54.5991L75.5405 57.6877L59.842 41.9043H29.7372L1.67578 13.6979L4.74352 10.6146C6.02524 9.32638 8.11067 9.32638 9.39503 10.6146L32.9152 34.2541C33.0334 34.2409 33.1516 34.2356 33.2672 34.2356H63.0016L70.6263 41.9016L78.6108 49.9293C79.8926 51.2201 79.8926 53.3135 78.6108 54.5991H78.6135Z" fill="white" stroke="#F58220" stroke-width="2.08929" stroke-linecap="round" stroke-linejoin="round"/>
<path d="M75.5403 54.3483L60.8135 39.5416H30.7087L4.99805 13.6979" stroke="#F58220" stroke-width="1.16071" stroke-linecap="round" stroke-linejoin="round"/>
<path d="M33.8528 56.2147H56.5535C58.3684 56.2147 59.8419 57.6957 59.8419 59.5198V64.48H30.5645V59.5198C30.5645 57.6957 32.0353 56.2147 33.8528 56.2147Z" fill="white" stroke="#F58220" stroke-width="2.08929" stroke-linecap="round" stroke-linejoin="round"/>
<path d="M55.8539 41.9016H34.5479V56.2147H55.8539V41.9016Z" fill="white" stroke="#F58220" stroke-width="2.08929" stroke-linecap="round" stroke-linejoin="round"/>
<path d="M41.0312 33.6681V25.0043" stroke="#F58220" stroke-width="2.32143" stroke-linecap="round" stroke-linejoin="round"/>
<path d="M50.6885 33.6681V14.6958" stroke="#F58220" stroke-width="2.08929" stroke-linecap="round" stroke-linejoin="round"/>
<path d="M45.748 34.0218V14.6958" stroke="#F58220" stroke-width="2.32143" stroke-linecap="round" stroke-linejoin="round"/>
<path d="M45.7488 14.6958L32.7871 1.66833" stroke="#F58220" stroke-width="2.08929" stroke-linecap="round" stroke-linejoin="round"/>
<path d="M32.7872 1.66833H27.2637" stroke="#F58220" stroke-width="2.32143" stroke-linecap="round" stroke-linejoin="round"/>
<path d="M25.844 10.018L19.0703 3.20996C20.465 1.80558 22.5084 1.45185 24.2314 2.14084C24.8197 2.37578 25.3713 2.73216 25.844 3.20996C26.3194 3.68513 26.674 4.23949 26.9077 4.8308C27.5959 6.56252 27.2413 8.61629 25.8466 10.018H25.844Z" fill="white" stroke="#F58220" stroke-width="1.16071" stroke-linecap="round" stroke-linejoin="round"/>
<path d="M25.8428 0.516863L24.2295 2.13953L26.9067 4.8284L28.52 3.20573L25.8428 0.516863Z" fill="white" stroke="#F58220" stroke-width="1.16071" stroke-linecap="round" stroke-linejoin="round"/>
<path d="M51.7106 20.4348H37.8401C36.0252 20.4348 34.5518 22.1507 34.5518 23.4099V25.0043H54.999V23.4099C54.999 22.1507 53.5281 20.4348 51.7106 20.4348Z" fill="white" stroke="#F58220" stroke-width="2.08929" stroke-linecap="round" stroke-linejoin="round"/>
<path d="M62.4919 8.8064H54.9276C52.5848 8.8064 50.6885 11.0159 50.6885 12.6447V14.6984H66.7311V12.6447C66.7311 11.0186 64.8321 8.8064 62.4919 8.8064Z" fill="white" stroke="#F58220" stroke-width="2.08929" stroke-linecap="round" stroke-linejoin="round"/>
<path d="M58.71 11.3594V3.48218" stroke="#F58220" stroke-width="2.08929" stroke-linecap="round" stroke-linejoin="round"/>
<path d="M55.5869 11.3594V3.48218" stroke="#F58220" stroke-width="2.08929" stroke-linecap="round" stroke-linejoin="round"/>
<path d="M61.8291 11.3594V3.48218" stroke="#F58220" stroke-width="2.08929" stroke-linecap="round" stroke-linejoin="round"/>
<path d="M50.6885 17.4108H66.7311" stroke="#F58220" stroke-width="1.16071" stroke-linecap="round" stroke-linejoin="round"/>
<path d="M21.2481 7.82703L19.8955 9.18653" stroke="#F58220" stroke-width="1.1375" stroke-linecap="round" stroke-linejoin="round"/>
<path d="M19.7615 6.00818L18.2539 6.86348" stroke="#F58220" stroke-width="1.1375" stroke-linecap="round" stroke-linejoin="round"/>
<path d="M23.058 9.32117L22.207 10.8364" stroke="#F58220" stroke-width="1.1375" stroke-linecap="round" stroke-linejoin="round"/>
</g>
<defs>
<clipPath id="clip0_126_330">
<rect width="81.25" height="65" fill="white"/>
</clipPath>
</defs>
</svg>
