<svg width="135" height="85" viewBox="0 0 135 85" fill="none" xmlns="http://www.w3.org/2000/svg">
<path d="M125.421 34.3192L18.1328 44.1399L21.7257 83.3918L129.014 73.5711L125.421 34.3192Z" fill="white"/>
<path d="M0 14.893L110.29 4.70386L113.582 40.3873L3.29271 50.5765L0 14.893Z" fill="#00203F"/>
<path d="M133.833 2.58281L23.5625 12.7734L23.7402 14.6958L134.01 4.50518L133.833 2.58281Z" fill="#00203F"/>
<path d="M121.656 4.72174e-05L49.5469 6.67676L49.7249 8.59913L121.834 1.92242L121.656 4.72174e-05Z" fill="white"/>
<path d="M88.3194 75.3432L10.4629 82.5383L10.6405 84.4607L88.4971 77.2656L88.3194 75.3432Z" fill="white"/>
<path d="M118.736 76.4135L46.625 83.0776L46.8027 85L118.913 78.3359L118.736 76.4135Z" fill="#00203F"/>
</svg>
