<svg width="20" height="20" viewBox="0 0 20 20" fill="none" xmlns="http://www.w3.org/2000/svg">
<rect width="20" height="20" rx="10" fill="#0E0E0E"/>
<g clip-path="url(#clip0_164_662)">
<path d="M6.61455 10.4737C6.18004 9.71601 5.97024 9.09734 5.84373 8.47022C5.65663 7.54272 6.0848 6.6367 6.7941 6.05859C7.09388 5.81426 7.43754 5.89774 7.61481 6.21576L8.01501 6.93375C8.33223 7.50284 8.49084 7.78739 8.45938 8.08906C8.42792 8.39073 8.21402 8.63643 7.78621 9.12783L6.61455 10.4737ZM6.61455 10.4737C7.49404 12.0072 8.87423 13.3882 10.4096 14.2687M10.4096 14.2687C11.1672 14.7032 11.7859 14.913 12.413 15.0395C13.3405 15.2266 14.2465 14.7984 14.8246 14.0891C15.069 13.7893 14.9855 13.4457 14.6675 13.2684L13.9495 12.8682C13.3804 12.551 13.0958 12.3924 12.7942 12.4238C12.4925 12.4553 12.2468 12.6692 11.7554 13.097L10.4096 14.2687Z" stroke="white" stroke-width="1.17442" stroke-linejoin="round"/>
<path d="M11.2998 8.13135C11.9521 8.40836 12.4749 8.9311 12.7519 9.58341M11.5996 5.91675C13.2208 6.3846 14.4986 7.66232 14.9665 9.28349" stroke="white" stroke-width="1.17442" stroke-linecap="round"/>
</g>
<defs>
<clipPath id="clip0_164_662">
<rect width="11" height="11" fill="white" transform="translate(4.88281 5)"/>
</clipPath>
</defs>
</svg>
