<svg width="1240" height="389" viewBox="0 0 1240 389" fill="none" xmlns="http://www.w3.org/2000/svg">
<g opacity="0.1">
<path d="M1093.81 262.121C1037.86 303.274 952.013 338.516 838.655 366.856C752.624 388.373 690.803 436.045 631.007 482.157C544.915 548.532 463.601 611.224 316.741 600.617C239.496 595.03 187.574 564.22 162.432 509.039C117.028 409.405 170.894 251.169 244.617 152.872C309.677 66.1323 297.896 -45.06 276.56 -123.034C265.487 -163.438 271.702 -206.98 293.564 -242.506C315.081 -277.505 348.927 -301.25 388.825 -309.367C399.027 -311.432 409.007 -312.403 418.784 -312.403C516.353 -312.403 592.283 -215.624 619.347 -147.933C623.294 -138.075 627.1 -127.569 630.784 -117.427C646.351 -74.5331 662.423 -30.1817 697.666 -4.08905C737.624 25.4853 796.834 26.2949 878.695 -1.61951C971.669 -33.2991 1059.83 -32.9347 1114.52 -0.627563C1147.58 18.9065 1167.9 48.9464 1174.92 88.6825C1186.75 155.463 1159.46 213.822 1093.81 262.121ZM1176.93 88.3384C1169.78 47.9951 1149.14 17.4692 1115.53 -2.36847C1060.35 -34.9792 971.568 -35.4044 878.047 -3.5426C796.854 24.1492 738.252 23.4205 698.88 -5.7085C664.124 -31.4368 648.152 -75.5048 632.687 -118.115C629.003 -128.277 625.197 -138.783 621.23 -148.682C608.497 -180.543 580.218 -227.506 539.106 -263.72C506.191 -292.727 453.318 -324.549 388.42 -311.351C347.976 -303.112 313.664 -279.044 291.823 -243.558C269.677 -207.567 263.402 -163.438 274.596 -122.508C295.831 -44.9587 307.571 65.5656 242.998 151.657C168.91 250.42 114.862 409.547 160.59 509.869C186.055 565.799 238.544 596.993 316.6 602.641C327.693 603.45 338.421 603.835 348.805 603.835C476.516 603.835 552.344 545.375 632.242 483.756C691.876 437.785 753.535 390.236 839.141 368.819C952.762 340.419 1038.83 305.075 1095.01 263.74C1161.32 214.956 1188.89 155.949 1176.93 88.3384Z" fill="#F58220"/>
<path d="M894.017 333.413C869.483 341.308 842.601 348.879 814.12 355.882C735.599 375.255 678.596 417.703 623.475 458.755C593.435 481.123 562.383 504.24 528.781 522.661C467.952 555.798 406.07 568.47 334.027 562.539C264.251 556.79 217.309 528.41 194.515 478.208C153.585 388.048 201.803 244.225 267.955 154.672C271.154 150.34 274.251 145.826 277.105 141.271C285.384 128.073 292.287 113.741 297.631 98.7009C321.902 30.2203 310.829 -45.0819 297.287 -96.1943C287.53 -132.833 293.34 -172.327 313.238 -204.512C323.056 -220.403 335.646 -233.763 350.343 -244.066C364.998 -254.37 381.759 -261.657 399.876 -265.382C409.512 -267.386 418.965 -268.337 428.216 -268.337C517.384 -268.337 587.403 -180.768 612.666 -119.332C616.309 -110.445 619.832 -101.012 623.253 -91.903C637.827 -52.9563 652.888 -12.7141 685.458 11.1316C722.34 38.1351 776.792 39.3093 851.953 14.7348C938.146 -13.4631 1019.46 -12.208 1069.5 18.0546C1099.78 36.3741 1118.26 64.2481 1124.42 100.887C1141.18 200.42 1063.67 278.657 894.017 333.413ZM1126.32 100.563C1120.07 63.3574 1101.28 35.038 1070.49 16.4149C1019.99 -14.1514 938.065 -15.4468 851.366 12.8927C776.833 37.285 722.927 36.192 686.592 9.5932C654.487 -13.9084 639.528 -53.9077 625.054 -92.5709C621.633 -101.7 618.111 -111.154 614.447 -120.06C602.423 -149.27 576.027 -192.185 537.93 -224.977C512.607 -246.779 474.551 -270.26 428.155 -270.26C418.924 -270.26 409.35 -269.329 399.492 -267.264C362.731 -259.673 331.537 -237.75 311.619 -205.524C291.437 -172.893 285.546 -132.854 295.425 -95.7086C308.906 -44.8593 319.918 30.0382 295.809 98.0532C290.526 112.972 283.684 127.162 275.465 140.239C272.631 144.753 269.595 149.226 266.397 153.538C199.92 243.516 151.52 388.169 192.754 478.998C215.871 529.887 263.34 558.632 333.865 564.462C345.343 565.393 356.537 565.879 367.528 565.879C425.969 565.879 478.195 552.397 529.692 524.341C563.416 505.86 594.528 482.702 624.629 460.294C679.608 419.363 736.449 377.036 814.585 357.765C843.107 350.741 870.03 343.17 894.624 335.235C1065.31 280.155 1143.26 201.189 1126.32 100.563Z" fill="#F58220"/>
<path d="M862.579 324.709C840.13 331.834 815.576 338.636 789.584 344.931C718.857 362.097 666.874 399.202 616.612 435.072C587.199 456.063 559.427 475.881 528.091 492.095C473.355 520.414 417.182 530.697 351.313 524.463C289.006 518.552 247.064 492.601 226.619 447.379C204.959 399.465 212.793 341.47 223.157 301.268C236.113 251.107 260.95 198.335 291.294 156.473C294.148 152.566 296.881 148.498 299.431 144.368C306.8 132.466 312.953 119.551 317.69 106.009C334.997 56.6978 335.099 -2.30927 318.034 -69.3526C309.593 -102.146 314.998 -137.489 332.832 -166.274C350.564 -194.877 378.296 -214.451 410.927 -221.394C504.225 -241.252 580.074 -151.76 605.964 -90.7084C609.304 -82.8341 612.543 -74.4942 615.681 -66.4377C629.263 -31.4383 643.312 4.75537 673.21 26.3744C707.035 50.8274 756.751 52.3658 825.211 31.0909C905.817 6.01038 978.447 8.0752 1024.48 36.7184C1051.99 53.8234 1068.63 79.5313 1073.91 113.094C1088.3 204.145 1017.21 275.338 862.579 324.709ZM1075.71 112.81C1070.35 78.7014 1053.43 52.5683 1025.45 35.1597C978.953 6.23309 905.777 4.12781 824.665 29.35C673.129 76.4747 644.769 3.48004 617.361 -67.1057C614.243 -75.1623 611.005 -83.5223 607.644 -91.4169C581.531 -153.015 504.913 -243.256 410.543 -223.176C377.426 -216.131 349.289 -196.273 331.293 -167.246C313.176 -138.015 307.711 -102.186 316.253 -68.9073C333.236 -2.20807 333.155 56.4346 315.969 105.401C311.273 118.842 305.18 131.615 297.873 143.417C295.363 147.486 292.65 151.514 289.816 155.4C259.331 197.444 234.412 250.439 221.396 300.803C210.951 341.308 203.077 399.728 224.959 448.128C245.687 493.998 288.136 520.293 351.151 526.264C363.56 527.438 375.624 528.046 387.385 528.046C438.498 528.046 484.185 516.872 528.921 493.714C560.378 477.439 589.507 456.65 617.664 436.549C667.805 400.781 719.626 363.777 790.03 346.693C816.041 340.397 840.636 333.596 863.146 326.43C1018.75 276.755 1090.27 204.893 1075.71 112.81Z" fill="#F58220"/>
<path d="M977.722 240.704C945.172 270.278 895.861 295.601 831.145 315.986C810.761 322.362 788.535 328.415 765.053 333.961C702.079 348.941 655.076 380.762 609.631 411.51C582.263 430.032 556.414 447.522 527.426 461.53C478.662 485.052 428.217 492.946 368.623 486.367C313.685 480.295 276.641 456.732 258.544 416.288C226.177 344.001 262.269 231.777 314.636 158.256C317.228 154.612 319.616 150.989 321.762 147.487C328.219 136.859 333.604 125.362 337.774 113.297C352.875 69.6744 353.199 17.2461 338.766 -42.5099C331.539 -71.9426 336.417 -102.367 352.49 -128.176C368.32 -153.581 392.995 -171.07 421.983 -177.406C430.444 -179.269 438.723 -180.119 446.861 -180.119C519.552 -180.119 577.769 -110.99 599.267 -62.0844C602.283 -55.2424 605.218 -48.0361 608.032 -41.0524C620.663 -9.95984 633.72 22.2056 660.946 41.6182C691.735 63.5611 736.714 65.4639 798.454 47.4278C872.197 25.91 938.168 28.7844 979.463 55.3629C1004.22 71.2735 1019.02 94.7953 1023.41 125.301C1029.7 168.579 1014.34 207.405 977.722 240.704ZM1025.11 125.058C1020.64 94.0464 1005.6 70.0995 980.394 53.9054C938.674 27.0638 872.177 24.1084 797.988 45.7881C661.331 85.6862 635.056 20.9303 609.631 -41.7002C606.797 -48.7041 603.862 -55.9104 600.846 -62.7726C576.717 -117.65 506.718 -197.73 421.598 -179.086C392.165 -172.649 367.105 -154.876 351.033 -129.087C334.697 -102.873 329.758 -71.983 337.085 -42.105C351.458 17.3271 351.134 69.4314 336.154 112.75C332.025 124.694 326.681 136.07 320.284 146.576C318.179 150.058 315.79 153.661 313.219 157.264C260.569 231.169 224.355 344.123 256.986 416.996C275.346 458.028 312.835 481.934 368.421 488.088C381.923 489.566 394.959 490.315 407.611 490.315C451.132 490.315 490.16 481.428 528.175 463.088C557.284 449.02 583.174 431.49 610.603 412.948C655.906 382.26 702.767 350.56 765.458 335.641C788.96 330.075 811.227 324.022 831.651 317.625C896.63 297.18 946.143 271.715 978.875 241.959C1015.94 208.275 1031.51 168.944 1025.11 125.058Z" fill="#F58220"/>
<path d="M799.707 307.283C781.387 312.89 761.469 318.173 740.538 322.991C685.357 335.784 643.434 362.302 602.909 387.949C577.484 404.022 553.476 419.204 526.736 430.965C484.045 449.75 439.288 455.256 385.909 448.292C338.42 442.078 306.355 420.924 290.607 385.419C262.733 322.546 293.319 224.45 337.954 160.059C340.262 156.759 342.266 153.642 344.088 150.585C349.634 141.253 354.27 131.173 357.852 120.606C370.848 82.388 371.395 36.5386 359.512 -15.6669C353.703 -41.1118 358.116 -67.3867 371.921 -89.6737C385.828 -112.102 407.507 -127.628 433.013 -133.418C440.948 -135.219 448.721 -136.049 456.332 -136.049C520.764 -136.049 572.99 -76.1111 592.585 -33.4601C595.237 -27.7112 597.828 -21.6385 600.338 -15.7884C611.998 11.4581 624.042 39.6357 648.616 56.8824C676.409 76.3557 716.672 78.6229 771.711 63.7851C838.552 45.7692 897.883 49.4938 934.461 73.9873C956.445 88.7036 969.38 110.06 972.902 137.488C984.886 229.794 885.333 280.765 799.707 307.283ZM974.521 137.286C970.939 109.371 957.761 87.6309 935.372 72.6311C898.389 47.8745 838.593 44.0892 771.286 62.2265C649.507 95.0396 625.257 38.3808 601.816 -16.4158C599.306 -22.2862 596.715 -28.3589 594.063 -34.1483C571.938 -82.2851 508.558 -152.243 432.669 -134.997C406.738 -129.106 384.674 -113.317 370.545 -90.5238C356.516 -67.8724 352.043 -41.1522 357.933 -15.3025C369.755 36.5994 369.209 82.1451 356.314 120.08C352.772 130.545 348.177 140.525 342.691 149.755C340.889 152.792 338.905 155.848 336.638 159.128C291.74 223.904 261.012 322.647 289.129 386.067C305.121 422.139 337.61 443.616 385.706 449.891C400.564 451.835 414.754 452.806 428.418 452.806C464.146 452.806 496.311 446.126 527.404 432.442C554.246 420.621 578.294 405.419 603.759 389.306C644.183 363.739 686.004 337.302 740.902 324.57C761.874 319.752 781.812 314.449 800.172 308.821C886.406 282.141 986.627 230.705 974.521 137.286Z" fill="#F58220"/>
<path d="M768.269 298.555C752.035 303.414 734.444 307.948 716.003 312.017C668.797 322.604 632.057 343.838 596.552 364.364C572.949 378.008 550.662 390.882 526.087 400.396C489.489 414.545 450.441 417.642 403.195 410.193C363.175 403.898 336.07 385.173 322.67 354.567C298.156 298.576 325.524 215.419 361.313 161.858C363.276 158.902 364.936 156.23 366.414 153.68C371.049 145.643 374.916 136.979 377.932 127.891C388.742 95.3203 389.511 56.0497 380.24 11.172C370.969 -33.726 399.592 -78.8668 444.064 -89.4334C451.493 -91.1945 458.76 -92.0244 465.886 -92.0244C522.12 -92.0244 568.273 -41.2562 585.884 -4.86011C588.131 -0.204315 590.357 4.65393 592.503 9.35019C610.074 47.8515 628.13 87.4257 691.449 87.4055C706.509 87.4055 724.161 85.1788 744.95 80.1384C804.949 65.6245 857.62 70.1588 889.482 92.5876C908.692 106.11 919.785 125.32 922.396 149.692C929.38 213.496 874.644 266.37 768.269 298.555ZM923.914 149.53C921.242 124.692 909.947 105.118 890.352 91.3325C858.126 68.6609 805.009 64.0455 744.606 78.6607C637.624 104.531 615.397 55.8271 593.879 8.72266C591.734 4.0264 589.507 -0.85202 587.26 -5.50781C567.2 -46.9646 510.48 -106.802 443.72 -90.9111C398.458 -80.1623 369.309 -34.2118 378.762 11.4757C387.972 56.0902 387.223 95.0976 376.495 127.425C373.499 136.392 369.673 144.975 365.098 152.91C363.641 155.441 362.001 158.092 360.038 161.007C324.026 214.913 296.537 298.677 321.293 355.174C334.917 386.287 362.386 405.315 402.972 411.711C419.571 414.323 435.178 415.638 450.036 415.638C477.667 415.638 502.667 411.064 526.634 401.813C551.33 392.258 573.657 379.344 597.301 365.68C632.725 345.215 669.344 324.041 716.327 313.495C734.808 309.406 752.419 304.871 768.694 300.013C819.017 284.791 858.025 265.014 884.643 241.249C914.461 214.65 927.659 183.78 923.914 149.53Z" fill="#F58220"/>
<path d="M736.834 289.852C723.13 293.84 707.867 297.605 691.471 301.047C652.443 309.407 621.128 325.378 590.845 340.823C568.841 352.037 548.052 362.645 525.421 369.831C495.057 379.466 461.718 380.195 420.504 372.118C387.954 365.742 365.829 349.487 354.776 323.779C334.777 277.282 355.363 209.854 384.654 163.64C386.314 161.009 387.61 158.822 388.743 156.778C392.468 150.037 395.585 142.79 398.014 135.199C406.759 107.912 407.731 76.1316 400.99 38.0351C394.35 0.545898 418.135 -36.1133 455.119 -45.4654C512.02 -59.8174 561.432 -10.628 579.205 23.7641C580.987 27.2256 582.728 30.7679 584.489 34.3104C604.347 74.3907 624.873 115.868 718.211 96.4955C771.348 85.4633 817.379 90.8074 844.545 111.151C860.982 123.479 870.192 140.543 871.893 161.899C876.447 216.919 827.197 263.557 736.834 289.852ZM873.31 161.778C871.569 140.017 862.176 122.608 845.395 110.018C817.501 89.1272 772.238 83.8237 717.907 95.0988C625.662 114.248 605.379 73.2774 585.764 33.683C584.003 30.1203 582.242 26.598 580.461 23.1163C569.813 2.5094 551.696 -17.7129 532 -30.9313C514.551 -42.672 486.98 -54.9592 454.774 -46.8217C417.063 -37.3077 392.832 0.0802612 399.593 38.278C406.294 76.1518 405.342 107.71 396.658 134.754C394.249 142.264 391.172 149.43 387.508 156.09C386.395 158.114 385.1 160.28 383.44 162.871C353.967 209.408 333.258 277.383 353.481 324.346C364.736 350.499 387.185 367.037 420.241 373.515C439.168 377.219 456.455 379.082 472.568 379.082C491.737 379.082 509.227 376.45 525.846 371.187C548.599 363.96 569.428 353.333 591.493 342.078C621.695 326.674 652.929 310.763 691.754 302.443C708.191 298.982 723.494 295.217 737.219 291.209C779.566 278.901 814.262 261.533 837.561 240.967C863.715 217.89 875.739 191.251 873.31 161.778Z" fill="#F58220"/>
<path d="M705.396 281.149C694.08 284.287 681.489 287.202 666.935 290.076C636.45 296.108 610.924 306.938 586.228 317.383C565.419 326.209 545.743 334.549 524.771 339.265C500.076 344.812 474.064 343.253 437.809 334.043C412.749 327.687 395.604 313.901 386.899 293.112C370.402 253.761 387.952 199.733 407.992 165.422C408.944 163.783 410.057 161.839 411.069 159.876C413.883 154.431 416.231 148.581 418.093 142.488C424.611 121.051 425.785 95.6665 421.717 64.8776C417.769 35.0805 436.899 6.55881 466.169 -1.47748C514.549 -14.7161 556.269 23.4816 572.503 52.388C573.738 54.5539 574.932 56.7604 576.147 58.9668C591.471 86.8813 607.24 115.626 660.174 115.626C669.404 115.626 679.769 114.755 691.449 112.832C738.472 105.181 776.892 111.172 799.665 129.735C813.329 140.868 820.637 155.787 821.385 174.086C823.47 220.401 780.091 260.421 705.396 281.149ZM822.701 174.025C821.932 155.342 814.463 140.079 800.516 128.723C777.439 109.917 738.634 103.824 691.226 111.537C613.474 124.208 595.074 90.7273 577.301 58.319C576.086 56.1125 574.872 53.9264 573.657 51.7604C557.22 22.4695 514.934 -16.1938 465.825 -2.73254C435.907 5.46567 416.393 34.5948 420.421 65.0598C424.47 95.6463 423.296 120.848 416.818 142.103C414.996 148.135 412.668 153.904 409.895 159.269C408.903 161.212 407.81 163.135 406.859 164.754C386.657 199.329 369.005 253.822 385.685 293.618C394.571 314.812 412 328.84 437.486 335.318C459.894 341.006 478.436 343.8 495.157 343.8C505.662 343.8 515.46 342.707 525.055 340.541C546.148 335.804 565.864 327.444 586.754 318.598C611.369 308.173 636.834 297.384 667.198 291.371C681.793 288.497 694.384 285.562 705.74 282.404C781.083 261.514 824.806 220.988 822.701 174.025Z" fill="#F58220"/>
<path d="M673.96 272.422C664.669 274.831 654.346 277.017 642.423 279.123C621.391 282.827 602.666 288.657 584.549 294.284C563.841 300.721 544.287 306.794 524.145 308.697C502.466 310.742 481.656 305.337 455.138 295.985C437.568 289.77 425.422 278.556 419.026 262.645C407.305 233.415 417.71 194.185 431.333 167.202L431.414 167.04C432.102 165.683 432.791 164.327 433.418 162.951C435.301 158.801 436.9 154.368 438.175 149.773C443.722 129.672 443.459 109.166 442.467 91.7577C441.212 69.835 455.847 49.1066 477.243 42.5075C483.579 40.544 489.956 39.6534 496.231 39.6534C524.935 39.6534 551.695 58.5194 565.825 81.0291L567.1 83.0331C581.007 105.28 596.593 130.178 646.532 130.178C652.119 130.178 658.171 129.854 664.689 129.186C704.932 125.077 736.996 131.878 754.991 148.376C765.619 158.133 771.125 171.23 770.882 186.27C770.436 224.124 733.291 257.139 673.96 272.422ZM755.801 147.465C737.563 130.745 705.175 123.822 664.568 127.992C600.784 134.51 584.165 108.012 568.112 82.3853L566.857 80.3813C549.388 52.5681 512.87 30.2406 476.879 41.3537C454.956 48.1147 439.977 69.3491 441.252 91.8184C442.244 109.146 442.507 129.53 437.001 149.449C435.746 153.983 434.167 158.356 432.305 162.445C431.677 163.821 431.009 165.157 430.341 166.493L430.26 166.655C412.427 201.897 407.811 237.949 417.912 263.091C424.431 279.345 436.819 290.803 454.734 297.118C477.608 305.195 496.271 310.337 514.935 310.337C518.032 310.337 521.129 310.195 524.247 309.912C544.53 308.009 564.145 301.896 584.914 295.438C602.99 289.811 621.674 284.001 642.625 280.317C654.588 278.192 664.932 276.005 674.264 273.596C734.142 258.172 771.631 224.711 772.096 186.29C772.339 170.906 766.712 157.485 755.801 147.465Z" fill="#F58220"/>
<path d="M720.397 198.436C717.32 227.201 685.296 254.042 642.523 263.718C635.115 265.398 627.058 266.836 617.888 268.151C608.88 269.427 600.095 270.945 591.593 272.402C567.727 276.532 545.197 280.418 523.538 278.151C506.149 276.329 490.765 268.273 472.486 257.929C441.839 240.581 443.195 200.602 454.693 168.943L455.017 168.052C455.28 167.364 455.523 166.696 455.745 166.007C456.717 163.173 457.567 160.157 458.256 157.06C460.786 145.603 461.798 134.368 462.668 124.449C462.851 122.445 463.013 120.522 463.195 118.66C464.571 104.328 474.429 91.697 488.316 86.4744C513.072 77.1831 542.201 86.7173 559.144 109.652C573.375 128.903 591.492 141.615 637.868 145.542C676.167 148.781 701.45 157.546 713.008 171.615C719.061 178.963 721.55 187.991 720.397 198.436ZM713.879 170.906C701.956 156.392 677.118 147.749 637.949 144.429C592.018 140.542 574.083 127.992 560.055 108.984C547.222 91.6566 527.546 81.8389 507.91 81.8389C501.149 81.8389 494.388 83.0129 487.911 85.442C473.64 90.8063 463.498 103.802 462.081 118.559C461.919 120.401 461.737 122.344 461.555 124.348C460.685 134.227 459.693 145.421 457.162 156.817C456.474 159.874 455.664 162.85 454.693 165.663C454.47 166.331 454.227 166.999 453.984 167.667L453.64 168.558C442.001 200.642 440.685 241.209 471.939 258.901C490.34 269.305 505.805 277.402 523.416 279.244C527.89 279.73 532.384 279.932 536.918 279.932C554.549 279.932 572.747 276.795 591.775 273.516C600.277 272.038 609.063 270.52 618.05 269.244C627.24 267.929 635.337 266.491 642.766 264.811C686.004 255.034 718.372 227.788 721.49 198.557C722.684 187.809 720.113 178.497 713.879 170.906Z" fill="#F58220"/>
<path d="M669.91 210.582C663.858 231.007 638.028 250.521 611.105 254.994C578.049 260.521 545.924 257.828 522.949 247.646C508.557 241.25 497.444 231.958 489.934 220.015C481.371 206.412 477.383 189.247 478.092 168.984C478.152 167.385 478.233 165.826 478.335 164.288C479.286 149.774 486.958 137.446 499.407 130.442C514.002 122.224 536.087 121.495 552.483 138.296C563.799 149.895 583.515 157.83 611.105 161.879C639.627 166.069 658.959 174.955 666.995 187.546C671.408 194.449 672.38 202.202 669.91 210.582ZM667.845 187C659.647 174.146 640.073 165.118 611.247 160.887C583.879 156.859 564.345 149.025 553.212 137.608C536.431 120.402 513.86 121.171 498.921 129.551C492.545 133.134 487.383 138.094 483.699 144.005C480.015 149.915 477.808 156.798 477.322 164.227C477.221 165.765 477.14 167.344 477.08 168.943C476.371 189.429 480.399 206.777 489.063 220.542C496.715 232.667 507.97 242.1 522.544 248.557C537.807 255.339 557.058 258.82 577.948 258.82C588.717 258.82 599.952 257.889 611.267 256.007C638.534 251.452 664.728 231.635 670.882 210.866C673.412 202.323 672.359 194.064 667.845 187Z" fill="#F58220"/>
<path d="M210.75 54.6145C179.232 12.6112 130.063 12.2267 77.9991 11.8016C69.5175 11.7408 60.7322 11.6801 52.0684 11.4169C-63.537 7.91492 -135.842 64.5941 -179.061 98.4599L-179.223 98.6016C-185.943 103.865 -192.522 108.601 -199 112.873V115.302C-192.118 110.808 -185.114 105.788 -177.968 100.181L-177.807 100.059C-134.81 66.3552 -62.8689 9.93921 52.0076 13.4412C60.6917 13.7043 69.477 13.7651 77.9788 13.8258C129.537 14.2307 178.22 14.6152 209.13 55.829C225.992 78.3185 206.013 111.172 178.341 156.617C135.427 227.122 70.5903 333.658 87.9179 491.368C102.371 622.782 42.5544 795.431 -173.555 849.458C-182.3 851.645 -190.761 853.486 -199 855.005V857.049C-190.599 855.511 -181.956 853.648 -173.049 851.422C-77.7265 827.576 -3.3351 777.537 42.0888 706.647C81.4605 645.231 98.4441 568.694 89.9422 491.145C72.6753 334.124 137.31 227.951 180.082 157.669C208.159 111.537 228.442 78.1971 210.75 54.6145Z" fill="#F58220"/>
<path d="M164.212 119.006C164.212 111.799 162.249 105.281 157.775 99.4108C128.605 60.9095 83.6265 60.2415 36.016 59.533C28.4655 59.4116 20.6721 59.29 12.9597 59.0067C-7.60751 58.2982 -27.9703 59.6544 -47.5455 63.0552C-118.658 75.6865 -166.936 112.73 -198.878 137.244C-198.919 137.285 -198.96 137.305 -199 137.345V139.754C-198.575 139.43 -198.129 139.086 -197.704 138.762C-165.903 114.37 -117.868 77.5084 -47.2007 64.9378C-27.7687 61.5573 -7.54576 60.2212 12.899 60.9297C20.6114 61.2131 28.425 61.3346 35.9958 61.4561C59.5581 61.8204 82.4727 62.1443 103.059 67.124C123.666 72.1036 141.945 81.6987 156.237 100.585C172.208 121.516 154.152 151.981 129.172 194.126C91.2984 258.011 34.0525 354.548 49.6595 496.165C62.6957 614.402 8.66832 770.613 -186.551 821.726C-190.761 822.818 -194.911 823.851 -199 824.783V826.766C-194.749 825.795 -190.437 824.741 -186.065 823.588C-99.9334 801.038 -32.7477 755.249 8.26347 691.202C43.9308 635.474 59.295 566.123 51.5623 495.962C36.0363 354.973 93.0797 258.76 130.812 195.097C149.415 163.742 164.212 138.762 164.212 119.006Z" fill="#F58220"/>
<path d="M104.8 144.204C77.8169 109.266 37.0079 108.274 -6.1897 107.221C-12.7068 107.059 -19.4692 106.897 -26.1286 106.614C-45.0562 105.825 -63.4968 106.938 -80.9653 109.914C-132.018 118.577 -170.599 141.512 -199 161.573V163.819C-170.641 143.678 -131.977 120.419 -80.6616 111.715C-63.3132 108.76 -44.9945 107.667 -26.21 108.436C-19.5291 108.719 -12.7685 108.881 -6.22998 109.043C15.146 109.549 35.935 110.076 54.6796 114.731C73.4243 119.387 90.1244 128.193 103.343 145.318C118.342 164.771 102.25 192.827 79.9828 231.652C47.1494 288.878 -2.48511 375.395 11.3808 500.959C23.5669 610.977 -25.3197 745.651 -199 793.828V795.711C-122.119 774.497 -62.1604 732.999 -25.5823 675.774C6.38092 625.734 20.1458 563.59 13.1824 500.757C-0.603165 375.779 48.8296 289.586 81.5618 232.543C104.193 193.11 120.529 164.609 104.8 144.204Z" fill="#F58220"/>
<path d="M51.8052 189.024C27.1093 157.567 -9.55037 156.272 -48.3551 154.916C-53.8816 154.713 -59.5898 154.511 -65.237 154.227C-82.3215 153.397 -98.8611 154.247 -114.387 156.778C-148.293 162.284 -176.289 174.875 -199 188.235V190.239C-176.267 176.757 -148.171 164.025 -114.123 158.478C-98.699 155.968 -82.2811 155.118 -65.3374 155.928C-59.6703 156.231 -53.9415 156.434 -48.4153 156.636C-10.016 157.992 26.2389 159.268 50.4692 190.077C64.5378 208.012 50.4287 233.679 30.8744 269.205C1.38141 322.807 -39.0221 396.247 -26.898 505.78C-16.4731 599.3 -56.7155 714.116 -199 761.99V763.812C-55.3182 715.735 -14.6513 599.908 -25.1774 505.577C-37.262 396.591 3 323.435 32.3926 270.035C52.2505 233.922 66.6025 207.83 51.8052 189.024Z" fill="#F58220"/>
<path d="M-1.16936 233.821C-23.7398 205.745 -56.4315 204.166 -91.0463 202.506C-95.4387 202.304 -99.8921 202.081 -104.346 201.818C-119.407 200.907 -134.042 201.514 -147.826 203.64C-166.855 206.575 -183.9 212.02 -199 218.599V220.36C-183.858 213.7 -166.734 208.174 -147.584 205.239C-133.92 203.134 -119.407 202.526 -104.447 203.437C-99.9737 203.7 -95.5203 203.923 -91.108 204.126C-56.8767 205.765 -24.5495 207.324 -2.425 234.833C10.7735 251.27 -1.35135 274.549 -18.1328 306.796C-42.3836 353.333 -75.5607 417.077 -65.1565 510.578C-56.5123 587.54 -88.1103 682.295 -199 728.833V730.533C-152.968 711.242 -116.734 682.032 -93.2525 645.029C-68.3352 605.778 -58.0716 559.22 -63.5567 510.395C-73.9019 417.401 -40.8448 353.9 -16.6952 307.545C0.369278 274.772 12.6966 251.068 -1.16936 233.821Z" fill="#F58220"/>
<path d="M717.017 485.336C788.655 427.887 893.492 393.839 961.507 382.119C1082.56 361.289 1130.77 297.06 1173.3 240.381C1204.9 198.296 1232.17 161.941 1283.34 153.398C1308.75 149.147 1332.86 150.241 1358.36 151.394C1408.5 153.662 1460.16 155.989 1522.41 115.302V112.873C1460.18 153.965 1408.56 151.617 1358.46 149.37C1333.97 148.257 1308.63 147.123 1283.02 151.394C1231.04 160.078 1203.55 196.738 1171.68 239.166C1129.38 295.542 1081.42 359.427 961.162 380.135C892.905 391.876 787.684 426.066 715.762 483.757C665.682 523.918 649.043 573.856 668.921 624.382C686.795 669.806 733.495 712.842 797.056 742.457C864.686 773.994 945.859 788.104 1025.61 782.213C1146.87 773.266 1225.89 801.443 1295.63 826.321C1349.72 845.612 1398.68 863.082 1459.33 863.082C1478.93 863.082 1499.78 861.26 1522.41 857.07V855.005C1430.14 872.17 1367.69 849.884 1296.3 824.419C1235.47 802.719 1167.56 778.488 1070.76 778.488C1056.32 778.488 1041.24 779.035 1025.45 780.189C946.041 786.059 865.233 772.011 797.906 740.635C734.81 711.222 688.495 668.591 670.803 623.633C651.289 574.018 667.706 524.89 717.017 485.336Z" fill="#F58220"/>
<path d="M768.879 491.366C833.696 438.108 928.755 406.185 990.454 395.052C1079.2 379.04 1124.46 338.292 1157.05 300.519C1167.09 288.88 1176.14 277.119 1184.86 265.743C1213.97 227.828 1239.13 195.096 1285.69 187.283C1309.09 183.355 1331.24 184.206 1354.68 185.117C1405.18 187.06 1457.41 189.084 1522.41 139.753V137.344C1457.43 187.161 1405.22 185.137 1354.76 183.194C1332.25 182.323 1308.97 181.432 1285.37 185.4C1238.06 193.315 1212.7 226.33 1183.35 264.569C1174.62 275.925 1165.61 287.665 1155.59 299.264C1123.23 336.774 1078.27 377.259 990.11 393.17C928.188 404.343 832.744 436.387 767.644 489.888C722.483 526.73 707.666 572.397 725.925 618.489C742.301 659.804 784.709 698.974 842.279 725.957C903.492 754.641 976.993 767.637 1049.26 762.535C1156.93 754.944 1228.75 779.883 1292.11 801.887C1303.51 805.855 1314.27 809.6 1325.21 813.142C1366.86 826.825 1405.04 835.732 1447.17 835.732C1470.59 835.732 1495.24 832.98 1522.41 826.765V824.781C1446.64 842.21 1390.45 832.534 1325.79 811.32C1314.88 807.778 1304.13 804.033 1292.74 800.065C1237.17 780.774 1175.13 759.216 1088.12 759.216C1075.66 759.216 1062.66 759.661 1049.12 760.612C977.175 765.673 904.018 752.758 843.088 724.216C785.964 697.435 743.92 658.651 727.726 617.781C709.791 572.539 724.406 527.641 768.879 491.366Z" fill="#F58220"/>
<path d="M820.717 497.421C879.34 448.191 964.399 418.475 1019.42 407.989C1099.28 392.787 1140.65 356.229 1170.61 322.484C1179.94 311.979 1188.3 301.392 1196.4 291.129C1223.06 257.384 1246.07 228.235 1288.02 221.191C1309.45 217.567 1330.57 218.215 1350.99 218.843C1397.02 220.26 1444.63 221.717 1503.96 177.345C1509.55 173.175 1515.68 168.58 1522.41 163.823V161.597C1515.28 166.617 1508.78 171.475 1502.89 175.888C1444.07 219.895 1396.78 218.438 1351.05 217.021C1330.53 216.393 1309.31 215.745 1287.71 219.389C1245.08 226.555 1221.86 255.947 1194.98 289.995C1186.91 300.238 1178.54 310.825 1169.25 321.27C1139.5 354.792 1098.38 391.086 1019.07 406.208C963.832 416.734 878.429 446.571 819.543 496.024C779.342 529.788 766.447 571.367 783.228 613.087C798.167 650.232 836.284 685.433 887.761 709.644C942.456 735.372 1008.2 747.153 1072.9 742.841C1168.12 736.505 1233.06 758.63 1290.36 778.165C1303.56 782.658 1316.01 786.909 1328.62 790.755C1363.5 801.403 1396.92 808.548 1433.88 808.548C1460.87 808.548 1489.71 804.743 1522.34 795.735C1522.36 795.735 1522.39 795.715 1522.41 795.715V793.832C1522.22 793.893 1522.04 793.933 1521.86 793.994C1444.92 815.228 1389.17 807.354 1329.15 789.015C1316.58 785.168 1304.13 780.918 1290.95 776.444C1240.35 759.197 1183.79 739.926 1105.71 739.926C1095.15 739.926 1084.17 740.27 1072.78 741.04C1008.37 745.331 942.942 733.59 888.53 708.004C837.458 683.976 799.685 649.139 784.908 612.398C768.451 571.468 781.163 530.639 820.717 497.421Z" fill="#F58220"/>
<path d="M872.558 503.471C924.663 458.309 999.823 430.78 1048.39 420.921C1119.34 406.529 1156.84 374.181 1184.19 344.445C1192.78 335.113 1200.49 325.66 1207.96 316.531C1232.13 286.936 1253 261.37 1290.34 255.074C1309.8 251.775 1328.87 252.2 1347.33 252.584C1388.56 253.475 1431.21 254.366 1484.25 215.925C1494.75 208.294 1507.43 199.104 1522.41 190.237V188.233C1507 197.302 1494 206.715 1483.24 214.528C1430.67 252.645 1388.32 251.734 1347.37 250.864C1328.83 250.479 1309.68 250.054 1290.06 253.394C1252.09 259.791 1231.01 285.58 1206.62 315.438C1199.17 324.567 1191.48 333.98 1182.92 343.291C1155.77 372.825 1118.51 404.93 1048.04 419.241C999.277 429.14 923.792 456.791 871.425 502.155C836.162 532.741 825.13 570.129 840.393 607.477C864.644 666.808 957.071 723.871 1074.07 723.871C1081.46 723.871 1088.95 723.629 1096.52 723.163C1179.66 718.021 1237.77 737.515 1289.05 754.701C1303.91 759.681 1317.94 764.377 1332.04 768.344C1358.06 775.652 1386.25 781.684 1419.47 781.684C1445.83 781.684 1475.32 777.879 1509.35 767.899C1513.78 766.604 1518.13 765.227 1522.41 763.81V761.988C1517.99 763.486 1513.48 764.903 1508.86 766.259C1432.39 788.688 1378.91 779.721 1332.51 766.684C1318.44 762.737 1304.43 758.041 1289.6 753.061C1243.89 737.738 1192.8 720.612 1123.4 720.612C1114.7 720.612 1105.71 720.876 1096.42 721.442C969.682 729.296 867.538 669.338 841.992 606.829C827.033 570.23 837.883 533.511 872.558 503.471Z" fill="#F58220"/>
<path d="M924.422 509.505C961.891 475.68 1021.91 446.004 1077.35 433.858C1139.78 420.195 1174.5 390.641 1197.76 366.41C1205.61 358.252 1212.66 349.973 1219.48 341.977C1241.2 316.512 1259.94 294.529 1292.69 288.982C1310.16 286.007 1327.21 286.169 1343.69 286.331C1380.14 286.695 1417.83 287.059 1464.51 254.509C1479.11 244.327 1498.28 230.947 1522.41 220.38V218.599C1497.85 229.267 1478.38 242.85 1463.58 253.173C1417.33 285.44 1379.9 285.055 1343.71 284.711C1327.15 284.549 1310.02 284.367 1292.41 287.383C1259.09 293.031 1240.17 315.217 1218.24 340.925C1211.44 348.9 1204.42 357.159 1196.6 365.297C1172.05 390.843 1138.65 418.798 1076.99 432.28C1021.32 444.466 961 474.303 923.329 508.311C892.985 535.699 883.836 568.937 897.601 601.912C909.807 631.223 938.572 657.863 978.551 676.931C1020.29 696.85 1070.59 706.283 1120.17 703.489C1191.87 699.461 1243.3 716.546 1288.71 731.647C1304.88 737.011 1320.18 742.092 1335.47 745.958C1359.5 751.99 1382.53 755.047 1405.61 755.047C1435.1 755.047 1464.63 750.067 1496.35 740.068C1505.34 737.234 1514.05 734.055 1522.41 730.533V728.833C1514.01 732.355 1505.18 735.594 1495.87 738.529C1438.87 756.504 1391.01 758.266 1335.87 744.379C1320.63 740.553 1305.37 735.472 1289.21 730.108C1248.28 716.505 1202.45 701.263 1141.3 701.263C1134.44 701.263 1127.35 701.465 1120.09 701.87C1010.57 708.044 921.73 655.575 899.078 601.305C885.617 568.998 894.605 536.407 924.422 509.505Z" fill="#F58220"/>
<path d="M1106.3 446.792C1159.78 433.979 1190.53 408.838 1211.34 388.372C1218.42 381.389 1224.82 374.304 1230.99 367.462C1250.23 346.106 1266.84 327.685 1295.02 322.868C1310.51 320.216 1325.55 320.135 1340.08 320.074C1371.76 319.932 1404.49 319.811 1444.78 293.091C1462.73 281.168 1488.54 264.043 1522.41 255.521V253.982C1488.12 262.504 1462.04 279.791 1443.93 291.815C1404.05 318.293 1371.52 318.434 1340.08 318.556C1325.47 318.617 1310.39 318.698 1294.76 321.37C1266.08 326.268 1249.29 344.891 1229.86 366.429C1223.71 373.271 1217.33 380.336 1210.27 387.3C1189.6 407.623 1159.07 432.582 1105.96 445.315C1058.73 456.63 1007.42 483.776 975.21 514.443C949.786 538.673 942.539 567.782 954.826 596.425C965.575 621.526 990.149 644.339 1023.99 660.635C1059.26 677.638 1101.83 685.857 1143.81 683.812C1204.78 680.817 1249.74 695.776 1289.41 708.954C1306.56 714.662 1322.77 720.047 1338.91 723.549C1356.01 727.253 1373.02 729.135 1390.24 729.135C1420.04 729.135 1450.51 723.528 1483.36 712.213C1497.27 707.415 1510.32 701.707 1522.41 695.148V693.488C1510.26 700.108 1497.06 705.917 1482.87 710.796C1430.59 728.791 1386.3 732.273 1339.21 722.071C1323.18 718.589 1307.01 713.205 1289.9 707.516C1253.59 695.452 1212.86 681.91 1159.48 681.91C1154.36 681.91 1149.11 682.031 1143.75 682.294C1101.99 684.339 1059.7 676.161 1024.64 659.278C991.141 643.125 966.83 620.595 956.223 595.838C944.199 567.823 951.324 539.301 976.263 515.556C1008.29 485.051 1059.34 458.047 1106.3 446.792Z" fill="#F58220"/>
<path d="M1135.29 459.728C1179.8 447.784 1206.56 427.056 1224.9 410.356C1231.24 404.567 1236.97 398.676 1242.49 392.988C1259.25 375.741 1273.75 360.843 1297.35 356.774C1310.89 354.406 1323.93 354.122 1336.52 353.839C1363.44 353.232 1391.26 352.624 1425.04 331.653C1443.24 320.358 1470.75 303.293 1506.9 298.759C1511.98 298.131 1517.12 297.787 1522.41 297.747V296.33C1517.06 296.37 1511.84 296.714 1506.74 297.362C1470.26 301.937 1442.59 319.103 1424.29 330.459C1390.85 351.207 1363.22 351.835 1336.5 352.422C1323.85 352.705 1310.75 352.989 1297.11 355.377C1273.06 359.507 1258.42 374.567 1241.48 391.996C1235.95 397.684 1230.25 403.534 1223.93 409.303C1205.71 425.902 1179.13 446.489 1134.9 458.351C1096.08 468.776 1053.77 493.209 1027.09 520.597C1006.59 541.69 1001.26 566.689 1012.11 591.041C1031.91 635.453 1098.69 666.87 1167.45 664.137C1218.4 662.092 1257.11 675.149 1291.26 686.647C1308.99 692.618 1325.73 698.266 1342.33 701.14C1353.4 703.063 1364.54 704.035 1375.91 704.035C1405.2 704.035 1435.95 697.578 1470.36 684.379C1490.14 676.788 1507.57 667.153 1522.41 655.817V654.016C1507.47 665.594 1489.88 675.392 1469.86 683.064C1422.33 701.282 1381.88 706.585 1342.57 699.743C1326.07 696.869 1309.37 691.262 1291.7 685.29C1259.84 674.562 1224.05 662.497 1178 662.497C1174.52 662.497 1171 662.578 1167.39 662.72C1099.16 665.412 1032.96 634.36 1013.41 590.474C1002.8 566.689 1008.02 542.216 1028.12 521.589C1054.62 494.363 1096.69 470.092 1135.29 459.728Z" fill="#F58220"/>
<path d="M1164.25 472.663C1199.78 461.651 1222.57 445.315 1238.44 432.32C1244.01 427.765 1249.07 423.109 1253.93 418.616C1268.26 405.397 1280.61 394.001 1299.7 390.661C1311.3 388.616 1322.37 388.11 1333.06 387.624C1356.25 386.551 1378.14 385.559 1405.28 370.236C1423.88 359.75 1446.01 348.333 1473.44 345.52C1481.68 344.67 1490.22 344.811 1499.61 345.925L1501.43 346.147C1508.76 347.018 1515.75 347.848 1522.4 349.163V347.827C1515.79 346.532 1508.84 345.702 1501.6 344.852L1499.75 344.629C1490.28 343.495 1481.64 343.354 1473.32 344.224C1445.62 347.058 1423.36 358.556 1404.63 369.102C1377.77 384.264 1356.03 385.256 1333.02 386.308C1322.27 386.794 1311.15 387.3 1299.45 389.365C1280 392.766 1267.51 404.284 1253.04 417.644C1248.18 422.138 1243.16 426.773 1237.61 431.308C1221.82 444.222 1199.17 460.457 1163.87 471.408C1133.26 480.882 1099.94 502.622 1078.97 526.751C1063.36 544.747 1059.98 565.738 1069.5 585.839C1086.24 621.264 1137.35 645.919 1191.1 644.441C1232.79 643.308 1265.47 654.644 1294.27 664.664C1312.17 670.858 1329.05 676.728 1345.77 678.753C1351.6 679.441 1357.51 679.805 1363.54 679.805C1391.4 679.805 1421.7 672.234 1457.37 656.526C1485.73 644.037 1507.57 627.094 1522.4 606.082V604.078C1507.89 625.069 1485.77 642.599 1456.84 655.332C1413.68 674.34 1378.42 681.364 1345.93 677.437C1329.35 675.433 1312.53 669.603 1294.72 663.409C1267.15 653.834 1236.07 643.045 1196.88 643.045C1194.96 643.045 1193.02 643.085 1191.05 643.126C1137.82 644.563 1087.21 620.252 1070.69 585.293C1061.42 565.678 1064.72 545.192 1079.96 527.622C1100.79 503.655 1133.87 482.076 1164.25 472.663Z" fill="#F58220"/>
<path d="M267.267 -315.602C260.344 -346.371 235.628 -378.921 189.455 -418.07C138.383 -461.369 98.1809 -478.98 62.9386 -473.535C15.7127 -466.247 -23.9825 -417.018 -69.0635 -345.318C-91.3088 -309.934 -114.629 -293.558 -147.078 -290.562C-161.49 -289.226 -178.171 -290.421 -199 -294.51V-292.465C-178.151 -288.376 -161.389 -287.222 -146.895 -288.558C-113.759 -291.615 -89.974 -308.275 -67.3617 -344.225C-22.5655 -415.459 16.7856 -464.365 63.2422 -471.551C97.857 -476.895 137.553 -459.405 188.139 -416.532C287.854 -331.999 272.55 -290.866 253.178 -238.822C241.255 -206.758 227.733 -170.403 240.284 -117.812C248.765 -82.307 245.567 -57.3276 230.506 -41.4777C199.272 -8.58356 123.808 -22.5307 57.21 -34.8179C18.2026 -42.0243 -15.4806 -48.2387 -34.3878 -43.8259C-57.14 -38.5021 -88.9004 -18.8465 -125.661 3.88587C-148.515 18.0152 -173.171 33.2781 -199 47.3264V49.6138C-172.765 35.4237 -147.766 19.9382 -124.589 5.62675C-87.9696 -17.0449 -56.3518 -36.5992 -33.9426 -41.842C-15.4403 -46.1739 18.0609 -39.9797 56.8456 -32.8341C123.929 -20.4457 199.981 -6.39739 231.984 -40.081C247.53 -56.4775 250.891 -82.064 242.247 -118.298C229.838 -170.281 243.259 -206.313 255.081 -238.114C264.575 -263.599 273.542 -287.688 267.267 -315.602Z" fill="#F58220"/>
<path d="M168.038 -393.414C122.512 -430.599 86.2175 -445.801 53.8294 -441.267C9.92334 -435.134 -27.4041 -392.948 -73.4156 -326.876C-103.132 -284.225 -137.361 -268.841 -199 -278.315V-276.371C-136.674 -266.817 -102.018 -282.444 -71.8562 -325.783C-26.1286 -391.43 10.8747 -433.352 54.0926 -439.384C85.9139 -443.838 121.743 -428.757 166.823 -391.936C258.563 -316.816 245.709 -278.902 229.434 -230.866C219.555 -201.717 208.361 -168.681 219.555 -121.84C227.268 -89.6743 224.353 -66.9621 210.648 -52.4482C181.944 -21.9831 111.764 -34.4323 49.8417 -45.424C14.5994 -51.6992 -15.8452 -57.104 -34.4487 -53.9259C-60.4604 -49.513 -94.1033 -29.3312 -133.05 -5.95108C-153.576 6.37663 -175.761 19.676 -199 31.8822V34.028C-175.397 21.68 -152.886 8.158 -132.078 -4.31141C-93.2944 -27.5903 -59.7922 -47.6709 -34.1236 -52.0433C-15.8452 -55.1607 15.8949 -49.513 49.5177 -43.5414C111.905 -32.4688 182.613 -19.9184 212.045 -51.1324C226.215 -66.1524 229.272 -89.4313 221.417 -122.285C210.345 -168.6 221.438 -201.352 231.235 -230.259C247.753 -278.983 260.789 -317.464 168.038 -393.414Z" fill="#F58220"/>
<path d="M146.621 -368.761C98.6465 -406.149 61.6431 -417.242 26.664 -404.712C-7.16154 -392.587 -38.3754 -358.883 -77.767 -308.439C-107.099 -270.889 -142.645 -256.031 -199 -262.286V-260.423C-142.078 -254.148 -106.107 -269.249 -76.3508 -307.325C0.530609 -405.745 47.4733 -443.76 145.508 -367.344C229.332 -301.657 218.907 -266.86 205.709 -222.792C197.875 -196.619 188.989 -166.923 198.847 -125.871C205.75 -97.0457 203.118 -76.621 190.791 -63.4228C164.576 -35.3667 99.5776 -46.3988 42.2305 -56.1153C12.0893 -61.2366 -16.3727 -66.0544 -34.5094 -64.0504C-65.0955 -60.6699 -101.552 -40.4678 -143.739 -17.0877C-161.471 -7.27002 -179.951 2.97271 -199 12.4665V14.4907C-179.628 4.85527 -160.883 -5.5291 -142.867 -15.5087C-100.843 -38.8079 -64.5492 -58.9088 -34.307 -62.2488C-16.4114 -64.2326 11.9274 -59.4351 41.9268 -54.3542C99.7193 -44.5366 165.224 -33.4436 192.106 -62.188C204.879 -75.872 207.653 -96.8433 200.588 -126.296C190.851 -166.883 199.657 -196.315 207.45 -222.286C220.83 -267.002 231.417 -302.305 146.621 -368.761Z" fill="#F58220"/>
<path d="M663.577 -516.914C705.337 -542.541 823.776 -490.498 922.62 -427.584C944.26 -413.819 964.259 -408.313 982.984 -408.313C1023.25 -408.333 1057.56 -433.738 1088.99 -457.037C1104.8 -468.757 1119.74 -479.83 1134.86 -487.603C1227.64 -535.173 1256.87 -504.809 1293.97 -449.122C1297.8 -443.373 1301.5 -437.725 1305.14 -432.179C1336.76 -383.84 1364.07 -342.1 1428.3 -319.772C1467.41 -306.169 1497.77 -297.283 1522.41 -292.465V-294.509C1497.95 -299.327 1467.81 -308.173 1428.97 -321.675C1365.39 -343.78 1338.24 -385.257 1306.82 -433.272C1303.2 -438.839 1299.5 -444.486 1295.65 -450.255C1257.92 -506.854 1228.2 -537.744 1133.93 -489.384C1118.67 -481.571 1103.67 -470.437 1087.78 -458.676C1040.03 -423.272 990.656 -386.674 923.714 -429.284C824.323 -492.542 705.013 -544.707 662.524 -518.635C633.354 -500.74 564.631 -452.219 556.17 -388.273C552.04 -356.917 563.335 -326.837 589.792 -298.882C637.788 -248.154 660.317 -194.997 680.216 -148.115C702.402 -95.8084 719.912 -54.5136 764.385 -39.8985C787.481 -32.3075 835.416 -47.449 881.771 -62.0844C906.588 -69.9182 932.236 -78.0153 953.328 -82.3472C966.385 -85.0394 1082.62 -106.618 1140.77 -38.1779C1148.81 -28.7044 1157.19 -17.8341 1166.04 -6.31613C1186.7 20.5457 1208.06 48.2982 1226.5 59.2089C1249.52 72.8119 1310.91 98.014 1351.3 99.8358C1354.25 99.9572 1357.21 100.018 1360.18 100.018C1415.71 100.018 1471.36 77.2451 1522.41 49.614V47.3064C1468.62 76.5164 1409.72 100.423 1351.38 97.8115C1311.34 96.0099 1250.39 70.9699 1227.53 57.4682C1209.44 46.7599 1188.18 19.149 1167.66 -7.55094C1158.77 -19.0892 1150.39 -29.9796 1142.31 -39.4937C1107.35 -80.6265 1051.83 -89.6952 1009.7 -89.6952C980.838 -89.6952 958.268 -85.4442 952.924 -84.3309C931.73 -79.9787 906.022 -71.8615 881.164 -64.0074C835.112 -49.4732 787.481 -34.433 765.012 -41.8215C721.41 -56.1533 704.062 -97.0837 682.078 -148.905C662.119 -195.948 639.508 -249.287 591.27 -300.278C565.259 -327.768 554.125 -357.281 558.194 -388.01C566.514 -451.085 634.67 -499.182 663.577 -516.914Z" fill="#F58220"/>
<path d="M686.002 -491.995C734.139 -522.763 871.323 -447.198 928.063 -413.291C993.608 -374.405 1041.66 -406.186 1088.14 -436.935C1102.88 -446.692 1116.8 -455.902 1131.1 -462.724C1218.38 -504.403 1247.67 -477.906 1285.55 -429.344C1290.36 -423.17 1295.08 -416.976 1299.78 -410.822C1334.76 -364.912 1367.77 -321.572 1427.35 -301.573C1465.08 -288.84 1496.19 -280.379 1522.4 -276.371V-278.314C1496.37 -282.302 1465.48 -290.723 1427.95 -303.374C1368.95 -323.192 1336.09 -366.329 1301.29 -411.976C1296.6 -418.15 1291.88 -424.344 1287.06 -430.518C1249.72 -478.412 1218.62 -506.63 1130.27 -464.444C1115.87 -457.562 1101.89 -448.311 1087.09 -438.534C1041.1 -408.109 993.547 -376.652 929.055 -414.931C871.991 -449.02 733.997 -524.949 684.97 -493.594C651.307 -472.076 593.717 -427.562 586.267 -371.248C585.741 -367.321 585.498 -363.434 585.498 -359.547C585.498 -335.297 595.64 -311.876 615.74 -289.792C656.934 -244.651 677.338 -197.465 695.314 -155.826C716.569 -106.637 733.35 -67.7713 775.98 -56.395C797.599 -50.6259 838.591 -63.8038 881.97 -77.7712C908.407 -86.273 935.735 -95.0583 958.69 -99.37C1011.54 -109.309 1091.74 -100.949 1142.92 -59.1076C1159.03 -45.9297 1173.06 -28.3591 1186.62 -11.3553C1204.86 11.4985 1222.07 33.077 1243.06 42.9756C1271.11 56.2345 1331.31 75.4244 1371.35 77.0235C1373.78 77.1248 1376.21 77.1653 1378.64 77.1653C1427.85 77.1653 1477.16 57.7122 1522.4 34.0284V31.8827C1474.92 56.8012 1422.95 77.1653 1371.44 75.1208C1331.64 73.5216 1271.78 54.4329 1243.87 41.255C1223.28 31.5386 1206.22 10.1219 1188.12 -12.5497C1174.5 -29.6344 1160.41 -47.2859 1144.13 -60.6055C1105.18 -92.4268 1049.64 -105.078 1001.85 -105.078C986.24 -105.078 971.442 -103.722 958.345 -101.253C935.269 -96.9206 907.881 -88.1151 881.383 -79.593C838.267 -65.7269 797.559 -52.6299 776.466 -58.2371C734.726 -69.3705 718.107 -107.852 697.075 -156.575C688.047 -177.466 678.432 -199.753 665.881 -222.485C653.331 -245.218 637.865 -268.375 617.157 -291.067C594.223 -316.249 584.466 -343.131 588.15 -371.005C595.498 -426.53 652.622 -470.639 686.002 -491.995Z" fill="#F58220"/>
<path d="M708.431 -467.078C749.443 -494.446 856.526 -441.329 933.508 -399.002C955.087 -387.14 974.702 -382.464 992.96 -382.464C1028.18 -382.464 1058.4 -399.893 1087.94 -416.937C1101.4 -424.71 1114.11 -432.038 1127.35 -437.848C1209.07 -473.758 1240.97 -448.779 1277.15 -409.569C1284.53 -401.553 1291.74 -393.375 1299.37 -384.691C1335.83 -343.275 1373.52 -300.421 1426.41 -283.377C1464.11 -271.09 1495.58 -263.377 1522.4 -260.422V-262.264C1495.77 -265.199 1464.45 -272.871 1426.96 -285.098C1374.55 -301.98 1337.02 -344.631 1300.73 -385.885C1293.1 -394.569 1285.87 -402.767 1278.46 -410.784C1241.8 -450.56 1209.43 -475.883 1126.62 -439.487C1113.3 -433.637 1099.94 -425.945 1087.05 -418.496C1042.6 -392.869 996.645 -366.351 934.379 -400.581C850.433 -446.734 748.775 -496.167 707.419 -468.576C653.756 -432.747 621.429 -392.181 616.348 -354.347C615.862 -350.683 615.619 -347.02 615.619 -343.396C615.619 -321.676 624.344 -300.644 641.692 -280.685C676.205 -241.171 694.403 -199.978 710.455 -163.642C730.819 -117.53 746.912 -81.0931 787.559 -72.9151C807.883 -68.8059 844.4 -80.8502 883.043 -93.5828C910.735 -102.712 939.358 -112.165 964.074 -116.396C1018.73 -125.809 1098.89 -121.963 1144.9 -80.2227L1145.2 -80.0405C1173.69 -69.6359 1190.63 -46.1748 1207.03 -23.4829C1222.31 -2.30916 1236.76 17.6905 1259.58 26.7389C1288.42 38.1962 1344.23 54.3497 1385.26 54.3497C1387.39 54.3497 1389.47 54.3093 1391.5 54.2081C1436.78 52.2446 1480.97 35.1193 1522.4 14.4922V12.4679C1480.91 33.1963 1436.68 50.4429 1391.41 52.4267C1350.57 54.208 1289.27 36.5971 1260.24 25.0791C1237.92 16.2128 1223.6 -3.58438 1208.48 -24.5354C1191.96 -47.4095 1174.88 -71.0528 1145.97 -81.6599C1099.46 -123.744 1018.77 -127.631 963.771 -118.177C938.913 -113.906 910.229 -104.453 882.477 -95.3034C844.077 -82.6315 807.782 -70.6682 787.924 -74.6763C748.188 -82.6721 732.257 -118.724 712.095 -164.371C704.059 -182.589 695.456 -202.042 684.545 -221.9C673.634 -241.738 660.396 -262.021 643.048 -281.879C623.149 -304.753 614.769 -329.064 618.129 -354.125C623.129 -391.432 655.193 -431.532 708.431 -467.078Z" fill="#F58220"/>
<path d="M730.839 -442.139C769.523 -469.183 859.541 -424.305 938.953 -384.731C1000.43 -354.083 1045.51 -376.026 1089.11 -397.241C1100.33 -402.686 1111.91 -408.333 1123.59 -412.969C1200.43 -443.576 1233.5 -421.653 1268.74 -389.791C1280.18 -379.447 1291.74 -367.889 1303.99 -355.622C1339.78 -319.793 1380.32 -279.166 1425.46 -265.178C1462.87 -253.579 1494.81 -246.818 1522.4 -245.057V-246.737C1494.96 -248.519 1463.21 -255.239 1425.97 -266.798C1381.23 -280.664 1340.83 -321.129 1305.18 -356.816C1292.93 -369.083 1281.36 -380.682 1269.88 -391.046C1235.4 -422.179 1200.57 -445.458 1122.96 -414.548C1111.22 -409.872 1099.6 -404.224 1088.38 -398.759C1045.15 -377.707 1000.43 -355.966 939.722 -386.229C859.865 -426.026 769.381 -471.146 729.888 -443.535C695.091 -419.204 652.359 -381.067 646.367 -337.485C643.25 -314.732 650.395 -292.566 667.642 -271.595C695.435 -237.79 711.325 -202.791 725.353 -171.921C744.989 -128.683 760.494 -94.5334 799.158 -89.4121C818.307 -86.902 850.614 -97.8735 884.804 -109.493C913.427 -119.229 943.001 -129.29 969.438 -133.44C1021.38 -141.577 1099.05 -138.035 1146.97 -101.234L1147.31 -101.072C1183.93 -93.5416 1201.62 -67.7121 1218.73 -42.7327C1233.5 -21.1744 1248.77 1.1126 1276.07 10.4849C1303.26 19.8167 1354.45 32.0635 1395.93 32.0635C1401.35 32.0635 1406.6 31.861 1411.6 31.4157C1450.06 27.9542 1487.42 13.6427 1522.4 -3.09787V-4.93996C1487.34 11.8614 1449.92 26.2539 1411.45 29.7356C1368.36 33.6222 1307.21 19.3916 1276.62 8.90592C1249.86 -0.30444 1235.4 -21.3769 1220.12 -43.7044C1202.85 -68.9064 1185 -94.9586 1147.86 -102.691C1099.5 -139.715 1021.4 -143.298 969.175 -135.1C942.596 -130.93 912.941 -120.849 884.278 -111.092C850.25 -99.5334 818.145 -88.6227 799.38 -91.0923C761.628 -96.0719 746.304 -129.857 726.892 -172.609C719.847 -188.095 712.358 -204.612 703.107 -221.515C693.876 -238.397 682.905 -255.664 668.937 -272.668C652.015 -293.255 644.99 -314.995 648.047 -337.262C653.938 -380.237 696.326 -418.009 730.839 -442.139Z" fill="#F58220"/>
<path d="M753.269 -417.22C786.325 -441.471 853.996 -411.046 919.441 -381.593C927.78 -377.848 936.12 -374.083 944.42 -370.44C1005.49 -343.537 1048.14 -360.298 1093.28 -378.031C1101.89 -381.411 1110.77 -384.913 1119.82 -388.111C1185.14 -411.168 1222.01 -398.293 1260.35 -370.035C1276.84 -357.869 1294.05 -342.282 1312.25 -325.764C1348.95 -292.465 1386.92 -258.033 1424.51 -246.98C1461.29 -236.171 1493.76 -230.483 1522.41 -229.956V-231.535C1493.9 -232.041 1461.6 -237.73 1424.96 -248.499C1387.71 -259.45 1349.88 -293.761 1313.3 -326.938C1295.06 -343.477 1277.86 -359.084 1261.28 -371.31C1222.53 -399.852 1185.27 -412.888 1119.3 -389.589C1110.23 -386.391 1101.32 -382.889 1092.72 -379.508C1047.88 -361.877 1005.53 -345.238 945.047 -371.877C936.768 -375.521 928.428 -379.286 920.088 -383.031C854.239 -412.666 786.143 -443.293 752.338 -418.496C706.469 -384.832 680.943 -351.999 676.449 -320.906C673.554 -300.886 679.323 -281.251 693.574 -262.506C714.809 -234.653 728.27 -204.39 740.152 -177.69C757.986 -137.63 772.318 -105.424 803.856 -105.424C806.102 -105.424 808.451 -105.606 810.9 -105.93C825.859 -108.015 847.519 -115.08 872.619 -123.238C905.048 -133.784 941.808 -145.747 974.824 -150.464C1025.65 -157.711 1098.12 -154.108 1149.05 -122.266L1149.4 -122.145C1193.93 -117.671 1212.17 -89.716 1229.78 -62.6719C1244.92 -39.4537 1260.57 -15.4461 1292.57 -5.77021C1322.17 3.19724 1365.24 10.4238 1402.37 10.4238C1412.75 10.4238 1422.67 9.85704 1431.7 8.602C1463.66 4.16888 1493.58 -6.86327 1522.41 -19.8995V-21.6404C1493.5 -8.52318 1463.5 2.61026 1431.48 7.04338C1390.42 12.7315 1330.75 4.14866 1293.02 -7.26814C1261.56 -16.7821 1246.07 -40.5469 1231.11 -63.5222C1213.3 -90.8496 1194.9 -119.088 1149.74 -123.683C1098.47 -155.666 1025.65 -159.31 974.601 -152.023C941.444 -147.286 904.623 -135.302 872.134 -124.736C847.114 -116.598 825.495 -109.554 810.677 -107.509C775.313 -102.59 761.184 -134.351 741.589 -178.338C729.667 -205.099 716.165 -235.462 694.829 -263.458C680.842 -281.858 675.174 -301.109 678.008 -320.684C682.441 -351.351 707.764 -383.82 753.269 -417.22Z" fill="#F58220"/>
</g>
</svg>
