<svg width="16" height="16" viewBox="0 0 16 16" fill="none" xmlns="http://www.w3.org/2000/svg">
<g id="Group">
<path id="Vector" d="M15.9554 4.70136C15.9169 3.84948 15.7793 3.26661 15.5841 2.75741C15.3792 2.23219 15.1072 1.78383 14.6623 1.34187C14.2174 0.89992 13.7725 0.621297 13.2476 0.419536C12.7387 0.220977 12.1562 0.0864692 11.3048 0.0480384C10.4503 0.00960768 10.1782 0 8.00817 0C5.83493 0 5.56288 0.00960768 4.71151 0.0480384C3.86014 0.0864692 3.27762 0.224179 2.76872 0.419536C2.24061 0.6245 1.79252 0.896717 1.35083 1.34187C0.909146 1.78703 0.63069 2.23219 0.429049 2.75741C0.23381 3.26661 0.0961829 3.84948 0.0577752 4.70136C0.0193675 5.55645 0.00976562 5.82866 0.00976562 8C0.00976562 10.1745 0.0193675 10.4468 0.0577752 11.2986C0.0961829 12.1505 0.23381 12.7334 0.429049 13.2426C0.63389 13.7678 0.905945 14.2162 1.35083 14.6581C1.79252 15.1033 2.24061 15.3787 2.76552 15.5805C3.27442 15.779 3.85694 15.9135 4.70831 15.952C5.56288 15.9904 5.83493 16 8.00496 16C10.1782 16 10.4503 15.9904 11.3016 15.952C12.153 15.9135 12.7355 15.7758 13.2444 15.5805C13.7693 15.3755 14.2174 15.1033 14.6591 14.6581C15.1008 14.213 15.3792 13.7678 15.5809 13.2426C15.7793 12.7334 15.9137 12.1505 15.9522 11.2986C15.9906 10.4436 16.0002 10.1713 16.0002 8C16.0002 5.82866 15.9938 5.55324 15.9554 4.70136ZM14.5183 11.2346C14.4831 12.016 14.3518 12.442 14.243 12.7206C14.099 13.0921 13.9229 13.3611 13.6413 13.6429C13.3596 13.9247 13.094 14.0945 12.7195 14.245C12.4379 14.3539 12.0122 14.4852 11.2344 14.5204C10.3926 14.5588 10.1398 14.5685 8.00176 14.5685C5.86374 14.5685 5.61089 14.5588 4.76912 14.5204C3.98816 14.4852 3.56248 14.3539 3.28402 14.245C2.91275 14.1009 2.64389 13.9247 2.36224 13.6429C2.08058 13.3611 1.91095 13.0953 1.76052 12.7206C1.65169 12.4388 1.52047 12.0128 1.48526 11.2346C1.44685 10.3923 1.43725 10.1393 1.43725 8C1.43725 5.86069 1.44685 5.60769 1.48526 4.76541C1.52047 3.98399 1.65169 3.55805 1.76052 3.27942C1.90454 2.90793 2.08058 2.63891 2.36224 2.35709C2.64389 2.07526 2.90955 1.90552 3.28402 1.755C3.56568 1.64612 3.99136 1.51481 4.76912 1.47958C5.61089 1.44115 5.86374 1.43155 8.00176 1.43155C10.1398 1.43155 10.3926 1.44115 11.2344 1.47958C12.0154 1.51481 12.4411 1.64612 12.7195 1.755C13.0908 1.89912 13.3596 2.07526 13.6413 2.35709C13.9229 2.63891 14.0926 2.90472 14.243 3.27942C14.3518 3.56125 14.4831 3.98719 14.5183 4.76541C14.5567 5.60769 14.5663 5.86069 14.5663 8C14.5663 10.1393 14.5535 10.3923 14.5183 11.2346Z" fill="#0E0E0E"/>
<path id="Vector_2" d="M8.0022 3.88794C5.72975 3.88794 3.89258 5.72941 3.89258 8.00003C3.89258 10.2738 5.73295 12.1121 8.0022 12.1121C10.2715 12.1121 12.1118 10.2674 12.1118 8.00003C12.1118 5.72621 10.2747 3.88794 8.0022 3.88794ZM8.0022 10.6678C6.52991 10.6678 5.33607 9.47321 5.33607 8.00003C5.33607 6.52685 6.52991 5.3323 8.0022 5.3323C9.47449 5.3323 10.6683 6.52685 10.6683 8.00003C10.6683 9.47321 9.47449 10.6678 8.0022 10.6678Z" fill="#0E0E0E"/>
<path id="Vector_3" d="M12.2717 4.68863C12.802 4.68863 13.2319 4.25848 13.2319 3.72786C13.2319 3.19724 12.802 2.76709 12.2717 2.76709C11.7414 2.76709 11.3115 3.19724 11.3115 3.72786C11.3115 4.25848 11.7414 4.68863 12.2717 4.68863Z" fill="#0E0E0E"/>
</g>
</svg>
