<svg width="16" height="16" viewBox="0 0 16 16" fill="none" xmlns="http://www.w3.org/2000/svg">
<g clip-path="url(#clip0_164_658)">
<path d="M0 2.13446C0 1.61965 0.180185 1.19494 0.540541 0.860329C0.900896 0.525703 1.36937 0.358398 1.94595 0.358398C2.51223 0.358398 2.97039 0.523124 3.32046 0.852607C3.68082 1.19238 3.861 1.63509 3.861 2.18079C3.861 2.675 3.68598 3.08683 3.33591 3.41631C2.97555 3.75608 2.50193 3.92597 1.91506 3.92597H1.89961C1.33333 3.92597 0.875166 3.75608 0.525097 3.41631C0.175027 3.07655 0 2.64926 0 2.13446ZM0.200772 15.648V5.33137H3.62934V15.648H0.200772ZM5.52896 15.648H8.95753V9.88736C8.95753 9.52699 8.99872 9.24899 9.08108 9.05338C9.22522 8.70331 9.44401 8.40729 9.73745 8.16535C10.0309 7.92339 10.399 7.80241 10.8417 7.80241C11.9949 7.80241 12.5714 8.57976 12.5714 10.1345V15.648H16V9.73291C16 8.2091 15.6396 7.05338 14.9189 6.26573C14.1982 5.47809 13.2458 5.08427 12.0618 5.08427C10.7336 5.08427 9.69884 5.6557 8.95753 6.79855V6.82944H8.94209L8.95753 6.79855V5.33137H5.52896C5.54954 5.66084 5.55985 6.68529 5.55985 8.40473C5.55985 10.1242 5.54954 12.5386 5.52896 15.648Z" fill="#0E0E0E"/>
</g>
<defs>
<clipPath id="clip0_164_658">
<rect width="16" height="16" fill="white"/>
</clipPath>
</defs>
</svg>
