<svg width="22" height="20" viewBox="0 0 22 20" fill="none" xmlns="http://www.w3.org/2000/svg">
<path d="M1 3.5L7.91302 7.41697C10.4616 8.86101 11.5384 8.86101 14.087 7.41697L21 3.5" stroke="#F58220" stroke-width="1.5" stroke-linejoin="round"/>
<path d="M20.9953 8.02844C20.9299 4.96114 20.8972 3.42749 19.7655 2.29141C18.6337 1.15532 17.0586 1.11574 13.9083 1.03659C11.9668 0.987806 10.0443 0.987803 8.10276 1.03658C4.95252 1.11573 3.3774 1.1553 2.24564 2.29139C1.11389 3.42748 1.08118 4.96113 1.01577 8.02843C0.994742 9.01468 0.994742 9.99512 1.01577 10.9814C1.08119 14.0487 1.11389 15.5823 2.24565 16.7184C3.3774 17.8545 4.95252 17.8941 8.10277 17.9732C8.57102 17.985 9.03815 17.9939 9.50472 18" stroke="#F58220" stroke-width="1.5" stroke-linecap="round" stroke-linejoin="round"/>
<path d="M14.3477 18.8557L14.1909 18.1223H14.1909L14.3477 18.8557ZM13.1443 17.6523L13.8777 17.8091L13.1443 17.6523ZM14.0207 15.1117L13.4903 14.5814H13.4903L14.0207 15.1117ZM16.8883 17.9793L17.4186 18.5097L16.8883 17.9793ZM20.7963 12.4773L21.4458 12.1023L20.7963 12.4773ZM20.1961 14.6715L19.6658 14.1412L20.1961 14.6715ZM20.7963 13.9981L21.4458 14.3731L20.7963 13.9981ZM19.5227 11.2037L19.8977 10.5542V10.5542L19.5227 11.2037ZM17.3285 11.8039L17.8588 12.3342L17.3285 11.8039ZM18.0019 11.2037L17.6269 10.5542V10.5542L18.0019 11.2037ZM19.6658 14.1412L16.358 17.449L17.4186 18.5097L20.7265 15.2018L19.6658 14.1412ZM14.551 15.642L17.8588 12.3342L16.7982 11.2735L13.4903 14.5814L14.551 15.642ZM14.1909 18.1223C14.0155 18.1598 13.8753 18.1897 13.7548 18.2121C13.6333 18.2347 13.5536 18.2454 13.4996 18.2488C13.4441 18.2524 13.4479 18.2458 13.4825 18.2547C13.5296 18.2669 13.5936 18.2972 13.6482 18.3518L12.5876 19.4124C12.9113 19.7362 13.3158 19.7636 13.5948 19.7458C13.8603 19.7289 14.1839 19.6577 14.5045 19.5891L14.1909 18.1223ZM12.4109 17.4955C12.3423 17.8161 12.2711 18.1397 12.2542 18.4052C12.2364 18.6842 12.2638 19.0887 12.5876 19.4124L13.6482 18.3518C13.7028 18.4064 13.7331 18.4704 13.7453 18.5175C13.7542 18.5521 13.7476 18.5559 13.7512 18.5004C13.7546 18.4464 13.7653 18.3667 13.7879 18.2452C13.8103 18.1247 13.8402 17.9845 13.8777 17.8091L12.4109 17.4955ZM19.6658 12.3342C20.0333 12.7017 20.1084 12.786 20.1467 12.8523L21.4458 12.1023C21.2839 11.8218 21.0257 11.5728 20.7265 11.2735L19.6658 12.3342ZM20.7265 15.2018C21.0257 14.9026 21.2839 14.6535 21.4458 14.3731L20.1467 13.6231C20.1084 13.6894 20.0333 13.7737 19.6658 14.1412L20.7265 15.2018ZM20.1467 12.8523C20.2844 13.0908 20.2844 13.3846 20.1467 13.6231L21.4458 14.3731C21.8514 13.6705 21.8514 12.8049 21.4458 12.1023L20.1467 12.8523ZM20.7265 11.2735C20.4272 10.9743 20.1782 10.7161 19.8977 10.5542L19.1477 11.8533C19.214 11.8916 19.2983 11.9667 19.6658 12.3342L20.7265 11.2735ZM17.8588 12.3342C18.2263 11.9667 18.3106 11.8916 18.3769 11.8533L17.6269 10.5542C17.3465 10.7161 17.0974 10.9743 16.7982 11.2735L17.8588 12.3342ZM19.8977 10.5542C19.1951 10.1486 18.3295 10.1486 17.6269 10.5542L18.3769 11.8533C18.6154 11.7156 18.9092 11.7156 19.1477 11.8533L19.8977 10.5542ZM16.358 17.449C16.1624 17.6445 15.8952 17.771 15.5155 17.8679C15.3253 17.9165 15.1224 17.954 14.8963 17.9931C14.679 18.0306 14.4303 18.0711 14.1909 18.1223L14.5045 19.5891C14.7063 19.546 14.9131 19.5124 15.1517 19.4712C15.3814 19.4315 15.6346 19.3856 15.8866 19.3213C16.3914 19.1924 16.9533 18.975 17.4186 18.5097L16.358 17.449ZM13.8777 17.8091C13.9289 17.5697 13.9694 17.321 14.0069 17.1037C14.046 16.8776 14.0835 16.6747 14.1321 16.4845C14.229 16.1048 14.3555 15.8376 14.551 15.642L13.4903 14.5814C13.025 15.0467 12.8076 15.6086 12.6787 16.1134C12.6144 16.3654 12.5685 16.6186 12.5288 16.8483C12.4876 17.0869 12.454 17.2937 12.4109 17.4955L13.8777 17.8091Z" fill="#F58220"/>
</svg>
